<?xml version="1.0" encoding="UTF-8" standalone="no"?>
<svg
   xmlns:dc="http://purl.org/dc/elements/1.1/"
   xmlns:cc="http://creativecommons.org/ns#"
   xmlns:rdf="http://www.w3.org/1999/02/22-rdf-syntax-ns#"
   xmlns:svg="http://www.w3.org/2000/svg"
   xmlns="http://www.w3.org/2000/svg"
   xmlns:sodipodi="http://sodipodi.sourceforge.net/DTD/sodipodi-0.dtd"
   xmlns:inkscape="http://www.inkscape.org/namespaces/inkscape"
   version="1.1"
   viewBox="0 0 959.89186 240.2923"
   stroke-miterlimit="10"
   id="svg3579"
   inkscape:version="0.48.4 r9939"
   width="100%"
   height="100%"
   sodipodi:docname="example_site_length_2.svg"
   style="fill:none;stroke:none">
  <metadata
     id="metadata3710">
    <rdf:RDF>
      <cc:Work
         rdf:about="">
        <dc:format>image/svg+xml</dc:format>
        <dc:type
           rdf:resource="http://purl.org/dc/dcmitype/StillImage" />
      </cc:Work>
    </rdf:RDF>
  </metadata>
  <defs
     id="defs3708">
    <clipPath
       clipPathUnits="userSpaceOnUse"
       id="clipPath3730">
      <rect
         style="fill:none;stroke:#000000;stroke-width:0.96194947;stroke-opacity:1"
         id="rect3732"
         width="959.91089"
         height="240.2923"
         x="-0.019024774"
         y="160.15048" />
    </clipPath>
  </defs>
  <sodipodi:namedview
     pagecolor="#ffffff"
     bordercolor="#666666"
     borderopacity="1"
     objecttolerance="10"
     gridtolerance="10"
     guidetolerance="10"
     inkscape:pageopacity="0"
     inkscape:pageshadow="2"
     inkscape:window-width="1280"
     inkscape:window-height="744"
     id="namedview3706"
     showgrid="false"
     fit-margin-top="0"
     fit-margin-left="0"
     fit-margin-right="0"
     fit-margin-bottom="0"
     inkscape:zoom="0.87407407"
     inkscape:cx="480"
     inkscape:cy="130.44278"
     inkscape:window-x="-4"
     inkscape:window-y="-4"
     inkscape:window-maximized="1"
     inkscape:current-layer="svg3579" />
  <clipPath
     id="g2c2423894_2179.0">
    <path
       d="M 0,0 960,0 960,540 0,540 0,0 z"
       clip-rule="nonzero"
       id="path3582"
       inkscape:connector-curvature="0" />
  </clipPath>
  <g
     clip-path="url(#clipPath3730)"
     id="g3584"
     transform="translate(0,-160.15048)">
    <path
       d="m 0,0 960,0 0,540 -960,0 z"
       id="path3586"
       inkscape:connector-curvature="0"
       style="fill:#ffffff;fill-rule:nonzero" />
    <path
       d="m 2.9173229,162.51706 0,85.19685"
       id="path3588"
       inkscape:connector-curvature="0"
       style="stroke:#000000;stroke-width:1;stroke-linecap:butt" />
    <path
       d="m 2.9173229,288.91077 0,109.39108"
       id="path3590"
       inkscape:connector-curvature="0"
       style="stroke:#000000;stroke-width:1;stroke-linecap:butt" />
    <path
       d="m 65.402885,162.51706 0,85.19685"
       id="path3592"
       inkscape:connector-curvature="0"
       style="stroke:#000000;stroke-width:4;stroke-linecap:butt" />
    <path
       d="m 65.402885,288.91077 0,109.39108"
       id="path3594"
       inkscape:connector-curvature="0"
       style="stroke:#000000;stroke-width:4;stroke-linecap:butt" />
    <path
       d="m 133.99344,288.91077 0,68.19421"
       id="path3596"
       inkscape:connector-curvature="0"
       style="stroke:#ff00ff;stroke-width:4;stroke-linecap:butt" />
    <path
       d="m 202.58398,288.91077 0,68.19421"
       id="path3598"
       inkscape:connector-curvature="0"
       style="stroke:#ff00ff;stroke-width:4;stroke-linecap:butt" />
    <path
       d="m 271.17453,162.51706 0,86.19423"
       id="path3600"
       inkscape:connector-curvature="0"
       style="stroke:#ff00ff;stroke-width:4;stroke-linecap:butt" />
    <path
       d="m 271.17453,288.91077 0,109.39108"
       id="path3602"
       inkscape:connector-curvature="0"
       style="stroke:#ff00ff;stroke-width:4;stroke-linecap:butt" />
    <path
       d="m 339.7651,288.91077 0,68.19421"
       id="path3604"
       inkscape:connector-curvature="0"
       style="stroke:#ff00ff;stroke-width:4;stroke-linecap:butt" />
    <path
       d="m 408.35565,162.51706 0,86.19423"
       id="path3606"
       inkscape:connector-curvature="0"
       style="stroke:#ff00ff;stroke-width:4;stroke-linecap:butt" />
    <path
       d="m 408.35565,288.91077 0,109.39108"
       id="path3608"
       inkscape:connector-curvature="0"
       style="stroke:#ff00ff;stroke-width:4;stroke-linecap:butt" />
    <path
       d="m 545.53674,288.91077 0,68.19421"
       id="path3610"
       inkscape:connector-curvature="0"
       style="stroke:#ff00ff;stroke-width:4;stroke-linecap:butt" />
    <path
       d="m 682.71783,288.91077 0,68.19421"
       id="path3612"
       inkscape:connector-curvature="0"
       style="stroke:#ff00ff;stroke-width:4;stroke-linecap:butt" />
    <path
       d="m 957.0801,162.51706 0,85.19685"
       id="path3614"
       inkscape:connector-curvature="0"
       style="stroke:#000000;stroke-width:1;stroke-linecap:butt" />
    <path
       d="m 957.0801,288.91077 0,109.39108"
       id="path3616"
       inkscape:connector-curvature="0"
       style="stroke:#000000;stroke-width:1;stroke-linecap:butt" />
    <path
       d="m 2.4186351,163.01575 955.1601049,0"
       id="path3618"
       inkscape:connector-curvature="0"
       style="stroke:#000000;stroke-width:1;stroke-linecap:butt" />
    <path
       d="m 2.4186351,248.2126 955.1601049,0"
       id="path3620"
       inkscape:connector-curvature="0"
       style="stroke:#000000;stroke-width:1;stroke-linecap:butt" />
    <path
       d="m 2.4186351,289.40945 955.1601049,0"
       id="path3622"
       inkscape:connector-curvature="0"
       style="stroke:#000000;stroke-width:1;stroke-linecap:butt" />
    <path
       d="m 2.4186351,356.6063 955.1601049,0"
       id="path3624"
       inkscape:connector-curvature="0"
       style="stroke:#000000;stroke-width:1;stroke-linecap:butt" />
    <path
       d="m 2.4186351,397.80316 955.1601049,0"
       id="path3626"
       inkscape:connector-curvature="0"
       style="stroke:#000000;stroke-width:1;stroke-linecap:butt" />
    <path
       d="m 17.487803,212.53418 0,-13.59375 1.671875,0 0,13.59375 -1.671875,0 z m 18.140627,-8 -8.968752,0 0,-1.5625 8.968752,0 0,1.5625 z m 0,4.125 -8.968752,0 0,-1.54688 8.968752,0 0,1.54688 z m 13.125137,3.875 -1.671875,0 0,-10.64063 q -0.59375,0.57813 -1.578125,1.15625 -0.984375,0.5625 -1.765625,0.85938 l 0,-1.625 q 1.40625,-0.65625 2.453125,-1.59375 1.046875,-0.9375 1.484375,-1.8125 l 1.078125,0 0,13.65625 z"
       id="path3628"
       inkscape:connector-curvature="0"
       style="fill:#000000;fill-rule:nonzero" />
    <path
       d="m 139.31282,187.59666 1.65625,-0.26562 q 0.14062,1 0.76562,1.53125 0.64063,0.51562 1.78125,0.51562 1.15625,0 1.70313,-0.46875 0.5625,-0.46875 0.5625,-1.09375 0,-0.5625 -0.48438,-0.89062 -0.34375,-0.21875 -1.70312,-0.5625 -1.84375,-0.46875 -2.5625,-0.79688 -0.70313,-0.34375 -1.07813,-0.9375 -0.35937,-0.60937 -0.35937,-1.32812 0,-0.65625 0.29687,-1.21875 0.3125,-0.5625 0.82813,-0.9375 0.39062,-0.28125 1.0625,-0.48438 0.67187,-0.20312 1.4375,-0.20312 1.17187,0 2.04687,0.34375 0.875,0.32812 1.28125,0.90625 0.42188,0.5625 0.57813,1.51562 l -1.625,0.21875 q -0.10938,-0.75 -0.65625,-1.17187 -0.53125,-0.4375 -1.5,-0.4375 -1.15625,0 -1.64063,0.39062 -0.48437,0.375 -0.48437,0.875 0,0.32813 0.20312,0.59375 0.20313,0.26563 0.64063,0.4375 0.25,0.0937 1.46875,0.4375 1.76562,0.46875 2.46875,0.76563 0.70312,0.29687 1.09375,0.875 0.40625,0.57812 0.40625,1.4375 0,0.82812 -0.48438,1.57812 -0.48437,0.73438 -1.40625,1.14063 -0.92187,0.39062 -2.07812,0.39062 -1.92188,0 -2.9375,-0.79687 -1,-0.79688 -1.28125,-2.35938 z m 16.75,-0.23437 1.71875,0.21875 q -0.40625,1.5 -1.51563,2.34375 -1.09375,0.82812 -2.8125,0.82812 -2.15625,0 -3.42187,-1.32812 -1.26563,-1.32813 -1.26563,-3.73438 0,-2.48437 1.26563,-3.85937 1.28125,-1.375 3.32812,-1.375 1.98438,0 3.23438,1.34375 1.25,1.34375 1.25,3.79687 0,0.14063 -0.0156,0.4375 l -7.34375,0 q 0.0937,1.625 0.92188,2.48438 0.82812,0.85937 2.0625,0.85937 0.90625,0 1.54687,-0.46875 0.65625,-0.48437 1.04688,-1.54687 z m -5.48438,-2.70313 5.5,0 q -0.10937,-1.23437 -0.625,-1.85937 -0.79687,-0.96875 -2.07812,-0.96875 -1.14063,0 -1.9375,0.78125 -0.78125,0.76562 -0.85938,2.04687 z m 8.81322,6.6875 1.60938,0.25 q 0.10937,0.75 0.57812,1.09375 0.60938,0.45313 1.6875,0.45313 1.17188,0 1.79688,-0.46875 0.625,-0.45313 0.85937,-1.28125 0.125,-0.51563 0.10938,-2.15625 -1.09375,1.29687 -2.71875,1.29687 -2.03125,0 -3.15625,-1.46875 -1.10938,-1.46875 -1.10938,-3.51562 0,-1.40625 0.51563,-2.59375 0.51562,-1.20313 1.48437,-1.84375 0.96875,-0.65625 2.26563,-0.65625 1.75,0 2.875,1.40625 l 0,-1.1875 1.54687,0 0,8.51562 q 0,2.3125 -0.46875,3.26563 -0.46875,0.96875 -1.48437,1.51562 -1.01563,0.5625 -2.5,0.5625 -1.76563,0 -2.85938,-0.79687 -1.07812,-0.79688 -1.03125,-2.39063 z m 1.375,-5.92187 q 0,1.95312 0.76563,2.84375 0.78125,0.89062 1.9375,0.89062 1.14062,0 1.92187,-0.89062 0.78125,-0.89063 0.78125,-2.78125 0,-1.8125 -0.8125,-2.71875 -0.79687,-0.92188 -1.92187,-0.92188 -1.10938,0 -1.89063,0.90625 -0.78125,0.89063 -0.78125,2.67188 z"
       id="path3630"
       inkscape:connector-curvature="0"
       style="fill:#000000;fill-rule:nonzero" />
    <path
       d="m 171.62675,200.06543 q -0.875,-1.10938 -1.48438,-2.57813 -0.59375,-1.48437 -0.59375,-3.0625 0,-1.39062 0.4375,-2.67187 0.53125,-1.48438 1.64063,-2.95313 l 0.75,0 q -0.70313,1.21875 -0.9375,1.73438 -0.35938,0.8125 -0.5625,1.6875 -0.25,1.09375 -0.25,2.20312 0,2.82813 1.75,5.64063 l -0.75,0 z m 5.79797,-2.53125 -1.04687,0 0,-6.71875 q -0.39063,0.35937 -1.01563,0.73437 -0.60937,0.35938 -1.09375,0.53125 l 0,-1.01562 q 0.875,-0.42188 1.53125,-1 0.67188,-0.59375 0.95313,-1.15625 l 0.67187,0 0,8.625 z m 3.51079,0 0,-1.20313 1.20313,0 0,1.20313 q 0,0.65625 -0.23438,1.0625 -0.23437,0.42187 -0.73437,0.64062 l -0.29688,-0.45312 q 0.32813,-0.14063 0.48438,-0.4375 0.15625,-0.28125 0.1875,-0.8125 l -0.60938,0 z m 10.31722,0 -1.04688,0 0,-6.71875 q -0.39062,0.35937 -1.01562,0.73437 -0.60938,0.35938 -1.09375,0.53125 l 0,-1.01562 q 0.875,-0.42188 1.53125,-1 0.67187,-0.59375 0.95312,-1.15625 l 0.67188,0 0,8.625 z m 3.93266,2.53125 -0.75,0 q 1.75,-2.8125 1.75,-5.64063 0,-1.09375 -0.25,-2.1875 -0.20313,-0.875 -0.5625,-1.6875 -0.23438,-0.51562 -0.9375,-1.75 l 0.75,0 q 1.09375,1.46875 1.625,2.95313 0.45312,1.28125 0.45312,2.67187 0,1.57813 -0.60937,3.0625 -0.60938,1.46875 -1.46875,2.57813 z"
       id="path3632"
       inkscape:connector-curvature="0"
       style="fill:#000000;fill-rule:nonzero" />
    <path
       d="m 141.24069,234.53418 0,-13.59375 1.67187,0 0,13.59375 -1.67187,0 z m 10.92607,-3.17188 1.71875,0.21875 q -0.40625,1.5 -1.51562,2.34375 -1.09375,0.82813 -2.8125,0.82813 -2.15625,0 -3.42188,-1.32813 -1.26562,-1.32812 -1.26562,-3.73437 0,-2.48438 1.26562,-3.85938 1.28125,-1.375 3.32813,-1.375 1.98437,0 3.23437,1.34375 1.25,1.34375 1.25,3.79688 0,0.14062 -0.0156,0.4375 l -7.34375,0 q 0.0937,1.625 0.92187,2.48437 0.82813,0.85938 2.0625,0.85938 0.90625,0 1.54688,-0.46875 0.65625,-0.48438 1.04687,-1.54688 z m -5.48437,-2.70312 5.5,0 q -0.10938,-1.23438 -0.625,-1.85938 -0.79688,-0.96875 -2.07813,-0.96875 -1.14062,0 -1.9375,0.78125 -0.78125,0.76563 -0.85937,2.04688 z m 9.11009,5.875 0,-9.85938 1.5,0 0,1.40625 q 1.09375,-1.625 3.14062,-1.625 0.89063,0 1.64063,0.32813 0.75,0.3125 1.10937,0.84375 0.375,0.51562 0.53125,1.21875 0.0937,0.46875 0.0937,1.625 l 0,6.0625 -1.67187,0 0,-6 q 0,-1.01563 -0.20313,-1.51563 -0.1875,-0.51562 -0.6875,-0.8125 -0.5,-0.29687 -1.17187,-0.29687 -1.0625,0 -1.84375,0.67187 -0.76563,0.67188 -0.76563,2.57813 l 0,5.375 -1.67187,0 z m 24.34027,-8 -8.96875,0 0,-1.5625 8.96875,0 0,1.5625 z m 0,4.125 -8.96875,0 0,-1.54688 8.96875,0 0,1.54688 z m 6.84389,0.28125 1.67187,-0.21875 q 0.28125,1.42187 0.96875,2.04687 0.70313,0.625 1.6875,0.625 1.1875,0 2,-0.8125 0.81252,-0.82812 0.81252,-2.03125 0,-1.14062 -0.76564,-1.89062 -0.75,-0.75 -1.90625,-0.75 -0.46875,0 -1.17188,0.1875 l 0.1875,-1.46875 q 0.15625,0.0156 0.26563,0.0156 1.0625,0 1.90625,-0.54687 0.85939,-0.5625 0.85939,-1.71875 0,-0.92188 -0.62502,-1.51563 -0.60937,-0.60937 -1.59375,-0.60937 -0.96875,0 -1.625,0.60937 -0.64062,0.60938 -0.82812,1.84375 l -1.67188,-0.29687 q 0.29688,-1.6875 1.375,-2.60938 1.09375,-0.92187 2.71875,-0.92187 1.10938,0 2.04688,0.48437 0.93751,0.46875 1.42189,1.29688 0.5,0.82812 0.5,1.75 0,0.89062 -0.46875,1.60937 -0.46875,0.71875 -1.40627,1.15625 1.21877,0.26563 1.87502,1.15625 0.67187,0.875 0.67187,2.1875 0,1.78125 -1.29687,3.01563 -1.29689,1.23437 -3.28127,1.23437 -1.79687,0 -2.98437,-1.0625 -1.17188,-1.0625 -1.34375,-2.76562 z"
       id="path3634"
       inkscape:connector-curvature="0"
       style="fill:#000000;fill-rule:nonzero" />
    <path
       d="m 310.78918,187.59666 1.65625,-0.26562 q 0.14062,1 0.76562,1.53125 0.64063,0.51562 1.78125,0.51562 1.15625,0 1.70313,-0.46875 0.5625,-0.46875 0.5625,-1.09375 0,-0.5625 -0.48438,-0.89062 -0.34375,-0.21875 -1.70312,-0.5625 -1.84375,-0.46875 -2.5625,-0.79688 -0.70313,-0.34375 -1.07813,-0.9375 -0.35937,-0.60937 -0.35937,-1.32812 0,-0.65625 0.29687,-1.21875 0.3125,-0.5625 0.82813,-0.9375 0.39062,-0.28125 1.0625,-0.48438 0.67187,-0.20312 1.4375,-0.20312 1.17187,0 2.04687,0.34375 0.875,0.32812 1.28125,0.90625 0.42188,0.5625 0.57813,1.51562 l -1.625,0.21875 q -0.10938,-0.75 -0.65625,-1.17187 -0.53125,-0.4375 -1.5,-0.4375 -1.15625,0 -1.64063,0.39062 -0.48437,0.375 -0.48437,0.875 0,0.32813 0.20312,0.59375 0.20313,0.26563 0.64063,0.4375 0.25,0.0937 1.46875,0.4375 1.76562,0.46875 2.46875,0.76563 0.70312,0.29687 1.09375,0.875 0.40625,0.57812 0.40625,1.4375 0,0.82812 -0.48438,1.57812 -0.48437,0.73438 -1.40625,1.14063 -0.92187,0.39062 -2.07812,0.39062 -1.92188,0 -2.9375,-0.79687 -1,-0.79688 -1.28125,-2.35938 z m 16.75,-0.23437 1.71875,0.21875 q -0.40625,1.5 -1.51563,2.34375 -1.09375,0.82812 -2.8125,0.82812 -2.15625,0 -3.42187,-1.32812 -1.26563,-1.32813 -1.26563,-3.73438 0,-2.48437 1.26563,-3.85937 1.28125,-1.375 3.32812,-1.375 1.98438,0 3.23438,1.34375 1.25,1.34375 1.25,3.79687 0,0.14063 -0.0156,0.4375 l -7.34375,0 q 0.0937,1.625 0.92188,2.48438 0.82812,0.85937 2.0625,0.85937 0.90625,0 1.54687,-0.46875 0.65625,-0.48437 1.04688,-1.54687 z m -5.48438,-2.70313 5.5,0 q -0.10937,-1.23437 -0.625,-1.85937 -0.79687,-0.96875 -2.07812,-0.96875 -1.14063,0 -1.9375,0.78125 -0.78125,0.76562 -0.85938,2.04687 z m 8.81324,6.6875 1.60937,0.25 q 0.10938,0.75 0.57813,1.09375 0.60937,0.45313 1.6875,0.45313 1.17187,0 1.79687,-0.46875 0.625,-0.45313 0.85938,-1.28125 0.125,-0.51563 0.10937,-2.15625 -1.09375,1.29687 -2.71875,1.29687 -2.03125,0 -3.15625,-1.46875 -1.10937,-1.46875 -1.10937,-3.51562 0,-1.40625 0.51562,-2.59375 0.51563,-1.20313 1.48438,-1.84375 0.96875,-0.65625 2.26562,-0.65625 1.75,0 2.875,1.40625 l 0,-1.1875 1.54688,0 0,8.51562 q 0,2.3125 -0.46875,3.26563 -0.46875,0.96875 -1.48438,1.51562 -1.01562,0.5625 -2.5,0.5625 -1.76562,0 -2.85937,-0.79687 -1.07813,-0.79688 -1.03125,-2.39063 z m 1.375,-5.92187 q 0,1.95312 0.76562,2.84375 0.78125,0.89062 1.9375,0.89062 1.14063,0 1.92188,-0.89062 0.78125,-0.89063 0.78125,-2.78125 0,-1.8125 -0.8125,-2.71875 -0.79688,-0.92188 -1.92188,-0.92188 -1.10937,0 -1.89062,0.90625 -0.78125,0.89063 -0.78125,2.67188 z"
       id="path3636"
       inkscape:connector-curvature="0"
       style="fill:#000000;fill-rule:nonzero" />
    <path
       d="m 343.10312,200.06543 q -0.875,-1.10938 -1.48438,-2.57813 -0.59375,-1.48437 -0.59375,-3.0625 0,-1.39062 0.4375,-2.67187 0.53125,-1.48438 1.64063,-2.95313 l 0.75,0 q -0.70313,1.21875 -0.9375,1.73438 -0.35938,0.8125 -0.5625,1.6875 -0.25,1.09375 -0.25,2.20312 0,2.82813 1.75,5.64063 l -0.75,0 z m 5.79797,-2.53125 -1.04687,0 0,-6.71875 q -0.39063,0.35937 -1.01563,0.73437 -0.60937,0.35938 -1.09375,0.53125 l 0,-1.01562 q 0.875,-0.42188 1.53125,-1 0.67188,-0.59375 0.95313,-1.15625 l 0.67187,0 0,8.625 z m 3.51081,0 0,-1.20313 1.20312,0 0,1.20313 q 0,0.65625 -0.23437,1.0625 -0.23438,0.42187 -0.73438,0.64062 l -0.29687,-0.45312 q 0.32812,-0.14063 0.48437,-0.4375 0.15625,-0.28125 0.1875,-0.8125 l -0.60937,0 z m 11.89532,-1.01563 0,1.01563 -5.6875,0 q 0,-0.375 0.125,-0.73438 0.21875,-0.57812 0.6875,-1.14062 0.48438,-0.5625 1.39063,-1.29688 1.40625,-1.15625 1.89062,-1.82812 0.5,-0.67188 0.5,-1.26563 0,-0.625 -0.45312,-1.04687 -0.45313,-0.4375 -1.17188,-0.4375 -0.76562,0 -1.21875,0.45312 -0.45312,0.45313 -0.46875,1.26563 l -1.07812,-0.10938 q 0.10937,-1.21875 0.82812,-1.84375 0.73438,-0.64062 1.96875,-0.64062 1.23438,0 1.95313,0.6875 0.71875,0.6875 0.71875,1.70312 0,0.51563 -0.21875,1.01563 -0.20313,0.48437 -0.70313,1.04687 -0.48437,0.54688 -1.60937,1.5 -0.95313,0.79688 -1.23438,1.09375 -0.26562,0.28125 -0.4375,0.5625 l 4.21875,0 z m 2.35455,3.54688 -0.75,0 q 1.75,-2.8125 1.75,-5.64063 0,-1.09375 -0.25,-2.1875 -0.20312,-0.875 -0.5625,-1.6875 -0.23437,-0.51562 -0.9375,-1.75 l 0.75,0 q 1.09375,1.46875 1.625,2.95313 0.45313,1.28125 0.45313,2.67187 0,1.57813 -0.60938,3.0625 -0.60937,1.46875 -1.46875,2.57813 z"
       id="path3638"
       inkscape:connector-curvature="0"
       style="fill:#000000;fill-rule:nonzero" />
    <path
       d="m 312.71707,234.53418 0,-13.59375 1.67187,0 0,13.59375 -1.67187,0 z m 10.92606,-3.17188 1.71875,0.21875 q -0.40625,1.5 -1.51563,2.34375 -1.09375,0.82813 -2.8125,0.82813 -2.15625,0 -3.42187,-1.32813 -1.26563,-1.32812 -1.26563,-3.73437 0,-2.48438 1.26563,-3.85938 1.28125,-1.375 3.32812,-1.375 1.98438,0 3.23438,1.34375 1.25,1.34375 1.25,3.79688 0,0.14062 -0.0156,0.4375 l -7.34375,0 q 0.0937,1.625 0.92188,2.48437 0.82812,0.85938 2.0625,0.85938 0.90625,0 1.54687,-0.46875 0.65625,-0.48438 1.04688,-1.54688 z m -5.48438,-2.70312 5.5,0 q -0.10937,-1.23438 -0.625,-1.85938 -0.79687,-0.96875 -2.07812,-0.96875 -1.14063,0 -1.9375,0.78125 -0.78125,0.76563 -0.85938,2.04688 z m 9.11011,5.875 0,-9.85938 1.5,0 0,1.40625 q 1.09375,-1.625 3.14062,-1.625 0.89063,0 1.64063,0.32813 0.75,0.3125 1.10937,0.84375 0.375,0.51562 0.53125,1.21875 0.0937,0.46875 0.0937,1.625 l 0,6.0625 -1.67187,0 0,-6 q 0,-1.01563 -0.20313,-1.51563 -0.1875,-0.51562 -0.6875,-0.8125 -0.5,-0.29687 -1.17187,-0.29687 -1.0625,0 -1.84375,0.67187 -0.76563,0.67188 -0.76563,2.57813 l 0,5.375 -1.67187,0 z m 24.34027,-8 -8.96875,0 0,-1.5625 8.96875,0 0,1.5625 z m 0,4.125 -8.96875,0 0,-1.54688 8.96875,0 0,1.54688 z m 15.6095,2.26562 0,1.60938 -8.98438,0 q -0.0156,-0.60938 0.1875,-1.15625 0.34375,-0.92188 1.09375,-1.8125 0.76563,-0.89063 2.1875,-2.0625 2.21875,-1.8125 3,-2.875 0.78125,-1.0625 0.78125,-2.01563 0,-0.98437 -0.71875,-1.67187 -0.70312,-0.6875 -1.84375,-0.6875 -1.20312,0 -1.9375,0.73437 -0.71875,0.71875 -0.71875,2 l -1.71875,-0.17187 q 0.17188,-1.92188 1.32813,-2.92188 1.15625,-1.01562 3.09375,-1.01562 1.95312,0 3.09375,1.09375 1.14062,1.07812 1.14062,2.6875 0,0.8125 -0.34375,1.60937 -0.32812,0.78125 -1.10937,1.65625 -0.76563,0.85938 -2.5625,2.39063 -1.5,1.26562 -1.9375,1.71875 -0.42188,0.4375 -0.70313,0.89062 l 6.67188,0 z"
       id="path3640"
       inkscape:connector-curvature="0"
       style="fill:#000000;fill-rule:nonzero" />
    <path
       d="m 653.74194,187.59666 1.65625,-0.26562 q 0.14062,1 0.76562,1.53125 0.64063,0.51562 1.78125,0.51562 1.15625,0 1.70313,-0.46875 0.5625,-0.46875 0.5625,-1.09375 0,-0.5625 -0.48438,-0.89062 -0.34375,-0.21875 -1.70312,-0.5625 -1.84375,-0.46875 -2.5625,-0.79688 -0.70313,-0.34375 -1.07813,-0.9375 -0.35937,-0.60937 -0.35937,-1.32812 0,-0.65625 0.29687,-1.21875 0.3125,-0.5625 0.82813,-0.9375 0.39062,-0.28125 1.0625,-0.48438 0.67187,-0.20312 1.4375,-0.20312 1.17187,0 2.04687,0.34375 0.875,0.32812 1.28125,0.90625 0.42188,0.5625 0.57813,1.51562 l -1.625,0.21875 q -0.10938,-0.75 -0.65625,-1.17187 -0.53125,-0.4375 -1.5,-0.4375 -1.15625,0 -1.64063,0.39062 -0.48437,0.375 -0.48437,0.875 0,0.32813 0.20312,0.59375 0.20313,0.26563 0.64063,0.4375 0.25,0.0937 1.46875,0.4375 1.76562,0.46875 2.46875,0.76563 0.70312,0.29687 1.09375,0.875 0.40625,0.57812 0.40625,1.4375 0,0.82812 -0.48438,1.57812 -0.48437,0.73438 -1.40625,1.14063 -0.92187,0.39062 -2.07812,0.39062 -1.92188,0 -2.9375,-0.79687 -1,-0.79688 -1.28125,-2.35938 z m 16.75,-0.23437 1.71875,0.21875 q -0.40625,1.5 -1.51563,2.34375 -1.09375,0.82812 -2.8125,0.82812 -2.15625,0 -3.42187,-1.32812 -1.26563,-1.32813 -1.26563,-3.73438 0,-2.48437 1.26563,-3.85937 1.28125,-1.375 3.32812,-1.375 1.98438,0 3.23438,1.34375 1.25,1.34375 1.25,3.79687 0,0.14063 -0.0156,0.4375 l -7.34375,0 q 0.0937,1.625 0.92188,2.48438 0.82812,0.85937 2.0625,0.85937 0.90625,0 1.54687,-0.46875 0.65625,-0.48437 1.04688,-1.54687 z m -5.48438,-2.70313 5.5,0 q -0.10937,-1.23437 -0.625,-1.85937 -0.79687,-0.96875 -2.07812,-0.96875 -1.14063,0 -1.9375,0.78125 -0.78125,0.76562 -0.85938,2.04687 z m 8.81324,6.6875 1.60937,0.25 q 0.10938,0.75 0.57813,1.09375 0.60937,0.45313 1.6875,0.45313 1.17187,0 1.79687,-0.46875 0.625,-0.45313 0.85938,-1.28125 0.125,-0.51563 0.10937,-2.15625 -1.09375,1.29687 -2.71875,1.29687 -2.03125,0 -3.15625,-1.46875 -1.10937,-1.46875 -1.10937,-3.51562 0,-1.40625 0.51562,-2.59375 0.51563,-1.20313 1.48438,-1.84375 0.96875,-0.65625 2.26562,-0.65625 1.75,0 2.875,1.40625 l 0,-1.1875 1.54688,0 0,8.51562 q 0,2.3125 -0.46875,3.26563 -0.46875,0.96875 -1.48438,1.51562 -1.01562,0.5625 -2.5,0.5625 -1.76562,0 -2.85937,-0.79687 -1.07813,-0.79688 -1.03125,-2.39063 z m 1.375,-5.92187 q 0,1.95312 0.76562,2.84375 0.78125,0.89062 1.9375,0.89062 1.14063,0 1.92188,-0.89062 0.78125,-0.89063 0.78125,-2.78125 0,-1.8125 -0.8125,-2.71875 -0.79688,-0.92188 -1.92188,-0.92188 -1.10937,0 -1.89062,0.90625 -0.78125,0.89063 -0.78125,2.67188 z"
       id="path3642"
       inkscape:connector-curvature="0"
       style="fill:#000000;fill-rule:nonzero" />
    <path
       d="m 686.0559,200.06543 q -0.875,-1.10938 -1.48438,-2.57813 -0.59375,-1.48437 -0.59375,-3.0625 0,-1.39062 0.4375,-2.67187 0.53125,-1.48438 1.64063,-2.95313 l 0.75,0 q -0.70313,1.21875 -0.9375,1.73438 -0.35938,0.8125 -0.5625,1.6875 -0.25,1.09375 -0.25,2.20312 0,2.82813 1.75,5.64063 l -0.75,0 z m 5.79797,-2.53125 -1.04687,0 0,-6.71875 q -0.39063,0.35937 -1.01563,0.73437 -0.60937,0.35938 -1.09375,0.53125 l 0,-1.01562 q 0.875,-0.42188 1.53125,-1 0.67188,-0.59375 0.95313,-1.15625 l 0.67187,0 0,8.625 z m 3.51075,0 0,-1.20313 1.20312,0 0,1.20313 q 0,0.65625 -0.23437,1.0625 -0.23438,0.42187 -0.73438,0.64062 l -0.29687,-0.45312 q 0.32812,-0.14063 0.48437,-0.4375 0.15625,-0.28125 0.1875,-0.8125 l -0.60937,0 z m 6.34851,-2.26563 1.0625,-0.14062 q 0.17187,0.89062 0.60937,1.29687 0.4375,0.39063 1.0625,0.39063 0.75,0 1.26563,-0.51563 0.51562,-0.51562 0.51562,-1.28125 0,-0.71875 -0.48437,-1.1875 -0.46875,-0.48437 -1.20313,-0.48437 -0.29687,0 -0.75,0.125 l 0.125,-0.9375 q 0.10938,0.0156 0.17188,0.0156 0.67187,0 1.20312,-0.34375 0.54688,-0.35937 0.54688,-1.09375 0,-0.57812 -0.39063,-0.95312 -0.39062,-0.39063 -1.01562,-0.39063 -0.60938,0 -1.03125,0.39063 -0.40625,0.39062 -0.51563,1.15625 l -1.0625,-0.1875 q 0.1875,-1.04688 0.875,-1.625 0.6875,-0.59375 1.70313,-0.59375 0.70312,0 1.29687,0.3125 0.59375,0.29687 0.90625,0.8125 0.3125,0.51562 0.3125,1.10937 0,0.54688 -0.29687,1.01563 -0.29688,0.45312 -0.875,0.71875 0.75,0.17187 1.17187,0.73437 0.42188,0.54688 0.42188,1.39063 0,1.125 -0.82813,1.90625 -0.8125,0.78125 -2.0625,0.78125 -1.125,0 -1.875,-0.67188 -0.75,-0.6875 -0.85937,-1.75 z m 7.90142,4.79688 -0.75,0 q 1.75,-2.8125 1.75,-5.64063 0,-1.09375 -0.25,-2.1875 -0.20312,-0.875 -0.5625,-1.6875 -0.23437,-0.51562 -0.9375,-1.75 l 0.75,0 q 1.09375,1.46875 1.625,2.95313 0.45313,1.28125 0.45313,2.67187 0,1.57813 -0.60938,3.0625 -0.60937,1.46875 -1.46875,2.57813 z"
       id="path3644"
       inkscape:connector-curvature="0"
       style="fill:#000000;fill-rule:nonzero" />
    <path
       d="m 655.66986,234.53418 0,-13.59375 1.67187,0 0,13.59375 -1.67187,0 z m 10.92602,-3.17188 1.71875,0.21875 q -0.40625,1.5 -1.51562,2.34375 -1.09375,0.82813 -2.8125,0.82813 -2.15625,0 -3.42188,-1.32813 -1.26562,-1.32812 -1.26562,-3.73437 0,-2.48438 1.26562,-3.85938 1.28125,-1.375 3.32813,-1.375 1.98437,0 3.23437,1.34375 1.25,1.34375 1.25,3.79688 0,0.14062 -0.0156,0.4375 l -7.34375,0 q 0.0937,1.625 0.92187,2.48437 0.82813,0.85938 2.0625,0.85938 0.90625,0 1.54688,-0.46875 0.65625,-0.48438 1.04687,-1.54688 z m -5.48437,-2.70312 5.5,0 q -0.10938,-1.23438 -0.625,-1.85938 -0.79688,-0.96875 -2.07813,-0.96875 -1.14062,0 -1.9375,0.78125 -0.78125,0.76563 -0.85937,2.04688 z m 9.11011,5.875 0,-9.85938 1.5,0 0,1.40625 q 1.09375,-1.625 3.14062,-1.625 0.89063,0 1.64063,0.32813 0.75,0.3125 1.10937,0.84375 0.375,0.51562 0.53125,1.21875 0.0937,0.46875 0.0937,1.625 l 0,6.0625 -1.67187,0 0,-6 q 0,-1.01563 -0.20313,-1.51563 -0.1875,-0.51562 -0.6875,-0.8125 -0.5,-0.29687 -1.17187,-0.29687 -1.0625,0 -1.84375,0.67187 -0.76563,0.67188 -0.76563,2.57813 l 0,5.375 -1.67187,0 z m 24.34027,-8 -8.96875,0 0,-1.5625 8.96875,0 0,1.5625 z m 0,4.125 -8.96875,0 0,-1.54688 8.96875,0 0,1.54688 z m 9.40637,-3.5 q -1.04688,-0.375 -1.54688,-1.07813 -0.5,-0.71875 -0.5,-1.70312 0,-1.48438 1.0625,-2.48438 1.07813,-1.01562 2.84375,-1.01562 1.78125,0 2.85938,1.03125 1.09375,1.03125 1.09375,2.51562 0,0.95313 -0.5,1.65625 -0.48438,0.70313 -1.5,1.07813 1.25,0.40625 1.90625,1.3125 0.65625,0.90625 0.65625,2.17187 0,1.75 -1.23438,2.9375 -1.23437,1.1875 -3.25,1.1875 -2.01562,0 -3.25,-1.1875 -1.23437,-1.20312 -1.23437,-2.98437 0,-1.32813 0.67187,-2.21875 0.67188,-0.89063 1.92188,-1.21875 z m -0.32813,-2.82813 q 0,0.96875 0.60938,1.57813 0.625,0.60937 1.625,0.60937 0.95312,0 1.5625,-0.60937 0.625,-0.60938 0.625,-1.48438 0,-0.92187 -0.64063,-1.54687 -0.625,-0.625 -1.57812,-0.625 -0.95313,0 -1.57813,0.60937 -0.625,0.60938 -0.625,1.46875 z m -0.54687,6.28125 q 0,0.71875 0.32812,1.39063 0.34375,0.65625 1.01563,1.03125 0.67187,0.35937 1.4375,0.35937 1.20312,0 1.98437,-0.76562 0.78125,-0.78125 0.78125,-1.96875 0,-1.20313 -0.8125,-1.98438 -0.79687,-0.79687 -2,-0.79687 -1.1875,0 -1.96875,0.78125 -0.76562,0.78125 -0.76562,1.95312 z"
       id="path3646"
       inkscape:connector-curvature="0"
       style="fill:#000000;fill-rule:nonzero" />
    <path
       d="m 17.487803,329.9279 0,-13.59375 1.671875,0 0,13.59375 -1.671875,0 z m 18.140627,-8 -8.968752,0 0,-1.5625 8.968752,0 0,1.5625 z m 0,4.125 -8.968752,0 0,-1.54687 8.968752,0 0,1.54687 z m 15.609512,2.26563 0,1.60937 -8.984375,0 q -0.01563,-0.60937 0.1875,-1.15625 0.34375,-0.92187 1.09375,-1.8125 0.765625,-0.89062 2.1875,-2.0625 2.21875,-1.8125 3,-2.875 0.78125,-1.0625 0.78125,-2.01562 0,-0.98438 -0.71875,-1.67188 -0.703125,-0.6875 -1.84375,-0.6875 -1.203125,0 -1.9375,0.73438 -0.71875,0.71875 -0.71875,2 l -1.71875,-0.17188 q 0.171875,-1.92187 1.328125,-2.92187 1.15625,-1.01563 3.09375,-1.01563 1.953125,0 3.09375,1.09375 1.140625,1.07813 1.140625,2.6875 0,0.8125 -0.34375,1.60938 -0.328125,0.78125 -1.109375,1.65625 -0.765625,0.85937 -2.5625,2.39062 -1.5,1.26563 -1.9375,1.71875 -0.421875,0.4375 -0.703125,0.89063 l 6.671875,0 z"
       id="path3648"
       inkscape:connector-curvature="0"
       style="fill:#000000;fill-rule:nonzero" />
    <path
       d="m 79.003006,309.79224 1.125,-0.17188 q 0.09375,0.67188 0.53125,1.04688 0.4375,0.35937 1.21875,0.35937 0.78125,0 1.15625,-0.3125 0.390625,-0.32812 0.390625,-0.76562 0,-0.39063 -0.34375,-0.60938 -0.234375,-0.15625 -1.171875,-0.39062 -1.25,-0.3125 -1.734375,-0.54688 -0.484375,-0.23437 -0.734375,-0.64062 -0.25,-0.40625 -0.25,-0.90625 0,-0.45313 0.203125,-0.82813 0.203125,-0.39062 0.5625,-0.64062 0.265625,-0.20313 0.71875,-0.32813 0.46875,-0.14062 1,-0.14062 0.78125,0 1.375,0.23437 0.609375,0.21875 0.890625,0.60938 0.296875,0.39062 0.40625,1.04687 l -1.125,0.15625 q -0.07813,-0.53125 -0.4375,-0.8125 -0.359375,-0.29687 -1.03125,-0.29687 -0.78125,0 -1.125,0.26562 -0.34375,0.25 -0.34375,0.60938 0,0.21875 0.140625,0.39062 0.140625,0.1875 0.4375,0.3125 0.171875,0.0625 1.015625,0.28125 1.21875,0.32813 1.6875,0.53125 0.484375,0.20313 0.75,0.60938 0.28125,0.39062 0.28125,0.96875 0,0.57812 -0.34375,1.07812 -0.328125,0.5 -0.953125,0.78125 -0.625,0.28125 -1.421875,0.28125 -1.3125,0 -2,-0.54687 -0.6875,-0.54688 -0.875,-1.625 z m 11.726562,-0.15625 1.1875,0.14062 q -0.28125,1.04688 -1.046875,1.625 -0.75,0.5625 -1.921875,0.5625 -1.484375,0 -2.359375,-0.90625 -0.859375,-0.92187 -0.859375,-2.5625 0,-1.70312 0.875,-2.64062 0.890625,-0.9375 2.28125,-0.9375 1.359375,0 2.203125,0.92187 0.859375,0.92188 0.859375,2.57813 0,0.10937 0,0.3125 l -5.03125,0 q 0.0625,1.10937 0.625,1.70312 0.5625,0.59375 1.40625,0.59375 0.640625,0 1.078125,-0.32812 0.453125,-0.34375 0.703125,-1.0625 z m -3.75,-1.84375 3.765625,0 q -0.07813,-0.85938 -0.4375,-1.28125 -0.546875,-0.65625 -1.40625,-0.65625 -0.796875,0 -1.328125,0.53125 -0.53125,0.51562 -0.59375,1.40625 z m 6.334351,4.57812 1.125,0.15625 q 0.0625,0.51563 0.375,0.75 0.4375,0.32813 1.171875,0.32813 0.78125,0 1.21875,-0.32813 0.4375,-0.3125 0.578125,-0.89062 0.09375,-0.34375 0.09375,-1.45313 -0.75,0.875 -1.875,0.875 -1.390625,0 -2.15625,-1 -0.75,-1 -0.75,-2.40625 0,-0.96875 0.34375,-1.78125 0.359375,-0.8125 1.015625,-1.25 0.65625,-0.45312 1.5625,-0.45312 1.1875,0 1.96875,0.96875 l 0,-0.8125 1.046875,0 0,5.8125 q 0,1.57812 -0.328125,2.23437 -0.3125,0.65625 -1.015625,1.03125 -0.6875,0.39063 -1.703125,0.39063 -1.203125,0 -1.953125,-0.54688 -0.734375,-0.53125 -0.71875,-1.625 z m 0.953125,-4.04687 q 0,1.3125 0.515625,1.92187 0.53125,0.60938 1.328125,0.60938 0.796875,0 1.328125,-0.59375 0.53125,-0.60938 0.53125,-1.90625 0,-1.23438 -0.546875,-1.85938 -0.546875,-0.64062 -1.328125,-0.64062 -0.765625,0 -1.296875,0.625 -0.53125,0.625 -0.53125,1.84375 z"
       id="path3650"
       inkscape:connector-curvature="0"
       style="fill:#000000;fill-rule:nonzero" />
    <path
       d="m 102.19514,318.6985 q -0.65625,-0.82812 -1.10937,-1.92187 -0.45313,-1.10938 -0.45313,-2.29688 0,-1.04687 0.34375,-2.01562 0.39063,-1.10938 1.21875,-2.20313 l 0.5625,0 q -0.53125,0.90625 -0.70312,1.29688 -0.26563,0.60937 -0.42188,1.26562 -0.1875,0.82813 -0.1875,1.65625 0,2.10938 1.3125,4.21875 l -0.5625,0 z m 5.37728,-2.65625 0,0.76563 -4.26563,0 q 0,-0.28125 0.0937,-0.54688 0.17188,-0.4375 0.53125,-0.85937 0.35938,-0.42188 1.03125,-0.96875 1.04688,-0.875 1.40625,-1.375 0.375,-0.5 0.375,-0.95313 0,-0.46875 -0.34375,-0.78125 -0.32812,-0.32812 -0.85937,-0.32812 -0.57813,0 -0.92188,0.34375 -0.34375,0.34375 -0.34375,0.95312 l -0.8125,-0.0937 q 0.0781,-0.90625 0.625,-1.375 0.54688,-0.48437 1.46875,-0.48437 0.92188,0 1.45313,0.51562 0.54687,0.51563 0.54687,1.26563 0,0.39062 -0.15625,0.76562 -0.15625,0.375 -0.53125,0.79688 -0.35937,0.40625 -1.20312,1.125 -0.71875,0.59375 -0.92188,0.8125 -0.20312,0.21875 -0.32812,0.42187 l 3.15625,0 z m 1.2014,0.76563 0,-0.90625 0.90625,0 0,0.90625 q 0,0.5 -0.1875,0.79687 -0.17188,0.3125 -0.54688,0.48438 l -0.21875,-0.34375 q 0.25,-0.10938 0.35938,-0.32813 0.125,-0.20312 0.14062,-0.60937 l -0.45312,0 z m 7.49394,0 -0.79687,0 0,-5.04688 q -0.28125,0.28125 -0.75,0.5625 -0.46875,0.26563 -0.82813,0.39063 l 0,-0.76563 q 0.65625,-0.29687 1.15625,-0.73437 0.5,-0.45313 0.70313,-0.875 l 0.51562,0 0,6.46875 z m 2.68579,1.89062 -0.5625,0 q 1.3125,-2.10937 1.3125,-4.21875 0,-0.82812 -0.1875,-1.64062 -0.15625,-0.65625 -0.42188,-1.26563 -0.17187,-0.39062 -0.70312,-1.3125 l 0.5625,0 q 0.82812,1.09375 1.21875,2.20313 0.34375,0.96875 0.34375,2.01562 0,1.1875 -0.45313,2.29688 -0.45312,1.09375 -1.10937,1.92187 z"
       id="path3652"
       inkscape:connector-curvature="0"
       style="fill:#000000;fill-rule:nonzero" />
    <path
       d="m 80.33233,343.80786 0,-9.3125 1.140625,0 0,9.3125 -1.140625,0 z m 7.601715,-2.17188 1.1875,0.14063 q -0.28125,1.04687 -1.046875,1.625 -0.75,0.5625 -1.921875,0.5625 -1.484375,0 -2.359375,-0.90625 -0.859375,-0.92188 -0.859375,-2.5625 0,-1.70313 0.875,-2.64063 0.890625,-0.9375 2.28125,-0.9375 1.359375,0 2.203125,0.92188 0.859375,0.92187 0.859375,2.57812 0,0.10938 0,0.3125 l -5.03125,0 q 0.0625,1.10938 0.625,1.70313 0.5625,0.59375 1.40625,0.59375 0.640625,0 1.078125,-0.32813 0.453125,-0.34375 0.703125,-1.0625 z m -3.75,-1.84375 3.765625,0 q -0.07813,-0.85937 -0.4375,-1.28125 -0.546875,-0.65625 -1.40625,-0.65625 -0.796875,0 -1.328125,0.53125 -0.53125,0.51563 -0.59375,1.40625 z m 6.553101,4.01563 0,-6.73438 1.03125,0 0,0.95313 q 0.734375,-1.10938 2.140625,-1.10938 0.609375,0 1.109375,0.21875 0.515625,0.21875 0.765625,0.57813 0.265625,0.34375 0.359375,0.84375 0.0625,0.3125 0.0625,1.10937 l 0,4.14063 -1.140625,0 0,-4.09375 q 0,-0.70313 -0.140625,-1.04688 -0.125,-0.34375 -0.46875,-0.54687 -0.328125,-0.21875 -0.78125,-0.21875 -0.734375,0 -1.265625,0.46875 -0.53125,0.45312 -0.53125,1.75 l 0,3.6875 -1.140625,0 z m 17.131084,-5.46875 -6.15625,0 0,-1.0625 6.15625,0 0,1.0625 z m 0,2.82812 -6.15625,0 0,-1.07812 6.15625,0 0,1.07812 z m 9.45516,2.64063 -1.14063,0 0,-7.28125 q -0.42187,0.39062 -1.09375,0.79687 -0.65625,0.39063 -1.1875,0.57813 l 0,-1.10938 q 0.95313,-0.4375 1.67188,-1.07812 0.71875,-0.64063 1.01562,-1.25 l 0.73438,0 0,9.34375 z"
       id="path3654"
       inkscape:connector-curvature="0"
       style="fill:#000000;fill-rule:nonzero" />
    <path
       d="m 147.59355,309.79224 1.125,-0.17188 q 0.0937,0.67188 0.53125,1.04688 0.4375,0.35937 1.21875,0.35937 0.78125,0 1.15625,-0.3125 0.39062,-0.32812 0.39062,-0.76562 0,-0.39063 -0.34375,-0.60938 -0.23437,-0.15625 -1.17187,-0.39062 -1.25,-0.3125 -1.73438,-0.54688 -0.48437,-0.23437 -0.73437,-0.64062 -0.25,-0.40625 -0.25,-0.90625 0,-0.45313 0.20312,-0.82813 0.20313,-0.39062 0.5625,-0.64062 0.26563,-0.20313 0.71875,-0.32813 0.46875,-0.14062 1,-0.14062 0.78125,0 1.375,0.23437 0.60938,0.21875 0.89063,0.60938 0.29687,0.39062 0.40625,1.04687 l -1.125,0.15625 q -0.0781,-0.53125 -0.4375,-0.8125 -0.35938,-0.29687 -1.03125,-0.29687 -0.78125,0 -1.125,0.26562 -0.34375,0.25 -0.34375,0.60938 0,0.21875 0.14062,0.39062 0.14063,0.1875 0.4375,0.3125 0.17188,0.0625 1.01563,0.28125 1.21875,0.32813 1.6875,0.53125 0.48437,0.20313 0.75,0.60938 0.28125,0.39062 0.28125,0.96875 0,0.57812 -0.34375,1.07812 -0.32813,0.5 -0.95313,0.78125 -0.625,0.28125 -1.42187,0.28125 -1.3125,0 -2,-0.54687 -0.6875,-0.54688 -0.875,-1.625 z m 11.72656,-0.15625 1.1875,0.14062 q -0.28125,1.04688 -1.04687,1.625 -0.75,0.5625 -1.92188,0.5625 -1.48437,0 -2.35937,-0.90625 -0.85938,-0.92187 -0.85938,-2.5625 0,-1.70312 0.875,-2.64062 0.89063,-0.9375 2.28125,-0.9375 1.35938,0 2.20313,0.92187 0.85937,0.92188 0.85937,2.57813 0,0.10937 0,0.3125 l -5.03125,0 q 0.0625,1.10937 0.625,1.70312 0.5625,0.59375 1.40625,0.59375 0.64063,0 1.07813,-0.32812 0.45312,-0.34375 0.70312,-1.0625 z m -3.75,-1.84375 3.76563,0 q -0.0781,-0.85938 -0.4375,-1.28125 -0.54688,-0.65625 -1.40625,-0.65625 -0.79688,0 -1.32813,0.53125 -0.53125,0.51562 -0.59375,1.40625 z m 6.33435,4.57812 1.125,0.15625 q 0.0625,0.51563 0.375,0.75 0.4375,0.32813 1.17188,0.32813 0.78125,0 1.21875,-0.32813 0.4375,-0.3125 0.57812,-0.89062 0.0937,-0.34375 0.0937,-1.45313 -0.75,0.875 -1.875,0.875 -1.39062,0 -2.15625,-1 -0.75,-1 -0.75,-2.40625 0,-0.96875 0.34375,-1.78125 0.35938,-0.8125 1.01563,-1.25 0.65625,-0.45312 1.5625,-0.45312 1.1875,0 1.96875,0.96875 l 0,-0.8125 1.04687,0 0,5.8125 q 0,1.57812 -0.32812,2.23437 -0.3125,0.65625 -1.01563,1.03125 -0.6875,0.39063 -1.70312,0.39063 -1.20313,0 -1.95313,-0.54688 -0.73437,-0.53125 -0.71875,-1.625 z m 0.95313,-4.04687 q 0,1.3125 0.51562,1.92187 0.53125,0.60938 1.32813,0.60938 0.79687,0 1.32812,-0.59375 0.53125,-0.60938 0.53125,-1.90625 0,-1.23438 -0.54687,-1.85938 -0.54688,-0.64062 -1.32813,-0.64062 -0.76562,0 -1.29687,0.625 -0.53125,0.625 -0.53125,1.84375 z"
       id="path3656"
       inkscape:connector-curvature="0"
       style="fill:#000000;fill-rule:nonzero" />
    <path
       d="m 170.78569,318.6985 q -0.65625,-0.82812 -1.10938,-1.92187 -0.45312,-1.10938 -0.45312,-2.29688 0,-1.04687 0.34375,-2.01562 0.39062,-1.10938 1.21875,-2.20313 l 0.5625,0 q -0.53125,0.90625 -0.70313,1.29688 -0.26562,0.60937 -0.42187,1.26562 -0.1875,0.82813 -0.1875,1.65625 0,2.10938 1.3125,4.21875 l -0.5625,0 z m 5.37727,-2.65625 0,0.76563 -4.26562,0 q 0,-0.28125 0.0937,-0.54688 0.17187,-0.4375 0.53125,-0.85937 0.35937,-0.42188 1.03125,-0.96875 1.04687,-0.875 1.40625,-1.375 0.375,-0.5 0.375,-0.95313 0,-0.46875 -0.34375,-0.78125 -0.32813,-0.32812 -0.85938,-0.32812 -0.57812,0 -0.92187,0.34375 -0.34375,0.34375 -0.34375,0.95312 l -0.8125,-0.0937 q 0.0781,-0.90625 0.625,-1.375 0.54687,-0.48437 1.46875,-0.48437 0.92187,0 1.45312,0.51562 0.54688,0.51563 0.54688,1.26563 0,0.39062 -0.15625,0.76562 -0.15625,0.375 -0.53125,0.79688 -0.35938,0.40625 -1.20313,1.125 -0.71875,0.59375 -0.92187,0.8125 -0.20313,0.21875 -0.32813,0.42187 l 3.15625,0 z m 1.2014,0.76563 0,-0.90625 0.90625,0 0,0.90625 q 0,0.5 -0.1875,0.79687 -0.17187,0.3125 -0.54687,0.48438 l -0.21875,-0.34375 q 0.25,-0.10938 0.35937,-0.32813 0.125,-0.20312 0.14063,-0.60937 l -0.45313,0 z m 8.66582,-0.76563 0,0.76563 -4.26562,0 q 0,-0.28125 0.0937,-0.54688 0.17187,-0.4375 0.53125,-0.85937 0.35937,-0.42188 1.03125,-0.96875 1.04687,-0.875 1.40625,-1.375 0.375,-0.5 0.375,-0.95313 0,-0.46875 -0.34375,-0.78125 -0.32813,-0.32812 -0.85938,-0.32812 -0.57812,0 -0.92187,0.34375 -0.34375,0.34375 -0.34375,0.95312 l -0.8125,-0.0937 q 0.0781,-0.90625 0.625,-1.375 0.54687,-0.48437 1.46875,-0.48437 0.92187,0 1.45312,0.51562 0.54688,0.51563 0.54688,1.26563 0,0.39062 -0.15625,0.76562 -0.15625,0.375 -0.53125,0.79688 -0.35938,0.40625 -1.20313,1.125 -0.71875,0.59375 -0.92187,0.8125 -0.20313,0.21875 -0.32813,0.42187 l 3.15625,0 z m 1.51392,2.65625 -0.5625,0 q 1.3125,-2.10937 1.3125,-4.21875 0,-0.82812 -0.1875,-1.64062 -0.15625,-0.65625 -0.42188,-1.26563 -0.17187,-0.39062 -0.70312,-1.3125 l 0.5625,0 q 0.82812,1.09375 1.21875,2.20313 0.34375,0.96875 0.34375,2.01562 0,1.1875 -0.45313,2.29688 -0.45312,1.09375 -1.10937,1.92187 z"
       id="path3658"
       inkscape:connector-curvature="0"
       style="fill:#000000;fill-rule:nonzero" />
    <path
       d="m 148.92288,343.80786 0,-9.3125 1.14062,0 0,9.3125 -1.14062,0 z m 7.60171,-2.17188 1.1875,0.14063 q -0.28125,1.04687 -1.04687,1.625 -0.75,0.5625 -1.92188,0.5625 -1.48437,0 -2.35937,-0.90625 -0.85938,-0.92188 -0.85938,-2.5625 0,-1.70313 0.875,-2.64063 0.89063,-0.9375 2.28125,-0.9375 1.35938,0 2.20313,0.92188 0.85937,0.92187 0.85937,2.57812 0,0.10938 0,0.3125 l -5.03125,0 q 0.0625,1.10938 0.625,1.70313 0.5625,0.59375 1.40625,0.59375 0.64063,0 1.07813,-0.32813 0.45312,-0.34375 0.70312,-1.0625 z m -3.75,-1.84375 3.76563,0 q -0.0781,-0.85937 -0.4375,-1.28125 -0.54688,-0.65625 -1.40625,-0.65625 -0.79688,0 -1.32813,0.53125 -0.53125,0.51563 -0.59375,1.40625 z m 6.55311,4.01563 0,-6.73438 1.03125,0 0,0.95313 q 0.73437,-1.10938 2.14062,-1.10938 0.60938,0 1.10938,0.21875 0.51562,0.21875 0.76562,0.57813 0.26563,0.34375 0.35938,0.84375 0.0625,0.3125 0.0625,1.10937 l 0,4.14063 -1.14063,0 0,-4.09375 q 0,-0.70313 -0.14062,-1.04688 -0.125,-0.34375 -0.46875,-0.54687 -0.32813,-0.21875 -0.78125,-0.21875 -0.73438,0 -1.26563,0.46875 -0.53125,0.45312 -0.53125,1.75 l 0,3.6875 -1.14062,0 z m 17.13108,-5.46875 -6.15625,0 0,-1.0625 6.15625,0 0,1.0625 z m 0,2.82812 -6.15625,0 0,-1.07812 6.15625,0 0,1.07812 z m 9.45516,2.64063 -1.14063,0 0,-7.28125 q -0.42187,0.39062 -1.09375,0.79687 -0.65625,0.39063 -1.1875,0.57813 l 0,-1.10938 q 0.95313,-0.4375 1.67188,-1.07812 0.71875,-0.64063 1.01562,-1.25 l 0.73438,0 0,9.34375 z"
       id="path3660"
       inkscape:connector-curvature="0"
       style="fill:#000000;fill-rule:nonzero" />
    <path
       d="m 216.18411,309.79224 1.125,-0.17188 q 0.0937,0.67188 0.53125,1.04688 0.4375,0.35937 1.21875,0.35937 0.78125,0 1.15625,-0.3125 0.39062,-0.32812 0.39062,-0.76562 0,-0.39063 -0.34375,-0.60938 -0.23437,-0.15625 -1.17187,-0.39062 -1.25,-0.3125 -1.73438,-0.54688 -0.48437,-0.23437 -0.73437,-0.64062 -0.25,-0.40625 -0.25,-0.90625 0,-0.45313 0.20312,-0.82813 0.20313,-0.39062 0.5625,-0.64062 0.26563,-0.20313 0.71875,-0.32813 0.46875,-0.14062 1,-0.14062 0.78125,0 1.375,0.23437 0.60938,0.21875 0.89063,0.60938 0.29687,0.39062 0.40625,1.04687 l -1.125,0.15625 q -0.0781,-0.53125 -0.4375,-0.8125 -0.35938,-0.29687 -1.03125,-0.29687 -0.78125,0 -1.125,0.26562 -0.34375,0.25 -0.34375,0.60938 0,0.21875 0.14062,0.39062 0.14063,0.1875 0.4375,0.3125 0.17188,0.0625 1.01563,0.28125 1.21875,0.32813 1.6875,0.53125 0.48437,0.20313 0.75,0.60938 0.28125,0.39062 0.28125,0.96875 0,0.57812 -0.34375,1.07812 -0.32813,0.5 -0.95313,0.78125 -0.625,0.28125 -1.42187,0.28125 -1.3125,0 -2,-0.54687 -0.6875,-0.54688 -0.875,-1.625 z m 11.72656,-0.15625 1.1875,0.14062 q -0.28125,1.04688 -1.04687,1.625 -0.75,0.5625 -1.92188,0.5625 -1.48437,0 -2.35937,-0.90625 -0.85938,-0.92187 -0.85938,-2.5625 0,-1.70312 0.875,-2.64062 0.89063,-0.9375 2.28125,-0.9375 1.35938,0 2.20313,0.92187 0.85937,0.92188 0.85937,2.57813 0,0.10937 0,0.3125 l -5.03125,0 q 0.0625,1.10937 0.625,1.70312 0.5625,0.59375 1.40625,0.59375 0.64063,0 1.07813,-0.32812 0.45312,-0.34375 0.70312,-1.0625 z m -3.75,-1.84375 3.76563,0 q -0.0781,-0.85938 -0.4375,-1.28125 -0.54688,-0.65625 -1.40625,-0.65625 -0.79688,0 -1.32813,0.53125 -0.53125,0.51562 -0.59375,1.40625 z m 6.33435,4.57812 1.125,0.15625 q 0.0625,0.51563 0.375,0.75 0.4375,0.32813 1.17188,0.32813 0.78125,0 1.21875,-0.32813 0.4375,-0.3125 0.57812,-0.89062 0.0937,-0.34375 0.0937,-1.45313 -0.75,0.875 -1.875,0.875 -1.39062,0 -2.15625,-1 -0.75,-1 -0.75,-2.40625 0,-0.96875 0.34375,-1.78125 0.35938,-0.8125 1.01563,-1.25 0.65625,-0.45312 1.5625,-0.45312 1.1875,0 1.96875,0.96875 l 0,-0.8125 1.04687,0 0,5.8125 q 0,1.57812 -0.32812,2.23437 -0.3125,0.65625 -1.01563,1.03125 -0.6875,0.39063 -1.70312,0.39063 -1.20313,0 -1.95313,-0.54688 -0.73437,-0.53125 -0.71875,-1.625 z m 0.95313,-4.04687 q 0,1.3125 0.51562,1.92187 0.53125,0.60938 1.32813,0.60938 0.79687,0 1.32812,-0.59375 0.53125,-0.60938 0.53125,-1.90625 0,-1.23438 -0.54687,-1.85938 -0.54688,-0.64062 -1.32813,-0.64062 -0.76562,0 -1.29687,0.625 -0.53125,0.625 -0.53125,1.84375 z"
       id="path3662"
       inkscape:connector-curvature="0"
       style="fill:#000000;fill-rule:nonzero" />
    <path
       d="m 239.37625,318.6985 q -0.65625,-0.82812 -1.10938,-1.92187 -0.45312,-1.10938 -0.45312,-2.29688 0,-1.04687 0.34375,-2.01562 0.39062,-1.10938 1.21875,-2.20313 l 0.5625,0 q -0.53125,0.90625 -0.70313,1.29688 -0.26562,0.60937 -0.42187,1.26562 -0.1875,0.82813 -0.1875,1.65625 0,2.10938 1.3125,4.21875 l -0.5625,0 z m 5.37727,-2.65625 0,0.76563 -4.26562,0 q 0,-0.28125 0.0937,-0.54688 0.17187,-0.4375 0.53125,-0.85937 0.35937,-0.42188 1.03125,-0.96875 1.04687,-0.875 1.40625,-1.375 0.375,-0.5 0.375,-0.95313 0,-0.46875 -0.34375,-0.78125 -0.32813,-0.32812 -0.85938,-0.32812 -0.57812,0 -0.92187,0.34375 -0.34375,0.34375 -0.34375,0.95312 l -0.8125,-0.0937 q 0.0781,-0.90625 0.625,-1.375 0.54687,-0.48437 1.46875,-0.48437 0.92187,0 1.45312,0.51562 0.54688,0.51563 0.54688,1.26563 0,0.39062 -0.15625,0.76562 -0.15625,0.375 -0.53125,0.79688 -0.35938,0.40625 -1.20313,1.125 -0.71875,0.59375 -0.92187,0.8125 -0.20313,0.21875 -0.32813,0.42187 l 3.15625,0 z m 1.2014,0.76563 0,-0.90625 0.90625,0 0,0.90625 q 0,0.5 -0.1875,0.79687 -0.17187,0.3125 -0.54687,0.48438 l -0.21875,-0.34375 q 0.25,-0.10938 0.35937,-0.32813 0.125,-0.20312 0.14063,-0.60937 l -0.45313,0 z m 4.50957,-1.70313 0.79688,-0.10937 q 0.14062,0.67187 0.45312,0.96875 0.32813,0.29687 0.8125,0.29687 0.54688,0 0.92188,-0.375 0.39062,-0.39062 0.39062,-0.96875 0,-0.54687 -0.35937,-0.89062 -0.34375,-0.35938 -0.89063,-0.35938 -0.23437,0 -0.5625,0.0937 l 0.0937,-0.70312 q 0.0781,0.0156 0.125,0.0156 0.5,0 0.90625,-0.26562 0.40625,-0.26563 0.40625,-0.8125 0,-0.4375 -0.29687,-0.71875 -0.29688,-0.28125 -0.76563,-0.28125 -0.45312,0 -0.76562,0.29687 -0.29688,0.28125 -0.39063,0.85938 l -0.79687,-0.14063 q 0.15625,-0.79687 0.65625,-1.23437 0.51562,-0.4375 1.28125,-0.4375 0.53125,0 0.96875,0.23437 0.45312,0.21875 0.6875,0.60938 0.23437,0.39062 0.23437,0.82812 0,0.42188 -0.23437,0.76563 -0.21875,0.34375 -0.65625,0.54687 0.57812,0.125 0.89062,0.54688 0.3125,0.40625 0.3125,1.03125 0,0.84375 -0.625,1.4375 -0.60937,0.57812 -1.54687,0.57812 -0.84375,0 -1.40625,-0.5 -0.5625,-0.5 -0.64063,-1.3125 z m 5.67015,3.59375 -0.5625,0 q 1.3125,-2.10937 1.3125,-4.21875 0,-0.82812 -0.1875,-1.64062 -0.15625,-0.65625 -0.42187,-1.26563 -0.17188,-0.39062 -0.70313,-1.3125 l 0.5625,0 q 0.82813,1.09375 1.21875,2.20313 0.34375,0.96875 0.34375,2.01562 0,1.1875 -0.45312,2.29688 -0.45313,1.09375 -1.10938,1.92187 z"
       id="path3664"
       inkscape:connector-curvature="0"
       style="fill:#000000;fill-rule:nonzero" />
    <path
       d="m 217.51343,343.80786 0,-9.3125 1.14062,0 0,9.3125 -1.14062,0 z m 7.60171,-2.17188 1.1875,0.14063 q -0.28125,1.04687 -1.04687,1.625 -0.75,0.5625 -1.92188,0.5625 -1.48437,0 -2.35937,-0.90625 -0.85938,-0.92188 -0.85938,-2.5625 0,-1.70313 0.875,-2.64063 0.89063,-0.9375 2.28125,-0.9375 1.35938,0 2.20313,0.92188 0.85937,0.92187 0.85937,2.57812 0,0.10938 0,0.3125 l -5.03125,0 q 0.0625,1.10938 0.625,1.70313 0.5625,0.59375 1.40625,0.59375 0.64063,0 1.07813,-0.32813 0.45312,-0.34375 0.70312,-1.0625 z m -3.75,-1.84375 3.76563,0 q -0.0781,-0.85937 -0.4375,-1.28125 -0.54688,-0.65625 -1.40625,-0.65625 -0.79688,0 -1.32813,0.53125 -0.53125,0.51563 -0.59375,1.40625 z m 6.55311,4.01563 0,-6.73438 1.03125,0 0,0.95313 q 0.73437,-1.10938 2.14062,-1.10938 0.60938,0 1.10938,0.21875 0.51562,0.21875 0.76562,0.57813 0.26563,0.34375 0.35938,0.84375 0.0625,0.3125 0.0625,1.10937 l 0,4.14063 -1.14063,0 0,-4.09375 q 0,-0.70313 -0.14062,-1.04688 -0.125,-0.34375 -0.46875,-0.54687 -0.32813,-0.21875 -0.78125,-0.21875 -0.73438,0 -1.26563,0.46875 -0.53125,0.45312 -0.53125,1.75 l 0,3.6875 -1.14062,0 z m 17.13108,-5.46875 -6.15625,0 0,-1.0625 6.15625,0 0,1.0625 z m 0,2.82812 -6.15625,0 0,-1.07812 6.15625,0 0,1.07812 z m 9.45516,2.64063 -1.14063,0 0,-7.28125 q -0.42187,0.39062 -1.09375,0.79687 -0.65625,0.39063 -1.1875,0.57813 l 0,-1.10938 q 0.95313,-0.4375 1.67188,-1.07812 0.71875,-0.64063 1.01562,-1.25 l 0.73438,0 0,9.34375 z"
       id="path3666"
       inkscape:connector-curvature="0"
       style="fill:#000000;fill-rule:nonzero" />
    <path
       d="m 284.77466,309.79224 1.125,-0.17188 q 0.0937,0.67188 0.53125,1.04688 0.4375,0.35937 1.21875,0.35937 0.78125,0 1.15625,-0.3125 0.39062,-0.32812 0.39062,-0.76562 0,-0.39063 -0.34375,-0.60938 -0.23437,-0.15625 -1.17187,-0.39062 -1.25,-0.3125 -1.73438,-0.54688 -0.48437,-0.23437 -0.73437,-0.64062 -0.25,-0.40625 -0.25,-0.90625 0,-0.45313 0.20312,-0.82813 0.20313,-0.39062 0.5625,-0.64062 0.26563,-0.20313 0.71875,-0.32813 0.46875,-0.14062 1,-0.14062 0.78125,0 1.375,0.23437 0.60938,0.21875 0.89063,0.60938 0.29687,0.39062 0.40625,1.04687 l -1.125,0.15625 q -0.0781,-0.53125 -0.4375,-0.8125 -0.35938,-0.29687 -1.03125,-0.29687 -0.78125,0 -1.125,0.26562 -0.34375,0.25 -0.34375,0.60938 0,0.21875 0.14062,0.39062 0.14063,0.1875 0.4375,0.3125 0.17188,0.0625 1.01563,0.28125 1.21875,0.32813 1.6875,0.53125 0.48437,0.20313 0.75,0.60938 0.28125,0.39062 0.28125,0.96875 0,0.57812 -0.34375,1.07812 -0.32813,0.5 -0.95313,0.78125 -0.625,0.28125 -1.42187,0.28125 -1.3125,0 -2,-0.54687 -0.6875,-0.54688 -0.875,-1.625 z m 11.72656,-0.15625 1.1875,0.14062 q -0.28125,1.04688 -1.04687,1.625 -0.75,0.5625 -1.92188,0.5625 -1.48437,0 -2.35937,-0.90625 -0.85938,-0.92187 -0.85938,-2.5625 0,-1.70312 0.875,-2.64062 0.89063,-0.9375 2.28125,-0.9375 1.35938,0 2.20313,0.92187 0.85937,0.92188 0.85937,2.57813 0,0.10937 0,0.3125 l -5.03125,0 q 0.0625,1.10937 0.625,1.70312 0.5625,0.59375 1.40625,0.59375 0.64063,0 1.07813,-0.32812 0.45312,-0.34375 0.70312,-1.0625 z m -3.75,-1.84375 3.76563,0 q -0.0781,-0.85938 -0.4375,-1.28125 -0.54688,-0.65625 -1.40625,-0.65625 -0.79688,0 -1.32813,0.53125 -0.53125,0.51562 -0.59375,1.40625 z m 6.33435,4.57812 1.125,0.15625 q 0.0625,0.51563 0.375,0.75 0.4375,0.32813 1.17188,0.32813 0.78125,0 1.21875,-0.32813 0.4375,-0.3125 0.57812,-0.89062 0.0937,-0.34375 0.0937,-1.45313 -0.75,0.875 -1.875,0.875 -1.39062,0 -2.15625,-1 -0.75,-1 -0.75,-2.40625 0,-0.96875 0.34375,-1.78125 0.35938,-0.8125 1.01563,-1.25 0.65625,-0.45312 1.5625,-0.45312 1.1875,0 1.96875,0.96875 l 0,-0.8125 1.04687,0 0,5.8125 q 0,1.57812 -0.32812,2.23437 -0.3125,0.65625 -1.01563,1.03125 -0.6875,0.39063 -1.70312,0.39063 -1.20313,0 -1.95313,-0.54688 -0.73437,-0.53125 -0.71875,-1.625 z m 0.95313,-4.04687 q 0,1.3125 0.51562,1.92187 0.53125,0.60938 1.32813,0.60938 0.79687,0 1.32812,-0.59375 0.53125,-0.60938 0.53125,-1.90625 0,-1.23438 -0.54687,-1.85938 -0.54688,-0.64062 -1.32813,-0.64062 -0.76562,0 -1.29687,0.625 -0.53125,0.625 -0.53125,1.84375 z"
       id="path3668"
       inkscape:connector-curvature="0"
       style="fill:#000000;fill-rule:nonzero" />
    <path
       d="m 307.9668,318.6985 q -0.65625,-0.82812 -1.10938,-1.92187 -0.45312,-1.10938 -0.45312,-2.29688 0,-1.04687 0.34375,-2.01562 0.39062,-1.10938 1.21875,-2.20313 l 0.5625,0 q -0.53125,0.90625 -0.70313,1.29688 -0.26562,0.60937 -0.42187,1.26562 -0.1875,0.82813 -0.1875,1.65625 0,2.10938 1.3125,4.21875 l -0.5625,0 z m 5.37729,-2.65625 0,0.76563 -4.26563,0 q 0,-0.28125 0.0937,-0.54688 0.17188,-0.4375 0.53125,-0.85937 0.35938,-0.42188 1.03125,-0.96875 1.04688,-0.875 1.40625,-1.375 0.375,-0.5 0.375,-0.95313 0,-0.46875 -0.34375,-0.78125 -0.32812,-0.32812 -0.85937,-0.32812 -0.57813,0 -0.92188,0.34375 -0.34375,0.34375 -0.34375,0.95312 l -0.8125,-0.0937 q 0.0781,-0.90625 0.625,-1.375 0.54688,-0.48437 1.46875,-0.48437 0.92188,0 1.45313,0.51562 0.54687,0.51563 0.54687,1.26563 0,0.39062 -0.15625,0.76562 -0.15625,0.375 -0.53125,0.79688 -0.35937,0.40625 -1.20312,1.125 -0.71875,0.59375 -0.92188,0.8125 -0.20312,0.21875 -0.32812,0.42187 l 3.15625,0 z m 1.20138,0.76563 0,-0.90625 0.90625,0 0,0.90625 q 0,0.5 -0.1875,0.79687 -0.17187,0.3125 -0.54687,0.48438 l -0.21875,-0.34375 q 0.25,-0.10938 0.35937,-0.32813 0.125,-0.20312 0.14063,-0.60937 l -0.45313,0 z m 7.04084,0 0,-1.54688 -2.79688,0 0,-0.71875 2.9375,-4.17187 0.65625,0 0,4.17187 0.875,0 0,0.71875 -0.875,0 0,1.54688 -0.79687,0 z m 0,-2.26563 0,-2.90625 -2.01563,2.90625 2.01563,0 z m 3.13888,4.15625 -0.5625,0 q 1.3125,-2.10937 1.3125,-4.21875 0,-0.82812 -0.1875,-1.64062 -0.15625,-0.65625 -0.42187,-1.26563 -0.17188,-0.39062 -0.70313,-1.3125 l 0.5625,0 q 0.82813,1.09375 1.21875,2.20313 0.34375,0.96875 0.34375,2.01562 0,1.1875 -0.45312,2.29688 -0.45313,1.09375 -1.10938,1.92187 z"
       id="path3670"
       inkscape:connector-curvature="0"
       style="fill:#000000;fill-rule:nonzero" />
    <path
       d="m 286.10397,343.80786 0,-9.3125 1.14062,0 0,9.3125 -1.14062,0 z m 7.60172,-2.17188 1.1875,0.14063 q -0.28125,1.04687 -1.04688,1.625 -0.75,0.5625 -1.92187,0.5625 -1.48438,0 -2.35938,-0.90625 -0.85937,-0.92188 -0.85937,-2.5625 0,-1.70313 0.875,-2.64063 0.89062,-0.9375 2.28125,-0.9375 1.35937,0 2.20312,0.92188 0.85938,0.92187 0.85938,2.57812 0,0.10938 0,0.3125 l -5.03125,0 q 0.0625,1.10938 0.625,1.70313 0.5625,0.59375 1.40625,0.59375 0.64062,0 1.07812,-0.32813 0.45313,-0.34375 0.70313,-1.0625 z m -3.75,-1.84375 3.76562,0 q -0.0781,-0.85937 -0.4375,-1.28125 -0.54687,-0.65625 -1.40625,-0.65625 -0.79687,0 -1.32812,0.53125 -0.53125,0.51563 -0.59375,1.40625 z m 6.5531,4.01563 0,-6.73438 1.03125,0 0,0.95313 q 0.73437,-1.10938 2.14062,-1.10938 0.60938,0 1.10938,0.21875 0.51562,0.21875 0.76562,0.57813 0.26563,0.34375 0.35938,0.84375 0.0625,0.3125 0.0625,1.10937 l 0,4.14063 -1.14063,0 0,-4.09375 q 0,-0.70313 -0.14062,-1.04688 -0.125,-0.34375 -0.46875,-0.54687 -0.32813,-0.21875 -0.78125,-0.21875 -0.73438,0 -1.26563,0.46875 -0.53125,0.45312 -0.53125,1.75 l 0,3.6875 -1.14062,0 z m 17.1311,-5.46875 -6.15625,0 0,-1.0625 6.15625,0 0,1.0625 z m 0,2.82812 -6.15625,0 0,-1.07812 6.15625,0 0,1.07812 z m 9.45514,2.64063 -1.14063,0 0,-7.28125 q -0.42187,0.39062 -1.09375,0.79687 -0.65625,0.39063 -1.1875,0.57813 l 0,-1.10938 q 0.95313,-0.4375 1.67188,-1.07812 0.71875,-0.64063 1.01562,-1.25 l 0.73438,0 0,9.34375 z"
       id="path3672"
       inkscape:connector-curvature="0"
       style="fill:#000000;fill-rule:nonzero" />
    <path
       d="m 353.3652,309.79224 1.125,-0.17188 q 0.0937,0.67188 0.53125,1.04688 0.4375,0.35937 1.21875,0.35937 0.78125,0 1.15625,-0.3125 0.39063,-0.32812 0.39063,-0.76562 0,-0.39063 -0.34375,-0.60938 -0.23438,-0.15625 -1.17188,-0.39062 -1.25,-0.3125 -1.73437,-0.54688 -0.48438,-0.23437 -0.73438,-0.64062 -0.25,-0.40625 -0.25,-0.90625 0,-0.45313 0.20313,-0.82813 0.20312,-0.39062 0.5625,-0.64062 0.26562,-0.20313 0.71875,-0.32813 0.46875,-0.14062 1,-0.14062 0.78125,0 1.375,0.23437 0.60937,0.21875 0.89062,0.60938 0.29688,0.39062 0.40625,1.04687 l -1.125,0.15625 q -0.0781,-0.53125 -0.4375,-0.8125 -0.35937,-0.29687 -1.03125,-0.29687 -0.78125,0 -1.125,0.26562 -0.34375,0.25 -0.34375,0.60938 0,0.21875 0.14063,0.39062 0.14062,0.1875 0.4375,0.3125 0.17187,0.0625 1.01562,0.28125 1.21875,0.32813 1.6875,0.53125 0.48438,0.20313 0.75,0.60938 0.28125,0.39062 0.28125,0.96875 0,0.57812 -0.34375,1.07812 -0.32812,0.5 -0.95312,0.78125 -0.625,0.28125 -1.42188,0.28125 -1.3125,0 -2,-0.54687 -0.6875,-0.54688 -0.875,-1.625 z m 11.72656,-0.15625 1.1875,0.14062 q -0.28125,1.04688 -1.04687,1.625 -0.75,0.5625 -1.92188,0.5625 -1.48437,0 -2.35937,-0.90625 -0.85938,-0.92187 -0.85938,-2.5625 0,-1.70312 0.875,-2.64062 0.89063,-0.9375 2.28125,-0.9375 1.35938,0 2.20313,0.92187 0.85937,0.92188 0.85937,2.57813 0,0.10937 0,0.3125 l -5.03125,0 q 0.0625,1.10937 0.625,1.70312 0.5625,0.59375 1.40625,0.59375 0.64063,0 1.07813,-0.32812 0.45312,-0.34375 0.70312,-1.0625 z m -3.75,-1.84375 3.76563,0 q -0.0781,-0.85938 -0.4375,-1.28125 -0.54688,-0.65625 -1.40625,-0.65625 -0.79688,0 -1.32813,0.53125 -0.53125,0.51562 -0.59375,1.40625 z m 6.33435,4.57812 1.125,0.15625 q 0.0625,0.51563 0.375,0.75 0.4375,0.32813 1.17188,0.32813 0.78125,0 1.21875,-0.32813 0.4375,-0.3125 0.57812,-0.89062 0.0937,-0.34375 0.0937,-1.45313 -0.75,0.875 -1.875,0.875 -1.39062,0 -2.15625,-1 -0.75,-1 -0.75,-2.40625 0,-0.96875 0.34375,-1.78125 0.35938,-0.8125 1.01563,-1.25 0.65625,-0.45312 1.5625,-0.45312 1.1875,0 1.96875,0.96875 l 0,-0.8125 1.04687,0 0,5.8125 q 0,1.57812 -0.32812,2.23437 -0.3125,0.65625 -1.01563,1.03125 -0.6875,0.39063 -1.70312,0.39063 -1.20313,0 -1.95313,-0.54688 -0.73437,-0.53125 -0.71875,-1.625 z m 0.95313,-4.04687 q 0,1.3125 0.51562,1.92187 0.53125,0.60938 1.32813,0.60938 0.79687,0 1.32812,-0.59375 0.53125,-0.60938 0.53125,-1.90625 0,-1.23438 -0.54687,-1.85938 -0.54688,-0.64062 -1.32813,-0.64062 -0.76562,0 -1.29687,0.625 -0.53125,0.625 -0.53125,1.84375 z"
       id="path3674"
       inkscape:connector-curvature="0"
       style="fill:#000000;fill-rule:nonzero" />
    <path
       d="m 376.55734,318.6985 q -0.65625,-0.82812 -1.10938,-1.92187 -0.45312,-1.10938 -0.45312,-2.29688 0,-1.04687 0.34375,-2.01562 0.39062,-1.10938 1.21875,-2.20313 l 0.5625,0 q -0.53125,0.90625 -0.70313,1.29688 -0.26562,0.60937 -0.42187,1.26562 -0.1875,0.82813 -0.1875,1.65625 0,2.10938 1.3125,4.21875 l -0.5625,0 z m 5.37729,-2.65625 0,0.76563 -4.26563,0 q 0,-0.28125 0.0937,-0.54688 0.17188,-0.4375 0.53125,-0.85937 0.35938,-0.42188 1.03125,-0.96875 1.04688,-0.875 1.40625,-1.375 0.375,-0.5 0.375,-0.95313 0,-0.46875 -0.34375,-0.78125 -0.32812,-0.32812 -0.85937,-0.32812 -0.57813,0 -0.92188,0.34375 -0.34375,0.34375 -0.34375,0.95312 l -0.8125,-0.0937 q 0.0781,-0.90625 0.625,-1.375 0.54688,-0.48437 1.46875,-0.48437 0.92188,0 1.45313,0.51562 0.54687,0.51563 0.54687,1.26563 0,0.39062 -0.15625,0.76562 -0.15625,0.375 -0.53125,0.79688 -0.35937,0.40625 -1.20312,1.125 -0.71875,0.59375 -0.92188,0.8125 -0.20312,0.21875 -0.32812,0.42187 l 3.15625,0 z m 1.20138,0.76563 0,-0.90625 0.90625,0 0,0.90625 q 0,0.5 -0.1875,0.79687 -0.17187,0.3125 -0.54687,0.48438 l -0.21875,-0.34375 q 0.25,-0.10938 0.35937,-0.32813 0.125,-0.20312 0.14063,-0.60937 l -0.45313,0 z m 4.50959,-1.6875 0.82812,-0.0781 q 0.0937,0.60938 0.42188,0.92188 0.34375,0.29687 0.8125,0.29687 0.57812,0 0.96875,-0.42187 0.40625,-0.4375 0.40625,-1.14063 0,-0.6875 -0.39063,-1.07812 -0.375,-0.39063 -0.98437,-0.39063 -0.39063,0 -0.70313,0.1875 -0.29687,0.17188 -0.48437,0.4375 l -0.73438,-0.0937 0.625,-3.3125 3.20313,0 0,0.76563 -2.57813,0 -0.34375,1.71875 q 0.57813,-0.39063 1.21875,-0.39063 0.84375,0 1.42188,0.57813 0.57812,0.57812 0.57812,1.5 0,0.875 -0.5,1.51562 -0.625,0.78125 -1.70312,0.78125 -0.875,0 -1.4375,-0.48437 -0.54688,-0.5 -0.625,-1.3125 z m 5.67013,3.57812 -0.5625,0 q 1.3125,-2.10937 1.3125,-4.21875 0,-0.82812 -0.1875,-1.64062 -0.15625,-0.65625 -0.42187,-1.26563 -0.17188,-0.39062 -0.70313,-1.3125 l 0.5625,0 q 0.82813,1.09375 1.21875,2.20313 0.34375,0.96875 0.34375,2.01562 0,1.1875 -0.45312,2.29688 -0.45313,1.09375 -1.10938,1.92187 z"
       id="path3676"
       inkscape:connector-curvature="0"
       style="fill:#000000;fill-rule:nonzero" />
    <path
       d="m 354.69455,343.80786 0,-9.3125 1.14062,0 0,9.3125 -1.14062,0 z m 7.60171,-2.17188 1.1875,0.14063 q -0.28125,1.04687 -1.04687,1.625 -0.75,0.5625 -1.92188,0.5625 -1.48437,0 -2.35937,-0.90625 -0.85938,-0.92188 -0.85938,-2.5625 0,-1.70313 0.875,-2.64063 0.89063,-0.9375 2.28125,-0.9375 1.35938,0 2.20313,0.92188 0.85937,0.92187 0.85937,2.57812 0,0.10938 0,0.3125 l -5.03125,0 q 0.0625,1.10938 0.625,1.70313 0.5625,0.59375 1.40625,0.59375 0.64063,0 1.07813,-0.32813 0.45312,-0.34375 0.70312,-1.0625 z m -3.75,-1.84375 3.76563,0 q -0.0781,-0.85937 -0.4375,-1.28125 -0.54688,-0.65625 -1.40625,-0.65625 -0.79688,0 -1.32813,0.53125 -0.53125,0.51563 -0.59375,1.40625 z m 6.55311,4.01563 0,-6.73438 1.03125,0 0,0.95313 q 0.73437,-1.10938 2.14062,-1.10938 0.60938,0 1.10938,0.21875 0.51562,0.21875 0.76562,0.57813 0.26563,0.34375 0.35938,0.84375 0.0625,0.3125 0.0625,1.10937 l 0,4.14063 -1.14063,0 0,-4.09375 q 0,-0.70313 -0.14062,-1.04688 -0.125,-0.34375 -0.46875,-0.54687 -0.32813,-0.21875 -0.78125,-0.21875 -0.73438,0 -1.26563,0.46875 -0.53125,0.45312 -0.53125,1.75 l 0,3.6875 -1.14062,0 z m 17.13107,-5.46875 -6.15625,0 0,-1.0625 6.15625,0 0,1.0625 z m 0,2.82812 -6.15625,0 0,-1.07812 6.15625,0 0,1.07812 z m 9.45517,2.64063 -1.14063,0 0,-7.28125 q -0.42187,0.39062 -1.09375,0.79687 -0.65625,0.39063 -1.1875,0.57813 l 0,-1.10938 q 0.95313,-0.4375 1.67188,-1.07812 0.71875,-0.64063 1.01562,-1.25 l 0.73438,0 0,9.34375 z"
       id="path3678"
       inkscape:connector-curvature="0"
       style="fill:#000000;fill-rule:nonzero" />
    <path
       d="m 456.25104,309.79224 1.125,-0.17188 q 0.0937,0.67188 0.53125,1.04688 0.4375,0.35937 1.21875,0.35937 0.78125,0 1.15625,-0.3125 0.39062,-0.32812 0.39062,-0.76562 0,-0.39063 -0.34375,-0.60938 -0.23437,-0.15625 -1.17187,-0.39062 -1.25,-0.3125 -1.73438,-0.54688 -0.48437,-0.23437 -0.73437,-0.64062 -0.25,-0.40625 -0.25,-0.90625 0,-0.45313 0.20312,-0.82813 0.20313,-0.39062 0.5625,-0.64062 0.26563,-0.20313 0.71875,-0.32813 0.46875,-0.14062 1,-0.14062 0.78125,0 1.375,0.23437 0.60938,0.21875 0.89063,0.60938 0.29687,0.39062 0.40625,1.04687 l -1.125,0.15625 q -0.0781,-0.53125 -0.4375,-0.8125 -0.35938,-0.29687 -1.03125,-0.29687 -0.78125,0 -1.125,0.26562 -0.34375,0.25 -0.34375,0.60938 0,0.21875 0.14062,0.39062 0.14063,0.1875 0.4375,0.3125 0.17188,0.0625 1.01563,0.28125 1.21875,0.32813 1.6875,0.53125 0.48437,0.20313 0.75,0.60938 0.28125,0.39062 0.28125,0.96875 0,0.57812 -0.34375,1.07812 -0.32813,0.5 -0.95313,0.78125 -0.625,0.28125 -1.42187,0.28125 -1.3125,0 -2,-0.54687 -0.6875,-0.54688 -0.875,-1.625 z m 11.72656,-0.15625 1.1875,0.14062 q -0.28125,1.04688 -1.04687,1.625 -0.75,0.5625 -1.92188,0.5625 -1.48437,0 -2.35937,-0.90625 -0.85938,-0.92187 -0.85938,-2.5625 0,-1.70312 0.875,-2.64062 0.89063,-0.9375 2.28125,-0.9375 1.35938,0 2.20313,0.92187 0.85937,0.92188 0.85937,2.57813 0,0.10937 0,0.3125 l -5.03125,0 q 0.0625,1.10937 0.625,1.70312 0.5625,0.59375 1.40625,0.59375 0.64063,0 1.07813,-0.32812 0.45312,-0.34375 0.70312,-1.0625 z m -3.75,-1.84375 3.76563,0 q -0.0781,-0.85938 -0.4375,-1.28125 -0.54688,-0.65625 -1.40625,-0.65625 -0.79688,0 -1.32813,0.53125 -0.53125,0.51562 -0.59375,1.40625 z m 6.33435,4.57812 1.125,0.15625 q 0.0625,0.51563 0.375,0.75 0.4375,0.32813 1.17188,0.32813 0.78125,0 1.21875,-0.32813 0.4375,-0.3125 0.57812,-0.89062 0.0937,-0.34375 0.0937,-1.45313 -0.75,0.875 -1.875,0.875 -1.39062,0 -2.15625,-1 -0.75,-1 -0.75,-2.40625 0,-0.96875 0.34375,-1.78125 0.35938,-0.8125 1.01563,-1.25 0.65625,-0.45312 1.5625,-0.45312 1.1875,0 1.96875,0.96875 l 0,-0.8125 1.04687,0 0,5.8125 q 0,1.57812 -0.32812,2.23437 -0.3125,0.65625 -1.01563,1.03125 -0.6875,0.39063 -1.70312,0.39063 -1.20313,0 -1.95313,-0.54688 -0.73437,-0.53125 -0.71875,-1.625 z m 0.95313,-4.04687 q 0,1.3125 0.51562,1.92187 0.53125,0.60938 1.32813,0.60938 0.79687,0 1.32812,-0.59375 0.53125,-0.60938 0.53125,-1.90625 0,-1.23438 -0.54687,-1.85938 -0.54688,-0.64062 -1.32813,-0.64062 -0.76562,0 -1.29687,0.625 -0.53125,0.625 -0.53125,1.84375 z"
       id="path3680"
       inkscape:connector-curvature="0"
       style="fill:#000000;fill-rule:nonzero" />
    <path
       d="m 479.44318,318.6985 q -0.65625,-0.82812 -1.10938,-1.92187 -0.45312,-1.10938 -0.45312,-2.29688 0,-1.04687 0.34375,-2.01562 0.39062,-1.10938 1.21875,-2.20313 l 0.5625,0 q -0.53125,0.90625 -0.70313,1.29688 -0.26562,0.60937 -0.42187,1.26562 -0.1875,0.82813 -0.1875,1.65625 0,2.10938 1.3125,4.21875 l -0.5625,0 z m 5.37726,-2.65625 0,0.76563 -4.26563,0 q 0,-0.28125 0.0937,-0.54688 0.17188,-0.4375 0.53125,-0.85937 0.35938,-0.42188 1.03125,-0.96875 1.04688,-0.875 1.40625,-1.375 0.375,-0.5 0.375,-0.95313 0,-0.46875 -0.34375,-0.78125 -0.32812,-0.32812 -0.85937,-0.32812 -0.57813,0 -0.92188,0.34375 -0.34375,0.34375 -0.34375,0.95312 l -0.8125,-0.0937 q 0.0781,-0.90625 0.625,-1.375 0.54688,-0.48437 1.46875,-0.48437 0.92188,0 1.45313,0.51562 0.54687,0.51563 0.54687,1.26563 0,0.39062 -0.15625,0.76562 -0.15625,0.375 -0.53125,0.79688 -0.35937,0.40625 -1.20312,1.125 -0.71875,0.59375 -0.92188,0.8125 -0.20312,0.21875 -0.32812,0.42187 l 3.15625,0 z m 1.20141,0.76563 0,-0.90625 0.90625,0 0,0.90625 q 0,0.5 -0.1875,0.79687 -0.17187,0.3125 -0.54687,0.48438 l -0.21875,-0.34375 q 0.25,-0.10938 0.35937,-0.32813 0.125,-0.20312 0.14063,-0.60937 l -0.45313,0 z m 8.61893,-4.85938 -0.79687,0.0625 q -0.0937,-0.46875 -0.29688,-0.6875 -0.3125,-0.32812 -0.78125,-0.32812 -0.39062,0 -0.67187,0.20312 -0.375,0.28125 -0.59375,0.79688 -0.20313,0.51562 -0.21875,1.48437 0.28125,-0.42187 0.6875,-0.625 0.42187,-0.21875 0.875,-0.21875 0.79687,0 1.34375,0.57813 0.5625,0.57812 0.5625,1.5 0,0.60937 -0.26563,1.14062 -0.26562,0.51563 -0.71875,0.79688 -0.45312,0.26562 -1.03125,0.26562 -0.98437,0 -1.60937,-0.71875 -0.625,-0.73437 -0.625,-2.40625 0,-1.85937 0.6875,-2.71875 0.59375,-0.73437 1.625,-0.73437 0.75,0 1.23437,0.4375 0.48438,0.42187 0.59375,1.17187 z m -3.23437,2.76563 q 0,0.42187 0.17187,0.79687 0.17188,0.35938 0.48438,0.5625 0.3125,0.1875 0.65625,0.1875 0.5,0 0.85937,-0.39062 0.35938,-0.40625 0.35938,-1.10938 0,-0.67187 -0.35938,-1.04687 -0.34375,-0.39063 -0.89062,-0.39063 -0.53125,0 -0.90625,0.39063 -0.375,0.375 -0.375,1 z m 4.79516,3.98437 -0.5625,0 q 1.3125,-2.10937 1.3125,-4.21875 0,-0.82812 -0.1875,-1.64062 -0.15625,-0.65625 -0.42187,-1.26563 -0.17188,-0.39062 -0.70313,-1.3125 l 0.5625,0 q 0.82813,1.09375 1.21875,2.20313 0.34375,0.96875 0.34375,2.01562 0,1.1875 -0.45312,2.29688 -0.45313,1.09375 -1.10938,1.92187 z"
       id="path3682"
       inkscape:connector-curvature="0"
       style="fill:#000000;fill-rule:nonzero" />
    <path
       d="m 457.58035,343.80786 0,-9.3125 1.14062,0 0,9.3125 -1.14062,0 z m 7.60172,-2.17188 1.1875,0.14063 q -0.28125,1.04687 -1.04688,1.625 -0.75,0.5625 -1.92187,0.5625 -1.48438,0 -2.35938,-0.90625 -0.85937,-0.92188 -0.85937,-2.5625 0,-1.70313 0.875,-2.64063 0.89062,-0.9375 2.28125,-0.9375 1.35937,0 2.20312,0.92188 0.85938,0.92187 0.85938,2.57812 0,0.10938 0,0.3125 l -5.03125,0 q 0.0625,1.10938 0.625,1.70313 0.5625,0.59375 1.40625,0.59375 0.64062,0 1.07812,-0.32813 0.45313,-0.34375 0.70313,-1.0625 z m -3.75,-1.84375 3.76562,0 q -0.0781,-0.85937 -0.4375,-1.28125 -0.54687,-0.65625 -1.40625,-0.65625 -0.79687,0 -1.32812,0.53125 -0.53125,0.51563 -0.59375,1.40625 z m 6.5531,4.01563 0,-6.73438 1.03125,0 0,0.95313 q 0.73437,-1.10938 2.14062,-1.10938 0.60938,0 1.10938,0.21875 0.51562,0.21875 0.76562,0.57813 0.26563,0.34375 0.35938,0.84375 0.0625,0.3125 0.0625,1.10937 l 0,4.14063 -1.14063,0 0,-4.09375 q 0,-0.70313 -0.14062,-1.04688 -0.125,-0.34375 -0.46875,-0.54687 -0.32813,-0.21875 -0.78125,-0.21875 -0.73438,0 -1.26563,0.46875 -0.53125,0.45312 -0.53125,1.75 l 0,3.6875 -1.14062,0 z m 17.1311,-5.46875 -6.15625,0 0,-1.0625 6.15625,0 0,1.0625 z m 0,2.82812 -6.15625,0 0,-1.07812 6.15625,0 0,1.07812 z m 11.15826,1.54688 0,1.09375 -6.15625,0 q -0.0156,-0.40625 0.14063,-0.79688 0.23437,-0.625 0.75,-1.23437 0.51562,-0.60938 1.5,-1.40625 1.51562,-1.25 2.04687,-1.96875 0.53125,-0.73438 0.53125,-1.375 0,-0.6875 -0.48437,-1.14063 -0.48438,-0.46875 -1.26563,-0.46875 -0.82812,0 -1.32812,0.5 -0.48438,0.48438 -0.5,1.35938 l -1.17188,-0.125 q 0.125,-1.3125 0.90625,-2 0.78125,-0.6875 2.10938,-0.6875 1.34375,0 2.125,0.75 0.78125,0.73437 0.78125,1.82812 0,0.5625 -0.23438,1.10938 -0.21875,0.53125 -0.75,1.14062 -0.53125,0.59375 -1.76562,1.625 -1.03125,0.85938 -1.32813,1.17188 -0.28125,0.3125 -0.46875,0.625 l 4.5625,0 z"
       id="path3684"
       inkscape:connector-curvature="0"
       style="fill:#000000;fill-rule:nonzero" />
    <path
       d="m 593.4321,309.79224 1.125,-0.17188 q 0.0937,0.67188 0.53125,1.04688 0.4375,0.35937 1.21875,0.35937 0.78125,0 1.15625,-0.3125 0.39062,-0.32812 0.39062,-0.76562 0,-0.39063 -0.34375,-0.60938 -0.23437,-0.15625 -1.17187,-0.39062 -1.25,-0.3125 -1.73438,-0.54688 -0.48437,-0.23437 -0.73437,-0.64062 -0.25,-0.40625 -0.25,-0.90625 0,-0.45313 0.20312,-0.82813 0.20313,-0.39062 0.5625,-0.64062 0.26563,-0.20313 0.71875,-0.32813 0.46875,-0.14062 1,-0.14062 0.78125,0 1.375,0.23437 0.60938,0.21875 0.89063,0.60938 0.29687,0.39062 0.40625,1.04687 l -1.125,0.15625 q -0.0781,-0.53125 -0.4375,-0.8125 -0.35938,-0.29687 -1.03125,-0.29687 -0.78125,0 -1.125,0.26562 -0.34375,0.25 -0.34375,0.60938 0,0.21875 0.14062,0.39062 0.14063,0.1875 0.4375,0.3125 0.17188,0.0625 1.01563,0.28125 1.21875,0.32813 1.6875,0.53125 0.48437,0.20313 0.75,0.60938 0.28125,0.39062 0.28125,0.96875 0,0.57812 -0.34375,1.07812 -0.32813,0.5 -0.95313,0.78125 -0.625,0.28125 -1.42187,0.28125 -1.3125,0 -2,-0.54687 -0.6875,-0.54688 -0.875,-1.625 z m 11.72656,-0.15625 1.1875,0.14062 q -0.28125,1.04688 -1.04687,1.625 -0.75,0.5625 -1.92188,0.5625 -1.48437,0 -2.35937,-0.90625 -0.85938,-0.92187 -0.85938,-2.5625 0,-1.70312 0.875,-2.64062 0.89063,-0.9375 2.28125,-0.9375 1.35938,0 2.20313,0.92187 0.85937,0.92188 0.85937,2.57813 0,0.10937 0,0.3125 l -5.03125,0 q 0.0625,1.10937 0.625,1.70312 0.5625,0.59375 1.40625,0.59375 0.64063,0 1.07813,-0.32812 0.45312,-0.34375 0.70312,-1.0625 z m -3.75,-1.84375 3.76563,0 q -0.0781,-0.85938 -0.4375,-1.28125 -0.54688,-0.65625 -1.40625,-0.65625 -0.79688,0 -1.32813,0.53125 -0.53125,0.51562 -0.59375,1.40625 z m 6.33435,4.57812 1.125,0.15625 q 0.0625,0.51563 0.375,0.75 0.4375,0.32813 1.17188,0.32813 0.78125,0 1.21875,-0.32813 0.4375,-0.3125 0.57812,-0.89062 0.0937,-0.34375 0.0937,-1.45313 -0.75,0.875 -1.875,0.875 -1.39062,0 -2.15625,-1 -0.75,-1 -0.75,-2.40625 0,-0.96875 0.34375,-1.78125 0.35938,-0.8125 1.01563,-1.25 0.65625,-0.45312 1.5625,-0.45312 1.1875,0 1.96875,0.96875 l 0,-0.8125 1.04687,0 0,5.8125 q 0,1.57812 -0.32812,2.23437 -0.3125,0.65625 -1.01563,1.03125 -0.6875,0.39063 -1.70312,0.39063 -1.20313,0 -1.95313,-0.54688 -0.73437,-0.53125 -0.71875,-1.625 z m 0.95313,-4.04687 q 0,1.3125 0.51562,1.92187 0.53125,0.60938 1.32813,0.60938 0.79687,0 1.32812,-0.59375 0.53125,-0.60938 0.53125,-1.90625 0,-1.23438 -0.54687,-1.85938 -0.54688,-0.64062 -1.32813,-0.64062 -0.76562,0 -1.29687,0.625 -0.53125,0.625 -0.53125,1.84375 z"
       id="path3686"
       inkscape:connector-curvature="0"
       style="fill:#000000;fill-rule:nonzero" />
    <path
       d="m 616.62427,318.6985 q -0.65625,-0.82812 -1.10937,-1.92187 -0.45313,-1.10938 -0.45313,-2.29688 0,-1.04687 0.34375,-2.01562 0.39063,-1.10938 1.21875,-2.20313 l 0.5625,0 q -0.53125,0.90625 -0.70312,1.29688 -0.26563,0.60937 -0.42188,1.26562 -0.1875,0.82813 -0.1875,1.65625 0,2.10938 1.3125,4.21875 l -0.5625,0 z m 5.37726,-2.65625 0,0.76563 -4.26563,0 q 0,-0.28125 0.0937,-0.54688 0.17188,-0.4375 0.53125,-0.85937 0.35938,-0.42188 1.03125,-0.96875 1.04688,-0.875 1.40625,-1.375 0.375,-0.5 0.375,-0.95313 0,-0.46875 -0.34375,-0.78125 -0.32812,-0.32812 -0.85937,-0.32812 -0.57813,0 -0.92188,0.34375 -0.34375,0.34375 -0.34375,0.95312 l -0.8125,-0.0937 q 0.0781,-0.90625 0.625,-1.375 0.54688,-0.48437 1.46875,-0.48437 0.92188,0 1.45313,0.51562 0.54687,0.51563 0.54687,1.26563 0,0.39062 -0.15625,0.76562 -0.15625,0.375 -0.53125,0.79688 -0.35937,0.40625 -1.20312,1.125 -0.71875,0.59375 -0.92188,0.8125 -0.20312,0.21875 -0.32812,0.42187 l 3.15625,0 z m 1.20141,0.76563 0,-0.90625 0.90625,0 0,0.90625 q 0,0.5 -0.1875,0.79687 -0.17187,0.3125 -0.54687,0.48438 l -0.21875,-0.34375 q 0.25,-0.10938 0.35937,-0.32813 0.125,-0.20312 0.14063,-0.60937 l -0.45313,0 z m 4.55646,-5.59375 0,-0.76563 4.17188,0 0,0.60938 q -0.60938,0.65625 -1.21875,1.75 -0.60938,1.07812 -0.9375,2.23437 -0.23438,0.79688 -0.29688,1.76563 l -0.8125,0 q 0.0156,-0.76563 0.29688,-1.82813 0.28125,-1.07812 0.8125,-2.07812 0.54687,-1 1.14062,-1.6875 l -3.15625,0 z m 5.62329,7.48437 -0.5625,0 q 1.3125,-2.10937 1.3125,-4.21875 0,-0.82812 -0.1875,-1.64062 -0.15625,-0.65625 -0.42187,-1.26563 -0.17188,-0.39062 -0.70313,-1.3125 l 0.5625,0 q 0.82813,1.09375 1.21875,2.20313 0.34375,0.96875 0.34375,2.01562 0,1.1875 -0.45312,2.29688 -0.45313,1.09375 -1.10938,1.92187 z"
       id="path3688"
       inkscape:connector-curvature="0"
       style="fill:#000000;fill-rule:nonzero" />
    <path
       d="m 594.7615,343.80786 0,-9.3125 1.14062,0 0,9.3125 -1.14062,0 z m 7.60168,-2.17188 1.1875,0.14063 q -0.28125,1.04687 -1.04687,1.625 -0.75,0.5625 -1.92188,0.5625 -1.48437,0 -2.35937,-0.90625 -0.85938,-0.92188 -0.85938,-2.5625 0,-1.70313 0.875,-2.64063 0.89063,-0.9375 2.28125,-0.9375 1.35938,0 2.20313,0.92188 0.85937,0.92187 0.85937,2.57812 0,0.10938 0,0.3125 l -5.03125,0 q 0.0625,1.10938 0.625,1.70313 0.5625,0.59375 1.40625,0.59375 0.64063,0 1.07813,-0.32813 0.45312,-0.34375 0.70312,-1.0625 z m -3.75,-1.84375 3.76563,0 q -0.0781,-0.85937 -0.4375,-1.28125 -0.54688,-0.65625 -1.40625,-0.65625 -0.79688,0 -1.32813,0.53125 -0.53125,0.51563 -0.59375,1.40625 z m 6.55311,4.01563 0,-6.73438 1.03125,0 0,0.95313 q 0.73437,-1.10938 2.14062,-1.10938 0.60938,0 1.10938,0.21875 0.51562,0.21875 0.76562,0.57813 0.26563,0.34375 0.35938,0.84375 0.0625,0.3125 0.0625,1.10937 l 0,4.14063 -1.14063,0 0,-4.09375 q 0,-0.70313 -0.14062,-1.04688 -0.125,-0.34375 -0.46875,-0.54687 -0.32813,-0.21875 -0.78125,-0.21875 -0.73438,0 -1.26563,0.46875 -0.53125,0.45312 -0.53125,1.75 l 0,3.6875 -1.14062,0 z m 17.1311,-5.46875 -6.15625,0 0,-1.0625 6.15625,0 0,1.0625 z m 0,2.82812 -6.15625,0 0,-1.07812 6.15625,0 0,1.07812 z m 11.15826,1.54688 0,1.09375 -6.15625,0 q -0.0156,-0.40625 0.14063,-0.79688 0.23437,-0.625 0.75,-1.23437 0.51562,-0.60938 1.5,-1.40625 1.51562,-1.25 2.04687,-1.96875 0.53125,-0.73438 0.53125,-1.375 0,-0.6875 -0.48437,-1.14063 -0.48438,-0.46875 -1.26563,-0.46875 -0.82812,0 -1.32812,0.5 -0.48438,0.48438 -0.5,1.35938 l -1.17188,-0.125 q 0.125,-1.3125 0.90625,-2 0.78125,-0.6875 2.10938,-0.6875 1.34375,0 2.125,0.75 0.78125,0.73437 0.78125,1.82812 0,0.5625 -0.23438,1.10938 -0.21875,0.53125 -0.75,1.14062 -0.53125,0.59375 -1.76562,1.625 -1.03125,0.85938 -1.32813,1.17188 -0.28125,0.3125 -0.46875,0.625 l 4.5625,0 z"
       id="path3690"
       inkscape:connector-curvature="0"
       style="fill:#000000;fill-rule:nonzero" />
    <path
       d="m 799.2038,309.79224 1.125,-0.17188 q 0.0937,0.67188 0.53125,1.04688 0.4375,0.35937 1.21875,0.35937 0.78125,0 1.15625,-0.3125 0.39062,-0.32812 0.39062,-0.76562 0,-0.39063 -0.34375,-0.60938 -0.23437,-0.15625 -1.17187,-0.39062 -1.25,-0.3125 -1.73438,-0.54688 -0.48437,-0.23437 -0.73437,-0.64062 -0.25,-0.40625 -0.25,-0.90625 0,-0.45313 0.20312,-0.82813 0.20313,-0.39062 0.5625,-0.64062 0.26563,-0.20313 0.71875,-0.32813 0.46875,-0.14062 1,-0.14062 0.78125,0 1.375,0.23437 0.60938,0.21875 0.89063,0.60938 0.29687,0.39062 0.40625,1.04687 l -1.125,0.15625 q -0.0781,-0.53125 -0.4375,-0.8125 -0.35938,-0.29687 -1.03125,-0.29687 -0.78125,0 -1.125,0.26562 -0.34375,0.25 -0.34375,0.60938 0,0.21875 0.14062,0.39062 0.14063,0.1875 0.4375,0.3125 0.17188,0.0625 1.01563,0.28125 1.21875,0.32813 1.6875,0.53125 0.48437,0.20313 0.75,0.60938 0.28125,0.39062 0.28125,0.96875 0,0.57812 -0.34375,1.07812 -0.32813,0.5 -0.95313,0.78125 -0.625,0.28125 -1.42187,0.28125 -1.3125,0 -2,-0.54687 -0.6875,-0.54688 -0.875,-1.625 z m 11.72656,-0.15625 1.1875,0.14062 q -0.28125,1.04688 -1.04687,1.625 -0.75,0.5625 -1.92188,0.5625 -1.48437,0 -2.35937,-0.90625 -0.85938,-0.92187 -0.85938,-2.5625 0,-1.70312 0.875,-2.64062 0.89063,-0.9375 2.28125,-0.9375 1.35938,0 2.20313,0.92187 0.85937,0.92188 0.85937,2.57813 0,0.10937 0,0.3125 l -5.03125,0 q 0.0625,1.10937 0.625,1.70312 0.5625,0.59375 1.40625,0.59375 0.64063,0 1.07813,-0.32812 0.45312,-0.34375 0.70312,-1.0625 z m -3.75,-1.84375 3.76563,0 q -0.0781,-0.85938 -0.4375,-1.28125 -0.54688,-0.65625 -1.40625,-0.65625 -0.79688,0 -1.32813,0.53125 -0.53125,0.51562 -0.59375,1.40625 z m 6.33435,4.57812 1.125,0.15625 q 0.0625,0.51563 0.375,0.75 0.4375,0.32813 1.17188,0.32813 0.78125,0 1.21875,-0.32813 0.4375,-0.3125 0.57812,-0.89062 0.0937,-0.34375 0.0937,-1.45313 -0.75,0.875 -1.875,0.875 -1.39062,0 -2.15625,-1 -0.75,-1 -0.75,-2.40625 0,-0.96875 0.34375,-1.78125 0.35938,-0.8125 1.01563,-1.25 0.65625,-0.45312 1.5625,-0.45312 1.1875,0 1.96875,0.96875 l 0,-0.8125 1.04687,0 0,5.8125 q 0,1.57812 -0.32812,2.23437 -0.3125,0.65625 -1.01563,1.03125 -0.6875,0.39063 -1.70312,0.39063 -1.20313,0 -1.95313,-0.54688 -0.73437,-0.53125 -0.71875,-1.625 z m 0.95313,-4.04687 q 0,1.3125 0.51562,1.92187 0.53125,0.60938 1.32813,0.60938 0.79687,0 1.32812,-0.59375 0.53125,-0.60938 0.53125,-1.90625 0,-1.23438 -0.54687,-1.85938 -0.54688,-0.64062 -1.32813,-0.64062 -0.76562,0 -1.29687,0.625 -0.53125,0.625 -0.53125,1.84375 z"
       id="path3692"
       inkscape:connector-curvature="0"
       style="fill:#000000;fill-rule:nonzero" />
    <path
       d="m 822.39594,318.6985 q -0.65625,-0.82812 -1.10938,-1.92187 -0.45312,-1.10938 -0.45312,-2.29688 0,-1.04687 0.34375,-2.01562 0.39062,-1.10938 1.21875,-2.20313 l 0.5625,0 q -0.53125,0.90625 -0.70313,1.29688 -0.26562,0.60937 -0.42187,1.26562 -0.1875,0.82813 -0.1875,1.65625 0,2.10938 1.3125,4.21875 l -0.5625,0 z m 5.37726,-2.65625 0,0.76563 -4.26563,0 q 0,-0.28125 0.0937,-0.54688 0.17188,-0.4375 0.53125,-0.85937 0.35938,-0.42188 1.03125,-0.96875 1.04688,-0.875 1.40625,-1.375 0.375,-0.5 0.375,-0.95313 0,-0.46875 -0.34375,-0.78125 -0.32812,-0.32812 -0.85937,-0.32812 -0.57813,0 -0.92188,0.34375 -0.34375,0.34375 -0.34375,0.95312 l -0.8125,-0.0937 q 0.0781,-0.90625 0.625,-1.375 0.54688,-0.48437 1.46875,-0.48437 0.92188,0 1.45313,0.51562 0.54687,0.51563 0.54687,1.26563 0,0.39062 -0.15625,0.76562 -0.15625,0.375 -0.53125,0.79688 -0.35937,0.40625 -1.20312,1.125 -0.71875,0.59375 -0.92188,0.8125 -0.20312,0.21875 -0.32812,0.42187 l 3.15625,0 z m 1.20141,0.76563 0,-0.90625 0.90625,0 0,0.90625 q 0,0.5 -0.1875,0.79687 -0.17187,0.3125 -0.54687,0.48438 l -0.21875,-0.34375 q 0.25,-0.10938 0.35937,-0.32813 0.125,-0.20312 0.14063,-0.60937 l -0.45313,0 z m 5.72834,-3.5 q -0.5,-0.17188 -0.73438,-0.5 -0.23437,-0.34375 -0.23437,-0.8125 0,-0.70313 0.5,-1.17188 0.51562,-0.48437 1.34375,-0.48437 0.84375,0 1.35937,0.5 0.51563,0.48437 0.51563,1.1875 0,0.4375 -0.23438,0.78125 -0.23437,0.32812 -0.71875,0.5 0.59375,0.20312 0.90625,0.64062 0.3125,0.42188 0.3125,1.01563 0,0.82812 -0.59375,1.39062 -0.57812,0.5625 -1.53125,0.5625 -0.95312,0 -1.54687,-0.5625 -0.57813,-0.5625 -0.57813,-1.40625 0,-0.625 0.3125,-1.04687 0.32813,-0.4375 0.92188,-0.59375 z m -0.15625,-1.32813 q 0,0.45313 0.28125,0.75 0.29687,0.28125 0.76562,0.28125 0.46875,0 0.75,-0.28125 0.29688,-0.29687 0.29688,-0.71875 0,-0.42187 -0.29688,-0.71875 -0.29687,-0.29687 -0.75,-0.29687 -0.45312,0 -0.75,0.29687 -0.29687,0.28125 -0.29687,0.6875 z m -0.26563,2.96875 q 0,0.34375 0.15625,0.65625 0.17188,0.3125 0.48438,0.48438 0.3125,0.17187 0.6875,0.17187 0.5625,0 0.92187,-0.35937 0.375,-0.35938 0.375,-0.92188 0,-0.57812 -0.375,-0.95312 -0.375,-0.375 -0.95312,-0.375 -0.5625,0 -0.9375,0.375 -0.35938,0.375 -0.35938,0.92187 z m 4.87329,3.75 -0.5625,0 q 1.3125,-2.10937 1.3125,-4.21875 0,-0.82812 -0.1875,-1.64062 -0.15625,-0.65625 -0.42187,-1.26563 -0.17188,-0.39062 -0.70313,-1.3125 l 0.5625,0 q 0.82813,1.09375 1.21875,2.20313 0.34375,0.96875 0.34375,2.01562 0,1.1875 -0.45312,2.29688 -0.45313,1.09375 -1.10938,1.92187 z"
       id="path3694"
       inkscape:connector-curvature="0"
       style="fill:#000000;fill-rule:nonzero" />
    <path
       d="m 800.53314,343.80786 0,-9.3125 1.14062,0 0,9.3125 -1.14062,0 z m 7.60168,-2.17188 1.1875,0.14063 q -0.28125,1.04687 -1.04687,1.625 -0.75,0.5625 -1.92188,0.5625 -1.48437,0 -2.35937,-0.90625 -0.85938,-0.92188 -0.85938,-2.5625 0,-1.70313 0.875,-2.64063 0.89063,-0.9375 2.28125,-0.9375 1.35938,0 2.20313,0.92188 0.85937,0.92187 0.85937,2.57812 0,0.10938 0,0.3125 l -5.03125,0 q 0.0625,1.10938 0.625,1.70313 0.5625,0.59375 1.40625,0.59375 0.64063,0 1.07813,-0.32813 0.45312,-0.34375 0.70312,-1.0625 z m -3.75,-1.84375 3.76563,0 q -0.0781,-0.85937 -0.4375,-1.28125 -0.54688,-0.65625 -1.40625,-0.65625 -0.79688,0 -1.32813,0.53125 -0.53125,0.51563 -0.59375,1.40625 z m 6.55311,4.01563 0,-6.73438 1.03125,0 0,0.95313 q 0.73437,-1.10938 2.14062,-1.10938 0.60938,0 1.10938,0.21875 0.51562,0.21875 0.76562,0.57813 0.26563,0.34375 0.35938,0.84375 0.0625,0.3125 0.0625,1.10937 l 0,4.14063 -1.14063,0 0,-4.09375 q 0,-0.70313 -0.14062,-1.04688 -0.125,-0.34375 -0.46875,-0.54687 -0.32813,-0.21875 -0.78125,-0.21875 -0.73438,0 -1.26563,0.46875 -0.53125,0.45312 -0.53125,1.75 l 0,3.6875 -1.14062,0 z m 17.1311,-5.46875 -6.15625,0 0,-1.0625 6.15625,0 0,1.0625 z m 0,2.82812 -6.15625,0 0,-1.07812 6.15625,0 0,1.07812 z m 8.81451,2.64063 0,-2.23438 -4.03125,0 0,-1.04687 4.23438,-6.03125 0.9375,0 0,6.03125 1.26562,0 0,1.04687 -1.26562,0 0,2.23438 -1.14063,0 z m 0,-3.28125 0,-4.1875 -2.92187,4.1875 2.92187,0 z"
       id="path3696"
       inkscape:connector-curvature="0"
       style="fill:#000000;fill-rule:nonzero" />
    <path
       d="m 21.470133,382.00473 0,-9.3125 4.125,0 q 1.25,0 1.890625,0.26562 0.65625,0.25 1.046875,0.89063 0.390625,0.625 0.390625,1.39062 0,0.98438 -0.65625,1.67188 -0.640625,0.67187 -1.96875,0.85937 0.484375,0.23438 0.734375,0.46875 0.546875,0.48438 1.03125,1.23438 l 1.609375,2.53125 -1.546875,0 -1.234375,-1.9375 q -0.53125,-0.84375 -0.890625,-1.28125 -0.34375,-0.4375 -0.625,-0.60938 -0.265625,-0.1875 -0.546875,-0.26562 -0.21875,-0.0312 -0.6875,-0.0312 l -1.4375,0 0,4.125 -1.234375,0 z m 1.234375,-5.20313 2.65625,0 q 0.84375,0 1.3125,-0.17187 0.484375,-0.17188 0.71875,-0.54688 0.25,-0.39062 0.25,-0.84375 0,-0.65625 -0.484375,-1.07812 -0.46875,-0.4375 -1.5,-0.4375 l -2.953125,0 0,3.07812 z m 12.656404,5.20313 0,-0.98438 q -0.796875,1.14063 -2.140625,1.14063 -0.59375,0 -1.125,-0.23438 -0.515626,-0.23437 -0.765626,-0.57812 -0.25,-0.34375 -0.34375,-0.84375 -0.07813,-0.32813 -0.07813,-1.0625 l 0,-4.17188 1.140626,0 0,3.73438 q 0,0.89062 0.07813,1.20312 0.109375,0.45313 0.453125,0.71875 0.34375,0.25 0.859375,0.25 0.515625,0 0.96875,-0.26562 0.453125,-0.26563 0.640625,-0.71875 0.1875,-0.45313 0.1875,-1.3125 l 0,-3.60938 1.140625,0 0,6.73438 -1.015625,0 z m 2.959351,0 0,-9.3125 1.140625,0 0,9.3125 -1.140625,0 z m 7.601715,-2.17188 1.1875,0.14063 q -0.28125,1.04687 -1.046875,1.625 -0.75,0.5625 -1.921875,0.5625 -1.484375,0 -2.359375,-0.90625 -0.859375,-0.92188 -0.859375,-2.5625 0,-1.70313 0.875,-2.64063 0.890625,-0.9375 2.28125,-0.9375 1.359375,0 2.203125,0.92188 0.859375,0.92187 0.859375,2.57812 0,0.10938 0,0.3125 l -5.03125,0 q 0.0625,1.10938 0.625,1.70313 0.5625,0.59375 1.40625,0.59375 0.640625,0 1.078125,-0.32813 0.453125,-0.34375 0.703125,-1.0625 z m -3.75,-1.84375 3.765625,0 q -0.07813,-0.85937 -0.4375,-1.28125 -0.546875,-0.65625 -1.40625,-0.65625 -0.796875,0 -1.328125,0.53125 -0.53125,0.51563 -0.59375,1.40625 z"
       id="path3698"
       inkscape:connector-curvature="0"
       style="fill:#000000;fill-rule:nonzero" />
    <path
       d="m 163.89774,380.53098 1.67187,-0.21875 q 0.28125,1.42187 0.96875,2.04687 0.70313,0.625 1.6875,0.625 1.1875,0 2,-0.8125 0.8125,-0.82812 0.8125,-2.03125 0,-1.14062 -0.76562,-1.89062 -0.75,-0.75 -1.90625,-0.75 -0.46875,0 -1.17188,0.1875 l 0.1875,-1.46875 q 0.15625,0.0156 0.26563,0.0156 1.0625,0 1.90625,-0.54687 0.85937,-0.5625 0.85937,-1.71875 0,-0.92188 -0.625,-1.51563 -0.60937,-0.60937 -1.59375,-0.60937 -0.96875,0 -1.625,0.60937 -0.64062,0.60938 -0.82812,1.84375 l -1.67188,-0.29687 q 0.29688,-1.6875 1.375,-2.60938 1.09375,-0.92187 2.71875,-0.92187 1.10938,0 2.04688,0.48437 0.9375,0.46875 1.42187,1.29688 0.5,0.82812 0.5,1.75 0,0.89062 -0.46875,1.60937 -0.46875,0.71875 -1.40625,1.15625 1.21875,0.26563 1.875,1.15625 0.67188,0.875 0.67188,2.1875 0,1.78125 -1.29688,3.01563 -1.29687,1.23437 -3.28125,1.23437 -1.79687,0 -2.98437,-1.0625 -1.17188,-1.0625 -1.34375,-2.76562 z"
       id="path3700"
       inkscape:connector-curvature="0"
       style="fill:#000000;fill-rule:nonzero" />
    <path
       d="m 344.13974,382.51535 0,1.60937 -8.98437,0 q -0.0156,-0.60937 0.1875,-1.15625 0.34375,-0.92187 1.09375,-1.8125 0.76562,-0.89062 2.1875,-2.0625 2.21875,-1.8125 3,-2.875 0.78125,-1.0625 0.78125,-2.01562 0,-0.98438 -0.71875,-1.67188 -0.70313,-0.6875 -1.84375,-0.6875 -1.20313,0 -1.9375,0.73438 -0.71875,0.71875 -0.71875,2 l -1.71875,-0.17188 q 0.17187,-1.92187 1.32812,-2.92187 1.15625,-1.01563 3.09375,-1.01563 1.95313,0 3.09375,1.09375 1.14063,1.07813 1.14063,2.6875 0,0.8125 -0.34375,1.60938 -0.32813,0.78125 -1.10938,1.65625 -0.76562,0.85937 -2.5625,2.39062 -1.5,1.26563 -1.9375,1.71875 -0.42187,0.4375 -0.70312,0.89063 l 6.67187,0 z"
       id="path3702"
       inkscape:connector-curvature="0"
       style="fill:#000000;fill-rule:nonzero" />
    <path
       d="m 678.3112,380.56223 1.76562,-0.15625 q 0.1875,1.28125 0.89063,1.9375 0.71875,0.64062 1.71875,0.64062 1.20312,0 2.03125,-0.90625 0.84375,-0.90625 0.84375,-2.42187 0,-1.42188 -0.8125,-2.25 -0.79688,-0.82813 -2.09375,-0.82813 -0.79688,0 -1.45313,0.375 -0.64062,0.35938 -1.01562,0.95313 l -1.57813,-0.20313 1.32813,-7 6.76562,0 0,1.60938 -5.4375,0 -0.73437,3.64062 q 1.23437,-0.84375 2.57812,-0.84375 1.78125,0 3,1.23438 1.23438,1.23437 1.23438,3.17187 0,1.84375 -1.07813,3.1875 -1.3125,1.65625 -3.57812,1.65625 -1.85938,0 -3.03125,-1.03125 -1.17188,-1.04687 -1.34375,-2.76562 z"
       id="path3704"
       inkscape:connector-curvature="0"
       style="fill:#000000;fill-rule:nonzero" />
  </g>
</svg>
