<?xml version="1.0" encoding="UTF-8" standalone="no"?>
<svg
   xmlns:dc="http://purl.org/dc/elements/1.1/"
   xmlns:cc="http://creativecommons.org/ns#"
   xmlns:rdf="http://www.w3.org/1999/02/22-rdf-syntax-ns#"
   xmlns:svg="http://www.w3.org/2000/svg"
   xmlns="http://www.w3.org/2000/svg"
   xmlns:sodipodi="http://sodipodi.sourceforge.net/DTD/sodipodi-0.dtd"
   xmlns:inkscape="http://www.inkscape.org/namespaces/inkscape"
   version="1.1"
   viewBox="0 0 710.51428 276.91254"
   stroke-miterlimit="10"
   id="svg2"
   inkscape:version="0.48.4 r9939"
   width="100%"
   height="100%"
   sodipodi:docname="level_analysis.svg"
   style="fill:none;stroke:none">
  <metadata
     id="metadata123">
    <rdf:RDF>
      <cc:Work
         rdf:about="">
        <dc:format>image/svg+xml</dc:format>
        <dc:type
           rdf:resource="http://purl.org/dc/dcmitype/StillImage" />
      </cc:Work>
    </rdf:RDF>
  </metadata>
  <defs
     id="defs121">
    <clipPath
       clipPathUnits="userSpaceOnUse"
       id="clipPath3102">
      <rect
         style="fill:none;stroke:#000000;stroke-width:0.9518984;stroke-opacity:1"
         id="rect3104"
         width="710.51428"
         height="276.91254"
         x="90.357315"
         y="134.97594" />
    </clipPath>
  </defs>
  <sodipodi:namedview
     pagecolor="#ffffff"
     bordercolor="#666666"
     borderopacity="1"
     objecttolerance="10"
     gridtolerance="10"
     guidetolerance="10"
     inkscape:pageopacity="0"
     inkscape:pageshadow="2"
     inkscape:window-width="1280"
     inkscape:window-height="744"
     id="namedview119"
     showgrid="false"
     fit-margin-top="0"
     fit-margin-left="0"
     fit-margin-right="0"
     fit-margin-bottom="0"
     inkscape:zoom="0.87407407"
     inkscape:cx="389.64268"
     inkscape:cy="141.88847"
     inkscape:window-x="-4"
     inkscape:window-y="-4"
     inkscape:window-maximized="1"
     inkscape:current-layer="svg2" />
  <clipPath
     id="g1cdd9bc40_00.0">
    <path
       d="M 0,0 960,0 960,540 0,540 0,0 z"
       clip-rule="nonzero"
       id="path5"
       inkscape:connector-curvature="0" />
  </clipPath>
  <g
     clip-path="url(#clipPath3102)"
     id="g7"
     transform="translate(-90.357315,-134.97594)">
    <path
       d="m 0,0 960,0 0,540 -960,0 z"
       id="path9"
       inkscape:connector-curvature="0"
       style="fill:#ffffff;fill-rule:nonzero" />
    <path
       d="m 217.55643,197.96588 0,206.98163"
       id="path11"
       inkscape:connector-curvature="0"
       style="stroke:#ff00ff;stroke-width:4;stroke-linecap:butt;stroke-dasharray:16, 12" />
    <path
       d="m 748.66406,197.96588 0,206.98163"
       id="path13"
       inkscape:connector-curvature="0"
       style="stroke:#ff00ff;stroke-width:4;stroke-linecap:butt;stroke-dasharray:16, 12" />
    <path
       d="m 99.50131,198.46457 689.8556,0"
       id="path15"
       inkscape:connector-curvature="0"
       style="stroke:#000000;stroke-width:1;stroke-linecap:butt" />
    <path
       d="m 99.50131,239.66142 689.8556,0"
       id="path17"
       inkscape:connector-curvature="0"
       style="stroke:#000000;stroke-width:1;stroke-linecap:butt" />
    <path
       d="m 99.50131,280.85828 689.8556,0"
       id="path19"
       inkscape:connector-curvature="0"
       style="stroke:#000000;stroke-width:1;stroke-linecap:butt" />
    <path
       d="m 99.50131,322.0551 689.8556,0"
       id="path21"
       inkscape:connector-curvature="0"
       style="stroke:#000000;stroke-width:1;stroke-linecap:butt" />
    <path
       d="m 99.50131,363.25198 689.8556,0"
       id="path23"
       inkscape:connector-curvature="0"
       style="stroke:#000000;stroke-width:1;stroke-linecap:butt" />
    <path
       d="m 99.50131,404.44882 689.8556,0"
       id="path25"
       inkscape:connector-curvature="0"
       style="stroke:#000000;stroke-width:1;stroke-linecap:butt" />
    <path
       d="m 110.39063,225.38457 0,-13.59375 1.79687,0 0,11.98437 6.70313,0 0,1.60938 -8.5,0 z m 16.98509,-3.17188 1.71875,0.21875 q -0.40625,1.5 -1.51563,2.34375 -1.09375,0.82813 -2.8125,0.82813 -2.15625,0 -3.42187,-1.32813 -1.26563,-1.32812 -1.26563,-3.73437 0,-2.48438 1.26563,-3.85938 1.28125,-1.375 3.32812,-1.375 1.98438,0 3.23438,1.34375 1.25,1.34375 1.25,3.79688 0,0.14062 -0.0156,0.4375 l -7.34375,0 q 0.0937,1.625 0.92188,2.48437 0.82812,0.85938 2.0625,0.85938 0.90625,0 1.54687,-0.46875 0.65625,-0.48438 1.04688,-1.54688 z m -5.48438,-2.70312 5.5,0 q -0.10937,-1.23438 -0.625,-1.85938 -0.79687,-0.96875 -2.07812,-0.96875 -1.14063,0 -1.9375,0.78125 -0.78125,0.76563 -0.85938,2.04688 z m 11.84447,5.875 -3.75,-9.85938 1.76562,0 2.125,5.90625 q 0.34375,0.95313 0.625,1.98438 0.21875,-0.78125 0.625,-1.875 l 2.1875,-6.01563 1.71875,0 -3.73437,9.85938 -1.5625,0 z m 13.34375,-3.17188 1.71875,0.21875 q -0.40625,1.5 -1.51563,2.34375 -1.09375,0.82813 -2.8125,0.82813 -2.15625,0 -3.42187,-1.32813 -1.26563,-1.32812 -1.26563,-3.73437 0,-2.48438 1.26563,-3.85938 1.28125,-1.375 3.32812,-1.375 1.98438,0 3.23438,1.34375 1.25,1.34375 1.25,3.79688 0,0.14062 -0.0156,0.4375 l -7.34375,0 q 0.0937,1.625 0.92188,2.48437 0.82812,0.85938 2.0625,0.85938 0.90625,0 1.54687,-0.46875 0.65625,-0.48438 1.04688,-1.54688 z m -5.48438,-2.70312 5.5,0 q -0.10937,-1.23438 -0.625,-1.85938 -0.79687,-0.96875 -2.07812,-0.96875 -1.14063,0 -1.9375,0.78125 -0.78125,0.76563 -0.85938,2.04688 z m 9.07885,5.875 0,-13.59375 1.67187,0 0,13.59375 -1.67187,0 z m 15.1875,0 -1.67188,0 0,-10.64063 q -0.59375,0.57813 -1.57812,1.15625 -0.98438,0.5625 -1.76563,0.85938 l 0,-1.625 q 1.40625,-0.65625 2.45313,-1.59375 1.04687,-0.9375 1.48437,-1.8125 l 1.07813,0 0,13.65625 z"
       id="path27"
       inkscape:connector-curvature="0"
       style="fill:#000000;fill-rule:nonzero" />
    <path
       d="m 441.96722,225.98299 -1.67188,0 0,-10.64063 q -0.59375,0.57813 -1.57812,1.15625 -0.98438,0.5625 -1.76563,0.85938 l 0,-1.625 q 1.40625,-0.65625 2.45313,-1.59375 1.04687,-0.9375 1.48437,-1.8125 l 1.07813,0 0,13.65625 z m 9.05902,-2.9375 1.65625,-0.26563 q 0.14063,1 0.76563,1.53125 0.64062,0.51563 1.78125,0.51563 1.15625,0 1.70312,-0.46875 0.5625,-0.46875 0.5625,-1.09375 0,-0.5625 -0.48437,-0.89063 -0.34375,-0.21875 -1.70313,-0.5625 -1.84375,-0.46875 -2.5625,-0.79687 -0.70312,-0.34375 -1.07812,-0.9375 -0.35938,-0.60938 -0.35938,-1.32813 0,-0.65625 0.29688,-1.21875 0.3125,-0.5625 0.82812,-0.9375 0.39063,-0.28125 1.0625,-0.48437 0.67188,-0.20313 1.4375,-0.20313 1.17188,0 2.04688,0.34375 0.875,0.32813 1.28125,0.90625 0.42187,0.5625 0.57812,1.51563 l -1.625,0.21875 q -0.10937,-0.75 -0.65625,-1.17188 -0.53125,-0.4375 -1.5,-0.4375 -1.15625,0 -1.64062,0.39063 -0.48438,0.375 -0.48438,0.875 0,0.32812 0.20313,0.59375 0.20312,0.26562 0.64062,0.4375 0.25,0.0937 1.46875,0.4375 1.76563,0.46875 2.46875,0.76562 0.70313,0.29688 1.09375,0.875 0.40625,0.57813 0.40625,1.4375 0,0.82813 -0.48437,1.57813 -0.48438,0.73437 -1.40625,1.14062 -0.92188,0.39063 -2.07813,0.39063 -1.92187,0 -2.9375,-0.79688 -1,-0.79687 -1.28125,-2.35937 z m 16.75,-0.23438 1.71875,0.21875 q -0.40625,1.5 -1.51562,2.34375 -1.09375,0.82813 -2.8125,0.82813 -2.15625,0 -3.42188,-1.32813 -1.26562,-1.32812 -1.26562,-3.73437 0,-2.48438 1.26562,-3.85938 1.28125,-1.375 3.32813,-1.375 1.98437,0 3.23437,1.34375 1.25,1.34375 1.25,3.79688 0,0.14062 -0.0156,0.4375 l -7.34375,0 q 0.0937,1.625 0.92187,2.48437 0.82813,0.85938 2.0625,0.85938 0.90625,0 1.54688,-0.46875 0.65625,-0.48438 1.04687,-1.54688 z m -5.48437,-2.70312 5.5,0 q -0.10938,-1.23438 -0.625,-1.85938 -0.79688,-0.96875 -2.07813,-0.96875 -1.14062,0 -1.9375,0.78125 -0.78125,0.76563 -0.85937,2.04688 z m 8.81323,6.6875 1.60937,0.25 q 0.10938,0.75 0.57813,1.09375 0.60934,0.45312 1.68747,0.45312 1.17187,0 1.79687,-0.46875 0.625,-0.45312 0.85938,-1.28125 0.125,-0.51562 0.10937,-2.15625 -1.09375,1.29688 -2.71875,1.29688 -2.03122,0 -3.15622,-1.46875 -1.10937,-1.46875 -1.10937,-3.51563 0,-1.40625 0.51562,-2.59375 0.51563,-1.20312 1.48438,-1.84375 0.96872,-0.65625 2.26559,-0.65625 1.75,0 2.875,1.40625 l 0,-1.1875 1.54688,0 0,8.51563 q 0,2.3125 -0.46875,3.26562 -0.46875,0.96875 -1.48438,1.51563 -1.01562,0.5625 -2.5,0.5625 -1.76559,0 -2.85934,-0.79688 -1.07813,-0.79687 -1.03125,-2.39062 z m 1.375,-5.92188 q 0,1.95313 0.76562,2.84375 0.78122,0.89063 1.93747,0.89063 1.14063,0 1.92188,-0.89063 0.78125,-0.89062 0.78125,-2.78125 0,-1.8125 -0.8125,-2.71875 -0.79688,-0.92187 -1.92188,-0.92187 -1.10937,0 -1.89059,0.90625 -0.78125,0.89062 -0.78125,2.67187 z m 9.29757,5.10938 0,-9.85938 1.5,0 0,1.39063 q 0.45313,-0.71875 1.21875,-1.15625 0.78125,-0.45313 1.76563,-0.45313 1.09375,0 1.79687,0.45313 0.70313,0.45312 0.98438,1.28125 1.17187,-1.73438 3.04687,-1.73438 1.46875,0 2.25,0.8125 0.79688,0.8125 0.79688,2.5 l 0,6.76563 -1.67188,0 0,-6.20313 q 0,-1 -0.15625,-1.4375 -0.15625,-0.45312 -0.59375,-0.71875 -0.42187,-0.26562 -1,-0.26562 -1.03125,0 -1.71875,0.6875 -0.6875,0.6875 -0.6875,2.21875 l 0,5.71875 -1.67187,0 0,-6.40625 q 0,-1.10938 -0.40625,-1.65625 -0.40625,-0.5625 -1.34375,-0.5625 -0.70313,0 -1.3125,0.375 -0.59375,0.35937 -0.85938,1.07812 -0.26562,0.71875 -0.26562,2.0625 l 0,5.10938 -1.67188,0 z m 22.29081,-3.17188 1.71875,0.21875 q -0.40625,1.5 -1.51563,2.34375 -1.09375,0.82813 -2.8125,0.82813 -2.15625,0 -3.42187,-1.32813 -1.26563,-1.32812 -1.26563,-3.73437 0,-2.48438 1.26563,-3.85938 1.28125,-1.375 3.32812,-1.375 1.98438,0 3.23438,1.34375 1.25,1.34375 1.25,3.79688 0,0.14062 -0.0156,0.4375 l -7.34375,0 q 0.0937,1.625 0.92188,2.48437 0.82812,0.85938 2.0625,0.85938 0.90625,0 1.54687,-0.46875 0.65625,-0.48438 1.04688,-1.54688 z m -5.48438,-2.70312 5.5,0 q -0.10937,-1.23438 -0.625,-1.85938 -0.79687,-0.96875 -2.07812,-0.96875 -1.14063,0 -1.9375,0.78125 -0.78125,0.76563 -0.85938,2.04688 z m 9.11008,5.875 0,-9.85938 1.5,0 0,1.40625 q 1.09375,-1.625 3.14065,-1.625 0.89063,0 1.64063,0.32813 0.75,0.3125 1.10937,0.84375 0.375,0.51562 0.53125,1.21875 0.0937,0.46875 0.0937,1.625 l 0,6.0625 -1.67187,0 0,-6 q 0,-1.01563 -0.20313,-1.51563 -0.1875,-0.51562 -0.6875,-0.8125 -0.5,-0.29687 -1.1719,-0.29687 -1.0625,0 -1.84375,0.67187 -0.76563,0.67188 -0.76563,2.57813 l 0,5.375 -1.67187,0 z m 14.03201,-1.5 0.23438,1.48437 q -0.70313,0.14063 -1.26563,0.14063 -0.90625,0 -1.40625,-0.28125 -0.5,-0.29688 -0.70312,-0.75 -0.20313,-0.46875 -0.20313,-1.98438 l 0,-5.65625 -1.23437,0 0,-1.3125 1.23437,0 0,-2.4375 1.65625,-1 0,3.4375 1.6875,0 0,1.3125 -1.6875,0 0,5.75 q 0,0.71875 0.0781,0.92188 0.0937,0.20312 0.29687,0.32812 0.20313,0.125 0.57813,0.125 0.26562,0 0.73437,-0.0781 z m 0.85517,-1.4375 1.65625,-0.26563 q 0.14062,1 0.76562,1.53125 0.64063,0.51563 1.78125,0.51563 1.15625,0 1.70313,-0.46875 0.5625,-0.46875 0.5625,-1.09375 0,-0.5625 -0.48438,-0.89063 -0.34375,-0.21875 -1.70312,-0.5625 -1.84375,-0.46875 -2.5625,-0.79687 -0.70313,-0.34375 -1.07813,-0.9375 -0.35937,-0.60938 -0.35937,-1.32813 0,-0.65625 0.29687,-1.21875 0.3125,-0.5625 0.82813,-0.9375 0.39062,-0.28125 1.0625,-0.48437 0.67187,-0.20313 1.4375,-0.20313 1.17187,0 2.04687,0.34375 0.875,0.32813 1.28125,0.90625 0.42188,0.5625 0.57813,1.51563 l -1.625,0.21875 q -0.10938,-0.75 -0.65625,-1.17188 -0.53125,-0.4375 -1.5,-0.4375 -1.15625,0 -1.64063,0.39063 -0.48437,0.375 -0.48437,0.875 0,0.32812 0.20312,0.59375 0.20313,0.26562 0.64063,0.4375 0.25,0.0937 1.46875,0.4375 1.76562,0.46875 2.46875,0.76562 0.70312,0.29688 1.09375,0.875 0.40625,0.57813 0.40625,1.4375 0,0.82813 -0.48438,1.57813 -0.48437,0.73437 -1.40625,1.14062 -0.92187,0.39063 -2.07812,0.39063 -1.92188,0 -2.9375,-0.79688 -1,-0.79687 -1.28125,-2.35937 z"
       id="path29"
       inkscape:connector-curvature="0"
       style="fill:#000000;fill-rule:nonzero" />
    <path
       d="m 110.39063,266.58142 0,-13.59375 1.79687,0 0,11.98437 6.70313,0 0,1.60938 -8.5,0 z m 16.98509,-3.17188 1.71875,0.21875 q -0.40625,1.5 -1.51563,2.34375 -1.09375,0.82813 -2.8125,0.82813 -2.15625,0 -3.42187,-1.32813 -1.26563,-1.32812 -1.26563,-3.73437 0,-2.48438 1.26563,-3.85938 1.28125,-1.375 3.32812,-1.375 1.98438,0 3.23438,1.34375 1.25,1.34375 1.25,3.79688 0,0.14062 -0.0156,0.4375 l -7.34375,0 q 0.0937,1.625 0.92188,2.48437 0.82812,0.85938 2.0625,0.85938 0.90625,0 1.54687,-0.46875 0.65625,-0.48438 1.04688,-1.54688 z m -5.48438,-2.70312 5.5,0 q -0.10937,-1.23438 -0.625,-1.85938 -0.79687,-0.96875 -2.07812,-0.96875 -1.14063,0 -1.9375,0.78125 -0.78125,0.76563 -0.85938,2.04688 z m 11.84447,5.875 -3.75,-9.85938 1.76562,0 2.125,5.90625 q 0.34375,0.95313 0.625,1.98438 0.21875,-0.78125 0.625,-1.875 l 2.1875,-6.01563 1.71875,0 -3.73437,9.85938 -1.5625,0 z m 13.34375,-3.17188 1.71875,0.21875 q -0.40625,1.5 -1.51563,2.34375 -1.09375,0.82813 -2.8125,0.82813 -2.15625,0 -3.42187,-1.32813 -1.26563,-1.32812 -1.26563,-3.73437 0,-2.48438 1.26563,-3.85938 1.28125,-1.375 3.32812,-1.375 1.98438,0 3.23438,1.34375 1.25,1.34375 1.25,3.79688 0,0.14062 -0.0156,0.4375 l -7.34375,0 q 0.0937,1.625 0.92188,2.48437 0.82812,0.85938 2.0625,0.85938 0.90625,0 1.54687,-0.46875 0.65625,-0.48438 1.04688,-1.54688 z m -5.48438,-2.70312 5.5,0 q -0.10937,-1.23438 -0.625,-1.85938 -0.79687,-0.96875 -2.07812,-0.96875 -1.14063,0 -1.9375,0.78125 -0.78125,0.76563 -0.85938,2.04688 z m 9.07885,5.875 0,-13.59375 1.67187,0 0,13.59375 -1.67187,0 z m 17.67187,-1.60938 0,1.60938 -8.98437,0 q -0.0156,-0.60938 0.1875,-1.15625 0.34375,-0.92188 1.09375,-1.8125 0.76562,-0.89063 2.1875,-2.0625 2.21875,-1.8125 3,-2.875 0.78125,-1.0625 0.78125,-2.01563 0,-0.98437 -0.71875,-1.67187 -0.70313,-0.6875 -1.84375,-0.6875 -1.20313,0 -1.9375,0.73437 -0.71875,0.71875 -0.71875,2 l -1.71875,-0.17187 q 0.17187,-1.92188 1.32812,-2.92188 1.15625,-1.01562 3.09375,-1.01562 1.95313,0 3.09375,1.09375 1.14063,1.07812 1.14063,2.6875 0,0.8125 -0.34375,1.60937 -0.32813,0.78125 -1.10938,1.65625 -0.76562,0.85938 -2.5625,2.39063 -1.5,1.26562 -1.9375,1.71875 -0.42187,0.4375 -0.70312,0.89062 l 6.67187,0 z"
       id="path31"
       inkscape:connector-curvature="0"
       style="fill:#000000;fill-rule:nonzero" />
    <path
       d="m 434.84048,267.17984 0,-13.59375 6.03125,0 q 1.8125,0 2.75,0.35938 0.95313,0.35937 1.51563,1.29687 0.5625,0.92188 0.5625,2.04688 0,1.45312 -0.9375,2.45312 -0.92188,0.98438 -2.89063,1.25 0.71875,0.34375 1.09375,0.67188 0.78125,0.73437 1.48438,1.8125 l 2.375,3.70312 -2.26563,0 -1.79687,-2.82812 q -0.79688,-1.21875 -1.3125,-1.875 -0.5,-0.65625 -0.90625,-0.90625 -0.40625,-0.26563 -0.8125,-0.35938 -0.3125,-0.0781 -1.01563,-0.0781 l -2.07812,0 0,6.04687 -1.79688,0 z m 1.79688,-7.59375 3.85937,0 q 1.23438,0 1.92188,-0.25 0.70312,-0.26562 1.0625,-0.82812 0.375,-0.5625 0.375,-1.21875 0,-0.96875 -0.70313,-1.57813 -0.70312,-0.625 -2.21875,-0.625 l -4.29687,0 0,4.5 z m 15.9375,4.65625 1.65625,-0.26562 q 0.14062,1 0.76562,1.53125 0.64063,0.51562 1.78125,0.51562 1.15625,0 1.70313,-0.46875 0.5625,-0.46875 0.5625,-1.09375 0,-0.5625 -0.48438,-0.89062 -0.34375,-0.21875 -1.70312,-0.5625 -1.84375,-0.46875 -2.5625,-0.79688 -0.70313,-0.34375 -1.07813,-0.9375 -0.35937,-0.60937 -0.35937,-1.32812 0,-0.65625 0.29687,-1.21875 0.3125,-0.5625 0.82813,-0.9375 0.39062,-0.28125 1.0625,-0.48438 0.67187,-0.20312 1.4375,-0.20312 1.17187,0 2.04687,0.34375 0.875,0.32812 1.28125,0.90625 0.42188,0.5625 0.57813,1.51562 l -1.625,0.21875 q -0.10938,-0.75 -0.65625,-1.17187 -0.53125,-0.4375 -1.5,-0.4375 -1.15625,0 -1.64063,0.39062 -0.48437,0.375 -0.48437,0.875 0,0.32813 0.20312,0.59375 0.20313,0.26563 0.64063,0.4375 0.25,0.0937 1.46875,0.4375 1.76562,0.46875 2.46875,0.76563 0.70312,0.29687 1.09375,0.875 0.40625,0.57812 0.40625,1.4375 0,0.82812 -0.48438,1.57812 -0.48437,0.73438 -1.40625,1.14063 -0.92187,0.39062 -2.07812,0.39062 -1.92188,0 -2.9375,-0.79687 -1,-0.79688 -1.28125,-2.35938 z m 16.75,-0.23437 1.71875,0.21875 q -0.40625,1.5 -1.51563,2.34375 -1.09375,0.82812 -2.8125,0.82812 -2.15625,0 -3.42187,-1.32812 -1.26563,-1.32813 -1.26563,-3.73438 0,-2.48437 1.26563,-3.85937 1.28125,-1.375 3.32812,-1.375 1.98438,0 3.23438,1.34375 1.25,1.34375 1.25,3.79687 0,0.14063 -0.0156,0.4375 l -7.34375,0 q 0.0937,1.625 0.92188,2.48438 0.82812,0.85937 2.0625,0.85937 0.90625,0 1.54687,-0.46875 0.65625,-0.48437 1.04688,-1.54687 z m -5.48438,-2.70313 5.5,0 q -0.10937,-1.23437 -0.625,-1.85937 -0.79687,-0.96875 -2.07812,-0.96875 -1.14063,0 -1.9375,0.78125 -0.78125,0.76562 -0.85938,2.04687 z m 8.81323,6.6875 1.60938,0.25 q 0.10937,0.75 0.57812,1.09375 0.60938,0.45313 1.6875,0.45313 1.17188,0 1.79688,-0.46875 0.625,-0.45313 0.85937,-1.28125 0.125,-0.51563 0.10938,-2.15625 -1.09375,1.29687 -2.71875,1.29687 -2.03125,0 -3.15625,-1.46875 -1.10938,-1.46875 -1.10938,-3.51562 0,-1.40625 0.51563,-2.59375 0.51562,-1.20313 1.48437,-1.84375 0.96875,-0.65625 2.26563,-0.65625 1.75,0 2.875,1.40625 l 0,-1.1875 1.54687,0 0,8.51562 q 0,2.3125 -0.46875,3.26563 -0.46875,0.96875 -1.48437,1.51562 -1.01563,0.5625 -2.5,0.5625 -1.76563,0 -2.85938,-0.79687 -1.07812,-0.79688 -1.03125,-2.39063 z m 1.375,-5.92187 q 0,1.95312 0.76563,2.84375 0.78125,0.89062 1.9375,0.89062 1.14062,0 1.92187,-0.89062 0.78125,-0.89063 0.78125,-2.78125 0,-1.8125 -0.8125,-2.71875 -0.79687,-0.92188 -1.92187,-0.92188 -1.10938,0 -1.89063,0.90625 -0.78125,0.89063 -0.78125,2.67188 z m 9.29758,5.10937 0,-9.85937 1.5,0 0,1.39062 q 0.45312,-0.71875 1.21875,-1.15625 0.78125,-0.45312 1.76562,-0.45312 1.09375,0 1.79688,0.45312 0.70312,0.45313 0.98437,1.28125 1.17188,-1.73437 3.04688,-1.73437 1.46875,0 2.25,0.8125 0.79687,0.8125 0.79687,2.5 l 0,6.76562 -1.67187,0 0,-6.20312 q 0,-1 -0.15625,-1.4375 -0.15625,-0.45313 -0.59375,-0.71875 -0.42188,-0.26563 -1,-0.26563 -1.03125,0 -1.71875,0.6875 -0.6875,0.6875 -0.6875,2.21875 l 0,5.71875 -1.67188,0 0,-6.40625 q 0,-1.10937 -0.40625,-1.65625 -0.40625,-0.5625 -1.34375,-0.5625 -0.70312,0 -1.3125,0.375 -0.59375,0.35938 -0.85937,1.07813 -0.26563,0.71875 -0.26563,2.0625 l 0,5.10937 -1.67187,0 z m 22.2908,-3.17187 1.71875,0.21875 q -0.40625,1.5 -1.51562,2.34375 -1.09375,0.82812 -2.8125,0.82812 -2.15625,0 -3.42188,-1.32812 -1.26562,-1.32813 -1.26562,-3.73438 0,-2.48437 1.26562,-3.85937 1.28125,-1.375 3.32813,-1.375 1.98437,0 3.23437,1.34375 1.25,1.34375 1.25,3.79687 0,0.14063 -0.0156,0.4375 l -7.34375,0 q 0.0937,1.625 0.92187,2.48438 0.82813,0.85937 2.0625,0.85937 0.90625,0 1.54688,-0.46875 0.65625,-0.48437 1.04687,-1.54687 z m -5.48437,-2.70313 5.5,0 q -0.10938,-1.23437 -0.625,-1.85937 -0.79688,-0.96875 -2.07813,-0.96875 -1.14062,0 -1.9375,0.78125 -0.78125,0.76562 -0.85937,2.04687 z m 9.1101,5.875 0,-9.85937 1.5,0 0,1.40625 q 1.09375,-1.625 3.14066,-1.625 0.89062,0 1.64062,0.32812 0.75,0.3125 1.10938,0.84375 0.375,0.51563 0.53125,1.21875 0.0937,0.46875 0.0937,1.625 l 0,6.0625 -1.67188,0 0,-6 q 0,-1.01562 -0.20312,-1.51562 -0.1875,-0.51563 -0.6875,-0.8125 -0.5,-0.29688 -1.17188,-0.29688 -1.0625,0 -1.84378,0.67188 -0.76562,0.67187 -0.76562,2.57812 l 0,5.375 -1.67188,0 z m 14.03196,-1.5 0.23437,1.48438 q -0.70312,0.14062 -1.26562,0.14062 -0.90625,0 -1.40625,-0.28125 -0.5,-0.29687 -0.70313,-0.75 -0.20312,-0.46875 -0.20312,-1.98437 l 0,-5.65625 -1.23438,0 0,-1.3125 1.23438,0 0,-2.4375 1.65625,-1 0,3.4375 1.6875,0 0,1.3125 -1.6875,0 0,5.75 q 0,0.71875 0.0781,0.92187 0.0937,0.20313 0.29688,0.32813 0.20312,0.125 0.57812,0.125 0.26563,0 0.73438,-0.0781 z m 0.85522,-1.4375 1.65625,-0.26562 q 0.14062,1 0.76562,1.53125 0.64063,0.51562 1.78125,0.51562 1.15625,0 1.70313,-0.46875 0.5625,-0.46875 0.5625,-1.09375 0,-0.5625 -0.48438,-0.89062 -0.34375,-0.21875 -1.70312,-0.5625 -1.84375,-0.46875 -2.5625,-0.79688 -0.70313,-0.34375 -1.07813,-0.9375 -0.35937,-0.60937 -0.35937,-1.32812 0,-0.65625 0.29687,-1.21875 0.3125,-0.5625 0.82813,-0.9375 0.39062,-0.28125 1.0625,-0.48438 0.67187,-0.20312 1.4375,-0.20312 1.17187,0 2.04687,0.34375 0.875,0.32812 1.28125,0.90625 0.42188,0.5625 0.57813,1.51562 l -1.625,0.21875 q -0.10938,-0.75 -0.65625,-1.17187 -0.53125,-0.4375 -1.5,-0.4375 -1.15625,0 -1.64063,0.39062 -0.48437,0.375 -0.48437,0.875 0,0.32813 0.20312,0.59375 0.20313,0.26563 0.64063,0.4375 0.25,0.0937 1.46875,0.4375 1.76562,0.46875 2.46875,0.76563 0.70312,0.29687 1.09375,0.875 0.40625,0.57812 0.40625,1.4375 0,0.82812 -0.48438,1.57812 -0.48437,0.73438 -1.40625,1.14063 -0.92187,0.39062 -2.07812,0.39062 -1.92188,0 -2.9375,-0.79687 -1,-0.79688 -1.28125,-2.35938 z"
       id="path33"
       inkscape:connector-curvature="0"
       style="fill:#000000;fill-rule:nonzero" />
    <path
       d="m 110.39063,307.77826 0,-13.59375 1.79687,0 0,11.98437 6.70313,0 0,1.60938 -8.5,0 z m 16.98509,-3.17188 1.71875,0.21875 q -0.40625,1.5 -1.51563,2.34375 -1.09375,0.82813 -2.8125,0.82813 -2.15625,0 -3.42187,-1.32813 -1.26563,-1.32812 -1.26563,-3.73437 0,-2.48438 1.26563,-3.85938 1.28125,-1.375 3.32812,-1.375 1.98438,0 3.23438,1.34375 1.25,1.34375 1.25,3.79688 0,0.14062 -0.0156,0.4375 l -7.34375,0 q 0.0937,1.625 0.92188,2.48437 0.82812,0.85938 2.0625,0.85938 0.90625,0 1.54687,-0.46875 0.65625,-0.48438 1.04688,-1.54688 z m -5.48438,-2.70312 5.5,0 q -0.10937,-1.23438 -0.625,-1.85938 -0.79687,-0.96875 -2.07812,-0.96875 -1.14063,0 -1.9375,0.78125 -0.78125,0.76563 -0.85938,2.04688 z m 11.84447,5.875 -3.75,-9.85938 1.76562,0 2.125,5.90625 q 0.34375,0.95313 0.625,1.98438 0.21875,-0.78125 0.625,-1.875 l 2.1875,-6.01563 1.71875,0 -3.73437,9.85938 -1.5625,0 z m 13.34375,-3.17188 1.71875,0.21875 q -0.40625,1.5 -1.51563,2.34375 -1.09375,0.82813 -2.8125,0.82813 -2.15625,0 -3.42187,-1.32813 -1.26563,-1.32812 -1.26563,-3.73437 0,-2.48438 1.26563,-3.85938 1.28125,-1.375 3.32812,-1.375 1.98438,0 3.23438,1.34375 1.25,1.34375 1.25,3.79688 0,0.14062 -0.0156,0.4375 l -7.34375,0 q 0.0937,1.625 0.92188,2.48437 0.82812,0.85938 2.0625,0.85938 0.90625,0 1.54687,-0.46875 0.65625,-0.48438 1.04688,-1.54688 z m -5.48438,-2.70312 5.5,0 q -0.10937,-1.23438 -0.625,-1.85938 -0.79687,-0.96875 -2.07812,-0.96875 -1.14063,0 -1.9375,0.78125 -0.78125,0.76563 -0.85938,2.04688 z m 9.07885,5.875 0,-13.59375 1.67187,0 0,13.59375 -1.67187,0 z m 8.90625,-3.59375 1.67187,-0.21875 q 0.28125,1.42187 0.96875,2.04687 0.70313,0.625 1.6875,0.625 1.1875,0 2,-0.8125 0.8125,-0.82812 0.8125,-2.03125 0,-1.14062 -0.76562,-1.89062 -0.75,-0.75 -1.90625,-0.75 -0.46875,0 -1.17188,0.1875 l 0.1875,-1.46875 q 0.15625,0.0156 0.26563,0.0156 1.0625,0 1.90625,-0.54687 0.85937,-0.5625 0.85937,-1.71875 0,-0.92188 -0.625,-1.51563 -0.60937,-0.60937 -1.59375,-0.60937 -0.96875,0 -1.625,0.60937 -0.64062,0.60938 -0.82812,1.84375 l -1.67188,-0.29687 q 0.29688,-1.6875 1.375,-2.60938 1.09375,-0.92187 2.71875,-0.92187 1.10938,0 2.04688,0.48437 0.9375,0.46875 1.42187,1.29688 0.5,0.82812 0.5,1.75 0,0.89062 -0.46875,1.60937 -0.46875,0.71875 -1.40625,1.15625 1.21875,0.26563 1.875,1.15625 0.67188,0.875 0.67188,2.1875 0,1.78125 -1.29688,3.01563 -1.29687,1.23437 -3.28125,1.23437 -1.79687,0 -2.98437,-1.0625 -1.17188,-1.0625 -1.34375,-2.76562 z"
       id="path35"
       inkscape:connector-curvature="0"
       style="fill:#000000;fill-rule:nonzero" />
    <path
       d="m 431.382,308.37668 0,-13.59375 6.03125,0 q 1.8125,0 2.75,0.35938 0.95312,0.35937 1.51562,1.29687 0.5625,0.92188 0.5625,2.04688 0,1.45312 -0.9375,2.45312 -0.92187,0.98438 -2.89062,1.25 0.71875,0.34375 1.09375,0.67188 0.78125,0.73437 1.48437,1.8125 l 2.375,3.70312 -2.26562,0 -1.79688,-2.82812 q -0.79687,-1.21875 -1.3125,-1.875 -0.5,-0.65625 -0.90625,-0.90625 -0.40625,-0.26563 -0.8125,-0.35938 -0.3125,-0.0781 -1.01562,-0.0781 l -2.07813,0 0,6.04687 -1.79687,0 z m 1.79687,-7.59375 3.85938,0 q 1.23437,0 1.92187,-0.25 0.70313,-0.26562 1.0625,-0.82812 0.375,-0.5625 0.375,-1.21875 0,-0.96875 -0.70312,-1.57813 -0.70313,-0.625 -2.21875,-0.625 l -4.29688,0 0,4.5 z"
       id="path37"
       inkscape:connector-curvature="0"
       style="fill:#000000;fill-rule:nonzero" />
    <path
       d="m 449.4018,300.36105 0,1.01562 -5.6875,0 q 0,-0.375 0.125,-0.73437 0.21875,-0.57813 0.6875,-1.14063 0.48437,-0.5625 1.39062,-1.29687 1.40625,-1.15625 1.89063,-1.82813 0.5,-0.67187 0.5,-1.26562 0,-0.625 -0.45313,-1.04688 -0.45312,-0.4375 -1.17187,-0.4375 -0.76563,0 -1.21875,0.45313 -0.45313,0.45312 -0.46875,1.26562 l -1.07813,-0.10937 q 0.10938,-1.21875 0.82813,-1.84375 0.73437,-0.64063 1.96875,-0.64063 1.23437,0 1.95312,0.6875 0.71875,0.6875 0.71875,1.70313 0,0.51562 -0.21875,1.01562 -0.20312,0.48438 -0.70312,1.04688 -0.48438,0.54687 -1.60938,1.5 -0.95312,0.79687 -1.23437,1.09375 -0.26563,0.28125 -0.4375,0.5625 l 4.21875,0 z"
       id="path39"
       inkscape:connector-curvature="0"
       style="fill:#000000;fill-rule:nonzero" />
    <path
       d="m 456.0334,305.43918 1.65625,-0.26562 q 0.14062,1 0.76562,1.53125 0.64063,0.51562 1.78125,0.51562 1.15625,0 1.70313,-0.46875 0.5625,-0.46875 0.5625,-1.09375 0,-0.5625 -0.48438,-0.89062 -0.34375,-0.21875 -1.70312,-0.5625 -1.84375,-0.46875 -2.5625,-0.79688 -0.70313,-0.34375 -1.07813,-0.9375 -0.35937,-0.60937 -0.35937,-1.32812 0,-0.65625 0.29687,-1.21875 0.3125,-0.5625 0.82813,-0.9375 0.39062,-0.28125 1.0625,-0.48438 0.67187,-0.20312 1.4375,-0.20312 1.17187,0 2.04687,0.34375 0.875,0.32812 1.28125,0.90625 0.42188,0.5625 0.57813,1.51562 l -1.625,0.21875 q -0.10938,-0.75 -0.65625,-1.17187 -0.53125,-0.4375 -1.5,-0.4375 -1.15625,0 -1.64063,0.39062 -0.48437,0.375 -0.48437,0.875 0,0.32813 0.20312,0.59375 0.20313,0.26563 0.64063,0.4375 0.25,0.0937 1.46875,0.4375 1.76562,0.46875 2.46875,0.76563 0.70312,0.29687 1.09375,0.875 0.40625,0.57812 0.40625,1.4375 0,0.82812 -0.48438,1.57812 -0.48437,0.73438 -1.40625,1.14063 -0.92187,0.39062 -2.07812,0.39062 -1.92188,0 -2.9375,-0.79687 -1,-0.79688 -1.28125,-2.35938 z m 16.75,-0.23437 1.71875,0.21875 q -0.40625,1.5 -1.51563,2.34375 -1.09375,0.82812 -2.8125,0.82812 -2.15625,0 -3.42187,-1.32812 -1.26563,-1.32813 -1.26563,-3.73438 0,-2.48437 1.26563,-3.85937 1.28125,-1.375 3.32812,-1.375 1.98438,0 3.23438,1.34375 1.25,1.34375 1.25,3.79687 0,0.14063 -0.0156,0.4375 l -7.34375,0 q 0.0937,1.625 0.92188,2.48438 0.82812,0.85937 2.0625,0.85937 0.90625,0 1.54687,-0.46875 0.65625,-0.48437 1.04688,-1.54687 z m -5.48438,-2.70313 5.5,0 q -0.10937,-1.23437 -0.625,-1.85937 -0.79687,-0.96875 -2.07812,-0.96875 -1.14063,0 -1.9375,0.78125 -0.78125,0.76562 -0.85938,2.04687 z m 8.81321,6.6875 1.60937,0.25 q 0.10938,0.75 0.57813,1.09375 0.60937,0.45313 1.6875,0.45313 1.17187,0 1.79687,-0.46875 0.625,-0.45313 0.85938,-1.28125 0.125,-0.51563 0.10937,-2.15625 -1.09375,1.29687 -2.71875,1.29687 -2.03125,0 -3.15625,-1.46875 -1.10937,-1.46875 -1.10937,-3.51562 0,-1.40625 0.51562,-2.59375 0.51563,-1.20313 1.48438,-1.84375 0.96875,-0.65625 2.26562,-0.65625 1.75,0 2.875,1.40625 l 0,-1.1875 1.54688,0 0,8.51562 q 0,2.3125 -0.46875,3.26563 -0.46875,0.96875 -1.48438,1.51562 -1.01562,0.5625 -2.5,0.5625 -1.76562,0 -2.85937,-0.79687 -1.07813,-0.79688 -1.03125,-2.39063 z m 1.375,-5.92187 q 0,1.95312 0.76562,2.84375 0.78125,0.89062 1.9375,0.89062 1.14063,0 1.92188,-0.89062 0.78125,-0.89063 0.78125,-2.78125 0,-1.8125 -0.8125,-2.71875 -0.79688,-0.92188 -1.92188,-0.92188 -1.10937,0 -1.89062,0.90625 -0.78125,0.89063 -0.78125,2.67188 z m 9.2976,5.10937 0,-9.85937 1.5,0 0,1.39062 q 0.45313,-0.71875 1.21875,-1.15625 0.78125,-0.45312 1.76563,-0.45312 1.09375,0 1.79687,0.45312 0.70313,0.45313 0.98438,1.28125 1.17187,-1.73437 3.04687,-1.73437 1.46875,0 2.25,0.8125 0.79688,0.8125 0.79688,2.5 l 0,6.76562 -1.67188,0 0,-6.20312 q 0,-1 -0.15625,-1.4375 -0.15625,-0.45313 -0.59375,-0.71875 -0.42187,-0.26563 -1,-0.26563 -1.03125,0 -1.71875,0.6875 -0.6875,0.6875 -0.6875,2.21875 l 0,5.71875 -1.67187,0 0,-6.40625 q 0,-1.10937 -0.40625,-1.65625 -0.40625,-0.5625 -1.34375,-0.5625 -0.70313,0 -1.3125,0.375 -0.59375,0.35938 -0.85938,1.07813 -0.26562,0.71875 -0.26562,2.0625 l 0,5.10937 -1.67188,0 z m 22.29081,-3.17187 1.71875,0.21875 q -0.40625,1.5 -1.51563,2.34375 -1.09375,0.82812 -2.8125,0.82812 -2.15625,0 -3.42187,-1.32812 -1.26563,-1.32813 -1.26563,-3.73438 0,-2.48437 1.26563,-3.85937 1.28125,-1.375 3.32812,-1.375 1.98438,0 3.23438,1.34375 1.25,1.34375 1.25,3.79687 0,0.14063 -0.0156,0.4375 l -7.34375,0 q 0.0937,1.625 0.92188,2.48438 0.82812,0.85937 2.0625,0.85937 0.90625,0 1.54687,-0.46875 0.65625,-0.48437 1.04688,-1.54687 z m -5.48438,-2.70313 5.5,0 q -0.10937,-1.23437 -0.625,-1.85937 -0.79687,-0.96875 -2.07812,-0.96875 -1.14063,0 -1.9375,0.78125 -0.78125,0.76562 -0.85938,2.04687 z m 9.11011,5.875 0,-9.85937 1.5,0 0,1.40625 q 1.09375,-1.625 3.14062,-1.625 0.89063,0 1.64063,0.32812 0.75,0.3125 1.10937,0.84375 0.375,0.51563 0.53125,1.21875 0.0937,0.46875 0.0937,1.625 l 0,6.0625 -1.67187,0 0,-6 q 0,-1.01562 -0.20313,-1.51562 -0.1875,-0.51563 -0.6875,-0.8125 -0.5,-0.29688 -1.17187,-0.29688 -1.0625,0 -1.84375,0.67188 -0.76563,0.67187 -0.76563,2.57812 l 0,5.375 -1.67187,0 z m 14.03198,-1.5 0.23437,1.48438 q -0.70312,0.14062 -1.26562,0.14062 -0.90625,0 -1.40625,-0.28125 -0.5,-0.29687 -0.70313,-0.75 -0.20312,-0.46875 -0.20312,-1.98437 l 0,-5.65625 -1.23438,0 0,-1.3125 1.23438,0 0,-2.4375 1.65625,-1 0,3.4375 1.6875,0 0,1.3125 -1.6875,0 0,5.75 q 0,0.71875 0.0781,0.92187 0.0937,0.20313 0.29688,0.32813 0.20312,0.125 0.57812,0.125 0.26563,0 0.73438,-0.0781 z m 0.85516,-1.4375 1.65625,-0.26562 q 0.14063,1 0.76563,1.53125 0.64062,0.51562 1.78125,0.51562 1.15625,0 1.70312,-0.46875 0.5625,-0.46875 0.5625,-1.09375 0,-0.5625 -0.48437,-0.89062 -0.34375,-0.21875 -1.70313,-0.5625 -1.84375,-0.46875 -2.5625,-0.79688 -0.70312,-0.34375 -1.07812,-0.9375 -0.35938,-0.60937 -0.35938,-1.32812 0,-0.65625 0.29688,-1.21875 0.3125,-0.5625 0.82812,-0.9375 0.39063,-0.28125 1.0625,-0.48438 0.67188,-0.20312 1.4375,-0.20312 1.17188,0 2.04688,0.34375 0.875,0.32812 1.28125,0.90625 0.42187,0.5625 0.57812,1.51562 l -1.625,0.21875 q -0.10937,-0.75 -0.65625,-1.17187 -0.53125,-0.4375 -1.5,-0.4375 -1.15625,0 -1.64062,0.39062 -0.48438,0.375 -0.48438,0.875 0,0.32813 0.20313,0.59375 0.20312,0.26563 0.64062,0.4375 0.25,0.0937 1.46875,0.4375 1.76563,0.46875 2.46875,0.76563 0.70313,0.29687 1.09375,0.875 0.40625,0.57812 0.40625,1.4375 0,0.82812 -0.48437,1.57812 -0.48438,0.73438 -1.40625,1.14063 -0.92188,0.39062 -2.07813,0.39062 -1.92187,0 -2.9375,-0.79687 -1,-0.79688 -1.28125,-2.35938 z"
       id="path41"
       inkscape:connector-curvature="0"
       style="fill:#000000;fill-rule:nonzero" />
    <path
       d="m 111.21875,348.97513 0,-1.90625 1.90625,0 0,1.90625 -1.90625,0 z m 6.32813,0 0,-1.90625 1.90625,0 0,1.90625 -1.90625,0 z m 6.32812,0 0,-1.90625 1.92188,0 0,1.90625 -1.92188,0 z m 6,0 0,-1.90625 1.90625,0 0,1.90625 -1.90625,0 z m 6.32812,0 0,-1.90625 1.90625,0 0,1.90625 -1.90625,0 z m 6.32813,0 0,-1.90625 1.92187,0 0,1.90625 -1.92187,0 z"
       id="path43"
       inkscape:connector-curvature="0"
       style="fill:#000000;fill-rule:nonzero" />
    <path
       d="m 466.67273,349.57355 0,-1.90625 1.90625,0 0,1.90625 -1.90625,0 z m 6.32812,0 0,-1.90625 1.90625,0 0,1.90625 -1.90625,0 z m 6.32813,0 0,-1.90625 1.92187,0 0,1.90625 -1.92187,0 z m 6,0 0,-1.90625 1.90625,0 0,1.90625 -1.90625,0 z m 6.32812,0 0,-1.90625 1.90625,0 0,1.90625 -1.90625,0 z m 6.32813,0 0,-1.90625 1.92187,0 0,1.90625 -1.92187,0 z"
       id="path45"
       inkscape:connector-curvature="0"
       style="fill:#000000;fill-rule:nonzero" />
    <path
       d="m 110.39063,390.17197 0,-13.59375 1.79687,0 0,11.98437 6.70313,0 0,1.60938 -8.5,0 z m 16.98509,-3.17188 1.71875,0.21875 q -0.40625,1.5 -1.51563,2.34375 -1.09375,0.82813 -2.8125,0.82813 -2.15625,0 -3.42187,-1.32813 -1.26563,-1.32812 -1.26563,-3.73437 0,-2.48438 1.26563,-3.85938 1.28125,-1.375 3.32812,-1.375 1.98438,0 3.23438,1.34375 1.25,1.34375 1.25,3.79688 0,0.14062 -0.0156,0.4375 l -7.34375,0 q 0.0937,1.625 0.92188,2.48437 0.82812,0.85938 2.0625,0.85938 0.90625,0 1.54687,-0.46875 0.65625,-0.48438 1.04688,-1.54688 z m -5.48438,-2.70312 5.5,0 q -0.10937,-1.23438 -0.625,-1.85938 -0.79687,-0.96875 -2.07812,-0.96875 -1.14063,0 -1.9375,0.78125 -0.78125,0.76563 -0.85938,2.04688 z m 11.84447,5.875 -3.75,-9.85938 1.76562,0 2.125,5.90625 q 0.34375,0.95313 0.625,1.98438 0.21875,-0.78125 0.625,-1.875 l 2.1875,-6.01563 1.71875,0 -3.73437,9.85938 -1.5625,0 z m 13.34375,-3.17188 1.71875,0.21875 q -0.40625,1.5 -1.51563,2.34375 -1.09375,0.82813 -2.8125,0.82813 -2.15625,0 -3.42187,-1.32813 -1.26563,-1.32812 -1.26563,-3.73437 0,-2.48438 1.26563,-3.85938 1.28125,-1.375 3.32812,-1.375 1.98438,0 3.23438,1.34375 1.25,1.34375 1.25,3.79688 0,0.14062 -0.0156,0.4375 l -7.34375,0 q 0.0937,1.625 0.92188,2.48437 0.82812,0.85938 2.0625,0.85938 0.90625,0 1.54687,-0.46875 0.65625,-0.48438 1.04688,-1.54688 z m -5.48438,-2.70312 5.5,0 q -0.10937,-1.23438 -0.625,-1.85938 -0.79687,-0.96875 -2.07812,-0.96875 -1.14063,0 -1.9375,0.78125 -0.78125,0.76563 -0.85938,2.04688 z m 9.07885,5.875 0,-13.59375 1.67187,0 0,13.59375 -1.67187,0 z m 9.5,0 0,-13.59375 1.79687,0 0,11.98437 6.70313,0 0,1.60938 -8.5,0 z"
       id="path47"
       inkscape:connector-curvature="0"
       style="fill:#000000;fill-rule:nonzero" />
    <path
       d="m 427.466,390.7704 0,-13.59375 1.67187,0 0,13.59375 -1.67187,0 z m 10.92609,-3.17188 1.71875,0.21875 q -0.40625,1.5 -1.51563,2.34375 -1.09375,0.82813 -2.8125,0.82813 -2.15625,0 -3.42187,-1.32813 -1.26563,-1.32812 -1.26563,-3.73437 0,-2.48438 1.26563,-3.85938 1.28125,-1.375 3.32812,-1.375 1.98438,0 3.23438,1.34375 1.25,1.34375 1.25,3.79688 0,0.14062 -0.0156,0.4375 l -7.34375,0 q 0.0937,1.625 0.92188,2.48437 0.82812,0.85938 2.0625,0.85938 0.90625,0 1.54687,-0.46875 0.65625,-0.48438 1.04688,-1.54688 z m -5.48438,-2.70312 5.5,0 q -0.10937,-1.23438 -0.625,-1.85938 -0.79687,-0.96875 -2.07812,-0.96875 -1.14063,0 -1.9375,0.78125 -0.78125,0.76563 -0.85938,2.04688 z m 9.11008,5.875 0,-9.85938 1.5,0 0,1.40625 q 1.09375,-1.625 3.14062,-1.625 0.89063,0 1.64063,0.32813 0.75,0.3125 1.10937,0.84375 0.375,0.51562 0.53125,1.21875 0.0937,0.46875 0.0937,1.625 l 0,6.0625 -1.67187,0 0,-6 q 0,-1.01563 -0.20313,-1.51563 -0.1875,-0.51562 -0.6875,-0.8125 -0.5,-0.29687 -1.17187,-0.29687 -1.0625,0 -1.84375,0.67187 -0.76563,0.67188 -0.76563,2.57813 l 0,5.375 -1.67187,0 z"
       id="path49"
       inkscape:connector-curvature="0"
       style="fill:#000000;fill-rule:nonzero" />
    <path
       d="m 451.9404,390.3954 0,-1.21875 1.0625,0 0,1.21875 -1.0625,0 z m 0,7.375 0,-6.21875 1.0625,0 0,6.21875 -1.0625,0 z"
       id="path51"
       inkscape:connector-curvature="0"
       style="fill:#000000;fill-rule:nonzero" />
    <path
       d="m 459.66812,387.8329 1.65625,-0.26563 q 0.14062,1 0.76562,1.53125 0.64063,0.51563 1.78125,0.51563 1.15625,0 1.70313,-0.46875 0.5625,-0.46875 0.5625,-1.09375 0,-0.5625 -0.48438,-0.89063 -0.34375,-0.21875 -1.70312,-0.5625 -1.84375,-0.46875 -2.5625,-0.79687 -0.70313,-0.34375 -1.07813,-0.9375 -0.35937,-0.60938 -0.35937,-1.32813 0,-0.65625 0.29687,-1.21875 0.3125,-0.5625 0.82813,-0.9375 0.39062,-0.28125 1.0625,-0.48437 0.67187,-0.20313 1.4375,-0.20313 1.17187,0 2.04687,0.34375 0.875,0.32813 1.28125,0.90625 0.42188,0.5625 0.57813,1.51563 l -1.625,0.21875 q -0.10938,-0.75 -0.65625,-1.17188 -0.53125,-0.4375 -1.5,-0.4375 -1.15625,0 -1.64063,0.39063 -0.48437,0.375 -0.48437,0.875 0,0.32812 0.20312,0.59375 0.20313,0.26562 0.64063,0.4375 0.25,0.0937 1.46875,0.4375 1.76562,0.46875 2.46875,0.76562 0.70312,0.29688 1.09375,0.875 0.40625,0.57813 0.40625,1.4375 0,0.82813 -0.48438,1.57813 -0.48437,0.73437 -1.40625,1.14062 -0.92187,0.39063 -2.07812,0.39063 -1.92188,0 -2.9375,-0.79688 -1,-0.79687 -1.28125,-2.35937 z m 16.75,-0.23438 1.71875,0.21875 q -0.40625,1.5 -1.51563,2.34375 -1.09375,0.82813 -2.8125,0.82813 -2.15625,0 -3.42187,-1.32813 -1.26563,-1.32812 -1.26563,-3.73437 0,-2.48438 1.26563,-3.85938 1.28125,-1.375 3.32812,-1.375 1.98438,0 3.23438,1.34375 1.25,1.34375 1.25,3.79688 0,0.14062 -0.0156,0.4375 l -7.34375,0 q 0.0937,1.625 0.92188,2.48437 0.82812,0.85938 2.0625,0.85938 0.90625,0 1.54687,-0.46875 0.65625,-0.48438 1.04688,-1.54688 z m -5.48438,-2.70312 5.5,0 q -0.10937,-1.23438 -0.625,-1.85938 -0.79687,-0.96875 -2.07812,-0.96875 -1.14063,0 -1.9375,0.78125 -0.78125,0.76563 -0.85938,2.04688 z m 8.81321,6.6875 1.60937,0.25 q 0.10938,0.75 0.57813,1.09375 0.60937,0.45312 1.6875,0.45312 1.17187,0 1.79687,-0.46875 0.625,-0.45312 0.85938,-1.28125 0.125,-0.51562 0.10937,-2.15625 -1.09375,1.29688 -2.71875,1.29688 -2.03125,0 -3.15625,-1.46875 -1.10937,-1.46875 -1.10937,-3.51563 0,-1.40625 0.51562,-2.59375 0.51563,-1.20312 1.48438,-1.84375 0.96875,-0.65625 2.26562,-0.65625 1.75,0 2.875,1.40625 l 0,-1.1875 1.54688,0 0,8.51563 q 0,2.3125 -0.46875,3.26562 -0.46875,0.96875 -1.48438,1.51563 -1.01562,0.5625 -2.5,0.5625 -1.76562,0 -2.85937,-0.79688 -1.07813,-0.79687 -1.03125,-2.39062 z m 1.375,-5.92188 q 0,1.95313 0.76562,2.84375 0.78125,0.89063 1.9375,0.89063 1.14063,0 1.92188,-0.89063 0.78125,-0.89062 0.78125,-2.78125 0,-1.8125 -0.8125,-2.71875 -0.79688,-0.92187 -1.92188,-0.92187 -1.10937,0 -1.89062,0.90625 -0.78125,0.89062 -0.78125,2.67187 z m 9.29757,5.10938 0,-9.85938 1.5,0 0,1.39063 q 0.45313,-0.71875 1.21875,-1.15625 0.78125,-0.45313 1.76563,-0.45313 1.09375,0 1.79687,0.45313 0.70313,0.45312 0.98438,1.28125 1.17187,-1.73438 3.04687,-1.73438 1.46875,0 2.25,0.8125 0.79688,0.8125 0.79688,2.5 l 0,6.76563 -1.67188,0 0,-6.20313 q 0,-1 -0.15625,-1.4375 -0.15625,-0.45312 -0.59375,-0.71875 -0.42187,-0.26562 -1,-0.26562 -1.03125,0 -1.71875,0.6875 -0.6875,0.6875 -0.6875,2.21875 l 0,5.71875 -1.67187,0 0,-6.40625 q 0,-1.10938 -0.40625,-1.65625 -0.40625,-0.5625 -1.34375,-0.5625 -0.70313,0 -1.3125,0.375 -0.59375,0.35937 -0.85938,1.07812 -0.26562,0.71875 -0.26562,2.0625 l 0,5.10938 -1.67188,0 z m 22.29087,-3.17188 1.71875,0.21875 q -0.40625,1.5 -1.51563,2.34375 -1.09378,0.82813 -2.81253,0.82813 -2.15625,0 -3.42187,-1.32813 -1.26563,-1.32812 -1.26563,-3.73437 0,-2.48438 1.26563,-3.85938 1.28125,-1.375 3.32812,-1.375 1.98438,0 3.23441,1.34375 1.25,1.34375 1.25,3.79688 0,0.14062 -0.0156,0.4375 l -7.34378,0 q 0.0937,1.625 0.92188,2.48437 0.82812,0.85938 2.0625,0.85938 0.90625,0 1.54687,-0.46875 0.65628,-0.48438 1.04691,-1.54688 z m -5.48441,-2.70312 5.50003,0 q -0.10937,-1.23438 -0.625,-1.85938 -0.7969,-0.96875 -2.07815,-0.96875 -1.14063,0 -1.9375,0.78125 -0.78125,0.76563 -0.85938,2.04688 z m 9.11008,5.875 0,-9.85938 1.5,0 0,1.40625 q 1.09375,-1.625 3.14062,-1.625 0.89063,0 1.64063,0.32813 0.75,0.3125 1.10937,0.84375 0.375,0.51562 0.53125,1.21875 0.0937,0.46875 0.0937,1.625 l 0,6.0625 -1.67187,0 0,-6 q 0,-1.01563 -0.20313,-1.51563 -0.1875,-0.51562 -0.6875,-0.8125 -0.5,-0.29687 -1.17187,-0.29687 -1.0625,0 -1.84375,0.67187 -0.76563,0.67188 -0.76563,2.57813 l 0,5.375 -1.67187,0 z m 14.03198,-1.5 0.23438,1.48437 q -0.70313,0.14063 -1.26563,0.14063 -0.90625,0 -1.40625,-0.28125 -0.5,-0.29688 -0.70312,-0.75 -0.20313,-0.46875 -0.20313,-1.98438 l 0,-5.65625 -1.23437,0 0,-1.3125 1.23437,0 0,-2.4375 1.65625,-1 0,3.4375 1.6875,0 0,1.3125 -1.6875,0 0,5.75 q 0,0.71875 0.0781,0.92188 0.0937,0.20312 0.29687,0.32812 0.20313,0.125 0.57813,0.125 0.26562,0 0.73437,-0.0781 z m 0.85516,-1.4375 1.65625,-0.26563 q 0.14063,1 0.76563,1.53125 0.64062,0.51563 1.78125,0.51563 1.15625,0 1.70312,-0.46875 0.5625,-0.46875 0.5625,-1.09375 0,-0.5625 -0.48437,-0.89063 -0.34375,-0.21875 -1.70313,-0.5625 -1.84375,-0.46875 -2.5625,-0.79687 -0.70312,-0.34375 -1.07812,-0.9375 -0.35938,-0.60938 -0.35938,-1.32813 0,-0.65625 0.29688,-1.21875 0.3125,-0.5625 0.82812,-0.9375 0.39063,-0.28125 1.0625,-0.48437 0.67188,-0.20313 1.4375,-0.20313 1.17188,0 2.04688,0.34375 0.875,0.32813 1.28125,0.90625 0.42187,0.5625 0.57812,1.51563 l -1.625,0.21875 q -0.10937,-0.75 -0.65625,-1.17188 -0.53125,-0.4375 -1.5,-0.4375 -1.15625,0 -1.64062,0.39063 -0.48438,0.375 -0.48438,0.875 0,0.32812 0.20313,0.59375 0.20312,0.26562 0.64062,0.4375 0.25,0.0937 1.46875,0.4375 1.76563,0.46875 2.46875,0.76562 0.70313,0.29688 1.09375,0.875 0.40625,0.57813 0.40625,1.4375 0,0.82813 -0.48437,1.57813 -0.48438,0.73437 -1.40625,1.14062 -0.92188,0.39063 -2.07813,0.39063 -1.92187,0 -2.9375,-0.79688 -1,-0.79687 -1.28125,-2.35937 z"
       id="path53"
       inkscape:connector-curvature="0"
       style="fill:#000000;fill-rule:nonzero" />
    <path
       d="m 216.62204,179.30971 532.75586,0"
       id="path55"
       inkscape:connector-curvature="0"
       style="fill:#000000;fill-opacity:0;fill-rule:nonzero" />
    <path
       d="m 228.62204,179.30971 508.7559,0"
       id="path57"
       inkscape:connector-curvature="0"
       style="stroke:#000000;stroke-width:2;stroke-linecap:butt;stroke-linejoin:round" />
    <path
       d="m 228.62204,176.00624 -9.07619,3.30347 9.07619,3.30346 z"
       id="path59"
       inkscape:connector-curvature="0"
       style="fill:#000000;fill-rule:evenodd;stroke:#000000;stroke-width:2;stroke-linecap:butt" />
    <path
       d="m 737.3779,182.61317 9.07623,-3.30347 -9.07623,-3.30346 z"
       id="path61"
       inkscape:connector-curvature="0"
       style="fill:#000000;fill-rule:evenodd;stroke:#000000;stroke-width:2;stroke-linecap:butt" />
    <path
       d="m 220.37796,137.84776 519.24414,0 0,35.24409 -519.24414,0 z"
       id="path63"
       inkscape:connector-curvature="0"
       style="fill:#000000;fill-opacity:0;fill-rule:nonzero" />
    <path
       d="m 298.9636,162.38982 0,-12 -4.46875,0 0,-1.59375 10.76562,0 0,1.59375 -4.5,0 0,12 -1.79687,0 z m 7.72412,0 0,-13.59375 1.67188,0 0,4.875 q 1.17187,-1.35938 2.95312,-1.35938 1.09375,0 1.89063,0.4375 0.8125,0.42188 1.15625,1.1875 0.35937,0.76563 0.35937,2.20313 l 0,6.25 -1.67187,0 0,-6.25 q 0,-1.25 -0.54688,-1.8125 -0.54687,-0.57813 -1.53125,-0.57813 -0.75,0 -1.40625,0.39063 -0.64062,0.375 -0.92187,1.04687 -0.28125,0.65625 -0.28125,1.8125 l 0,5.39063 -1.67188,0 z m 17.1257,-3.17188 1.71875,0.21875 q -0.40625,1.5 -1.51562,2.34375 -1.09375,0.82813 -2.8125,0.82813 -2.15625,0 -3.42188,-1.32813 -1.26562,-1.32812 -1.26562,-3.73437 0,-2.48438 1.26562,-3.85938 1.28125,-1.375 3.32813,-1.375 1.98437,0 3.23437,1.34375 1.25,1.34375 1.25,3.79688 0,0.14062 -0.0156,0.4375 l -7.34375,0 q 0.0937,1.625 0.92187,2.48437 0.82813,0.85938 2.0625,0.85938 0.90625,0 1.54688,-0.46875 0.65625,-0.48438 1.04687,-1.54688 z m -5.48437,-2.70312 5.5,0 q -0.10938,-1.23438 -0.625,-1.85938 -0.79688,-0.96875 -2.07813,-0.96875 -1.14062,0 -1.9375,0.78125 -0.78125,0.76563 -0.85937,2.04688 z m 14.30902,-5.8125 0,-1.90625 1.67187,0 0,1.90625 -1.67187,0 z m 0,11.6875 0,-9.85938 1.67187,0 0,9.85938 -1.67187,0 z m 3.48859,-4.07813 0,-1.6875 5.125,0 0,1.6875 -5.125,0 z m 10.50955,2.57813 0.23437,1.48437 q -0.70312,0.14063 -1.26562,0.14063 -0.90625,0 -1.40625,-0.28125 -0.5,-0.29688 -0.70313,-0.75 -0.20312,-0.46875 -0.20312,-1.98438 l 0,-5.65625 -1.23438,0 0,-1.3125 1.23438,0 0,-2.4375 1.65625,-1 0,3.4375 1.6875,0 0,1.3125 -1.6875,0 0,5.75 q 0,0.71875 0.0781,0.92188 0.0937,0.20312 0.29688,0.32812 0.20312,0.125 0.57812,0.125 0.26563,0 0.73438,-0.0781 z m 1.52704,1.5 0,-13.59375 1.67187,0 0,4.875 q 1.17188,-1.35938 2.95313,-1.35938 1.09375,0 1.89062,0.4375 0.8125,0.42188 1.15625,1.1875 0.35938,0.76563 0.35938,2.20313 l 0,6.25 -1.67188,0 0,-6.25 q 0,-1.25 -0.54687,-1.8125 -0.54688,-0.57813 -1.53125,-0.57813 -0.75,0 -1.40625,0.39063 -0.64063,0.375 -0.92188,1.04687 -0.28125,0.65625 -0.28125,1.8125 l 0,5.39063 -1.67187,0 z m 14.88714,-2.9375 1.65625,-0.26563 q 0.14063,1 0.76563,1.53125 0.64062,0.51563 1.78125,0.51563 1.15625,0 1.70312,-0.46875 0.5625,-0.46875 0.5625,-1.09375 0,-0.5625 -0.48437,-0.89063 -0.34375,-0.21875 -1.70313,-0.5625 -1.84375,-0.46875 -2.5625,-0.79687 -0.70312,-0.34375 -1.07812,-0.9375 -0.35938,-0.60938 -0.35938,-1.32813 0,-0.65625 0.29688,-1.21875 0.3125,-0.5625 0.82812,-0.9375 0.39063,-0.28125 1.0625,-0.48437 0.67188,-0.20313 1.4375,-0.20313 1.17188,0 2.04688,0.34375 0.875,0.32813 1.28125,0.90625 0.42187,0.5625 0.57812,1.51563 l -1.625,0.21875 q -0.10937,-0.75 -0.65625,-1.17188 -0.53125,-0.4375 -1.5,-0.4375 -1.15625,0 -1.64062,0.39063 -0.48438,0.375 -0.48438,0.875 0,0.32812 0.20313,0.59375 0.20312,0.26562 0.64062,0.4375 0.25,0.0937 1.46875,0.4375 1.76563,0.46875 2.46875,0.76562 0.70313,0.29688 1.09375,0.875 0.40625,0.57813 0.40625,1.4375 0,0.82813 -0.48437,1.57813 -0.48438,0.73437 -1.40625,1.14062 -0.92188,0.39063 -2.07813,0.39063 -1.92187,0 -2.9375,-0.79688 -1,-0.79687 -1.28125,-2.35937 z m 16.75,-0.23438 1.71875,0.21875 q -0.40625,1.5 -1.51562,2.34375 -1.09375,0.82813 -2.8125,0.82813 -2.15625,0 -3.42188,-1.32813 -1.26562,-1.32812 -1.26562,-3.73437 0,-2.48438 1.26562,-3.85938 1.28125,-1.375 3.32813,-1.375 1.98437,0 3.23437,1.34375 1.25,1.34375 1.25,3.79688 0,0.14062 -0.0156,0.4375 l -7.34375,0 q 0.0937,1.625 0.92187,2.48437 0.82813,0.85938 2.0625,0.85938 0.90625,0 1.54688,-0.46875 0.65625,-0.48438 1.04687,-1.54688 z m -5.48437,-2.70312 5.5,0 q -0.10938,-1.23438 -0.625,-1.85938 -0.79688,-0.96875 -2.07813,-0.96875 -1.14062,0 -1.9375,0.78125 -0.78125,0.76563 -0.85937,2.04688 z m 8.81323,6.6875 1.60937,0.25 q 0.10938,0.75 0.57813,1.09375 0.60937,0.45312 1.6875,0.45312 1.17187,0 1.79687,-0.46875 0.625,-0.45312 0.85938,-1.28125 0.125,-0.51562 0.10937,-2.15625 -1.09375,1.29688 -2.71875,1.29688 -2.03125,0 -3.15625,-1.46875 -1.10937,-1.46875 -1.10937,-3.51563 0,-1.40625 0.51562,-2.59375 0.51563,-1.20312 1.48438,-1.84375 0.96875,-0.65625 2.26562,-0.65625 1.75,0 2.875,1.40625 l 0,-1.1875 1.54688,0 0,8.51563 q 0,2.3125 -0.46875,3.26562 -0.46875,0.96875 -1.48438,1.51563 -1.01562,0.5625 -2.5,0.5625 -1.76562,0 -2.85937,-0.79688 -1.07813,-0.79687 -1.03125,-2.39062 z m 1.375,-5.92188 q 0,1.95313 0.76562,2.84375 0.78125,0.89063 1.9375,0.89063 1.14063,0 1.92188,-0.89063 0.78125,-0.89062 0.78125,-2.78125 0,-1.8125 -0.8125,-2.71875 -0.79688,-0.92187 -1.92188,-0.92187 -1.10937,0 -1.89062,0.90625 -0.78125,0.89062 -0.78125,2.67187 z m 9.29758,5.10938 0,-9.85938 1.5,0 0,1.39063 q 0.45312,-0.71875 1.21875,-1.15625 0.78125,-0.45313 1.76562,-0.45313 1.09375,0 1.79688,0.45313 0.70312,0.45312 0.98437,1.28125 1.17188,-1.73438 3.04688,-1.73438 1.46875,0 2.25,0.8125 0.79687,0.8125 0.79687,2.5 l 0,6.76563 -1.67187,0 0,-6.20313 q 0,-1 -0.15625,-1.4375 -0.15625,-0.45312 -0.59375,-0.71875 -0.42188,-0.26562 -1,-0.26562 -1.03125,0 -1.71875,0.6875 -0.6875,0.6875 -0.6875,2.21875 l 0,5.71875 -1.67188,0 0,-6.40625 q 0,-1.10938 -0.40625,-1.65625 -0.40625,-0.5625 -1.34375,-0.5625 -0.70312,0 -1.3125,0.375 -0.59375,0.35937 -0.85937,1.07812 -0.26563,0.71875 -0.26563,2.0625 l 0,5.10938 -1.67187,0 z m 22.2908,-3.17188 1.71875,0.21875 q -0.40625,1.5 -1.51563,2.34375 -1.09375,0.82813 -2.8125,0.82813 -2.15625,0 -3.42187,-1.32813 -1.26563,-1.32812 -1.26563,-3.73437 0,-2.48438 1.26563,-3.85938 1.28125,-1.375 3.32812,-1.375 1.98438,0 3.23438,1.34375 1.25,1.34375 1.25,3.79688 0,0.14062 -0.0156,0.4375 l -7.34375,0 q 0.0937,1.625 0.92188,2.48437 0.82812,0.85938 2.0625,0.85938 0.90625,0 1.54687,-0.46875 0.65625,-0.48438 1.04688,-1.54688 z m -5.48438,-2.70312 5.5,0 q -0.10937,-1.23438 -0.625,-1.85938 -0.79687,-0.96875 -2.07812,-0.96875 -1.14063,0 -1.9375,0.78125 -0.78125,0.76563 -0.85938,2.04688 z m 9.11011,5.875 0,-9.85938 1.5,0 0,1.40625 q 1.09375,-1.625 3.14062,-1.625 0.89063,0 1.64063,0.32813 0.75,0.3125 1.10937,0.84375 0.375,0.51562 0.53125,1.21875 0.0937,0.46875 0.0937,1.625 l 0,6.0625 -1.67187,0 0,-6 q 0,-1.01563 -0.20313,-1.51563 -0.1875,-0.51562 -0.6875,-0.8125 -0.5,-0.29687 -1.17187,-0.29687 -1.0625,0 -1.84375,0.67187 -0.76563,0.67188 -0.76563,2.57813 l 0,5.375 -1.67187,0 z m 14.03195,-1.5 0.23438,1.48437 q -0.70313,0.14063 -1.26563,0.14063 -0.90625,0 -1.40625,-0.28125 -0.5,-0.29688 -0.70312,-0.75 -0.20313,-0.46875 -0.20313,-1.98438 l 0,-5.65625 -1.23437,0 0,-1.3125 1.23437,0 0,-2.4375 1.65625,-1 0,3.4375 1.6875,0 0,1.3125 -1.6875,0 0,5.75 q 0,0.71875 0.0781,0.92188 0.0937,0.20312 0.29687,0.32812 0.20313,0.125 0.57813,0.125 0.26562,0 0.73437,-0.0781 z m 13.14786,0.28125 q -0.9375,0.79687 -1.79688,1.125 -0.85937,0.3125 -1.84375,0.3125 -1.60937,0 -2.48437,-0.78125 -0.875,-0.79688 -0.875,-2.03125 0,-0.73438 0.32812,-1.32813 0.32813,-0.59375 0.85938,-0.95312 0.53125,-0.35938 1.20312,-0.54688 0.5,-0.14062 1.48438,-0.25 2.03125,-0.25 2.98437,-0.57812 0,-0.34375 0,-0.4375 0,-1.01563 -0.46875,-1.4375 -0.64062,-0.5625 -1.90625,-0.5625 -1.17187,0 -1.73437,0.40625 -0.5625,0.40625 -0.82813,1.46875 l -1.64062,-0.23438 q 0.23437,-1.04687 0.73437,-1.6875 0.51563,-0.64062 1.46875,-0.98437 0.96875,-0.35938 2.25,-0.35938 1.26563,0 2.04688,0.29688 0.78125,0.29687 1.15625,0.75 0.375,0.45312 0.51562,1.14062 0.0937,0.42188 0.0937,1.53125 l 0,2.23438 q 0,2.32812 0.0937,2.95312 0.10938,0.60938 0.4375,1.17188 l -1.75,0 q -0.26562,-0.51563 -0.32812,-1.21875 z m -0.14063,-3.71875 q -0.90625,0.35937 -2.73437,0.625 -1.03125,0.14062 -1.45313,0.32812 -0.42187,0.1875 -0.65625,0.54688 -0.23437,0.35937 -0.23437,0.79687 0,0.67188 0.5,1.125 0.51562,0.4375 1.48437,0.4375 0.96875,0 1.71875,-0.42187 0.75,-0.4375 1.10938,-1.15625 0.26562,-0.57813 0.26562,-1.67188 l 0,-0.60937 z m 7.73511,3.4375 0.23438,1.48437 q -0.70313,0.14063 -1.26563,0.14063 -0.90625,0 -1.40625,-0.28125 -0.5,-0.29688 -0.70312,-0.75 -0.20313,-0.46875 -0.20313,-1.98438 l 0,-5.65625 -1.23437,0 0,-1.3125 1.23437,0 0,-2.4375 1.65625,-1 0,3.4375 1.6875,0 0,1.3125 -1.6875,0 0,5.75 q 0,0.71875 0.0781,0.92188 0.0937,0.20312 0.29687,0.32812 0.20313,0.125 0.57813,0.125 0.26562,0 0.73437,-0.0781 z m 10.36661,0 0.23438,1.48437 q -0.70313,0.14063 -1.26563,0.14063 -0.90625,0 -1.40625,-0.28125 -0.5,-0.29688 -0.70312,-0.75 -0.20313,-0.46875 -0.20313,-1.98438 l 0,-5.65625 -1.23437,0 0,-1.3125 1.23437,0 0,-2.4375 1.65625,-1 0,3.4375 1.6875,0 0,1.3125 -1.6875,0 0,5.75 q 0,0.71875 0.0781,0.92188 0.0937,0.20312 0.29687,0.32812 0.20313,0.125 0.57813,0.125 0.26562,0 0.73437,-0.0781 z m 1.52704,1.5 0,-13.59375 1.67187,0 0,4.875 q 1.17188,-1.35938 2.95313,-1.35938 1.09375,0 1.89062,0.4375 0.8125,0.42188 1.15625,1.1875 0.35938,0.76563 0.35938,2.20313 l 0,6.25 -1.67188,0 0,-6.25 q 0,-1.25 -0.54687,-1.8125 -0.54688,-0.57813 -1.53125,-0.57813 -0.75,0 -1.40625,0.39063 -0.64063,0.375 -0.92188,1.04687 -0.28125,0.65625 -0.28125,1.8125 l 0,5.39063 -1.67187,0 z m 17.12573,-3.17188 1.71875,0.21875 q -0.40625,1.5 -1.51562,2.34375 -1.09375,0.82813 -2.8125,0.82813 -2.15625,0 -3.42188,-1.32813 -1.26562,-1.32812 -1.26562,-3.73437 0,-2.48438 1.26562,-3.85938 1.28125,-1.375 3.32813,-1.375 1.98437,0 3.23437,1.34375 1.25,1.34375 1.25,3.79688 0,0.14062 -0.0156,0.4375 l -7.34375,0 q 0.0937,1.625 0.92187,2.48437 0.82813,0.85938 2.0625,0.85938 0.90625,0 1.54688,-0.46875 0.65625,-0.48438 1.04687,-1.54688 z m -5.48437,-2.70312 5.5,0 q -0.10938,-1.23438 -0.625,-1.85938 -0.79688,-0.96875 -2.07813,-0.96875 -1.14062,0 -1.9375,0.78125 -0.78125,0.76563 -0.85937,2.04688 z m 14.69964,5.875 0,-8.54688 -1.48437,0 0,-1.3125 1.48437,0 0,-1.04687 q 0,-0.98438 0.17188,-1.46875 0.23437,-0.65625 0.84375,-1.04688 0.60937,-0.40625 1.70312,-0.40625 0.70313,0 1.5625,0.15625 l -0.25,1.46875 q -0.51562,-0.0937 -0.98437,-0.0937 -0.76563,0 -1.07813,0.32813 -0.3125,0.3125 -0.3125,1.20312 l 0,0.90625 1.92188,0 0,1.3125 -1.92188,0 0,8.54688 -1.65625,0 z m 4.7927,-11.6875 0,-1.90625 1.67187,0 0,1.90625 -1.67187,0 z m 0,11.6875 0,-9.85938 1.67187,0 0,9.85938 -1.67187,0 z m 4.11355,0 0,-9.85938 1.5,0 0,1.5 q 0.57813,-1.04687 1.0625,-1.375 0.48438,-0.34375 1.07813,-0.34375 0.84375,0 1.71875,0.54688 l -0.57813,1.54687 q -0.60937,-0.35937 -1.23437,-0.35937 -0.54688,0 -0.98438,0.32812 -0.42187,0.32813 -0.60937,0.90625 -0.28125,0.89063 -0.28125,1.95313 l 0,5.15625 -1.67188,0 z m 5.55643,-2.9375 1.65625,-0.26563 q 0.14062,1 0.76562,1.53125 0.64063,0.51563 1.78125,0.51563 1.15622,0 1.7031,-0.46875 0.5625,-0.46875 0.5625,-1.09375 0,-0.5625 -0.48438,-0.89063 -0.34375,-0.21875 -1.70309,-0.5625 -1.84375,-0.46875 -2.5625,-0.79687 -0.70313,-0.34375 -1.07813,-0.9375 -0.35937,-0.60938 -0.35937,-1.32813 0,-0.65625 0.29687,-1.21875 0.3125,-0.5625 0.82813,-0.9375 0.39062,-0.28125 1.0625,-0.48437 0.67187,-0.20313 1.4375,-0.20313 1.17184,0 2.04684,0.34375 0.875,0.32813 1.28125,0.90625 0.42188,0.5625 0.57813,1.51563 l -1.625,0.21875 q -0.10938,-0.75 -0.65625,-1.17188 -0.53125,-0.4375 -1.49997,-0.4375 -1.15625,0 -1.64063,0.39063 -0.48437,0.375 -0.48437,0.875 0,0.32812 0.20312,0.59375 0.20313,0.26562 0.64063,0.4375 0.25,0.0937 1.46875,0.4375 1.76559,0.46875 2.46872,0.76562 0.70312,0.29688 1.09375,0.875 0.40625,0.57813 0.40625,1.4375 0,0.82813 -0.48438,1.57813 -0.48437,0.73437 -1.40625,1.14062 -0.92187,0.39063 -2.07809,0.39063 -1.92188,0 -2.9375,-0.79688 -1,-0.79687 -1.28125,-2.35937 z m 13.65622,1.4375 0.23437,1.48437 q -0.70312,0.14063 -1.26562,0.14063 -0.90625,0 -1.40625,-0.28125 -0.5,-0.29688 -0.70313,-0.75 -0.20312,-0.46875 -0.20312,-1.98438 l 0,-5.65625 -1.23438,0 0,-1.3125 1.23438,0 0,-2.4375 1.65625,-1 0,3.4375 1.6875,0 0,1.3125 -1.6875,0 0,5.75 q 0,0.71875 0.0781,0.92188 0.0937,0.20312 0.29688,0.32812 0.20312,0.125 0.57812,0.125 0.26563,0 0.73438,-0.0781 z m 6.67914,1.5 0,-13.59375 1.67187,0 0,13.59375 -1.67187,0 z m 10.92602,-3.17188 1.71875,0.21875 q -0.40625,1.5 -1.51562,2.34375 -1.09375,0.82813 -2.8125,0.82813 -2.15625,0 -3.42188,-1.32813 -1.26562,-1.32812 -1.26562,-3.73437 0,-2.48438 1.26562,-3.85938 1.28125,-1.375 3.32813,-1.375 1.98437,0 3.23437,1.34375 1.25,1.34375 1.25,3.79688 0,0.14062 -0.0156,0.4375 l -7.34375,0 q 0.0937,1.625 0.92187,2.48437 0.82813,0.85938 2.0625,0.85938 0.90625,0 1.54688,-0.46875 0.65625,-0.48438 1.04687,-1.54688 z m -5.48437,-2.70312 5.5,0 q -0.10938,-1.23438 -0.625,-1.85938 -0.79688,-0.96875 -2.07813,-0.96875 -1.14062,0 -1.9375,0.78125 -0.78125,0.76563 -0.85937,2.04688 z m 11.84448,5.875 -3.75,-9.85938 1.76562,0 2.125,5.90625 q 0.34375,0.95313 0.625,1.98438 0.21875,-0.78125 0.625,-1.875 l 2.1875,-6.01563 1.71875,0 -3.73437,9.85938 -1.5625,0 z m 13.34375,-3.17188 1.71875,0.21875 q -0.40625,1.5 -1.51563,2.34375 -1.09375,0.82813 -2.8125,0.82813 -2.15625,0 -3.42187,-1.32813 -1.26563,-1.32812 -1.26563,-3.73437 0,-2.48438 1.26563,-3.85938 1.28125,-1.375 3.32812,-1.375 1.98438,0 3.23438,1.34375 1.25,1.34375 1.25,3.79688 0,0.14062 -0.0156,0.4375 l -7.34375,0 q 0.0937,1.625 0.92188,2.48437 0.82812,0.85938 2.0625,0.85938 0.90625,0 1.54687,-0.46875 0.65625,-0.48438 1.04688,-1.54688 z m -5.48438,-2.70312 5.5,0 q -0.10937,-1.23438 -0.625,-1.85938 -0.79687,-0.96875 -2.07812,-0.96875 -1.14063,0 -1.9375,0.78125 -0.78125,0.76563 -0.85938,2.04688 z m 9.07886,5.875 0,-13.59375 1.67188,0 0,13.59375 -1.67188,0 z m 12.54688,4 q -1.375,-1.75 -2.32813,-4.07813 -0.95312,-2.34375 -0.95312,-4.84375 0,-2.21875 0.70312,-4.23437 0.84375,-2.34375 2.57813,-4.67188 l 1.20312,0 q -1.125,1.92188 -1.48437,2.75 -0.5625,1.28125 -0.89063,2.67188 -0.40625,1.73437 -0.40625,3.48437 0,4.46875 2.78125,8.92188 l -1.20312,0 z m 2.99395,-4 0,-13.59375 1.67188,0 0,13.59375 -1.67188,0 z m 10.92603,-3.17188 1.71875,0.21875 q -0.40625,1.5 -1.51563,2.34375 -1.09375,0.82813 -2.8125,0.82813 -2.15625,0 -3.42187,-1.32813 -1.26563,-1.32812 -1.26563,-3.73437 0,-2.48438 1.26563,-3.85938 1.28125,-1.375 3.32812,-1.375 1.98438,0 3.23438,1.34375 1.25,1.34375 1.25,3.79688 0,0.14062 -0.0156,0.4375 l -7.34375,0 q 0.0937,1.625 0.92188,2.48437 0.82812,0.85938 2.0625,0.85938 0.90625,0 1.54687,-0.46875 0.65625,-0.48438 1.04688,-1.54688 z m -5.48438,-2.70312 5.5,0 q -0.10937,-1.23438 -0.625,-1.85938 -0.79687,-0.96875 -2.07812,-0.96875 -1.14063,0 -1.9375,0.78125 -0.78125,0.76563 -0.85938,2.04688 z m 9.11011,5.875 0,-9.85938 1.5,0 0,1.40625 q 1.09375,-1.625 3.14062,-1.625 0.89063,0 1.64063,0.32813 0.75,0.3125 1.10937,0.84375 0.375,0.51562 0.53125,1.21875 0.0937,0.46875 0.0937,1.625 l 0,6.0625 -1.67187,0 0,-6 q 0,-1.01563 -0.20313,-1.51563 -0.1875,-0.51562 -0.6875,-0.8125 -0.5,-0.29687 -1.17187,-0.29687 -1.0625,0 -1.84375,0.67187 -0.76563,0.67188 -0.76563,2.57813 l 0,5.375 -1.67187,0 z m 10.07886,0.8125 1.60937,0.25 q 0.10938,0.75 0.57813,1.09375 0.60937,0.45312 1.6875,0.45312 1.17187,0 1.79687,-0.46875 0.625,-0.45312 0.85938,-1.28125 0.125,-0.51562 0.10937,-2.15625 -1.09375,1.29688 -2.71875,1.29688 -2.03125,0 -3.15625,-1.46875 -1.10937,-1.46875 -1.10937,-3.51563 0,-1.40625 0.51562,-2.59375 0.51563,-1.20312 1.48438,-1.84375 0.96875,-0.65625 2.26562,-0.65625 1.75,0 2.875,1.40625 l 0,-1.1875 1.54688,0 0,8.51563 q 0,2.3125 -0.46875,3.26562 -0.46875,0.96875 -1.48438,1.51563 -1.01562,0.5625 -2.5,0.5625 -1.76562,0 -2.85937,-0.79688 -1.07813,-0.79687 -1.03125,-2.39062 z m 1.375,-5.92188 q 0,1.95313 0.76562,2.84375 0.78125,0.89063 1.9375,0.89063 1.14063,0 1.92188,-0.89063 0.78125,-0.89062 0.78125,-2.78125 0,-1.8125 -0.8125,-2.71875 -0.79688,-0.92187 -1.92188,-0.92187 -1.10937,0 -1.89062,0.90625 -0.78125,0.89062 -0.78125,2.67187 z m 12.95385,3.60938 0.23438,1.48437 q -0.70313,0.14063 -1.26563,0.14063 -0.90625,0 -1.40625,-0.28125 -0.5,-0.29688 -0.70312,-0.75 -0.20313,-0.46875 -0.20313,-1.98438 l 0,-5.65625 -1.23437,0 0,-1.3125 1.23437,0 0,-2.4375 1.65625,-1 0,3.4375 1.6875,0 0,1.3125 -1.6875,0 0,5.75 q 0,0.71875 0.0781,0.92188 0.0937,0.20312 0.29687,0.32812 0.20313,0.125 0.57813,0.125 0.26562,0 0.73437,-0.0781 z m 1.52704,1.5 0,-13.59375 1.67188,0 0,4.875 q 1.17187,-1.35938 2.95312,-1.35938 1.09375,0 1.89063,0.4375 0.8125,0.42188 1.15625,1.1875 0.35937,0.76563 0.35937,2.20313 l 0,6.25 -1.67187,0 0,-6.25 q 0,-1.25 -0.54688,-1.8125 -0.54687,-0.57813 -1.53125,-0.57813 -0.75,0 -1.40625,0.39063 -0.64062,0.375 -0.92187,1.04687 -0.28125,0.65625 -0.28125,1.8125 l 0,5.39063 -1.67188,0 z m 15.52777,0 0,-13.59375 1.67188,0 0,13.59375 -1.67188,0 z m 10.92609,-3.17188 1.71875,0.21875 q -0.40625,1.5 -1.51563,2.34375 -1.09375,0.82813 -2.8125,0.82813 -2.15625,0 -3.42187,-1.32813 -1.26563,-1.32812 -1.26563,-3.73437 0,-2.48438 1.26563,-3.85938 1.28125,-1.375 3.32812,-1.375 1.98438,0 3.23438,1.34375 1.25,1.34375 1.25,3.79688 0,0.14062 -0.0156,0.4375 l -7.34375,0 q 0.0937,1.625 0.92188,2.48437 0.82812,0.85938 2.0625,0.85938 0.90625,0 1.54687,-0.46875 0.65625,-0.48438 1.04688,-1.54688 z m -5.48438,-2.70312 5.5,0 q -0.10937,-1.23438 -0.625,-1.85938 -0.79687,-0.96875 -2.07812,-0.96875 -1.14063,0 -1.9375,0.78125 -0.78125,0.76563 -0.85938,2.04688 z m 9.11011,5.875 0,-9.85938 1.5,0 0,1.40625 q 1.09375,-1.625 3.14063,-1.625 0.89062,0 1.64062,0.32813 0.75,0.3125 1.10938,0.84375 0.375,0.51562 0.53125,1.21875 0.0937,0.46875 0.0937,1.625 l 0,6.0625 -1.67188,0 0,-6 q 0,-1.01563 -0.20312,-1.51563 -0.1875,-0.51562 -0.6875,-0.8125 -0.5,-0.29687 -1.17188,-0.29687 -1.0625,0 -1.84375,0.67187 -0.76562,0.67188 -0.76562,2.57813 l 0,5.375 -1.67188,0 z"
       id="path65"
       inkscape:connector-curvature="0"
       style="fill:#000000;fill-rule:nonzero" />
    <path
       d="m 657.77924,162.01482 0,-1.21875 1.0625,0 0,1.21875 -1.0625,0 z m 0,7.375 0,-6.21875 1.0625,0 0,6.21875 -1.0625,0 z"
       id="path67"
       inkscape:connector-curvature="0"
       style="fill:#000000;fill-rule:nonzero" />
    <path
       d="m 662.0893,166.38982 -1.1875,0 q 2.76562,-4.45313 2.76562,-8.92188 0,-1.73437 -0.39062,-3.45312 -0.32813,-1.39063 -0.89063,-2.67188 -0.35937,-0.84375 -1.48437,-2.78125 l 1.1875,0 q 1.75,2.32813 2.57812,4.67188 0.71875,2.01562 0.71875,4.23437 0,2.5 -0.96875,4.84375 -0.95312,2.32813 -2.32812,4.07813 z"
       id="path69"
       inkscape:connector-curvature="0"
       style="fill:#000000;fill-rule:nonzero" />
    <path
       d="m 386.60367,240.46194 0,165.82678"
       id="path71"
       inkscape:connector-curvature="0"
       style="fill:#000000;fill-opacity:0;fill-rule:nonzero" />
    <path
       d="m 386.60367,240.46194 0,165.82678"
       id="path73"
       inkscape:connector-curvature="0"
       style="stroke:#ff00ff;stroke-width:4;stroke-linecap:butt;stroke-linejoin:round;stroke-dasharray:16, 12" />
    <path
       d="m 570.51184,240.46194 0,165.82678"
       id="path75"
       inkscape:connector-curvature="0"
       style="fill:#000000;fill-opacity:0;fill-rule:nonzero" />
    <path
       d="m 570.51184,240.46194 0,165.82678"
       id="path77"
       inkscape:connector-curvature="0"
       style="stroke:#ff00ff;stroke-width:4;stroke-linecap:butt;stroke-linejoin:round;stroke-dasharray:16, 12" />
    <path
       d="m 279.59317,281.33597 0,121.85825"
       id="path79"
       inkscape:connector-curvature="0"
       style="fill:#000000;fill-opacity:0;fill-rule:nonzero" />
    <path
       d="m 279.59317,281.33597 0,121.85825"
       id="path81"
       inkscape:connector-curvature="0"
       style="stroke:#ff00ff;stroke-width:4;stroke-linecap:butt;stroke-linejoin:round;stroke-dasharray:16, 12" />
    <path
       d="m 330.50656,281.33597 0,121.85825"
       id="path83"
       inkscape:connector-curvature="0"
       style="fill:#000000;fill-opacity:0;fill-rule:nonzero" />
    <path
       d="m 330.50656,281.33597 0,121.85825"
       id="path85"
       inkscape:connector-curvature="0"
       style="stroke:#ff00ff;stroke-width:4;stroke-linecap:butt;stroke-linejoin:round;stroke-dasharray:16, 12" />
    <path
       d="m 632.5748,281.33597 0,121.85825"
       id="path87"
       inkscape:connector-curvature="0"
       style="fill:#000000;fill-opacity:0;fill-rule:nonzero" />
    <path
       d="m 632.5748,281.33597 0,121.85825"
       id="path89"
       inkscape:connector-curvature="0"
       style="stroke:#ff00ff;stroke-width:4;stroke-linecap:butt;stroke-linejoin:round;stroke-dasharray:16, 12" />
    <path
       d="m 687.958,281.33597 0,121.85825"
       id="path91"
       inkscape:connector-curvature="0"
       style="fill:#000000;fill-opacity:0;fill-rule:nonzero" />
    <path
       d="m 687.958,281.33597 0,121.85825"
       id="path93"
       inkscape:connector-curvature="0"
       style="stroke:#ff00ff;stroke-width:4;stroke-linecap:butt;stroke-linejoin:round;stroke-dasharray:16, 12" />
    <path
       d="m 245.84514,362.70602 0,42.14175"
       id="path95"
       inkscape:connector-curvature="0"
       style="fill:#000000;fill-opacity:0;fill-rule:nonzero" />
    <path
       d="m 245.84514,362.70602 0,42.14175"
       id="path97"
       inkscape:connector-curvature="0"
       style="stroke:#ff00ff;stroke-width:4;stroke-linecap:butt;stroke-linejoin:round;stroke-dasharray:16, 12" />
    <path
       d="m 304.3386,362.70602 0,42.14175"
       id="path99"
       inkscape:connector-curvature="0"
       style="fill:#000000;fill-opacity:0;fill-rule:nonzero" />
    <path
       d="m 304.3386,362.70602 0,42.14175"
       id="path101"
       inkscape:connector-curvature="0"
       style="stroke:#ff00ff;stroke-width:4;stroke-linecap:butt;stroke-linejoin:round;stroke-dasharray:16, 12" />
    <path
       d="m 357.6509,362.70602 0,42.14175"
       id="path103"
       inkscape:connector-curvature="0"
       style="fill:#000000;fill-opacity:0;fill-rule:nonzero" />
    <path
       d="m 357.6509,362.70602 0,42.14175"
       id="path105"
       inkscape:connector-curvature="0"
       style="stroke:#ff00ff;stroke-width:4;stroke-linecap:butt;stroke-linejoin:round;stroke-dasharray:16, 12" />
    <path
       d="m 602.7113,362.70602 0,42.14175"
       id="path107"
       inkscape:connector-curvature="0"
       style="fill:#000000;fill-opacity:0;fill-rule:nonzero" />
    <path
       d="m 602.7113,362.70602 0,42.14175"
       id="path109"
       inkscape:connector-curvature="0"
       style="stroke:#ff00ff;stroke-width:4;stroke-linecap:butt;stroke-linejoin:round;stroke-dasharray:16, 12" />
    <path
       d="m 660.1706,362.70602 0,42.14175"
       id="path111"
       inkscape:connector-curvature="0"
       style="fill:#000000;fill-opacity:0;fill-rule:nonzero" />
    <path
       d="m 660.1706,362.70602 0,42.14175"
       id="path113"
       inkscape:connector-curvature="0"
       style="stroke:#ff00ff;stroke-width:4;stroke-linecap:butt;stroke-linejoin:round;stroke-dasharray:16, 12" />
    <path
       d="m 716.5932,361.0525 0,42.14172"
       id="path115"
       inkscape:connector-curvature="0"
       style="fill:#000000;fill-opacity:0;fill-rule:nonzero" />
    <path
       d="m 716.5932,361.0525 0,42.14172"
       id="path117"
       inkscape:connector-curvature="0"
       style="stroke:#ff00ff;stroke-width:4;stroke-linecap:butt;stroke-linejoin:round;stroke-dasharray:16, 12" />
  </g>
</svg>
