<?xml version="1.0" encoding="UTF-8" standalone="no"?>
<svg
   xmlns:dc="http://purl.org/dc/elements/1.1/"
   xmlns:cc="http://creativecommons.org/ns#"
   xmlns:rdf="http://www.w3.org/1999/02/22-rdf-syntax-ns#"
   xmlns:svg="http://www.w3.org/2000/svg"
   xmlns="http://www.w3.org/2000/svg"
   xmlns:sodipodi="http://sodipodi.sourceforge.net/DTD/sodipodi-0.dtd"
   xmlns:inkscape="http://www.inkscape.org/namespaces/inkscape"
   version="1.1"
   viewBox="0 0 920.98547 289.46011"
   stroke-miterlimit="10"
   id="svg3941"
   inkscape:version="0.48.4 r9939"
   width="100%"
   height="100%"
   sodipodi:docname="rule_5.svg"
   style="fill:none;stroke:none">
  <metadata
     id="metadata4198">
    <rdf:RDF>
      <cc:Work
         rdf:about="">
        <dc:format>image/svg+xml</dc:format>
        <dc:type
           rdf:resource="http://purl.org/dc/dcmitype/StillImage" />
      </cc:Work>
    </rdf:RDF>
  </metadata>
  <defs
     id="defs4196">
    <clipPath
       clipPathUnits="userSpaceOnUse"
       id="clipPath4202">
      <rect
         style="fill:none;stroke:#000000;stroke-width:0.98905939;stroke-opacity:1"
         id="rect4204"
         width="920.98547"
         height="289.46011"
         x="19.443682"
         y="170.46062" />
    </clipPath>
  </defs>
  <sodipodi:namedview
     pagecolor="#ffffff"
     bordercolor="#666666"
     borderopacity="1"
     objecttolerance="10"
     gridtolerance="10"
     guidetolerance="10"
     inkscape:pageopacity="0"
     inkscape:pageshadow="2"
     inkscape:window-width="1280"
     inkscape:window-height="744"
     id="namedview4194"
     showgrid="false"
     fit-margin-top="0"
     fit-margin-left="0"
     fit-margin-right="0"
     fit-margin-bottom="0"
     inkscape:zoom="0.87407407"
     inkscape:cx="460.55632"
     inkscape:cy="189.92073"
     inkscape:window-x="-4"
     inkscape:window-y="-4"
     inkscape:window-maximized="1"
     inkscape:current-layer="svg3941" />
  <clipPath
     id="g2c038f3ed_082.0">
    <path
       d="M 0,0 960,0 960,540 0,540 0,0 z"
       clip-rule="nonzero"
       id="path3944"
       inkscape:connector-curvature="0" />
  </clipPath>
  <g
     clip-path="url(#clipPath4202)"
     id="g3946"
     transform="translate(-19.443682,-170.46062)">
    <path
       d="m 0,0 960,0 0,540 -960,0 z"
       id="path3948"
       inkscape:connector-curvature="0"
       style="fill:#ffffff;fill-rule:nonzero" />
    <path
       d="m 22.692913,197.86613 0,104.79265"
       id="path3950"
       inkscape:connector-curvature="0"
       style="stroke:#000000;stroke-width:1;stroke-linecap:butt" />
    <path
       d="m 22.692913,371.8294 0,86.19421"
       id="path3952"
       inkscape:connector-curvature="0"
       style="stroke:#000000;stroke-width:1;stroke-linecap:butt" />
    <path
       d="m 93.32284,197.86613 0,104.79265"
       id="path3954"
       inkscape:connector-curvature="0"
       style="stroke:#000000;stroke-width:4;stroke-linecap:butt" />
    <path
       d="m 93.32284,371.8294 0,86.19421"
       id="path3956"
       inkscape:connector-curvature="0"
       style="stroke:#000000;stroke-width:4;stroke-linecap:butt" />
    <path
       d="m 133.51706,197.86613 0,42.59318"
       id="path3958"
       inkscape:connector-curvature="0"
       style="stroke:#000000;stroke-width:1;stroke-linecap:butt" />
    <path
       d="m 174.8189,197.86613 0,104.79265"
       id="path3960"
       inkscape:connector-curvature="0"
       style="stroke:#ff00ff;stroke-width:4;stroke-linecap:butt" />
    <path
       d="m 174.8189,302.65878 0,69.17062"
       id="path3962"
       inkscape:connector-curvature="0"
       style="stroke:#ff00ff;stroke-width:4;stroke-linecap:butt;stroke-dasharray:16, 12" />
    <path
       d="m 174.8189,371.8294 0,86.19421"
       id="path3964"
       inkscape:connector-curvature="0"
       style="stroke:#ff00ff;stroke-width:4;stroke-linecap:butt" />
    <path
       d="m 285.15485,197.86613 0,42.59318"
       id="path3966"
       inkscape:connector-curvature="0"
       style="stroke:#000000;stroke-width:1;stroke-linecap:butt" />
    <path
       d="m 285.15485,371.8294 0,86.19421"
       id="path3968"
       inkscape:connector-curvature="0"
       style="stroke:#ff00ff;stroke-width:4;stroke-linecap:butt" />
    <path
       d="m 325.3491,371.8294 0,86.19421"
       id="path3970"
       inkscape:connector-curvature="0"
       style="stroke:#ff00ff;stroke-width:4;stroke-linecap:butt" />
    <path
       d="m 442.8294,371.8294 0,86.19421"
       id="path3972"
       inkscape:connector-curvature="0"
       style="stroke:#ff00ff;stroke-width:4;stroke-linecap:butt" />
    <path
       d="m 485.0971,371.8294 0,86.19421"
       id="path3974"
       inkscape:connector-curvature="0"
       style="stroke:#ff00ff;stroke-width:4;stroke-linecap:butt" />
    <path
       d="m 603.2808,371.8294 0,86.19421"
       id="path3976"
       inkscape:connector-curvature="0"
       style="stroke:#ff00ff;stroke-width:4;stroke-linecap:butt" />
    <path
       d="m 645.45404,197.86613 0,42.59318"
       id="path3978"
       inkscape:connector-curvature="0"
       style="stroke:#000000;stroke-width:1;stroke-linecap:butt" />
    <path
       d="m 645.45404,371.8294 0,86.19421"
       id="path3980"
       inkscape:connector-curvature="0"
       style="stroke:#ff00ff;stroke-width:4;stroke-linecap:butt" />
    <path
       d="m 853.17847,197.86613 0,104.79265"
       id="path3982"
       inkscape:connector-curvature="0"
       style="stroke:#ff00ff;stroke-width:4;stroke-linecap:butt" />
    <path
       d="m 853.17847,302.65878 0,69.17062"
       id="path3984"
       inkscape:connector-curvature="0"
       style="stroke:#ff00ff;stroke-width:4;stroke-linecap:butt;stroke-dasharray:16, 12" />
    <path
       d="m 853.17847,371.8294 0,86.19421"
       id="path3986"
       inkscape:connector-curvature="0"
       style="stroke:#ff00ff;stroke-width:4;stroke-linecap:butt" />
    <path
       d="m 897.1102,197.86613 0,42.59318"
       id="path3988"
       inkscape:connector-curvature="0"
       style="stroke:#000000;stroke-width:1;stroke-linecap:butt" />
    <path
       d="m 937.30444,197.86613 0,104.79265"
       id="path3990"
       inkscape:connector-curvature="0"
       style="stroke:#000000;stroke-width:1;stroke-linecap:butt" />
    <path
       d="m 937.30444,371.8294 0,86.19421"
       id="path3992"
       inkscape:connector-curvature="0"
       style="stroke:#000000;stroke-width:1;stroke-linecap:butt" />
    <path
       d="m 22.194225,198.36482 915.608945,0"
       id="path3994"
       inkscape:connector-curvature="0"
       style="stroke:#000000;stroke-width:1;stroke-linecap:butt" />
    <path
       d="m 22.194225,239.96063 915.608945,0"
       id="path3996"
       inkscape:connector-curvature="0"
       style="stroke:#000000;stroke-width:1;stroke-linecap:butt" />
    <path
       d="m 22.194225,303.15747 915.608945,0"
       id="path3998"
       inkscape:connector-curvature="0"
       style="stroke:#000000;stroke-width:1;stroke-linecap:butt" />
    <path
       d="m 22.194225,372.3281 915.608945,0"
       id="path4000"
       inkscape:connector-curvature="0"
       style="stroke:#000000;stroke-width:1;stroke-linecap:butt" />
    <path
       d="m 22.194225,457.52493 915.608945,0"
       id="path4002"
       inkscape:connector-curvature="0"
       style="stroke:#000000;stroke-width:1;stroke-linecap:butt" />
    <path
       d="m 62.517784,224.62961 q 1.265625,0.85938 2.3125,1.26563 l -0.53125,1.25 q -1.453125,-0.53125 -2.921875,-1.67188 -1.5,0.84375 -3.328125,0.84375 -1.84375,0 -3.359375,-0.89062 -1.5,-0.89063 -2.3125,-2.5 -0.8125,-1.625 -0.8125,-3.64063 0,-2.01562 0.8125,-3.65625 0.828125,-1.65625 2.328125,-2.51562 1.515625,-0.875 3.375,-0.875 1.890625,0 3.390625,0.90625 1.515625,0.89062 2.3125,2.5 0.796875,1.60937 0.796875,3.625 0,1.6875 -0.515625,3.03125 -0.515625,1.32812 -1.546875,2.32812 z m -3.953125,-2.29687 q 1.5625,0.42187 2.5625,1.29687 1.59375,-1.45312 1.59375,-4.35937 0,-1.65625 -0.5625,-2.875 -0.5625,-1.23438 -1.640625,-1.92188 -1.078125,-0.6875 -2.421875,-0.6875 -2.015625,0 -3.34375,1.39063 -1.328125,1.375 -1.328125,4.10937 0,2.65625 1.3125,4.07813 1.3125,1.40625 3.359375,1.40625 0.953125,0 1.8125,-0.35938 -0.84375,-0.54687 -1.78125,-0.78125 l 0.4375,-1.29687 z"
       id="path4004"
       inkscape:connector-curvature="0"
       style="fill:#000000;fill-rule:nonzero" />
    <path
       d="m 112.30482,229.86398 0,-4.82813 q -0.39062,0.54688 -1.09375,0.90625 -0.6875,0.35938 -1.48437,0.35938 -1.75,0 -3.01563,-1.39063 -1.26562,-1.40625 -1.26562,-3.84375 0,-1.48437 0.51562,-2.65625 0.51563,-1.1875 1.48438,-1.79687 0.98437,-0.60938 2.15625,-0.60938 1.82812,0 2.875,1.54688 l 0,-1.32813 1.5,0 0,13.64063 -1.67188,0 z m -5.14062,-8.73438 q 0,1.90625 0.79687,2.85938 0.79688,0.9375 1.90625,0.9375 1.0625,0 1.82813,-0.89063 0.78125,-0.90625 0.78125,-2.76562 0,-1.95313 -0.8125,-2.95313 -0.8125,-1 -1.90625,-1 -1.09375,0 -1.84375,0.9375 -0.75,0.92188 -0.75,2.875 z"
       id="path4006"
       inkscape:connector-curvature="0"
       style="fill:#000000;fill-rule:nonzero" />
    <path
       d="m 119.61803,233.08273 -1.04687,0 0,-6.71875 q -0.39063,0.35937 -1.01563,0.73437 -0.60937,0.35938 -1.09375,0.53125 l 0,-1.01562 q 0.875,-0.42188 1.53125,-1 0.67188,-0.59375 0.95313,-1.15625 l 0.67187,0 0,8.625 z"
       id="path4008"
       inkscape:connector-curvature="0"
       style="fill:#000000;fill-rule:nonzero" />
    <path
       d="m 147.05861,226.08273 0,-1.90625 1.90625,0 0,1.90625 -1.90625,0 z m 6.32812,0 0,-1.90625 1.90625,0 0,1.90625 -1.90625,0 z m 6.32813,0 0,-1.90625 1.92187,0 0,1.90625 -1.92187,0 z"
       id="path4010"
       inkscape:connector-curvature="0"
       style="fill:#000000;fill-rule:nonzero" />
    <path
       d="m 230.94868,229.86398 0,-4.82813 q -0.39063,0.54688 -1.09375,0.90625 -0.6875,0.35938 -1.48438,0.35938 -1.75,0 -3.01562,-1.39063 -1.26563,-1.40625 -1.26563,-3.84375 0,-1.48437 0.51563,-2.65625 0.51562,-1.1875 1.48437,-1.79687 0.98438,-0.60938 2.15625,-0.60938 1.82813,0 2.875,1.54688 l 0,-1.32813 1.5,0 0,13.64063 -1.67187,0 z m -5.14063,-8.73438 q 0,1.90625 0.79688,2.85938 0.79687,0.9375 1.90625,0.9375 1.0625,0 1.82812,-0.89063 0.78125,-0.90625 0.78125,-2.76562 0,-1.95313 -0.8125,-2.95313 -0.8125,-1 -1.90625,-1 -1.09375,0 -1.84375,0.9375 -0.75,0.92188 -0.75,2.875 z"
       id="path4012"
       inkscape:connector-curvature="0"
       style="fill:#000000;fill-rule:nonzero" />
    <path
       d="m 234.59003,225.70773 0,-1.21875 1.0625,0 0,1.21875 -1.0625,0 z m 0,7.375 0,-6.21875 1.0625,0 0,6.21875 -1.0625,0 z"
       id="path4014"
       inkscape:connector-curvature="0"
       style="fill:#000000;fill-rule:nonzero" />
    <path
       d="m 448.86697,226.08273 0,-1.90625 1.90625,0 0,1.90625 -1.90625,0 z m 6.32812,0 0,-1.90625 1.90625,0 0,1.90625 -1.90625,0 z m 6.32813,0 0,-1.90625 1.92187,0 0,1.90625 -1.92187,0 z m 6,0 0,-1.90625 1.90625,0 0,1.90625 -1.90625,0 z m 6.32812,0 0,-1.90625 1.90625,0 0,1.90625 -1.90625,0 z m 6.32813,0 0,-1.90625 1.92187,0 0,1.90625 -1.92187,0 z"
       id="path4016"
       inkscape:connector-curvature="0"
       style="fill:#000000;fill-rule:nonzero" />
    <path
       d="m 725.90753,229.86398 0,-4.82813 q -0.39063,0.54688 -1.09375,0.90625 -0.6875,0.35938 -1.48438,0.35938 -1.75,0 -3.01562,-1.39063 -1.26563,-1.40625 -1.26563,-3.84375 0,-1.48437 0.51563,-2.65625 0.51562,-1.1875 1.48437,-1.79687 0.98438,-0.60938 2.15625,-0.60938 1.82813,0 2.875,1.54688 l 0,-1.32813 1.5,0 0,13.64063 -1.67187,0 z m -5.14063,-8.73438 q 0,1.90625 0.79688,2.85938 0.79687,0.9375 1.90625,0.9375 1.0625,0 1.82812,-0.89063 0.78125,-0.90625 0.78125,-2.76562 0,-1.95313 -0.8125,-2.95313 -0.8125,-1 -1.90625,-1 -1.09375,0 -1.84375,0.9375 -0.75,0.92188 -0.75,2.875 z"
       id="path4018"
       inkscape:connector-curvature="0"
       style="fill:#000000;fill-rule:nonzero" />
    <path
       d="m 729.5488,225.70773 0,-1.21875 1.0625,0 0,1.21875 -1.0625,0 z m 0,7.375 0,-6.21875 1.0625,0 0,6.21875 -1.0625,0 z m 8.42181,-1.39063 0,-2.35937 -2.32812,0 0,-0.98438 2.32812,0 0,-2.32812 1,0 0,2.32812 2.34375,0 0,0.98438 -2.34375,0 0,2.35937 -1,0 z m 8.48432,1.39063 0,-8.59375 1.0625,0 0,8.59375 -1.0625,0 z m 7.04437,-2 1.09375,0.125 q -0.25,0.95312 -0.95312,1.48437 -0.70313,0.53125 -1.78125,0.53125 -1.35938,0 -2.17188,-0.84375 -0.79687,-0.84375 -0.79687,-2.35937 0,-1.5625 0.8125,-2.42188 0.8125,-0.875 2.09375,-0.875 1.25,0 2.03125,0.84375 0.79687,0.84375 0.79687,2.39063 0,0.0937 0,0.28125 l -4.64062,0 q 0.0625,1.03125 0.57812,1.57812 0.51563,0.53125 1.29688,0.53125 0.57812,0 0.98437,-0.29687 0.42188,-0.3125 0.65625,-0.96875 z m -3.45312,-1.70313 3.46875,0 q -0.0625,-0.79687 -0.39063,-1.1875 -0.51562,-0.60937 -1.3125,-0.60937 -0.73437,0 -1.23437,0.48437 -0.48438,0.48438 -0.53125,1.3125 z m 6.12017,3.70313 0,-6.21875 0.9375,0 0,0.875 q 0.6875,-1.01563 1.98438,-1.01563 0.5625,0 1.03125,0.20313 0.48437,0.20312 0.71875,0.53125 0.23437,0.32812 0.32812,0.76562 0.0469,0.29688 0.0469,1.03125 l 0,3.82813 -1.04688,0 0,-3.78125 q 0,-0.65625 -0.125,-0.96875 -0.125,-0.3125 -0.4375,-0.5 -0.3125,-0.20313 -0.73437,-0.20313 -0.67188,0 -1.17188,0.4375 -0.48437,0.42188 -0.48437,1.60938 l 0,3.40625 -1.04688,0 z m 9.95069,-2.57813 0,-1.0625 3.25,0 0,1.0625 -3.25,0 z m 11.69092,2.57813 -1.04688,0 0,-6.71875 q -0.39062,0.35937 -1.01562,0.73437 -0.60938,0.35938 -1.09375,0.53125 l 0,-1.01562 q 0.875,-0.42188 1.53125,-1 0.67187,-0.59375 0.95312,-1.15625 l 0.67188,0 0,8.625 z"
       id="path4020"
       inkscape:connector-curvature="0"
       style="fill:#000000;fill-rule:nonzero" />
    <path
       d="m 868.035,226.08273 0,-1.90625 1.90625,0 0,1.90625 -1.90625,0 z m 6.32812,0 0,-1.90625 1.90625,0 0,1.90625 -1.90625,0 z m 6.32813,0 0,-1.90625 1.92187,0 0,1.90625 -1.92187,0 z"
       id="path4022"
       inkscape:connector-curvature="0"
       style="fill:#000000;fill-rule:nonzero" />
    <path
       d="m 915.40295,229.86398 0,-4.82813 q -0.39062,0.54688 -1.09375,0.90625 -0.6875,0.35938 -1.48437,0.35938 -1.75,0 -3.01563,-1.39063 -1.26562,-1.40625 -1.26562,-3.84375 0,-1.48437 0.51562,-2.65625 0.51563,-1.1875 1.48438,-1.79687 0.98437,-0.60938 2.15625,-0.60938 1.82812,0 2.875,1.54688 l 0,-1.32813 1.5,0 0,13.64063 -1.67188,0 z m -5.14062,-8.73438 q 0,1.90625 0.79687,2.85938 0.79688,0.9375 1.90625,0.9375 1.0625,0 1.82813,-0.89063 0.78125,-0.90625 0.78125,-2.76562 0,-1.95313 -0.8125,-2.95313 -0.8125,-1 -1.90625,-1 -1.09375,0 -1.84375,0.9375 -0.75,0.92188 -0.75,2.875 z"
       id="path4024"
       inkscape:connector-curvature="0"
       style="fill:#000000;fill-rule:nonzero" />
    <path
       d="m 918.2943,233.08273 3.32813,-4.48438 -2.92188,-4.10937 1.34375,0 1.5625,2.20312 q 0.48438,0.6875 0.6875,1.0625 0.29688,-0.46875 0.6875,-0.98437 l 1.71875,-2.28125 1.23438,0 -3.01563,4.04687 3.25,4.54688 -1.40625,0 -2.15625,-3.0625 q -0.1875,-0.26563 -0.375,-0.57813 -0.28125,0.46875 -0.40625,0.64063 l -2.15625,3 -1.375,0 z"
       id="path4026"
       inkscape:connector-curvature="0"
       style="fill:#000000;fill-rule:nonzero" />
    <path
       d="m 37.09845,267.47906 0,-13.59376 1.796875,0 0,11.98438 6.703125,0 0,1.60938 -8.5,0 z m 16.985092,-3.17188 1.71875,0.21875 q -0.40625,1.5 -1.515625,2.34375 -1.09375,0.82813 -2.8125,0.82813 -2.15625,0 -3.421875,-1.32813 -1.265625,-1.32812 -1.265625,-3.73437 0,-2.48438 1.265625,-3.85938 1.28125,-1.375 3.328125,-1.375 1.984375,0 3.234375,1.34375 1.25,1.34375 1.25,3.79688 0,0.14062 -0.01563,0.4375 l -7.34375,0 q 0.09375,1.625 0.921875,2.48437 0.828125,0.85938 2.0625,0.85938 0.90625,0 1.546875,-0.46875 0.65625,-0.48438 1.046875,-1.54688 z m -5.484375,-2.70312 5.5,0 q -0.109375,-1.23438 -0.625,-1.85938 -0.796875,-0.96875 -2.078125,-0.96875 -1.140625,0 -1.9375,0.78125 -0.78125,0.76563 -0.859375,2.04688 z m 11.844467,5.875 -3.75,-9.85938 1.765625,0 2.125,5.90625 q 0.34375,0.95313 0.625,1.98438 0.21875,-0.78125 0.625,-1.875 l 2.1875,-6.01563 1.71875,0 -3.734375,9.85938 -1.5625,0 z m 13.34375,-3.17188 1.71875,0.21875 q -0.40625,1.5 -1.515625,2.34375 -1.09375,0.82813 -2.8125,0.82813 -2.15625,0 -3.421875,-1.32813 -1.265625,-1.32812 -1.265625,-3.73437 0,-2.48438 1.265625,-3.85938 1.28125,-1.375 3.328125,-1.375 1.984375,0 3.234375,1.34375 1.25,1.34375 1.25,3.79688 0,0.14062 -0.01563,0.4375 l -7.34375,0 q 0.09375,1.625 0.921875,2.48437 0.828125,0.85938 2.0625,0.85938 0.90625,0 1.546875,-0.46875 0.65625,-0.48438 1.046875,-1.54688 z m -5.484375,-2.70312 5.5,0 q -0.109375,-1.23438 -0.625,-1.85938 -0.796875,-0.96875 -2.078125,-0.96875 -1.140625,0 -1.9375,0.78125 -0.78125,0.76563 -0.859375,2.04688 z m 9.078842,5.875 0,-13.59376 1.671875,0 0,13.59376 -1.671875,0 z"
       id="path4028"
       inkscape:connector-curvature="0"
       style="fill:#000000;fill-rule:nonzero" />
    <path
       d="m 57.154213,289.47906 0,-13.59375 1.671875,0 0,13.59375 -1.671875,0 z"
       id="path4030"
       inkscape:connector-curvature="0"
       style="fill:#000000;fill-rule:nonzero" />
    <path
       d="m 117.63337,278.47906 0,-1.90625 1.90625,0 0,1.90625 -1.90625,0 z m 6.32813,0 0,-1.90625 1.90625,0 0,1.90625 -1.90625,0 z m 6.32811,0 0,-1.90625 1.92188,0 0,1.90625 -1.92188,0 z m 6,0 0,-1.90625 1.90625,0 0,1.90625 -1.90625,0 z m 6.32813,0 0,-1.90625 1.90625,0 0,1.90625 -1.90625,0 z m 6.32812,0 0,-1.90625 1.92188,0 0,1.90625 -1.92188,0 z"
       id="path4032"
       inkscape:connector-curvature="0"
       style="fill:#000000;fill-rule:nonzero" />
    <path
       d="m 416.68182,275.54156 1.65625,-0.26563 q 0.14063,1 0.76563,1.53125 0.64062,0.51563 1.78125,0.51563 1.15625,0 1.70312,-0.46875 0.5625,-0.46875 0.5625,-1.09375 0,-0.5625 -0.48437,-0.89063 -0.34375,-0.21875 -1.70313,-0.5625 -1.84375,-0.46875 -2.5625,-0.79687 -0.70312,-0.34375 -1.07812,-0.9375 -0.35938,-0.60938 -0.35938,-1.32813 0,-0.65625 0.29688,-1.21875 0.3125,-0.5625 0.82812,-0.9375 0.39063,-0.28125 1.0625,-0.48437 0.67188,-0.20313 1.4375,-0.20313 1.17188,0 2.04688,0.34375 0.875,0.32813 1.28125,0.90625 0.42187,0.5625 0.57812,1.51563 l -1.625,0.21875 q -0.10937,-0.75 -0.65625,-1.17188 -0.53125,-0.4375 -1.5,-0.4375 -1.15625,0 -1.64062,0.39063 -0.48438,0.375 -0.48438,0.875 0,0.32812 0.20313,0.59375 0.20312,0.26562 0.64062,0.4375 0.25,0.0937 1.46875,0.4375 1.76563,0.46875 2.46875,0.76562 0.70313,0.29688 1.09375,0.875 0.40625,0.57813 0.40625,1.4375 0,0.82813 -0.48437,1.57813 -0.48438,0.73437 -1.40625,1.14062 -0.92188,0.39063 -2.07813,0.39063 -1.92187,0 -2.9375,-0.79688 -1,-0.79687 -1.28125,-2.35937 z m 16.75,-0.23438 1.71875,0.21875 q -0.40625,1.5 -1.51562,2.34375 -1.09375,0.82813 -2.8125,0.82813 -2.15625,0 -3.42188,-1.32813 -1.26562,-1.32812 -1.26562,-3.73437 0,-2.48438 1.26562,-3.85938 1.28125,-1.375 3.32813,-1.375 1.98437,0 3.23437,1.34375 1.25,1.34375 1.25,3.79688 0,0.14062 -0.0156,0.4375 l -7.34375,0 q 0.0937,1.625 0.92187,2.48437 0.82813,0.85938 2.0625,0.85938 0.90625,0 1.54688,-0.46875 0.65625,-0.48438 1.04687,-1.54688 z m -5.48437,-2.70312 5.5,0 q -0.10938,-1.23438 -0.625,-1.85938 -0.79688,-0.96875 -2.07813,-0.96875 -1.14062,0 -1.9375,0.78125 -0.78125,0.76563 -0.85937,2.04688 z m 8.81323,6.6875 1.60937,0.25 q 0.10938,0.75 0.57813,1.09375 0.60937,0.45312 1.6875,0.45312 1.17187,0 1.79687,-0.46875 0.625,-0.45312 0.85938,-1.28125 0.125,-0.51562 0.10937,-2.15625 -1.09375,1.29688 -2.71875,1.29688 -2.03125,0 -3.15625,-1.46875 -1.10937,-1.46875 -1.10937,-3.51563 0,-1.40625 0.51562,-2.59375 0.51563,-1.20312 1.48438,-1.84375 0.96875,-0.65625 2.26562,-0.65625 1.75,0 2.875,1.40625 l 0,-1.1875 1.54688,0 0,8.51563 q 0,2.3125 -0.46875,3.26562 -0.46875,0.96875 -1.48438,1.51563 -1.01562,0.5625 -2.5,0.5625 -1.76562,0 -2.85937,-0.79688 -1.07813,-0.79687 -1.03125,-2.39062 z m 1.375,-5.92188 q 0,1.95313 0.76562,2.84375 0.78125,0.89063 1.9375,0.89063 1.14063,0 1.92188,-0.89063 0.78125,-0.89062 0.78125,-2.78125 0,-1.8125 -0.8125,-2.71875 -0.79688,-0.92187 -1.92188,-0.92187 -1.10937,0 -1.89062,0.90625 -0.78125,0.89062 -0.78125,2.67187 z"
       id="path4034"
       inkscape:connector-curvature="0"
       style="fill:#000000;fill-rule:nonzero" />
    <path
       d="m 448.99576,288.0103 q -0.875,-1.10938 -1.48437,-2.57813 -0.59375,-1.48437 -0.59375,-3.0625 0,-1.39062 0.4375,-2.67187 0.53125,-1.48438 1.64062,-2.95313 l 0.75,0 q -0.70312,1.21875 -0.9375,1.73438 -0.35937,0.8125 -0.5625,1.6875 -0.25,1.09375 -0.25,2.20312 0,2.82813 1.75,5.64063 l -0.75,0 z m 2.09485,-2.53125 0,-8.59375 1.0625,0 0,8.59375 -1.0625,0 z m 3.06006,0 0,-1.20313 1.20312,0 0,1.20313 q 0,0.65625 -0.23437,1.0625 -0.23438,0.42187 -0.73438,0.64062 l -0.29687,-0.45312 q 0.32812,-0.14063 0.48437,-0.4375 0.15625,-0.28125 0.1875,-0.8125 l -0.60937,0 z m 6.64532,2.39062 0,-8.60937 0.95313,0 0,0.79687 q 0.34375,-0.46875 0.76562,-0.70312 0.4375,-0.23438 1.04688,-0.23438 0.79687,0 1.40625,0.40625 0.60937,0.40625 0.90625,1.15625 0.3125,0.75 0.3125,1.64063 0,0.95312 -0.34375,1.71875 -0.32813,0.76562 -0.98438,1.17187 -0.65625,0.40625 -1.375,0.40625 -0.53125,0 -0.95312,-0.21875 -0.42188,-0.23437 -0.6875,-0.5625 l 0,3.03125 -1.04688,0 z m 0.95313,-5.46875 q 0,1.20313 0.48437,1.78125 0.48438,0.5625 1.17188,0.5625 0.70312,0 1.20312,-0.59375 0.5,-0.59375 0.5,-1.84375 0,-1.1875 -0.48437,-1.76562 -0.48438,-0.59375 -1.17188,-0.59375 -0.67187,0 -1.1875,0.625 -0.51562,0.625 -0.51562,1.82812 z m 6.65142,5.60938 -0.75,0 q 1.75,-2.8125 1.75,-5.64063 0,-1.09375 -0.25,-2.1875 -0.20312,-0.875 -0.5625,-1.6875 -0.23437,-0.51562 -0.9375,-1.75 l 0.75,0 q 1.09375,1.46875 1.625,2.95313 0.45313,1.28125 0.45313,2.67187 0,1.57813 -0.60938,3.0625 -0.60937,1.46875 -1.46875,2.57813 z"
       id="path4036"
       inkscape:connector-curvature="0"
       style="fill:#000000;fill-rule:nonzero" />
    <path
       d="m 486.2724,270.47906 -8.96875,0 0,-1.5625 8.96875,0 0,1.5625 z m 0,4.125 -8.96875,0 0,-1.54688 8.96875,0 0,1.54688 z m 7.3439,7.65625 0,-17.375 3.67188,0 0,1.375 -2.01563,0 0,14.60937 2.01563,0 0,1.39063 -3.67188,0 z"
       id="path4038"
       inkscape:connector-curvature="0"
       style="fill:#000000;fill-rule:nonzero" />
    <path
       d="m 498.75275,278.47906 0,-9.85938 1.5,0 0,1.39063 q 0.45312,-0.71875 1.21875,-1.15625 0.78125,-0.45313 1.76562,-0.45313 1.09375,0 1.79688,0.45313 0.70312,0.45312 0.98437,1.28125 1.17188,-1.73438 3.04688,-1.73438 1.46875,0 2.25,0.8125 0.79687,0.8125 0.79687,2.5 l 0,6.76563 -1.67187,0 0,-6.20313 q 0,-1 -0.15625,-1.4375 -0.15625,-0.45312 -0.59375,-0.71875 -0.42188,-0.26562 -1,-0.26562 -1.03125,0 -1.71875,0.6875 -0.6875,0.6875 -0.6875,2.21875 l 0,5.71875 -1.67188,0 0,-6.40625 q 0,-1.10938 -0.40625,-1.65625 -0.40625,-0.5625 -1.34375,-0.5625 -0.70312,0 -1.3125,0.375 -0.59375,0.35937 -0.85937,1.07812 -0.26563,0.71875 -0.26563,2.0625 l 0,5.10938 -1.67187,0 z m 21.97827,-1.21875 q -0.9375,0.79687 -1.79687,1.125 -0.85938,0.3125 -1.84375,0.3125 -1.60938,0 -2.48438,-0.78125 -0.875,-0.79688 -0.875,-2.03125 0,-0.73438 0.32813,-1.32813 0.32812,-0.59375 0.85937,-0.95312 0.53125,-0.35938 1.20313,-0.54688 0.5,-0.14062 1.48437,-0.25 2.03125,-0.25 2.98438,-0.57812 0,-0.34375 0,-0.4375 0,-1.01563 -0.46875,-1.4375 -0.64063,-0.5625 -1.90625,-0.5625 -1.17188,0 -1.73438,0.40625 -0.5625,0.40625 -0.82812,1.46875 l -1.64063,-0.23438 q 0.23438,-1.04687 0.73438,-1.6875 0.51562,-0.64062 1.46875,-0.98437 0.96875,-0.35938 2.25,-0.35938 1.26562,0 2.04687,0.29688 0.78125,0.29687 1.15625,0.75 0.375,0.45312 0.51563,1.14062 0.0937,0.42188 0.0937,1.53125 l 0,2.23438 q 0,2.32812 0.0937,2.95312 0.10937,0.60938 0.4375,1.17188 l -1.75,0 q -0.26563,-0.51563 -0.32813,-1.21875 z m -0.14062,-3.71875 q -0.90625,0.35937 -2.73438,0.625 -1.03125,0.14062 -1.45312,0.32812 -0.42188,0.1875 -0.65625,0.54688 -0.23438,0.35937 -0.23438,0.79687 0,0.67188 0.5,1.125 0.51563,0.4375 1.48438,0.4375 0.96875,0 1.71875,-0.42187 0.75,-0.4375 1.10937,-1.15625 0.26563,-0.57813 0.26563,-1.67188 l 0,-0.60937 z m 2.96948,4.9375 3.59375,-5.125 -3.32813,-4.73438 2.09375,0 1.51563,2.3125 q 0.42187,0.65625 0.67187,1.10938 0.42188,-0.60938 0.76563,-1.09375 l 1.65625,-2.32813 1.98437,0 -3.39062,4.64063 3.65625,5.21875 -2.04688,0 -2.03125,-3.0625 -0.53125,-0.82813 -2.59375,3.89063 -2.01562,0 z"
       id="path4040"
       inkscape:connector-curvature="0"
       style="fill:#0000ff;fill-rule:nonzero" />
    <path
       d="m 534.4349,278.47906 0,-1.90625 1.90625,0 0,1.90625 q 0,1.04687 -0.375,1.6875 -0.375,0.65625 -1.17188,1 l -0.46875,-0.71875 q 0.53125,-0.21875 0.78125,-0.67188 0.25,-0.45312 0.28125,-1.29687 l -0.95312,0 z"
       id="path4042"
       inkscape:connector-curvature="0"
       style="fill:#000000;fill-rule:nonzero" />
    <path
       d="m 542.63617,278.47906 0,-9.85938 1.5,0 0,1.39063 q 0.45312,-0.71875 1.21875,-1.15625 0.78125,-0.45313 1.76562,-0.45313 1.09375,0 1.79688,0.45313 0.70312,0.45312 0.98437,1.28125 1.17188,-1.73438 3.04688,-1.73438 1.46875,0 2.25,0.8125 0.79687,0.8125 0.79687,2.5 l 0,6.76563 -1.67187,0 0,-6.20313 q 0,-1 -0.15625,-1.4375 -0.15625,-0.45312 -0.59375,-0.71875 -0.42188,-0.26562 -1,-0.26562 -1.03125,0 -1.71875,0.6875 -0.6875,0.6875 -0.6875,2.21875 l 0,5.71875 -1.67188,0 0,-6.40625 q 0,-1.10938 -0.40625,-1.65625 -0.40625,-0.5625 -1.34375,-0.5625 -0.70312,0 -1.3125,0.375 -0.59375,0.35937 -0.85937,1.07812 -0.26563,0.71875 -0.26563,2.0625 l 0,5.10938 -1.67187,0 z m 15.5564,-11.6875 0,-1.90625 1.67187,0 0,1.90625 -1.67187,0 z m 0,11.6875 0,-9.85938 1.67187,0 0,9.85938 -1.67187,0 z m 4.12921,0 0,-9.85938 1.5,0 0,1.40625 q 1.09375,-1.625 3.14062,-1.625 0.89063,0 1.64063,0.32813 0.75,0.3125 1.10937,0.84375 0.375,0.51562 0.53125,1.21875 0.0937,0.46875 0.0937,1.625 l 0,6.0625 -1.67187,0 0,-6 q 0,-1.01563 -0.20313,-1.51563 -0.1875,-0.51562 -0.6875,-0.8125 -0.5,-0.29687 -1.17187,-0.29687 -1.0625,0 -1.84375,0.67187 -0.76563,0.67188 -0.76563,2.57813 l 0,5.375 -1.67187,0 z"
       id="path4044"
       inkscape:connector-curvature="0"
       style="fill:#ff0000;fill-rule:nonzero" />
    <path
       d="m 573.135,278.47906 0,-1.90625 1.90625,0 0,1.90625 q 0,1.04687 -0.375,1.6875 -0.375,0.65625 -1.17188,1 l -0.46875,-0.71875 q 0.53125,-0.21875 0.78125,-0.67188 0.25,-0.45312 0.28125,-1.29687 l -0.95312,0 z m 9.89783,0 0,-13.59375 1.67187,0 0,13.59375 -1.67187,0 z m 10.92608,-3.17188 1.71875,0.21875 q -0.40625,1.5 -1.51562,2.34375 -1.09375,0.82813 -2.8125,0.82813 -2.15625,0 -3.42188,-1.32813 -1.26562,-1.32812 -1.26562,-3.73437 0,-2.48438 1.26562,-3.85938 1.28125,-1.375 3.32813,-1.375 1.98437,0 3.23437,1.34375 1.25,1.34375 1.25,3.79688 0,0.14062 -0.0156,0.4375 l -7.34375,0 q 0.0937,1.625 0.92187,2.48437 0.82813,0.85938 2.0625,0.85938 0.90625,0 1.54688,-0.46875 0.65625,-0.48438 1.04687,-1.54688 z m -5.48437,-2.70312 5.5,0 q -0.10938,-1.23438 -0.625,-1.85938 -0.79688,-0.96875 -2.07813,-0.96875 -1.14062,0 -1.9375,0.78125 -0.78125,0.76563 -0.85937,2.04688 z m 9.11011,5.875 0,-9.85938 1.5,0 0,1.40625 q 1.09375,-1.625 3.14062,-1.625 0.89063,0 1.64063,0.32813 0.75,0.3125 1.10937,0.84375 0.375,0.51562 0.53125,1.21875 0.0937,0.46875 0.0937,1.625 l 0,6.0625 -1.67187,0 0,-6 q 0,-1.01563 -0.20313,-1.51563 -0.1875,-0.51562 -0.6875,-0.8125 -0.5,-0.29687 -1.17187,-0.29687 -1.0625,0 -1.84375,0.67187 -0.76563,0.67188 -0.76563,2.57813 l 0,5.375 -1.67187,0 z m 13.1726,3.78125 -3.6875,0 0,-1.39063 2.01563,0 0,-14.60937 -2.01563,0 0,-1.375 3.6875,0 0,17.375 z"
       id="path4046"
       inkscape:connector-curvature="0"
       style="fill:#000000;fill-rule:nonzero" />
    <path
       d="m 878.80396,278.47906 0,-1.90625 1.90625,0 0,1.90625 -1.90625,0 z m 6.32812,0 0,-1.90625 1.90625,0 0,1.90625 -1.90625,0 z m 6.32813,0 0,-1.90625 1.92187,0 0,1.90625 -1.92187,0 z m 6,0 0,-1.90625 1.90625,0 0,1.90625 -1.90625,0 z m 6.32812,0 0,-1.90625 1.90625,0 0,1.90625 -1.90625,0 z m 6.32813,0 0,-1.90625 1.92187,0 0,1.90625 -1.92187,0 z"
       id="path4048"
       inkscape:connector-curvature="0"
       style="fill:#000000;fill-rule:nonzero" />
    <path
       d="m 37.09845,410.8465 0,-13.59375 1.796875,0 0,11.98437 6.703125,0 0,1.60938 -8.5,0 z m 16.985092,-3.17188 1.71875,0.21875 q -0.40625,1.5 -1.515625,2.34375 -1.09375,0.82813 -2.8125,0.82813 -2.15625,0 -3.421875,-1.32813 -1.265625,-1.32812 -1.265625,-3.73437 0,-2.48438 1.265625,-3.85938 1.28125,-1.375 3.328125,-1.375 1.984375,0 3.234375,1.34375 1.25,1.34375 1.25,3.79688 0,0.14062 -0.01563,0.4375 l -7.34375,0 q 0.09375,1.625 0.921875,2.48437 0.828125,0.85938 2.0625,0.85938 0.90625,0 1.546875,-0.46875 0.65625,-0.48438 1.046875,-1.54688 z m -5.484375,-2.70312 5.5,0 q -0.109375,-1.23438 -0.625,-1.85938 -0.796875,-0.96875 -2.078125,-0.96875 -1.140625,0 -1.9375,0.78125 -0.78125,0.76563 -0.859375,2.04688 z m 11.844467,5.875 -3.75,-9.85938 1.765625,0 2.125,5.90625 q 0.34375,0.95313 0.625,1.98438 0.21875,-0.78125 0.625,-1.875 l 2.1875,-6.01563 1.71875,0 -3.734375,9.85938 -1.5625,0 z m 13.34375,-3.17188 1.71875,0.21875 q -0.40625,1.5 -1.515625,2.34375 -1.09375,0.82813 -2.8125,0.82813 -2.15625,0 -3.421875,-1.32813 -1.265625,-1.32812 -1.265625,-3.73437 0,-2.48438 1.265625,-3.85938 1.28125,-1.375 3.328125,-1.375 1.984375,0 3.234375,1.34375 1.25,1.34375 1.25,3.79688 0,0.14062 -0.01563,0.4375 l -7.34375,0 q 0.09375,1.625 0.921875,2.48437 0.828125,0.85938 2.0625,0.85938 0.90625,0 1.546875,-0.46875 0.65625,-0.48438 1.046875,-1.54688 z m -5.484375,-2.70312 5.5,0 q -0.109375,-1.23438 -0.625,-1.85938 -0.796875,-0.96875 -2.078125,-0.96875 -1.140625,0 -1.9375,0.78125 -0.78125,0.76563 -0.859375,2.04688 z m 9.078842,5.875 0,-13.59375 1.671875,0 0,13.59375 -1.671875,0 z"
       id="path4050"
       inkscape:connector-curvature="0"
       style="fill:#000000;fill-rule:nonzero" />
    <path
       d="m 41.33557,432.8465 0,-13.59375 1.671875,0 0,13.59375 -1.671875,0 z m 12.875,-2.20313 0,-3.71875 -3.703125,0 0,-1.5625 3.703125,0 0,-3.70312 1.578125,0 0,3.70312 3.6875,0 0,1.5625 -3.6875,0 0,3.71875 -1.578125,0 z m 18.390762,2.20313 -1.671875,0 0,-10.64063 q -0.59375,0.57813 -1.578125,1.15625 -0.984375,0.5625 -1.765625,0.85938 l 0,-1.625 q 1.40625,-0.65625 2.453125,-1.59375 1.046875,-0.9375 1.484375,-1.8125 l 1.078125,0 0,13.65625 z"
       id="path4052"
       inkscape:connector-curvature="0"
       style="fill:#000000;fill-rule:nonzero" />
    <path
       d="m 117.63337,421.8465 0,-1.90625 1.90625,0 0,1.90625 -1.90625,0 z m 6.32813,0 0,-1.90625 1.90625,0 0,1.90625 -1.90625,0 z m 6.32811,0 0,-1.90625 1.92188,0 0,1.90625 -1.92188,0 z m 6,0 0,-1.90625 1.90625,0 0,1.90625 -1.90625,0 z m 6.32813,0 0,-1.90625 1.90625,0 0,1.90625 -1.90625,0 z m 6.32812,0 0,-1.90625 1.92188,0 0,1.90625 -1.92188,0 z"
       id="path4054"
       inkscape:connector-curvature="0"
       style="fill:#000000;fill-rule:nonzero" />
    <path
       d="m 194.27309,396.909 1.65625,-0.26563 q 0.14062,1 0.76562,1.53125 0.64063,0.51563 1.78125,0.51563 1.15625,0 1.70313,-0.46875 0.5625,-0.46875 0.5625,-1.09375 0,-0.5625 -0.48438,-0.89063 -0.34375,-0.21875 -1.70312,-0.5625 -1.84375,-0.46875 -2.5625,-0.79687 -0.70313,-0.34375 -1.07813,-0.9375 -0.35937,-0.60938 -0.35937,-1.32813 0,-0.65625 0.29687,-1.21875 0.3125,-0.5625 0.82813,-0.9375 0.39062,-0.28125 1.0625,-0.48437 0.67187,-0.20313 1.4375,-0.20313 1.17187,0 2.04687,0.34375 0.875,0.32813 1.28125,0.90625 0.42188,0.5625 0.57813,1.51563 l -1.625,0.21875 q -0.10938,-0.75 -0.65625,-1.17188 -0.53125,-0.4375 -1.5,-0.4375 -1.15625,0 -1.64063,0.39063 -0.48437,0.375 -0.48437,0.875 0,0.32812 0.20312,0.59375 0.20313,0.26562 0.64063,0.4375 0.25,0.0937 1.46875,0.4375 1.76562,0.46875 2.46875,0.76562 0.70312,0.29688 1.09375,0.875 0.40625,0.57813 0.40625,1.4375 0,0.82813 -0.48438,1.57813 -0.48437,0.73437 -1.40625,1.14062 -0.92187,0.39063 -2.07812,0.39063 -1.92188,0 -2.9375,-0.79688 -1,-0.79687 -1.28125,-2.35937 z m 16.75,-0.23438 1.71875,0.21875 q -0.40625,1.5 -1.51563,2.34375 -1.09375,0.82813 -2.8125,0.82813 -2.15625,0 -3.42187,-1.32813 -1.26563,-1.32812 -1.26563,-3.73437 0,-2.48438 1.26563,-3.85938 1.28125,-1.375 3.32812,-1.375 1.98438,0 3.23438,1.34375 1.25,1.34375 1.25,3.79688 0,0.14062 -0.0156,0.4375 l -7.34375,0 q 0.0937,1.625 0.92188,2.48437 0.82812,0.85938 2.0625,0.85938 0.90625,0 1.54687,-0.46875 0.65625,-0.48438 1.04688,-1.54688 z m -5.48438,-2.70312 5.5,0 q -0.10937,-1.23438 -0.625,-1.85938 -0.79687,-0.96875 -2.07812,-0.96875 -1.14063,0 -1.9375,0.78125 -0.78125,0.76563 -0.85938,2.04688 z m 8.81322,6.6875 1.60938,0.25 q 0.10937,0.75 0.57812,1.09375 0.60938,0.45312 1.6875,0.45312 1.17188,0 1.79688,-0.46875 0.625,-0.45312 0.85937,-1.28125 0.125,-0.51562 0.10938,-2.15625 -1.09375,1.29688 -2.71875,1.29688 -2.03125,0 -3.15625,-1.46875 -1.10938,-1.46875 -1.10938,-3.51563 0,-1.40625 0.51563,-2.59375 0.51562,-1.20312 1.48437,-1.84375 0.96875,-0.65625 2.26563,-0.65625 1.75,0 2.875,1.40625 l 0,-1.1875 1.54687,0 0,8.51563 q 0,2.3125 -0.46875,3.26562 -0.46875,0.96875 -1.48437,1.51563 -1.01563,0.5625 -2.5,0.5625 -1.76563,0 -2.85938,-0.79688 -1.07812,-0.79687 -1.03125,-2.39062 z m 1.375,-5.92188 q 0,1.95313 0.76563,2.84375 0.78125,0.89063 1.9375,0.89063 1.14062,0 1.92187,-0.89063 0.78125,-0.89062 0.78125,-2.78125 0,-1.8125 -0.8125,-2.71875 -0.79687,-0.92187 -1.92187,-0.92187 -1.10938,0 -1.89063,0.90625 -0.78125,0.89062 -0.78125,2.67187 z"
       id="path4056"
       inkscape:connector-curvature="0"
       style="fill:#000000;fill-rule:nonzero" />
    <path
       d="m 226.58702,409.37775 q -0.875,-1.10938 -1.48438,-2.57813 -0.59375,-1.48437 -0.59375,-3.0625 0,-1.39062 0.4375,-2.67187 0.53125,-1.48438 1.64063,-2.95313 l 0.75,0 q -0.70313,1.21875 -0.9375,1.73438 -0.35938,0.8125 -0.5625,1.6875 -0.25,1.09375 -0.25,2.20312 0,2.82813 1.75,5.64063 l -0.75,0 z m 2.09485,-2.53125 0,-8.59375 1.0625,0 0,8.59375 -1.0625,0 z m 8.45303,-1.39063 0,-2.35937 -2.32812,0 0,-0.98438 2.32812,0 0,-2.32812 1,0 0,2.32812 2.34375,0 0,0.98438 -2.34375,0 0,2.35937 -1,0 z m 12.18743,1.39063 -1.04688,0 0,-6.71875 q -0.39062,0.35937 -1.01562,0.73437 -0.60938,0.35938 -1.09375,0.53125 l 0,-1.01562 q 0.875,-0.42188 1.53125,-1 0.67187,-0.59375 0.95312,-1.15625 l 0.67188,0 0,8.625 z m 3.51078,0 0,-1.20313 1.20313,0 0,1.20313 q 0,0.65625 -0.23438,1.0625 -0.23437,0.42187 -0.73437,0.64062 l -0.29688,-0.45312 q 0.32813,-0.14063 0.48438,-0.4375 0.15625,-0.28125 0.1875,-0.8125 l -0.60938,0 z m 8.94222,-0.9375 0.15625,0.92187 q -0.45313,0.0937 -0.79688,0.0937 -0.57812,0 -0.89062,-0.17187 -0.3125,-0.1875 -0.45313,-0.48438 -0.125,-0.29687 -0.125,-1.25 l 0,-3.57812 -0.76562,0 0,-0.8125 0.76562,0 0,-1.54688 1.04688,-0.625 0,2.17188 1.0625,0 0,0.8125 -1.0625,0 0,3.64062 q 0,0.45313 0.0469,0.57813 0.0625,0.125 0.1875,0.20312 0.125,0.0781 0.35938,0.0781 0.1875,0 0.46875,-0.0312 z m 1.8461,3.46875 -0.75,0 q 1.75,-2.8125 1.75,-5.64063 0,-1.09375 -0.25,-2.1875 -0.20313,-0.875 -0.5625,-1.6875 -0.23438,-0.51562 -0.9375,-1.75 l 0.75,0 q 1.09375,1.46875 1.625,2.95313 0.45312,1.28125 0.45312,2.67187 0,1.57813 -0.60937,3.0625 -0.60938,1.46875 -1.46875,2.57813 z"
       id="path4058"
       inkscape:connector-curvature="0"
       style="fill:#000000;fill-rule:nonzero" />
    <path
       d="m 208.13945,413.8465 -8.96875,0 0,-1.5625 8.96875,0 0,1.5625 z m 0,4.125 -8.96875,0 0,-1.54688 8.96875,0 0,1.54688 z m 7.34389,7.65625 0,-17.375 3.67187,0 0,1.375 -2.01562,0 0,14.60937 2.01562,0 0,1.39063 -3.67187,0 z m 5.35518,-3.78125 0,-13.59375 4.6875,0 q 1.57812,0 2.42187,0.1875 1.15625,0.26562 1.98438,0.96875 1.07812,0.92187 1.60937,2.34375 0.53125,1.40625 0.53125,3.21875 0,1.54687 -0.35937,2.75 -0.35938,1.1875 -0.92188,1.98437 -0.5625,0.78125 -1.23437,1.23438 -0.67188,0.4375 -1.625,0.67187 -0.95313,0.23438 -2.1875,0.23438 l -4.90625,0 z m 1.79687,-1.60938 2.90625,0 q 1.34375,0 2.10938,-0.25 0.76562,-0.25 1.21875,-0.70312 0.64062,-0.64063 1,-1.71875 0.35937,-1.07813 0.35937,-2.625 0,-2.125 -0.70312,-3.26563 -0.70313,-1.15625 -1.70313,-1.54687 -0.71875,-0.28125 -2.32812,-0.28125 l -2.85938,0 0,10.39062 z m 11.89482,1.60938 0,-1.90625 1.90625,0 0,1.90625 q 0,1.04687 -0.375,1.6875 -0.375,0.65625 -1.17187,1 l -0.46875,-0.71875 q 0.53125,-0.21875 0.78125,-0.67188 0.25,-0.45312 0.28125,-1.29687 l -0.95313,0 z m 10.14784,0 0,-13.59375 4.6875,0 q 1.57813,0 2.42188,0.1875 1.15625,0.26562 1.98437,0.96875 1.07813,0.92187 1.60938,2.34375 0.53125,1.40625 0.53125,3.21875 0,1.54687 -0.35938,2.75 -0.35937,1.1875 -0.92187,1.98437 -0.5625,0.78125 -1.23438,1.23438 -0.67187,0.4375 -1.625,0.67187 -0.95312,0.23438 -2.1875,0.23438 l -4.90625,0 z m 1.79688,-1.60938 2.90625,0 q 1.34375,0 2.10937,-0.25 0.76563,-0.25 1.21875,-0.70312 0.64063,-0.64063 1,-1.71875 0.35938,-1.07813 0.35938,-2.625 0,-2.125 -0.70313,-3.26563 -0.70312,-1.15625 -1.70312,-1.54687 -0.71875,-0.28125 -2.32813,-0.28125 l -2.85937,0 0,10.39062 z m 11.89482,1.60938 0,-1.90625 1.90625,0 0,1.90625 q 0,1.04687 -0.375,1.6875 -0.375,0.65625 -1.17187,1 l -0.46875,-0.71875 q 0.53125,-0.21875 0.78125,-0.67188 0.25,-0.45312 0.28125,-1.29687 l -0.95313,0 z"
       id="path4060"
       inkscape:connector-curvature="0"
       style="fill:#000000;fill-rule:nonzero" />
    <path
       d="m 193.75024,443.8465 0,-13.84375 1.32812,0 0,12.51562 4.07813,0 0,1.32813 -5.40625,0 z"
       id="path4062"
       inkscape:connector-curvature="0"
       style="fill:#000000;fill-rule:nonzero" />
    <path
       d="m 201.6451,443.8465 0,-13.59375 1.67188,0 0,13.59375 -1.67188,0 z m 10.92607,-3.17188 1.71875,0.21875 q -0.40625,1.5 -1.51562,2.34375 -1.09375,0.82813 -2.8125,0.82813 -2.15625,0 -3.42188,-1.32813 -1.26562,-1.32812 -1.26562,-3.73437 0,-2.48438 1.26562,-3.85938 1.28125,-1.375 3.32813,-1.375 1.98437,0 3.23437,1.34375 1.25,1.34375 1.25,3.79688 0,0.14062 -0.0156,0.4375 l -7.34375,0 q 0.0937,1.625 0.92187,2.48437 0.82813,0.85938 2.0625,0.85938 0.90625,0 1.54688,-0.46875 0.65625,-0.48438 1.04687,-1.54688 z m -5.48437,-2.70312 5.5,0 q -0.10938,-1.23438 -0.625,-1.85938 -0.79688,-0.96875 -2.07813,-0.96875 -1.14062,0 -1.9375,0.78125 -0.78125,0.76563 -0.85937,2.04688 z m 9.11009,5.875 0,-9.85938 1.5,0 0,1.40625 q 1.09375,-1.625 3.14062,-1.625 0.89063,0 1.64063,0.32813 0.75,0.3125 1.10937,0.84375 0.375,0.51562 0.53125,1.21875 0.0937,0.46875 0.0937,1.625 l 0,6.0625 -1.67187,0 0,-6 q 0,-1.01563 -0.20313,-1.51563 -0.1875,-0.51562 -0.6875,-0.8125 -0.5,-0.29687 -1.17187,-0.29687 -1.0625,0 -1.84375,0.67187 -0.76563,0.67188 -0.76563,2.57813 l 0,5.375 -1.67187,0 z m 14.30902,0.23437 3.9375,-14.0625 1.34375,0 -3.9375,14.0625 -1.34375,0 z m 11.86661,-0.23437 0,-13.59375 6.03125,0 q 1.8125,0 2.75,0.35937 0.95312,0.35938 1.51562,1.29688 0.5625,0.92187 0.5625,2.04687 0,1.45313 -0.9375,2.45313 -0.92187,0.98437 -2.89062,1.25 0.71875,0.34375 1.09375,0.67187 0.78125,0.73438 1.48437,1.8125 l 2.375,3.70313 -2.26562,0 -1.79688,-2.82813 q -0.79687,-1.21875 -1.3125,-1.875 -0.5,-0.65625 -0.90625,-0.90625 -0.40625,-0.26562 -0.8125,-0.35937 -0.3125,-0.0781 -1.01562,-0.0781 l -2.07813,0 0,6.04688 -1.79687,0 z m 1.79687,-7.59375 3.85938,0 q 1.23437,0 1.92187,-0.25 0.70313,-0.26563 1.0625,-0.82813 0.375,-0.5625 0.375,-1.21875 0,-0.96875 -0.70312,-1.57812 -0.70313,-0.625 -2.21875,-0.625 l -4.29688,0 0,4.5 z"
       id="path4064"
       inkscape:connector-curvature="0"
       style="fill:#000000;fill-rule:nonzero" />
    <path
       d="m 261.14233,443.8465 -5.40625,0 0,-1.32813 4.07813,0 0,-12.51562 1.32812,0 0,13.84375 z"
       id="path4066"
       inkscape:connector-curvature="0"
       style="fill:#000000;fill-rule:nonzero" />
    <path
       d="m 266.8996,447.62775 -3.6875,0 0,-1.39063 2.01563,0 0,-14.60937 -2.01563,0 0,-1.375 3.6875,0 0,17.375 z"
       id="path4068"
       inkscape:connector-curvature="0"
       style="fill:#000000;fill-rule:nonzero" />
    <path
       d="m 298.14258,421.8465 0,-1.90625 1.90625,0 0,1.90625 -1.90625,0 z m 6.32812,0 0,-1.90625 1.90625,0 0,1.90625 -1.90625,0 z m 6.32813,0 0,-1.90625 1.92187,0 0,1.90625 -1.92187,0 z"
       id="path4070"
       inkscape:connector-curvature="0"
       style="fill:#000000;fill-rule:nonzero" />
    <path
       d="m 337.82986,396.909 1.65625,-0.26563 q 0.14062,1 0.76562,1.53125 0.64063,0.51563 1.78125,0.51563 1.15625,0 1.70313,-0.46875 0.5625,-0.46875 0.5625,-1.09375 0,-0.5625 -0.48438,-0.89063 -0.34375,-0.21875 -1.70312,-0.5625 -1.84375,-0.46875 -2.5625,-0.79687 -0.70313,-0.34375 -1.07813,-0.9375 -0.35937,-0.60938 -0.35937,-1.32813 0,-0.65625 0.29687,-1.21875 0.3125,-0.5625 0.82813,-0.9375 0.39062,-0.28125 1.0625,-0.48437 0.67187,-0.20313 1.4375,-0.20313 1.17187,0 2.04687,0.34375 0.875,0.32813 1.28125,0.90625 0.42188,0.5625 0.57813,1.51563 l -1.625,0.21875 q -0.10938,-0.75 -0.65625,-1.17188 -0.53125,-0.4375 -1.5,-0.4375 -1.15625,0 -1.64063,0.39063 -0.48437,0.375 -0.48437,0.875 0,0.32812 0.20312,0.59375 0.20313,0.26562 0.64063,0.4375 0.25,0.0937 1.46875,0.4375 1.76562,0.46875 2.46875,0.76562 0.70312,0.29688 1.09375,0.875 0.40625,0.57813 0.40625,1.4375 0,0.82813 -0.48438,1.57813 -0.48437,0.73437 -1.40625,1.14062 -0.92187,0.39063 -2.07812,0.39063 -1.92188,0 -2.9375,-0.79688 -1,-0.79687 -1.28125,-2.35937 z m 16.75,-0.23438 1.71875,0.21875 q -0.40625,1.5 -1.51563,2.34375 -1.09375,0.82813 -2.8125,0.82813 -2.15625,0 -3.42187,-1.32813 -1.26563,-1.32812 -1.26563,-3.73437 0,-2.48438 1.26563,-3.85938 1.28125,-1.375 3.32812,-1.375 1.98438,0 3.23438,1.34375 1.25,1.34375 1.25,3.79688 0,0.14062 -0.0156,0.4375 l -7.34375,0 q 0.0937,1.625 0.92188,2.48437 0.82812,0.85938 2.0625,0.85938 0.90625,0 1.54687,-0.46875 0.65625,-0.48438 1.04688,-1.54688 z m -5.48438,-2.70312 5.5,0 q -0.10937,-1.23438 -0.625,-1.85938 -0.79687,-0.96875 -2.07812,-0.96875 -1.14063,0 -1.9375,0.78125 -0.78125,0.76563 -0.85938,2.04688 z m 8.81321,6.6875 1.60937,0.25 q 0.10938,0.75 0.57813,1.09375 0.60937,0.45312 1.6875,0.45312 1.17187,0 1.79687,-0.46875 0.625,-0.45312 0.85938,-1.28125 0.125,-0.51562 0.10937,-2.15625 -1.09375,1.29688 -2.71875,1.29688 -2.03125,0 -3.15625,-1.46875 -1.10937,-1.46875 -1.10937,-3.51563 0,-1.40625 0.51562,-2.59375 0.51563,-1.20312 1.48438,-1.84375 0.96875,-0.65625 2.26562,-0.65625 1.75,0 2.875,1.40625 l 0,-1.1875 1.54688,0 0,8.51563 q 0,2.3125 -0.46875,3.26562 -0.46875,0.96875 -1.48438,1.51563 -1.01562,0.5625 -2.5,0.5625 -1.76562,0 -2.85937,-0.79688 -1.07813,-0.79687 -1.03125,-2.39062 z m 1.375,-5.92188 q 0,1.95313 0.76562,2.84375 0.78125,0.89063 1.9375,0.89063 1.14063,0 1.92188,-0.89063 0.78125,-0.89062 0.78125,-2.78125 0,-1.8125 -0.8125,-2.71875 -0.79688,-0.92187 -1.92188,-0.92187 -1.10937,0 -1.89062,0.90625 -0.78125,0.89062 -0.78125,2.67187 z"
       id="path4072"
       inkscape:connector-curvature="0"
       style="fill:#000000;fill-rule:nonzero" />
    <path
       d="m 370.1438,409.37775 q -0.875,-1.10938 -1.48438,-2.57813 -0.59375,-1.48437 -0.59375,-3.0625 0,-1.39062 0.4375,-2.67187 0.53125,-1.48438 1.64063,-2.95313 l 0.75,0 q -0.70313,1.21875 -0.9375,1.73438 -0.35938,0.8125 -0.5625,1.6875 -0.25,1.09375 -0.25,2.20312 0,2.82813 1.75,5.64063 l -0.75,0 z m 2.09485,-2.53125 0,-8.59375 1.0625,0 0,8.59375 -1.0625,0 z m 8.453,-1.39063 0,-2.35937 -2.32812,0 0,-0.98438 2.32812,0 0,-2.32812 1,0 0,2.32812 2.34375,0 0,0.98438 -2.34375,0 0,2.35937 -1,0 z m 12.18744,1.39063 -1.04687,0 0,-6.71875 q -0.39063,0.35937 -1.01563,0.73437 -0.60937,0.35938 -1.09375,0.53125 l 0,-1.01562 q 0.875,-0.42188 1.53125,-1 0.67188,-0.59375 0.95313,-1.15625 l 0.67187,0 0,8.625 z m 3.5108,0 0,-1.20313 1.20313,0 0,1.20313 q 0,0.65625 -0.23438,1.0625 -0.23437,0.42187 -0.73437,0.64062 l -0.29688,-0.45312 q 0.32813,-0.14063 0.48438,-0.4375 0.15625,-0.28125 0.1875,-0.8125 l -0.60938,0 z m 8.9422,-0.9375 0.15625,0.92187 q -0.45312,0.0937 -0.79687,0.0937 -0.57813,0 -0.89063,-0.17187 -0.3125,-0.1875 -0.45312,-0.48438 -0.125,-0.29687 -0.125,-1.25 l 0,-3.57812 -0.76563,0 0,-0.8125 0.76563,0 0,-1.54688 1.04687,-0.625 0,2.17188 1.0625,0 0,0.8125 -1.0625,0 0,3.64062 q 0,0.45313 0.0469,0.57813 0.0625,0.125 0.1875,0.20312 0.125,0.0781 0.35937,0.0781 0.1875,0 0.46875,-0.0312 z m 6.81723,-0.45313 0,-2.35937 -2.32812,0 0,-0.98438 2.32812,0 0,-2.32812 1,0 0,2.32812 2.34375,0 0,0.98438 -2.34375,0 0,2.35937 -1,0 z m 9.48429,1.39063 -0.98438,0 0,-8.59375 1.0625,0 0,3.0625 q 0.67188,-0.82813 1.70313,-0.82813 0.57812,0 1.07812,0.23438 0.51563,0.21875 0.84375,0.64062 0.34375,0.42188 0.53125,1.01563 0.1875,0.59375 0.1875,1.26562 0,1.59375 -0.79687,2.46875 -0.79688,0.875 -1.89063,0.875 -1.10937,0 -1.73437,-0.92187 l 0,0.78125 z m -0.0156,-3.15625 q 0,1.10937 0.3125,1.60937 0.5,0.8125 1.34375,0.8125 0.6875,0 1.1875,-0.59375 0.51563,-0.59375 0.51563,-1.79687 0,-1.21875 -0.48438,-1.79688 -0.48437,-0.57812 -1.17187,-0.57812 -0.6875,0 -1.20313,0.60937 -0.5,0.59375 -0.5,1.73438 z m 6.65143,5.6875 -0.75,0 q 1.75,-2.8125 1.75,-5.64063 0,-1.09375 -0.25,-2.1875 -0.20313,-0.875 -0.5625,-1.6875 -0.23438,-0.51562 -0.9375,-1.75 l 0.75,0 q 1.09375,1.46875 1.625,2.95313 0.45312,1.28125 0.45312,2.67187 0,1.57813 -0.60937,3.0625 -0.60938,1.46875 -1.46875,2.57813 z"
       id="path4074"
       inkscape:connector-curvature="0"
       style="fill:#000000;fill-rule:nonzero" />
    <path
       d="m 352.21988,413.8465 -8.96875,0 0,-1.5625 8.96875,0 0,1.5625 z m 0,4.125 -8.96875,0 0,-1.54688 8.96875,0 0,1.54688 z m 7.34387,7.65625 0,-17.375 3.67188,0 0,1.375 -2.01563,0 0,14.60937 2.01563,0 0,1.39063 -3.67188,0 z"
       id="path4076"
       inkscape:connector-curvature="0"
       style="fill:#000000;fill-rule:nonzero" />
    <path
       d="m 364.7002,421.8465 0,-9.85938 1.5,0 0,1.39063 q 0.45312,-0.71875 1.21875,-1.15625 0.78125,-0.45313 1.76562,-0.45313 1.09375,0 1.79688,0.45313 0.70312,0.45312 0.98437,1.28125 1.17188,-1.73438 3.04688,-1.73438 1.46875,0 2.25,0.8125 0.79687,0.8125 0.79687,2.5 l 0,6.76563 -1.67187,0 0,-6.20313 q 0,-1 -0.15625,-1.4375 -0.15625,-0.45312 -0.59375,-0.71875 -0.42188,-0.26562 -1,-0.26562 -1.03125,0 -1.71875,0.6875 -0.6875,0.6875 -0.6875,2.21875 l 0,5.71875 -1.67188,0 0,-6.40625 q 0,-1.10938 -0.40625,-1.65625 -0.40625,-0.5625 -1.34375,-0.5625 -0.70312,0 -1.3125,0.375 -0.59375,0.35937 -0.85937,1.07812 -0.26563,0.71875 -0.26563,2.0625 l 0,5.10938 -1.67187,0 z m 21.9783,-1.21875 q -0.9375,0.79687 -1.79687,1.125 -0.85938,0.3125 -1.84375,0.3125 -1.60938,0 -2.48438,-0.78125 -0.875,-0.79688 -0.875,-2.03125 0,-0.73438 0.32813,-1.32813 0.32812,-0.59375 0.85937,-0.95312 0.53125,-0.35938 1.20313,-0.54688 0.5,-0.14062 1.48437,-0.25 2.03125,-0.25 2.98438,-0.57812 0,-0.34375 0,-0.4375 0,-1.01563 -0.46875,-1.4375 -0.64063,-0.5625 -1.90625,-0.5625 -1.17188,0 -1.73438,0.40625 -0.5625,0.40625 -0.82812,1.46875 l -1.64063,-0.23438 q 0.23438,-1.04687 0.73438,-1.6875 0.51562,-0.64062 1.46875,-0.98437 0.96875,-0.35938 2.25,-0.35938 1.26562,0 2.04687,0.29688 0.78125,0.29687 1.15625,0.75 0.375,0.45312 0.51563,1.14062 0.0937,0.42188 0.0937,1.53125 l 0,2.23438 q 0,2.32812 0.0937,2.95312 0.10937,0.60938 0.4375,1.17188 l -1.75,0 q -0.26563,-0.51563 -0.32813,-1.21875 z m -0.14062,-3.71875 q -0.90625,0.35937 -2.73438,0.625 -1.03125,0.14062 -1.45312,0.32812 -0.42188,0.1875 -0.65625,0.54688 -0.23438,0.35937 -0.23438,0.79687 0,0.67188 0.5,1.125 0.51563,0.4375 1.48438,0.4375 0.96875,0 1.71875,-0.42187 0.75,-0.4375 1.10937,-1.15625 0.26563,-0.57813 0.26563,-1.67188 l 0,-0.60937 z m 2.96945,4.9375 3.59375,-5.125 -3.32813,-4.73438 2.09375,0 1.51563,2.3125 q 0.42187,0.65625 0.67187,1.10938 0.42188,-0.60938 0.76563,-1.09375 l 1.65625,-2.32813 1.98437,0 -3.39062,4.64063 3.65625,5.21875 -2.04688,0 -2.03125,-3.0625 -0.53125,-0.82813 -2.59375,3.89063 -2.01562,0 z"
       id="path4078"
       inkscape:connector-curvature="0"
       style="fill:#0000ff;fill-rule:nonzero" />
    <path
       d="m 400.38232,421.8465 0,-1.90625 1.90625,0 0,1.90625 q 0,1.04687 -0.375,1.6875 -0.375,0.65625 -1.17188,1 l -0.46875,-0.71875 q 0.53125,-0.21875 0.78125,-0.67188 0.25,-0.45312 0.28125,-1.29687 l -0.95312,0 z"
       id="path4080"
       inkscape:connector-curvature="0"
       style="fill:#000000;fill-rule:nonzero" />
    <path
       d="m 408.80237,421.8465 0,-13.59375 4.6875,0 q 1.57812,0 2.42187,0.1875 1.15625,0.26562 1.98438,0.96875 1.07812,0.92187 1.60937,2.34375 0.53125,1.40625 0.53125,3.21875 0,1.54687 -0.35937,2.75 -0.35938,1.1875 -0.92188,1.98437 -0.5625,0.78125 -1.23437,1.23438 -0.67188,0.4375 -1.625,0.67187 -0.95313,0.23438 -2.1875,0.23438 l -4.90625,0 z m 1.79687,-1.60938 2.90625,0 q 1.34375,0 2.10938,-0.25 0.76562,-0.25 1.21875,-0.70312 0.64062,-0.64063 1,-1.71875 0.35937,-1.07813 0.35937,-2.625 0,-2.125 -0.70312,-3.26563 -0.70313,-1.15625 -1.70313,-1.54687 -0.71875,-0.28125 -2.32812,-0.28125 l -2.85938,0 0,10.39062 z m 11.89481,1.60938 0,-1.90625 1.90625,0 0,1.90625 q 0,1.04687 -0.375,1.6875 -0.375,0.65625 -1.17187,1 l -0.46875,-0.71875 q 0.53125,-0.21875 0.78125,-0.67188 0.25,-0.45312 0.28125,-1.29687 l -0.95313,0 z"
       id="path4082"
       inkscape:connector-curvature="0"
       style="fill:#000000;fill-rule:nonzero" />
    <path
       d="m 347.8526,443.8465 0,-13.84375 1.32812,0 0,12.51562 4.07813,0 0,1.32813 -5.40625,0 z"
       id="path4084"
       inkscape:connector-curvature="0"
       style="fill:#000000;fill-rule:nonzero" />
    <path
       d="m 355.74747,443.8465 0,-13.59375 1.67188,0 0,13.59375 -1.67188,0 z m 10.92606,-3.17188 1.71875,0.21875 q -0.40625,1.5 -1.51563,2.34375 -1.09375,0.82813 -2.8125,0.82813 -2.15625,0 -3.42187,-1.32813 -1.26563,-1.32812 -1.26563,-3.73437 0,-2.48438 1.26563,-3.85938 1.28125,-1.375 3.32812,-1.375 1.98438,0 3.23438,1.34375 1.25,1.34375 1.25,3.79688 0,0.14062 -0.0156,0.4375 l -7.34375,0 q 0.0937,1.625 0.92188,2.48437 0.82812,0.85938 2.0625,0.85938 0.90625,0 1.54687,-0.46875 0.65625,-0.48438 1.04688,-1.54688 z m -5.48438,-2.70312 5.5,0 q -0.10937,-1.23438 -0.625,-1.85938 -0.79687,-0.96875 -2.07812,-0.96875 -1.14063,0 -1.9375,0.78125 -0.78125,0.76563 -0.85938,2.04688 z m 9.11011,5.875 0,-9.85938 1.5,0 0,1.40625 q 1.09375,-1.625 3.14062,-1.625 0.89063,0 1.64063,0.32813 0.75,0.3125 1.10937,0.84375 0.375,0.51562 0.53125,1.21875 0.0937,0.46875 0.0937,1.625 l 0,6.0625 -1.67187,0 0,-6 q 0,-1.01563 -0.20313,-1.51563 -0.1875,-0.51562 -0.6875,-0.8125 -0.5,-0.29687 -1.17187,-0.29687 -1.0625,0 -1.84375,0.67187 -0.76563,0.67188 -0.76563,2.57813 l 0,5.375 -1.67187,0 z m 14.30902,0.23437 3.9375,-14.0625 1.34375,0 -3.9375,14.0625 -1.34375,0 z m 11.86661,-0.23437 0,-13.59375 6.03125,0 q 1.8125,0 2.75,0.35937 0.95312,0.35938 1.51562,1.29688 0.5625,0.92187 0.5625,2.04687 0,1.45313 -0.9375,2.45313 -0.92187,0.98437 -2.89062,1.25 0.71875,0.34375 1.09375,0.67187 0.78125,0.73438 1.48437,1.8125 l 2.375,3.70313 -2.26562,0 -1.79688,-2.82813 q -0.79687,-1.21875 -1.3125,-1.875 -0.5,-0.65625 -0.90625,-0.90625 -0.40625,-0.26562 -0.8125,-0.35937 -0.3125,-0.0781 -1.01562,-0.0781 l -2.07813,0 0,6.04688 -1.79687,0 z m 1.79687,-7.59375 3.85938,0 q 1.23437,0 1.92187,-0.25 0.70313,-0.26563 1.0625,-0.82813 0.375,-0.5625 0.375,-1.21875 0,-0.96875 -0.70312,-1.57812 -0.70313,-0.625 -2.21875,-0.625 l -4.29688,0 0,4.5 z"
       id="path4086"
       inkscape:connector-curvature="0"
       style="fill:#000000;fill-rule:nonzero" />
    <path
       d="m 415.2447,443.8465 -5.40625,0 0,-1.32813 4.07813,0 0,-12.51562 1.32812,0 0,13.84375 z"
       id="path4088"
       inkscape:connector-curvature="0"
       style="fill:#000000;fill-rule:nonzero" />
    <path
       d="m 421.00195,447.62775 -3.6875,0 0,-1.39063 2.01563,0 0,-14.60937 -2.01563,0 0,-1.375 3.6875,0 0,17.375 z"
       id="path4090"
       inkscape:connector-curvature="0"
       style="fill:#000000;fill-rule:nonzero" />
    <path
       d="m 456.85388,421.8465 0,-1.90625 1.90625,0 0,1.90625 -1.90625,0 z m 6.32812,0 0,-1.90625 1.90625,0 0,1.90625 -1.90625,0 z m 6.32813,0 0,-1.90625 1.92187,0 0,1.90625 -1.92187,0 z"
       id="path4092"
       inkscape:connector-curvature="0"
       style="fill:#000000;fill-rule:nonzero" />
    <path
       d="m 497.9296,396.909 1.65625,-0.26563 q 0.14062,1 0.76562,1.53125 0.64063,0.51563 1.78125,0.51563 1.15625,0 1.70313,-0.46875 0.5625,-0.46875 0.5625,-1.09375 0,-0.5625 -0.48438,-0.89063 -0.34375,-0.21875 -1.70312,-0.5625 -1.84375,-0.46875 -2.5625,-0.79687 -0.70313,-0.34375 -1.07813,-0.9375 -0.35937,-0.60938 -0.35937,-1.32813 0,-0.65625 0.29687,-1.21875 0.3125,-0.5625 0.82813,-0.9375 0.39062,-0.28125 1.0625,-0.48437 0.67187,-0.20313 1.4375,-0.20313 1.17187,0 2.04687,0.34375 0.875,0.32813 1.28125,0.90625 0.42188,0.5625 0.57813,1.51563 l -1.625,0.21875 q -0.10938,-0.75 -0.65625,-1.17188 -0.53125,-0.4375 -1.5,-0.4375 -1.15625,0 -1.64063,0.39063 -0.48437,0.375 -0.48437,0.875 0,0.32812 0.20312,0.59375 0.20313,0.26562 0.64063,0.4375 0.25,0.0937 1.46875,0.4375 1.76562,0.46875 2.46875,0.76562 0.70312,0.29688 1.09375,0.875 0.40625,0.57813 0.40625,1.4375 0,0.82813 -0.48438,1.57813 -0.48437,0.73437 -1.40625,1.14062 -0.92187,0.39063 -2.07812,0.39063 -1.92188,0 -2.9375,-0.79688 -1,-0.79687 -1.28125,-2.35937 z m 16.74997,-0.23438 1.71875,0.21875 q -0.40625,1.5 -1.51563,2.34375 -1.09375,0.82813 -2.8125,0.82813 -2.15621,0 -3.42184,-1.32813 -1.26562,-1.32812 -1.26562,-3.73437 0,-2.48438 1.26562,-3.85938 1.28125,-1.375 3.32813,-1.375 1.98434,0 3.23434,1.34375 1.25,1.34375 1.25,3.79688 0,0.14062 -0.0156,0.4375 l -7.34371,0 q 0.0937,1.625 0.92187,2.48437 0.82813,0.85938 2.06247,0.85938 0.90625,0 1.54687,-0.46875 0.65625,-0.48438 1.04688,-1.54688 z m -5.48434,-2.70312 5.49996,0 q -0.10937,-1.23438 -0.625,-1.85938 -0.79687,-0.96875 -2.07809,-0.96875 -1.14062,0 -1.9375,0.78125 -0.78125,0.76563 -0.85937,2.04688 z m 8.8132,6.6875 1.60937,0.25 q 0.10938,0.75 0.57813,1.09375 0.60937,0.45312 1.6875,0.45312 1.17187,0 1.79687,-0.46875 0.625,-0.45312 0.85938,-1.28125 0.125,-0.51562 0.10937,-2.15625 -1.09375,1.29688 -2.71875,1.29688 -2.03125,0 -3.15625,-1.46875 -1.10937,-1.46875 -1.10937,-3.51563 0,-1.40625 0.51562,-2.59375 0.51563,-1.20312 1.48438,-1.84375 0.96875,-0.65625 2.26562,-0.65625 1.75,0 2.875,1.40625 l 0,-1.1875 1.54688,0 0,8.51563 q 0,2.3125 -0.46875,3.26562 -0.46875,0.96875 -1.48438,1.51563 -1.01562,0.5625 -2.5,0.5625 -1.76562,0 -2.85937,-0.79688 -1.07813,-0.79687 -1.03125,-2.39062 z m 1.375,-5.92188 q 0,1.95313 0.76562,2.84375 0.78125,0.89063 1.9375,0.89063 1.14063,0 1.92188,-0.89063 0.78125,-0.89062 0.78125,-2.78125 0,-1.8125 -0.8125,-2.71875 -0.79688,-0.92187 -1.92188,-0.92187 -1.10937,0 -1.89062,0.90625 -0.78125,0.89062 -0.78125,2.67187 z"
       id="path4094"
       inkscape:connector-curvature="0"
       style="fill:#000000;fill-rule:nonzero" />
    <path
       d="m 530.2435,409.37775 q -0.875,-1.10938 -1.48437,-2.57813 -0.59375,-1.48437 -0.59375,-3.0625 0,-1.39062 0.4375,-2.67187 0.53125,-1.48438 1.64062,-2.95313 l 0.75,0 q -0.70312,1.21875 -0.9375,1.73438 -0.35937,0.8125 -0.5625,1.6875 -0.25,1.09375 -0.25,2.20312 0,2.82813 1.75,5.64063 l -0.75,0 z m 2.09485,-2.53125 0,-8.59375 1.0625,0 0,8.59375 -1.0625,0 z m 8.453,-1.39063 0,-2.35937 -2.32812,0 0,-0.98438 2.32812,0 0,-2.32812 1,0 0,2.32812 2.34375,0 0,0.98438 -2.34375,0 0,2.35937 -1,0 z m 12.18744,1.39063 -1.04687,0 0,-6.71875 q -0.39063,0.35937 -1.01563,0.73437 -0.60937,0.35938 -1.09375,0.53125 l 0,-1.01562 q 0.875,-0.42188 1.53125,-1 0.67188,-0.59375 0.95313,-1.15625 l 0.67187,0 0,8.625 z m 3.5108,0 0,-1.20313 1.20313,0 0,1.20313 q 0,0.65625 -0.23438,1.0625 -0.23437,0.42187 -0.73437,0.64062 l -0.29688,-0.45312 q 0.32813,-0.14063 0.48438,-0.4375 0.15625,-0.28125 0.1875,-0.8125 l -0.60938,0 z m 8.9422,-0.9375 0.15625,0.92187 q -0.45312,0.0937 -0.79687,0.0937 -0.57813,0 -0.89063,-0.17187 -0.3125,-0.1875 -0.45312,-0.48438 -0.125,-0.29687 -0.125,-1.25 l 0,-3.57812 -0.76563,0 0,-0.8125 0.76563,0 0,-1.54688 1.04687,-0.625 0,2.17188 1.0625,0 0,0.8125 -1.0625,0 0,3.64062 q 0,0.45313 0.0469,0.57813 0.0625,0.125 0.1875,0.20312 0.125,0.0781 0.35937,0.0781 0.1875,0 0.46875,-0.0312 z m 6.8172,-0.45313 0,-2.35937 -2.32812,0 0,-0.98438 2.32812,0 0,-2.32812 1,0 0,2.32812 2.34375,0 0,0.98438 -2.34375,0 0,2.35937 -1,0 z m 12.57807,0.625 q -0.59375,0.5 -1.14063,0.70313 -0.53125,0.20312 -1.15625,0.20312 -1.03125,0 -1.57812,-0.5 -0.54688,-0.5 -0.54688,-1.28125 0,-0.45312 0.20313,-0.82812 0.20312,-0.39063 0.54687,-0.60938 0.34375,-0.23437 0.76563,-0.34375 0.29687,-0.0937 0.9375,-0.17187 1.26562,-0.14063 1.875,-0.35938 0,-0.21875 0,-0.26562 0,-0.65625 -0.29688,-0.92188 -0.40625,-0.34375 -1.20312,-0.34375 -0.73438,0 -1.09375,0.26563 -0.35938,0.25 -0.53125,0.90625 l -1.03125,-0.14063 q 0.14062,-0.65625 0.46875,-1.0625 0.32812,-0.40625 0.9375,-0.625 0.60937,-0.21875 1.40625,-0.21875 0.79687,0 1.29687,0.1875 0.5,0.1875 0.73438,0.46875 0.23437,0.28125 0.32812,0.71875 0.0469,0.26563 0.0469,0.96875 l 0,1.40625 q 0,1.46875 0.0625,1.85938 0.0781,0.39062 0.28125,0.75 l -1.10938,0 q -0.15625,-0.32813 -0.20312,-0.76563 z m -0.0937,-2.35937 q -0.57813,0.23437 -1.71875,0.40625 -0.65625,0.0937 -0.92188,0.21875 -0.26562,0.10937 -0.42187,0.32812 -0.14063,0.21875 -0.14063,0.5 0,0.42188 0.3125,0.70313 0.32813,0.28125 0.9375,0.28125 0.60938,0 1.07813,-0.26563 0.48437,-0.26562 0.70312,-0.73437 0.17188,-0.35938 0.17188,-1.04688 l 0,-0.39062 z m 3.6358,5.65625 -0.75,0 q 1.75,-2.8125 1.75,-5.64063 0,-1.09375 -0.25,-2.1875 -0.20312,-0.875 -0.5625,-1.6875 -0.23437,-0.51562 -0.9375,-1.75 l 0.75,0 q 1.09375,1.46875 1.625,2.95313 0.45313,1.28125 0.45313,2.67187 0,1.57813 -0.60938,3.0625 -0.60937,1.46875 -1.46875,2.57813 z"
       id="path4096"
       inkscape:connector-curvature="0"
       style="fill:#000000;fill-rule:nonzero" />
    <path
       d="m 514.91125,413.8465 -8.96875,0 0,-1.5625 8.96875,0 0,1.5625 z m 0,4.125 -8.96875,0 0,-1.54688 8.96875,0 0,1.54688 z m 7.34387,7.65625 0,-17.375 3.67188,0 0,1.375 -2.01563,0 0,14.60937 2.01563,0 0,1.39063 -3.67188,0 z m 5.35517,-3.78125 0,-13.59375 4.6875,0 q 1.57812,0 2.42187,0.1875 1.15625,0.26562 1.98438,0.96875 1.07812,0.92187 1.60937,2.34375 0.53125,1.40625 0.53125,3.21875 0,1.54687 -0.35937,2.75 -0.35938,1.1875 -0.92188,1.98437 -0.5625,0.78125 -1.23437,1.23438 -0.67188,0.4375 -1.625,0.67187 -0.95313,0.23438 -2.1875,0.23438 l -4.90625,0 z m 1.79687,-1.60938 2.90625,0 q 1.34375,0 2.10938,-0.25 0.76562,-0.25 1.21875,-0.70312 0.64062,-0.64063 1,-1.71875 0.35937,-1.07813 0.35937,-2.625 0,-2.125 -0.70312,-3.26563 -0.70313,-1.15625 -1.70313,-1.54687 -0.71875,-0.28125 -2.32812,-0.28125 l -2.85938,0 0,10.39062 z m 11.89484,1.60938 0,-1.90625 1.90625,0 0,1.90625 q 0,1.04687 -0.375,1.6875 -0.375,0.65625 -1.17188,1 l -0.46875,-0.71875 q 0.53125,-0.21875 0.78125,-0.67188 0.25,-0.45312 0.28125,-1.29687 l -0.95312,0 z"
       id="path4098"
       inkscape:connector-curvature="0"
       style="fill:#000000;fill-rule:nonzero" />
    <path
       d="m 549.5033,421.8465 0,-9.85938 1.5,0 0,1.39063 q 0.45312,-0.71875 1.21875,-1.15625 0.78125,-0.45313 1.76562,-0.45313 1.09375,0 1.79688,0.45313 0.70312,0.45312 0.98437,1.28125 1.17188,-1.73438 3.04688,-1.73438 1.46875,0 2.25,0.8125 0.79687,0.8125 0.79687,2.5 l 0,6.76563 -1.67187,0 0,-6.20313 q 0,-1 -0.15625,-1.4375 -0.15625,-0.45312 -0.59375,-0.71875 -0.42188,-0.26562 -1,-0.26562 -1.03125,0 -1.71875,0.6875 -0.6875,0.6875 -0.6875,2.21875 l 0,5.71875 -1.67188,0 0,-6.40625 q 0,-1.10938 -0.40625,-1.65625 -0.40625,-0.5625 -1.34375,-0.5625 -0.70312,0 -1.3125,0.375 -0.59375,0.35937 -0.85937,1.07812 -0.26563,0.71875 -0.26563,2.0625 l 0,5.10938 -1.67187,0 z m 15.55646,-11.6875 0,-1.90625 1.67187,0 0,1.90625 -1.67187,0 z m 0,11.6875 0,-9.85938 1.67187,0 0,9.85938 -1.67187,0 z m 4.12915,0 0,-9.85938 1.5,0 0,1.40625 q 1.09375,-1.625 3.14062,-1.625 0.89063,0 1.64063,0.32813 0.75,0.3125 1.10937,0.84375 0.375,0.51562 0.53125,1.21875 0.0937,0.46875 0.0937,1.625 l 0,6.0625 -1.67187,0 0,-6 q 0,-1.01563 -0.20313,-1.51563 -0.1875,-0.51562 -0.6875,-0.8125 -0.5,-0.29687 -1.17187,-0.29687 -1.0625,0 -1.84375,0.67187 -0.76563,0.67188 -0.76563,2.57813 l 0,5.375 -1.67187,0 z"
       id="path4100"
       inkscape:connector-curvature="0"
       style="fill:#ff0000;fill-rule:nonzero" />
    <path
       d="m 580.00214,421.8465 0,-1.90625 1.90625,0 0,1.90625 q 0,1.04687 -0.375,1.6875 -0.375,0.65625 -1.17187,1 l -0.46875,-0.71875 q 0.53125,-0.21875 0.78125,-0.67188 0.25,-0.45312 0.28125,-1.29687 l -0.95313,0 z"
       id="path4102"
       inkscape:connector-curvature="0"
       style="fill:#000000;fill-rule:nonzero" />
    <path
       d="m 507.95233,443.8465 0,-13.84375 1.32813,0 0,12.51562 4.07812,0 0,1.32813 -5.40625,0 z"
       id="path4104"
       inkscape:connector-curvature="0"
       style="fill:#000000;fill-rule:nonzero" />
    <path
       d="m 515.84717,443.8465 0,-13.59375 1.67187,0 0,13.59375 -1.67187,0 z m 10.92609,-3.17188 1.71875,0.21875 q -0.40625,1.5 -1.51563,2.34375 -1.09375,0.82813 -2.8125,0.82813 -2.15625,0 -3.42187,-1.32813 -1.26563,-1.32812 -1.26563,-3.73437 0,-2.48438 1.26563,-3.85938 1.28125,-1.375 3.32812,-1.375 1.98438,0 3.23438,1.34375 1.25,1.34375 1.25,3.79688 0,0.14062 -0.0156,0.4375 l -7.34375,0 q 0.0937,1.625 0.92188,2.48437 0.82812,0.85938 2.0625,0.85938 0.90625,0 1.54687,-0.46875 0.65625,-0.48438 1.04688,-1.54688 z m -5.48438,-2.70312 5.5,0 q -0.10937,-1.23438 -0.625,-1.85938 -0.79687,-0.96875 -2.07812,-0.96875 -1.14063,0 -1.9375,0.78125 -0.78125,0.76563 -0.85938,2.04688 z m 9.11011,5.875 0,-9.85938 1.5,0 0,1.40625 q 1.09375,-1.625 3.14062,-1.625 0.89063,0 1.64063,0.32813 0.75,0.3125 1.10937,0.84375 0.375,0.51562 0.53125,1.21875 0.0937,0.46875 0.0937,1.625 l 0,6.0625 -1.67187,0 0,-6 q 0,-1.01563 -0.20313,-1.51563 -0.1875,-0.51562 -0.6875,-0.8125 -0.5,-0.29687 -1.17187,-0.29687 -1.0625,0 -1.84375,0.67187 -0.76563,0.67188 -0.76563,2.57813 l 0,5.375 -1.67187,0 z m 14.30902,0.23437 3.9375,-14.0625 1.34375,0 -3.9375,14.0625 -1.34375,0 z m 11.86658,-0.23437 0,-13.59375 6.03125,0 q 1.8125,0 2.75,0.35937 0.95312,0.35938 1.51562,1.29688 0.5625,0.92187 0.5625,2.04687 0,1.45313 -0.9375,2.45313 -0.92187,0.98437 -2.89062,1.25 0.71875,0.34375 1.09375,0.67187 0.78125,0.73438 1.48437,1.8125 l 2.375,3.70313 -2.26562,0 -1.79688,-2.82813 q -0.79687,-1.21875 -1.3125,-1.875 -0.5,-0.65625 -0.90625,-0.90625 -0.40625,-0.26562 -0.8125,-0.35937 -0.3125,-0.0781 -1.01562,-0.0781 l -2.07813,0 0,6.04688 -1.79687,0 z m 1.79687,-7.59375 3.85938,0 q 1.23437,0 1.92187,-0.25 0.70313,-0.26563 1.0625,-0.82813 0.375,-0.5625 0.375,-1.21875 0,-0.96875 -0.70312,-1.57812 -0.70313,-0.625 -2.21875,-0.625 l -4.29688,0 0,4.5 z"
       id="path4106"
       inkscape:connector-curvature="0"
       style="fill:#000000;fill-rule:nonzero" />
    <path
       d="m 575.3444,443.8465 -5.40625,0 0,-1.32813 4.07812,0 0,-12.51562 1.32813,0 0,13.84375 z"
       id="path4108"
       inkscape:connector-curvature="0"
       style="fill:#000000;fill-rule:nonzero" />
    <path
       d="m 581.1017,447.62775 -3.6875,0 0,-1.39063 2.01563,0 0,-14.60937 -2.01563,0 0,-1.375 3.6875,0 0,17.375 z"
       id="path4110"
       inkscape:connector-curvature="0"
       style="fill:#000000;fill-rule:nonzero" />
    <path
       d="m 617.25806,421.8465 0,-1.90625 1.90625,0 0,1.90625 -1.90625,0 z m 6.32812,0 0,-1.90625 1.90625,0 0,1.90625 -1.90625,0 z m 6.32813,0 0,-1.90625 1.92187,0 0,1.90625 -1.92187,0 z"
       id="path4112"
       inkscape:connector-curvature="0"
       style="fill:#000000;fill-rule:nonzero" />
    <path
       d="m 693.0396,396.909 1.65625,-0.26563 q 0.14062,1 0.76562,1.53125 0.64063,0.51563 1.78125,0.51563 1.15625,0 1.70313,-0.46875 0.5625,-0.46875 0.5625,-1.09375 0,-0.5625 -0.48438,-0.89063 -0.34375,-0.21875 -1.70312,-0.5625 -1.84375,-0.46875 -2.5625,-0.79687 -0.70313,-0.34375 -1.07813,-0.9375 -0.35937,-0.60938 -0.35937,-1.32813 0,-0.65625 0.29687,-1.21875 0.3125,-0.5625 0.82813,-0.9375 0.39062,-0.28125 1.0625,-0.48437 0.67187,-0.20313 1.4375,-0.20313 1.17187,0 2.04687,0.34375 0.875,0.32813 1.28125,0.90625 0.42188,0.5625 0.57813,1.51563 l -1.625,0.21875 q -0.10938,-0.75 -0.65625,-1.17188 -0.53125,-0.4375 -1.5,-0.4375 -1.15625,0 -1.64063,0.39063 -0.48437,0.375 -0.48437,0.875 0,0.32812 0.20312,0.59375 0.20313,0.26562 0.64063,0.4375 0.25,0.0937 1.46875,0.4375 1.76562,0.46875 2.46875,0.76562 0.70312,0.29688 1.09375,0.875 0.40625,0.57813 0.40625,1.4375 0,0.82813 -0.48438,1.57813 -0.48437,0.73437 -1.40625,1.14062 -0.92187,0.39063 -2.07812,0.39063 -1.92188,0 -2.9375,-0.79688 -1,-0.79687 -1.28125,-2.35937 z m 16.75,-0.23438 1.71875,0.21875 q -0.40625,1.5 -1.51563,2.34375 -1.09375,0.82813 -2.8125,0.82813 -2.15625,0 -3.42187,-1.32813 -1.26563,-1.32812 -1.26563,-3.73437 0,-2.48438 1.26563,-3.85938 1.28125,-1.375 3.32812,-1.375 1.98438,0 3.23438,1.34375 1.25,1.34375 1.25,3.79688 0,0.14062 -0.0156,0.4375 l -7.34375,0 q 0.0937,1.625 0.92188,2.48437 0.82812,0.85938 2.0625,0.85938 0.90625,0 1.54687,-0.46875 0.65625,-0.48438 1.04688,-1.54688 z m -5.48438,-2.70312 5.5,0 q -0.10937,-1.23438 -0.625,-1.85938 -0.79687,-0.96875 -2.07812,-0.96875 -1.14063,0 -1.9375,0.78125 -0.78125,0.76563 -0.85938,2.04688 z m 8.81324,6.6875 1.60937,0.25 q 0.10938,0.75 0.57813,1.09375 0.60937,0.45312 1.6875,0.45312 1.17187,0 1.79687,-0.46875 0.625,-0.45312 0.85938,-1.28125 0.125,-0.51562 0.10937,-2.15625 -1.09375,1.29688 -2.71875,1.29688 -2.03125,0 -3.15625,-1.46875 -1.10937,-1.46875 -1.10937,-3.51563 0,-1.40625 0.51562,-2.59375 0.51563,-1.20312 1.48438,-1.84375 0.96875,-0.65625 2.26562,-0.65625 1.75,0 2.875,1.40625 l 0,-1.1875 1.54688,0 0,8.51563 q 0,2.3125 -0.46875,3.26562 -0.46875,0.96875 -1.48438,1.51563 -1.01562,0.5625 -2.5,0.5625 -1.76562,0 -2.85937,-0.79688 -1.07813,-0.79687 -1.03125,-2.39062 z m 1.375,-5.92188 q 0,1.95313 0.76562,2.84375 0.78125,0.89063 1.9375,0.89063 1.14063,0 1.92188,-0.89063 0.78125,-0.89062 0.78125,-2.78125 0,-1.8125 -0.8125,-2.71875 -0.79688,-0.92187 -1.92188,-0.92187 -1.10937,0 -1.89062,0.90625 -0.78125,0.89062 -0.78125,2.67187 z"
       id="path4114"
       inkscape:connector-curvature="0"
       style="fill:#000000;fill-rule:nonzero" />
    <path
       d="m 725.3536,409.37775 q -0.875,-1.10938 -1.48437,-2.57813 -0.59375,-1.48437 -0.59375,-3.0625 0,-1.39062 0.4375,-2.67187 0.53125,-1.48438 1.64062,-2.95313 l 0.75,0 q -0.70312,1.21875 -0.9375,1.73438 -0.35937,0.8125 -0.5625,1.6875 -0.25,1.09375 -0.25,2.20312 0,2.82813 1.75,5.64063 l -0.75,0 z m 2.09485,-2.53125 0,-8.59375 1.0625,0 0,8.59375 -1.0625,0 z m 8.453,-1.39063 0,-2.35937 -2.32812,0 0,-0.98438 2.32812,0 0,-2.32812 1,0 0,2.32812 2.34375,0 0,0.98438 -2.34375,0 0,2.35937 -1,0 z m 12.18744,1.39063 -1.04687,0 0,-6.71875 q -0.39063,0.35937 -1.01563,0.73437 -0.60937,0.35938 -1.09375,0.53125 l 0,-1.01562 q 0.875,-0.42188 1.53125,-1 0.67188,-0.59375 0.95313,-1.15625 l 0.67187,0 0,8.625 z m 3.5108,0 0,-1.20313 1.20313,0 0,1.20313 q 0,0.65625 -0.23438,1.0625 -0.23437,0.42187 -0.73437,0.64062 l -0.29688,-0.45312 q 0.32813,-0.14063 0.48438,-0.4375 0.15625,-0.28125 0.1875,-0.8125 l -0.60938,0 z m 8.9422,-0.9375 0.15625,0.92187 q -0.45312,0.0937 -0.79687,0.0937 -0.57813,0 -0.89063,-0.17187 -0.3125,-0.1875 -0.45312,-0.48438 -0.125,-0.29687 -0.125,-1.25 l 0,-3.57812 -0.76563,0 0,-0.8125 0.76563,0 0,-1.54688 1.04687,-0.625 0,2.17188 1.0625,0 0,0.8125 -1.0625,0 0,3.64062 q 0,0.45313 0.0469,0.57813 0.0625,0.125 0.1875,0.20312 0.125,0.0781 0.35937,0.0781 0.1875,0 0.46875,-0.0312 z m 6.8172,-0.45313 0,-2.35937 -2.32812,0 0,-0.98438 2.32812,0 0,-2.32812 1,0 0,2.32812 2.34375,0 0,0.98438 -2.34375,0 0,2.35937 -1,0 z m 8.65619,1.39063 0,-8.59375 3.8125,0 q 1.15625,0 1.75,0.23437 0.59375,0.23438 0.95313,0.82813 0.35937,0.57812 0.35937,1.28125 0,0.92187 -0.59375,1.54687 -0.59375,0.625 -1.82812,0.79688 0.45312,0.21875 0.6875,0.42187 0.5,0.45313 0.9375,1.14063 l 1.5,2.34375 -1.4375,0 -1.125,-1.78125 q -0.5,-0.78125 -0.82813,-1.1875 -0.3125,-0.40625 -0.57812,-0.5625 -0.25,-0.17188 -0.51563,-0.25 -0.1875,-0.0312 -0.625,-0.0312 l -1.32812,0 0,3.8125 -1.14063,0 z m 1.14063,-4.79688 2.45312,0 q 0.76563,0 1.20313,-0.15625 0.45312,-0.17187 0.67187,-0.51562 0.23438,-0.35938 0.23438,-0.78125 0,-0.60938 -0.45313,-1 -0.4375,-0.39063 -1.39062,-0.39063 l -2.71875,0 0,2.84375 z m 10.73419,2.21875 0,-1.0625 3.25,0 0,1.0625 -3.25,0 z m 11.69092,2.57813 -1.04688,0 0,-6.71875 q -0.39062,0.35937 -1.01562,0.73437 -0.60938,0.35938 -1.09375,0.53125 l 0,-1.01562 q 0.875,-0.42188 1.53125,-1 0.67187,-0.59375 0.95312,-1.15625 l 0.67188,0 0,8.625 z m 3.93268,2.53125 -0.75,0 q 1.75,-2.8125 1.75,-5.64063 0,-1.09375 -0.25,-2.1875 -0.20313,-0.875 -0.5625,-1.6875 -0.23438,-0.51562 -0.9375,-1.75 l 0.75,0 q 1.09375,1.46875 1.625,2.95313 0.45312,1.28125 0.45312,2.67187 0,1.57813 -0.60937,3.0625 -0.60938,1.46875 -1.46875,2.57813 z"
       id="path4116"
       inkscape:connector-curvature="0"
       style="fill:#000000;fill-rule:nonzero" />
    <path
       d="m 726.605,413.8465 -8.96875,0 0,-1.5625 8.96875,0 0,1.5625 z m 0,4.125 -8.96875,0 0,-1.54688 8.96875,0 0,1.54688 z m 7.34393,7.65625 0,-17.375 3.67188,0 0,1.375 -2.01563,0 0,14.60937 2.01563,0 0,1.39063 -3.67188,0 z m 5.35517,-3.78125 0,-13.59375 4.6875,0 q 1.57812,0 2.42187,0.1875 1.15625,0.26562 1.98438,0.96875 1.07812,0.92187 1.60937,2.34375 0.53125,1.40625 0.53125,3.21875 0,1.54687 -0.35937,2.75 -0.35938,1.1875 -0.92188,1.98437 -0.5625,0.78125 -1.23437,1.23438 -0.67188,0.4375 -1.625,0.67187 -0.95313,0.23438 -2.1875,0.23438 l -4.90625,0 z m 1.79687,-1.60938 2.90625,0 q 1.34375,0 2.10938,-0.25 0.76562,-0.25 1.21875,-0.70312 0.64062,-0.64063 1,-1.71875 0.35937,-1.07813 0.35937,-2.625 0,-2.125 -0.70312,-3.26563 -0.70313,-1.15625 -1.70313,-1.54687 -0.71875,-0.28125 -2.32812,-0.28125 l -2.85938,0 0,10.39062 z m 11.89484,1.60938 0,-1.90625 1.90625,0 0,1.90625 q 0,1.04687 -0.375,1.6875 -0.375,0.65625 -1.17188,1 l -0.46875,-0.71875 q 0.53125,-0.21875 0.78125,-0.67188 0.25,-0.45312 0.28125,-1.29687 l -0.95312,0 z"
       id="path4118"
       inkscape:connector-curvature="0"
       style="fill:#000000;fill-rule:nonzero" />
    <path
       d="m 764.8713,421.8465 0,-13.59375 4.6875,0 q 1.57813,0 2.42188,0.1875 1.15625,0.26562 1.98437,0.96875 1.07813,0.92187 1.60938,2.34375 0.53125,1.40625 0.53125,3.21875 0,1.54687 -0.35938,2.75 -0.35937,1.1875 -0.92187,1.98437 -0.5625,0.78125 -1.23438,1.23438 -0.67187,0.4375 -1.625,0.67187 -0.95312,0.23438 -2.1875,0.23438 l -4.90625,0 z m 1.79688,-1.60938 2.90625,0 q 1.34375,0 2.10937,-0.25 0.76563,-0.25 1.21875,-0.70312 0.64063,-0.64063 1,-1.71875 0.35938,-1.07813 0.35938,-2.625 0,-2.125 -0.70313,-3.26563 -0.70312,-1.15625 -1.70312,-1.54687 -0.71875,-0.28125 -2.32813,-0.28125 l -2.85937,0 0,10.39062 z m 11.89483,1.60938 0,-1.90625 1.90625,0 0,1.90625 q 0,1.04687 -0.375,1.6875 -0.375,0.65625 -1.17187,1 l -0.46875,-0.71875 q 0.53125,-0.21875 0.78125,-0.67188 0.25,-0.45312 0.28125,-1.29687 l -0.95313,0 z"
       id="path4120"
       inkscape:connector-curvature="0"
       style="fill:#000000;fill-rule:nonzero" />
    <path
       d="m 665.3215,443.8465 0,-13.59375 1.67188,0 0,13.59375 -1.67188,0 z m 10.92609,-3.17188 1.71875,0.21875 q -0.40625,1.5 -1.51563,2.34375 -1.09375,0.82813 -2.8125,0.82813 -2.15625,0 -3.42187,-1.32813 -1.26563,-1.32812 -1.26563,-3.73437 0,-2.48438 1.26563,-3.85938 1.28125,-1.375 3.32812,-1.375 1.98438,0 3.23438,1.34375 1.25,1.34375 1.25,3.79688 0,0.14062 -0.0156,0.4375 l -7.34375,0 q 0.0937,1.625 0.92188,2.48437 0.82812,0.85938 2.0625,0.85938 0.90625,0 1.54687,-0.46875 0.65625,-0.48438 1.04688,-1.54688 z m -5.48438,-2.70312 5.5,0 q -0.10937,-1.23438 -0.625,-1.85938 -0.79687,-0.96875 -2.07812,-0.96875 -1.14063,0 -1.9375,0.78125 -0.78125,0.76563 -0.85938,2.04688 z m 9.11005,5.875 0,-9.85938 1.5,0 0,1.40625 q 1.09375,-1.625 3.14062,-1.625 0.89063,0 1.64063,0.32813 0.75,0.3125 1.10937,0.84375 0.375,0.51562 0.53125,1.21875 0.0937,0.46875 0.0937,1.625 l 0,6.0625 -1.67187,0 0,-6 q 0,-1.01563 -0.20313,-1.51563 -0.1875,-0.51562 -0.6875,-0.8125 -0.5,-0.29687 -1.17187,-0.29687 -1.0625,0 -1.84375,0.67187 -0.76563,0.67188 -0.76563,2.57813 l 0,5.375 -1.67187,0 z m 14.91839,-4.07813 0,-1.6875 5.125,0 0,1.6875 -5.125,0 z m 15.22412,8.07813 q -1.375,-1.75 -2.32812,-4.07813 -0.95313,-2.34375 -0.95313,-4.84375 0,-2.21875 0.70313,-4.23437 0.84375,-2.34375 2.57812,-4.67188 l 1.20313,0 q -1.125,1.92188 -1.48438,2.75 -0.5625,1.28125 -0.89062,2.67188 -0.40625,1.73437 -0.40625,3.48437 0,4.46875 2.78125,8.92188 l -1.20313,0 z m 3.27521,-4 0,-13.59375 6.03125,0 q 1.8125,0 2.75,0.35937 0.95313,0.35938 1.51563,1.29688 0.5625,0.92187 0.5625,2.04687 0,1.45313 -0.9375,2.45313 -0.92188,0.98437 -2.89063,1.25 0.71875,0.34375 1.09375,0.67187 0.78125,0.73438 1.48438,1.8125 l 2.375,3.70313 -2.26563,0 -1.79687,-2.82813 q -0.79688,-1.21875 -1.3125,-1.875 -0.5,-0.65625 -0.90625,-0.90625 -0.40625,-0.26562 -0.8125,-0.35937 -0.3125,-0.0781 -1.01563,-0.0781 l -2.07812,0 0,6.04688 -1.79688,0 z m 1.79688,-7.59375 3.85937,0 q 1.23438,0 1.92188,-0.25 0.70312,-0.26563 1.0625,-0.82813 0.375,-0.5625 0.375,-1.21875 0,-0.96875 -0.70313,-1.57812 -0.70312,-0.625 -2.21875,-0.625 l -4.29687,0 0,4.5 z m 15.96875,3.51562 0,-1.6875 5.125,0 0,1.6875 -5.125,0 z m 17.86468,4.07813 -1.67187,0 0,-10.64063 q -0.59375,0.57813 -1.57813,1.15625 -0.98437,0.5625 -1.76562,0.85938 l 0,-1.625 q 1.40625,-0.65625 2.45312,-1.59375 1.04688,-0.9375 1.48438,-1.8125 l 1.07812,0 0,13.65625 z m 5.64136,4 -1.1875,0 q 2.76562,-4.45313 2.76562,-8.92188 0,-1.73437 -0.39062,-3.45312 -0.32813,-1.39063 -0.89063,-2.67188 -0.35937,-0.84375 -1.48437,-2.78125 l 1.1875,0 q 1.75,2.32813 2.57812,4.67188 0.71875,2.01562 0.71875,4.23437 0,2.5 -0.96875,4.84375 -0.95312,2.32813 -2.32812,4.07813 z"
       id="path4122"
       inkscape:connector-curvature="0"
       style="fill:#000000;fill-rule:nonzero" />
    <path
       d="m 760.2441,443.8465 0,-13.84375 1.32812,0 0,12.51562 4.07813,0 0,1.32813 -5.40625,0 z"
       id="path4124"
       inkscape:connector-curvature="0"
       style="fill:#000000;fill-rule:nonzero" />
    <path
       d="m 768.1389,443.8465 0,-13.59375 1.67188,0 0,13.59375 -1.67188,0 z m 10.92609,-3.17188 1.71875,0.21875 q -0.40625,1.5 -1.51563,2.34375 -1.09375,0.82813 -2.8125,0.82813 -2.15625,0 -3.42187,-1.32813 -1.26563,-1.32812 -1.26563,-3.73437 0,-2.48438 1.26563,-3.85938 1.28125,-1.375 3.32812,-1.375 1.98438,0 3.23438,1.34375 1.25,1.34375 1.25,3.79688 0,0.14062 -0.0156,0.4375 l -7.34375,0 q 0.0937,1.625 0.92188,2.48437 0.82812,0.85938 2.0625,0.85938 0.90625,0 1.54687,-0.46875 0.65625,-0.48438 1.04688,-1.54688 z m -5.48438,-2.70312 5.5,0 q -0.10937,-1.23438 -0.625,-1.85938 -0.79687,-0.96875 -2.07812,-0.96875 -1.14063,0 -1.9375,0.78125 -0.78125,0.76563 -0.85938,2.04688 z m 9.11005,5.875 0,-9.85938 1.5,0 0,1.40625 q 1.09375,-1.625 3.14062,-1.625 0.89063,0 1.64063,0.32813 0.75,0.3125 1.10937,0.84375 0.375,0.51562 0.53125,1.21875 0.0937,0.46875 0.0937,1.625 l 0,6.0625 -1.67187,0 0,-6 q 0,-1.01563 -0.20313,-1.51563 -0.1875,-0.51562 -0.6875,-0.8125 -0.5,-0.29687 -1.17187,-0.29687 -1.0625,0 -1.84375,0.67187 -0.76563,0.67188 -0.76563,2.57813 l 0,5.375 -1.67187,0 z m 14.30902,0.23437 3.9375,-14.0625 1.34375,0 -3.9375,14.0625 -1.34375,0 z m 11.86664,-0.23437 0,-13.59375 6.03125,0 q 1.8125,0 2.75,0.35937 0.95312,0.35938 1.51562,1.29688 0.5625,0.92187 0.5625,2.04687 0,1.45313 -0.9375,2.45313 -0.92187,0.98437 -2.89062,1.25 0.71875,0.34375 1.09375,0.67187 0.78125,0.73438 1.48437,1.8125 l 2.375,3.70313 -2.26562,0 -1.79688,-2.82813 q -0.79687,-1.21875 -1.3125,-1.875 -0.5,-0.65625 -0.90625,-0.90625 -0.40625,-0.26562 -0.8125,-0.35937 -0.3125,-0.0781 -1.01562,-0.0781 l -2.07813,0 0,6.04688 -1.79687,0 z m 1.79687,-7.59375 3.85938,0 q 1.23437,0 1.92187,-0.25 0.70313,-0.26563 1.0625,-0.82813 0.375,-0.5625 0.375,-1.21875 0,-0.96875 -0.70312,-1.57812 -0.70313,-0.625 -2.21875,-0.625 l -4.29688,0 0,4.5 z"
       id="path4126"
       inkscape:connector-curvature="0"
       style="fill:#000000;fill-rule:nonzero" />
    <path
       d="m 827.63617,443.8465 -5.40625,0 0,-1.32813 4.07812,0 0,-12.51562 1.32813,0 0,13.84375 z"
       id="path4128"
       inkscape:connector-curvature="0"
       style="fill:#000000;fill-rule:nonzero" />
    <path
       d="m 833.3934,447.62775 -3.6875,0 0,-1.39063 2.01563,0 0,-14.60937 -2.01563,0 0,-1.375 3.6875,0 0,17.375 z"
       id="path4130"
       inkscape:connector-curvature="0"
       style="fill:#000000;fill-rule:nonzero" />
    <path
       d="m 878.80396,421.8465 0,-1.90625 1.90625,0 0,1.90625 -1.90625,0 z m 6.32812,0 0,-1.90625 1.90625,0 0,1.90625 -1.90625,0 z m 6.32813,0 0,-1.90625 1.92187,0 0,1.90625 -1.92187,0 z m 6,0 0,-1.90625 1.90625,0 0,1.90625 -1.90625,0 z m 6.32812,0 0,-1.90625 1.90625,0 0,1.90625 -1.90625,0 z m 6.32813,0 0,-1.90625 1.92187,0 0,1.90625 -1.92187,0 z"
       id="path4132"
       inkscape:connector-curvature="0"
       style="fill:#000000;fill-rule:nonzero" />
    <path
       d="m 174.46194,193.15486 678.1102,0"
       id="path4134"
       inkscape:connector-curvature="0"
       style="fill:#000000;fill-opacity:0;fill-rule:nonzero" />
    <path
       d="m 186.46194,193.15486 654.1102,0"
       id="path4136"
       inkscape:connector-curvature="0"
       style="stroke:#ff9900;stroke-width:2;stroke-linecap:butt;stroke-linejoin:round" />
    <path
       d="m 186.46194,189.8514 -9.0762,3.30347 9.0762,3.30345 z"
       id="path4138"
       inkscape:connector-curvature="0"
       style="fill:#ff9900;fill-rule:evenodd;stroke:#ff9900;stroke-width:2;stroke-linecap:butt" />
    <path
       d="m 840.5722,196.45831 9.07617,-3.30345 -9.07617,-3.30347 z"
       id="path4140"
       inkscape:connector-curvature="0"
       style="fill:#ff9900;fill-rule:evenodd;stroke:#ff9900;stroke-width:2;stroke-linecap:butt" />
    <path
       d="m 417.4597,170.66667 190.01572,0 0,22.48819 -190.01572,0 z"
       id="path4142"
       inkscape:connector-curvature="0"
       style="fill:#000000;fill-opacity:0;fill-rule:nonzero" />
    <path
       d="m 474.63055,188.83076 0,-13.59375 1.67188,0 0,13.59375 -1.67188,0 z m 10.92606,-3.17188 1.71875,0.21875 q -0.40625,1.5 -1.51563,2.34375 -1.09375,0.82813 -2.8125,0.82813 -2.15625,0 -3.42187,-1.32813 -1.26563,-1.32812 -1.26563,-3.73437 0,-2.48438 1.26563,-3.85938 1.28125,-1.375 3.32812,-1.375 1.98438,0 3.23438,1.34375 1.25,1.34375 1.25,3.79688 0,0.14062 -0.0156,0.4375 l -7.34375,0 q 0.0937,1.625 0.92188,2.48437 0.82812,0.85938 2.0625,0.85938 0.90625,0 1.54687,-0.46875 0.65625,-0.48438 1.04688,-1.54688 z m -5.48438,-2.70312 5.5,0 q -0.10937,-1.23438 -0.625,-1.85938 -0.79687,-0.96875 -2.07812,-0.96875 -1.14063,0 -1.9375,0.78125 -0.78125,0.76563 -0.85938,2.04688 z m 9.11011,5.875 0,-9.85938 1.5,0 0,1.40625 q 1.09375,-1.625 3.14062,-1.625 0.89063,0 1.64063,0.32813 0.75,0.3125 1.10937,0.84375 0.375,0.51562 0.53125,1.21875 0.0937,0.46875 0.0937,1.625 l 0,6.0625 -1.67187,0 0,-6 q 0,-1.01563 -0.20313,-1.51563 -0.1875,-0.51562 -0.6875,-0.8125 -0.5,-0.29687 -1.17187,-0.29687 -1.0625,0 -1.84375,0.67187 -0.76563,0.67188 -0.76563,2.57813 l 0,5.375 -1.67187,0 z"
       id="path4144"
       inkscape:connector-curvature="0"
       style="fill:#000000;fill-rule:nonzero" />
    <path
       d="m 506.67886,184.45576 -0.59375,-1.1875 10.76559,-4.23438 -10.76559,-4.23437 0.59375,-1.1875 13.35934,5.42187 -13.35934,5.42188 z m -0.35938,0.95312 13.42185,0 0,1.1875 -13.42185,0 0,-1.1875 z m 0,2.90625 13.42185,0 0,1.1875 -13.42185,0 0,-1.1875 z"
       id="path4146"
       inkscape:connector-curvature="0"
       style="fill:#000000;fill-rule:nonzero" />
    <path
       d="m 537.2372,187.22139 0,1.60938 -8.98437,0 q -0.0156,-0.60938 0.1875,-1.15625 0.34375,-0.92188 1.09375,-1.8125 0.76562,-0.89063 2.1875,-2.0625 2.21875,-1.8125 3,-2.875 0.78125,-1.0625 0.78125,-2.01563 0,-0.98437 -0.71875,-1.67187 -0.70313,-0.6875 -1.84375,-0.6875 -1.20313,0 -1.9375,0.73437 -0.71875,0.71875 -0.71875,2 l -1.71875,-0.17187 q 0.17187,-1.92188 1.32812,-2.92188 1.15625,-1.01562 3.09375,-1.01562 1.95313,0 3.09375,1.09375 1.14063,1.07812 1.14063,2.6875 0,0.8125 -0.34375,1.60937 -0.32813,0.78125 -1.10938,1.65625 -0.76562,0.85938 -2.5625,2.39063 -1.5,1.26562 -1.9375,1.71875 -0.42187,0.4375 -0.70312,0.89062 l 6.67187,0 z m 2.31317,1.60938 0,-13.59375 6.03131,0 q 1.8125,0 2.75,0.35937 0.95313,0.35938 1.51563,1.29688 0.5625,0.92187 0.5625,2.04687 0,1.45313 -0.9375,2.45313 -0.92188,0.98437 -2.89063,1.25 0.71875,0.34375 1.09375,0.67187 0.78125,0.73438 1.48438,1.8125 l 2.375,3.70313 -2.26563,0 -1.79687,-2.82813 q -0.79688,-1.21875 -1.3125,-1.875 -0.5,-0.65625 -0.90631,-0.90625 -0.40625,-0.26562 -0.8125,-0.35937 -0.3125,-0.0781 -1.01563,-0.0781 l -2.07812,0 0,6.04688 -1.79688,0 z m 1.79688,-7.59375 3.85937,0 q 1.23444,0 1.92194,-0.25 0.70312,-0.26563 1.0625,-0.82813 0.375,-0.5625 0.375,-1.21875 0,-0.96875 -0.70313,-1.57812 -0.70312,-0.625 -2.21875,-0.625 l -4.29693,0 0,4.5 z"
       id="path4148"
       inkscape:connector-curvature="0"
       style="fill:#000000;fill-rule:nonzero" />
    <path
       d="M 511.6286,305.23096 408.10104,374.99475"
       id="path4150"
       inkscape:connector-curvature="0"
       style="fill:#000000;fill-opacity:0;fill-rule:nonzero" />
    <path
       d="m 511.6286,305.23096 -93.57614,63.05789"
       id="path4152"
       inkscape:connector-curvature="0"
       style="stroke:#0000ff;stroke-width:2;stroke-linecap:butt;stroke-linejoin:round" />
    <path
       d="m 416.2064,365.54932 -5.68066,7.81152 9.3728,-2.33249 z"
       id="path4154"
       inkscape:connector-curvature="0"
       style="fill:#0000ff;fill-rule:evenodd;stroke:#0000ff;stroke-width:2;stroke-linecap:butt" />
    <path
       d="m 545.6286,305.73227 0,68.59845"
       id="path4156"
       inkscape:connector-curvature="0"
       style="fill:#000000;fill-opacity:0;fill-rule:nonzero" />
    <path
       d="m 545.6286,305.73227 0,56.59845"
       id="path4158"
       inkscape:connector-curvature="0"
       style="stroke:#ff0000;stroke-width:2;stroke-linecap:butt;stroke-linejoin:round" />
    <path
       d="m 542.32513,362.33072 3.30347,9.07617 3.30346,-9.07617 z"
       id="path4160"
       inkscape:connector-curvature="0"
       style="fill:#ff0000;fill-rule:evenodd;stroke:#ff0000;stroke-width:2;stroke-linecap:butt" />
    <path
       d="m 253.16667,368.03937 32.18898,0 0,26.99213 -32.18898,0 z"
       id="path4162"
       inkscape:connector-curvature="0"
       style="fill:#000000;fill-opacity:0;fill-rule:nonzero" />
    <path
       d="m 269.29205,374.7992 q 1.96875,0 3.07813,1.40625 1.32812,1.67187 1.32812,5.54687 0,3.85938 -1.32812,5.54688 -1.10938,1.39062 -3.07813,1.39062 -1.98437,0 -3.20312,-1.53125 -1.21875,-1.53125 -1.21875,-5.4375 0,-3.84375 1.34375,-5.53125 1.09375,-1.39062 3.07812,-1.39062 z m 0,2.15625 q -0.48437,0 -0.85937,0.3125 -0.35938,0.29687 -0.5625,1.07812 -0.26563,1.01563 -0.26563,3.40625 0,2.39063 0.23438,3.28125 0.25,0.89063 0.60937,1.1875 0.35938,0.29688 0.84375,0.29688 0.46875,0 0.82813,-0.29688 0.375,-0.29687 0.59375,-1.07812 0.26562,-1 0.26562,-3.39063 0,-2.39062 -0.25,-3.28125 -0.23437,-0.90625 -0.60937,-1.20312 -0.35938,-0.3125 -0.82813,-0.3125 z"
       id="path4164"
       inkscape:connector-curvature="0"
       style="fill:#000000;fill-rule:nonzero" />
    <path
       d="m 405.16666,368.03937 32.18899,0 0,26.99213 -32.18899,0 z"
       id="path4166"
       inkscape:connector-curvature="0"
       style="fill:#000000;fill-opacity:0;fill-rule:nonzero" />
    <path
       d="m 416.81317,388.45544 0,-13.59375 2.60938,0 0,4.89062 q 1.20312,-1.375 2.85937,-1.375 1.79688,0 2.96875,1.3125 1.1875,1.29688 1.1875,3.73438 0,2.53125 -1.20312,3.89062 -1.20313,1.35938 -2.92188,1.35938 -0.84375,0 -1.67187,-0.42188 -0.8125,-0.42187 -1.40625,-1.25 l 0,1.45313 -2.42188,0 z m 2.59375,-5.14063 q 0,1.53125 0.48438,2.26563 0.67187,1.03125 1.79687,1.03125 0.85938,0 1.46875,-0.73438 0.60938,-0.73437 0.60938,-2.32812 0,-1.6875 -0.60938,-2.42188 -0.60937,-0.75 -1.57812,-0.75 -0.9375,0 -1.5625,0.73438 -0.60938,0.71875 -0.60938,2.20312 z"
       id="path4168"
       inkscape:connector-curvature="0"
       style="fill:#000000;fill-rule:nonzero" />
    <path
       d="m 573.1667,368.03937 32.18897,0 0,26.99213 -32.18897,0 z"
       id="path4170"
       inkscape:connector-curvature="0"
       style="fill:#000000;fill-opacity:0;fill-rule:nonzero" />
    <path
       d="m 587.3858,381.6117 -2.35937,-0.4375 q 0.39062,-1.42188 1.35937,-2.10938 0.98438,-0.6875 2.90625,-0.6875 1.73438,0 2.59375,0.42188 0.85938,0.40625 1.20313,1.04687 0.34375,0.625 0.34375,2.32813 l -0.0312,3.04687 q 0,1.29688 0.125,1.92188 0.125,0.60937 0.46875,1.3125 l -2.57813,0 q -0.0937,-0.26563 -0.25,-0.76563 -0.0625,-0.23437 -0.0937,-0.3125 -0.65625,0.65625 -1.42187,0.98438 -0.76563,0.3125 -1.625,0.3125 -1.51563,0 -2.40625,-0.8125 -0.875,-0.82813 -0.875,-2.09375 0,-0.84375 0.39062,-1.48438 0.40625,-0.65625 1.125,-1 0.71875,-0.35937 2.07813,-0.625 1.82812,-0.32812 2.53125,-0.625 l 0,-0.26562 q 0,-0.75 -0.375,-1.0625 -0.35938,-0.32813 -1.39063,-0.32813 -0.70312,0 -1.09375,0.28125 -0.39062,0.26563 -0.625,0.95313 z m 3.48438,2.10937 q -0.5,0.17188 -1.59375,0.40625 -1.07813,0.23438 -1.40625,0.45313 -0.51563,0.35937 -0.51563,0.92187 0,0.54688 0.40625,0.95313 0.40625,0.39062 1.04688,0.39062 0.70312,0 1.34375,-0.46875 0.46875,-0.35937 0.625,-0.85937 0.0937,-0.34375 0.0937,-1.28125 l 0,-0.51563 z"
       id="path4172"
       inkscape:connector-curvature="0"
       style="fill:#000000;fill-rule:nonzero" />
    <path
       d="m 785.0446,368.03937 68.31494,0 0,26.99213 -68.31494,0 z"
       id="path4174"
       inkscape:connector-curvature="0"
       style="fill:#000000;fill-opacity:0;fill-rule:nonzero" />
    <path
       d="m 800.3787,388.45544 0,-13.59375 5.78125,0 q 2.1875,0 3.17187,0.35937 0.98438,0.35938 1.57813,1.29688 0.59375,0.9375 0.59375,2.15625 0,1.53125 -0.90625,2.53125 -0.89063,0.98437 -2.6875,1.25 0.89062,0.51562 1.46875,1.14062 0.57812,0.625 1.5625,2.20313 l 1.67187,2.65625 -3.29687,0 -1.98438,-2.95313 q -1.04687,-1.59375 -1.4375,-2 -0.39062,-0.42187 -0.82812,-0.5625 -0.4375,-0.15625 -1.39063,-0.15625 l -0.54687,0 0,5.67188 -2.75,0 z m 2.75,-7.84375 2.03125,0 q 1.96875,0 2.45312,-0.17188 0.5,-0.17187 0.78125,-0.57812 0.28125,-0.40625 0.28125,-1.01563 0,-0.6875 -0.375,-1.10937 -0.35937,-0.42188 -1.03125,-0.53125 -0.32812,-0.0469 -2,-0.0469 l -2.14062,0 0,3.45313 z m 15.59375,4.21875 0,-2.60938 5.10937,0 0,2.60938 -5.10937,0 z m 17.80225,3.625 -2.60938,0 0,-9.82813 q -1.4375,1.34375 -3.375,1.98438 l 0,-2.375 q 1.03125,-0.32813 2.21875,-1.25 1.20313,-0.9375 1.64063,-2.1875 l 2.125,0 0,13.65625 z"
       id="path4176"
       inkscape:connector-curvature="0"
       style="fill:#000000;fill-rule:nonzero" />
    <path
       d="m 284.5223,326.1942 161.48032,0 0,36.34647 -161.48032,0 z"
       id="path4178"
       inkscape:connector-curvature="0"
       style="fill:#000000;fill-opacity:0;fill-rule:nonzero" />
    <path
       d="m 310.4568,348.34995 1.65625,-0.26563 q 0.14062,1 0.76562,1.53125 0.64063,0.51563 1.78125,0.51563 1.15625,0 1.70313,-0.46875 0.5625,-0.46875 0.5625,-1.09375 0,-0.5625 -0.48438,-0.89063 -0.34375,-0.21875 -1.70312,-0.5625 -1.84375,-0.46875 -2.5625,-0.79687 -0.70313,-0.34375 -1.07813,-0.9375 -0.35937,-0.60938 -0.35937,-1.32813 0,-0.65625 0.29687,-1.21875 0.3125,-0.5625 0.82813,-0.9375 0.39062,-0.28125 1.0625,-0.48437 0.67187,-0.20313 1.4375,-0.20313 1.17187,0 2.04687,0.34375 0.875,0.32813 1.28125,0.90625 0.42188,0.5625 0.57813,1.51563 l -1.625,0.21875 q -0.10938,-0.75 -0.65625,-1.17188 -0.53125,-0.4375 -1.5,-0.4375 -1.15625,0 -1.64063,0.39063 -0.48437,0.375 -0.48437,0.875 0,0.32812 0.20312,0.59375 0.20313,0.26562 0.64063,0.4375 0.25,0.0937 1.46875,0.4375 1.76562,0.46875 2.46875,0.76562 0.70312,0.29688 1.09375,0.875 0.40625,0.57813 0.40625,1.4375 0,0.82813 -0.48438,1.57813 -0.48437,0.73437 -1.40625,1.14062 -0.92187,0.39063 -2.07812,0.39063 -1.92188,0 -2.9375,-0.79688 -1,-0.79687 -1.28125,-2.35937 z m 10.01562,-8.75 0,-1.90625 1.67188,0 0,1.90625 -1.67188,0 z m 0,11.6875 0,-9.85938 1.67188,0 0,9.85938 -1.67188,0 z m 3.83234,0.8125 1.60938,0.25 q 0.10937,0.75 0.57812,1.09375 0.60938,0.45312 1.6875,0.45312 1.17188,0 1.79688,-0.46875 0.625,-0.45312 0.85937,-1.28125 0.125,-0.51562 0.10938,-2.15625 -1.09375,1.29688 -2.71875,1.29688 -2.03125,0 -3.15625,-1.46875 -1.10938,-1.46875 -1.10938,-3.51563 0,-1.40625 0.51563,-2.59375 0.51562,-1.20312 1.48437,-1.84375 0.96875,-0.65625 2.26563,-0.65625 1.75,0 2.875,1.40625 l 0,-1.1875 1.54687,0 0,8.51563 q 0,2.3125 -0.46875,3.26562 -0.46875,0.96875 -1.48437,1.51563 -1.01563,0.5625 -2.5,0.5625 -1.76563,0 -2.85938,-0.79688 -1.07812,-0.79687 -1.03125,-2.39062 z m 1.375,-5.92188 q 0,1.95313 0.76563,2.84375 0.78125,0.89063 1.9375,0.89063 1.14062,0 1.92187,-0.89063 0.78125,-0.89062 0.78125,-2.78125 0,-1.8125 -0.8125,-2.71875 -0.79687,-0.92187 -1.92187,-0.92187 -1.10938,0 -1.89063,0.90625 -0.78125,0.89062 -0.78125,2.67187 z"
       id="path4180"
       inkscape:connector-curvature="0"
       style="fill:#0000ff;fill-rule:nonzero" />
    <path
       d="m 336.53983,360.8187 q -0.875,-1.10938 -1.48438,-2.57813 -0.59375,-1.48437 -0.59375,-3.0625 0,-1.39062 0.4375,-2.67187 0.53125,-1.48438 1.64063,-2.95313 l 0.75,0 q -0.70313,1.21875 -0.9375,1.73438 -0.35938,0.8125 -0.5625,1.6875 -0.25,1.09375 -0.25,2.20312 0,2.82813 1.75,5.64063 l -0.75,0 z m 2.09485,-2.53125 0,-8.59375 1.0625,0 0,8.59375 -1.0625,0 z m 3.06006,0 0,-1.20313 1.20312,0 0,1.20313 q 0,0.65625 -0.23437,1.0625 -0.23438,0.42187 -0.73438,0.64062 l -0.29687,-0.45312 q 0.32812,-0.14063 0.48437,-0.4375 0.15625,-0.28125 0.1875,-0.8125 l -0.60937,0 z m 6.64532,2.39062 0,-8.60937 0.95313,0 0,0.79687 q 0.34375,-0.46875 0.76562,-0.70312 0.4375,-0.23438 1.04688,-0.23438 0.79687,0 1.40625,0.40625 0.60937,0.40625 0.90625,1.15625 0.3125,0.75 0.3125,1.64063 0,0.95312 -0.34375,1.71875 -0.32813,0.76562 -0.98438,1.17187 -0.65625,0.40625 -1.375,0.40625 -0.53125,0 -0.95312,-0.21875 -0.42188,-0.23437 -0.6875,-0.5625 l 0,3.03125 -1.04688,0 z m 0.95313,-5.46875 q 0,1.20313 0.48437,1.78125 0.48438,0.5625 1.17188,0.5625 0.70312,0 1.20312,-0.59375 0.5,-0.59375 0.5,-1.84375 0,-1.1875 -0.48437,-1.76562 -0.48438,-0.59375 -1.17188,-0.59375 -0.67187,0 -1.1875,0.625 -0.51562,0.625 -0.51562,1.82812 z m 6.22955,3.07813 0,-1.20313 1.20312,0 0,1.20313 q 0,0.65625 -0.23437,1.0625 -0.23438,0.42187 -0.73438,0.64062 l -0.29687,-0.45312 q 0.32812,-0.14063 0.48437,-0.4375 0.15625,-0.28125 0.1875,-0.8125 l -0.60937,0 z m 6.64532,0 0,-6.21875 0.9375,0 0,0.875 q 0.29688,-0.46875 0.78125,-0.73438 0.48438,-0.28125 1.10938,-0.28125 0.6875,0 1.125,0.28125 0.45312,0.28125 0.625,0.79688 0.75,-1.07813 1.92187,-1.07813 0.9375,0 1.42188,0.51563 0.5,0.5 0.5,1.57812 l 0,4.26563 -1.04688,0 0,-3.92188 q 0,-0.625 -0.10937,-0.90625 -0.0937,-0.28125 -0.35938,-0.45312 -0.26562,-0.17188 -0.64062,-0.17188 -0.65625,0 -1.09375,0.4375 -0.42188,0.4375 -0.42188,1.40625 l 0,3.60938 -1.0625,0 0,-4.04688 q 0,-0.70312 -0.26562,-1.04687 -0.25,-0.35938 -0.82813,-0.35938 -0.45312,0 -0.82812,0.23438 -0.375,0.23437 -0.54688,0.6875 -0.17187,0.45312 -0.17187,1.29687 l 0,3.23438 -1.04688,0 z m 14.42289,-0.76563 q -0.59375,0.5 -1.14063,0.70313 -0.53125,0.20312 -1.15625,0.20312 -1.03125,0 -1.57812,-0.5 -0.54688,-0.5 -0.54688,-1.28125 0,-0.45312 0.20313,-0.82812 0.20312,-0.39063 0.54687,-0.60938 0.34375,-0.23437 0.76563,-0.34375 0.29687,-0.0937 0.9375,-0.17187 1.26562,-0.14063 1.875,-0.35938 0,-0.21875 0,-0.26562 0,-0.65625 -0.29688,-0.92188 -0.40625,-0.34375 -1.20312,-0.34375 -0.73438,0 -1.09375,0.26563 -0.35938,0.25 -0.53125,0.90625 l -1.03125,-0.14063 q 0.14062,-0.65625 0.46875,-1.0625 0.32812,-0.40625 0.9375,-0.625 0.60937,-0.21875 1.40625,-0.21875 0.79687,0 1.29687,0.1875 0.5,0.1875 0.73438,0.46875 0.23437,0.28125 0.32812,0.71875 0.0469,0.26563 0.0469,0.96875 l 0,1.40625 q 0,1.46875 0.0625,1.85938 0.0781,0.39062 0.28125,0.75 l -1.10938,0 q -0.15625,-0.32813 -0.20312,-0.76563 z m -0.0937,-2.35937 q -0.57813,0.23437 -1.71875,0.40625 -0.65625,0.0937 -0.92188,0.21875 -0.26562,0.10937 -0.42187,0.32812 -0.14063,0.21875 -0.14063,0.5 0,0.42188 0.3125,0.70313 0.32813,0.28125 0.9375,0.28125 0.60938,0 1.07813,-0.26563 0.48437,-0.26562 0.70312,-0.73437 0.17188,-0.35938 0.17188,-1.04688 l 0,-0.39062 z m 2.24517,3.125 2.26563,-3.23438 -2.09375,-2.98437 1.3125,0 0.95312,1.45312 q 0.26563,0.42188 0.4375,0.70313 0.25,-0.39063 0.46875,-0.6875 l 1.04688,-1.46875 1.26562,0 -2.15625,2.92187 2.3125,3.29688 -1.28125,0 -1.28125,-1.9375 -0.34375,-0.51563 -1.64062,2.45313 -1.26563,0 z m 7.60929,2.53125 -0.75,0 q 1.75,-2.8125 1.75,-5.64063 0,-1.09375 -0.25,-2.1875 -0.20313,-0.875 -0.5625,-1.6875 -0.23438,-0.51562 -0.9375,-1.75 l 0.75,0 q 1.09375,1.46875 1.625,2.95313 0.45312,1.28125 0.45312,2.67187 0,1.57813 -0.60937,3.0625 -0.60938,1.46875 -1.46875,2.57813 z"
       id="path4182"
       inkscape:connector-curvature="0"
       style="fill:#0000ff;fill-rule:nonzero" />
    <path
       d="m 404.22354,343.28745 -8.96875,0 0,-1.5625 8.96875,0 0,1.5625 z m 0,4.125 -8.96875,0 0,-1.54688 8.96875,0 0,1.54688 z m 8.8439,3.875 -1.54687,0 0,-13.59375 1.65625,0 0,4.84375 q 1.0625,-1.32813 2.70312,-1.32813 0.90625,0 1.71875,0.375 0.8125,0.35938 1.32813,1.03125 0.53125,0.65625 0.82812,1.59375 0.29688,0.9375 0.29688,2 0,2.53125 -1.25,3.92188 -1.25,1.375 -3,1.375 -1.75,0 -2.73438,-1.45313 l 0,1.23438 z m -0.0156,-5 q 0,1.76562 0.46875,2.5625 0.79687,1.28125 2.14062,1.28125 1.09375,0 1.89063,-0.9375 0.79687,-0.95313 0.79687,-2.84375 0,-1.92188 -0.76562,-2.84375 -0.76563,-0.92188 -1.84375,-0.92188 -1.09375,0 -1.89063,0.95313 -0.79687,0.95312 -0.79687,2.75 z"
       id="path4184"
       inkscape:connector-curvature="0"
       style="fill:#0000ff;fill-rule:nonzero" />
    <path
       d="m 537.58923,326.1942 141.22833,0 0,36.34647 -141.22833,0 z"
       id="path4186"
       inkscape:connector-curvature="0"
       style="fill:#000000;fill-opacity:0;fill-rule:nonzero" />
    <path
       d="m 555.1255,348.34995 1.65625,-0.26563 q 0.14062,1 0.76562,1.53125 0.64063,0.51563 1.78125,0.51563 1.15625,0 1.70313,-0.46875 0.5625,-0.46875 0.5625,-1.09375 0,-0.5625 -0.48438,-0.89063 -0.34375,-0.21875 -1.70312,-0.5625 -1.84375,-0.46875 -2.5625,-0.79687 -0.70313,-0.34375 -1.07813,-0.9375 -0.35937,-0.60938 -0.35937,-1.32813 0,-0.65625 0.29687,-1.21875 0.3125,-0.5625 0.82813,-0.9375 0.39062,-0.28125 1.0625,-0.48437 0.67187,-0.20313 1.4375,-0.20313 1.17187,0 2.04687,0.34375 0.875,0.32813 1.28125,0.90625 0.42188,0.5625 0.57813,1.51563 l -1.625,0.21875 q -0.10938,-0.75 -0.65625,-1.17188 -0.53125,-0.4375 -1.5,-0.4375 -1.15625,0 -1.64063,0.39063 -0.48437,0.375 -0.48437,0.875 0,0.32812 0.20312,0.59375 0.20313,0.26562 0.64063,0.4375 0.25,0.0937 1.46875,0.4375 1.76562,0.46875 2.46875,0.76562 0.70312,0.29688 1.09375,0.875 0.40625,0.57813 0.40625,1.4375 0,0.82813 -0.48438,1.57813 -0.48437,0.73437 -1.40625,1.14062 -0.92187,0.39063 -2.07812,0.39063 -1.92188,0 -2.9375,-0.79688 -1,-0.79687 -1.28125,-2.35937 z m 10.01562,-8.75 0,-1.90625 1.67188,0 0,1.90625 -1.67188,0 z m 0,11.6875 0,-9.85938 1.67188,0 0,9.85938 -1.67188,0 z m 3.83234,0.8125 1.60938,0.25 q 0.10937,0.75 0.57812,1.09375 0.60938,0.45312 1.6875,0.45312 1.17188,0 1.79688,-0.46875 0.625,-0.45312 0.85937,-1.28125 0.125,-0.51562 0.10938,-2.15625 -1.09375,1.29688 -2.71875,1.29688 -2.03125,0 -3.15625,-1.46875 -1.10938,-1.46875 -1.10938,-3.51563 0,-1.40625 0.51563,-2.59375 0.51562,-1.20312 1.48437,-1.84375 0.96875,-0.65625 2.26563,-0.65625 1.75,0 2.875,1.40625 l 0,-1.1875 1.54687,0 0,8.51563 q 0,2.3125 -0.46875,3.26562 -0.46875,0.96875 -1.48437,1.51563 -1.01563,0.5625 -2.5,0.5625 -1.76563,0 -2.85938,-0.79688 -1.07812,-0.79687 -1.03125,-2.39062 z m 1.375,-5.92188 q 0,1.95313 0.76563,2.84375 0.78125,0.89063 1.9375,0.89063 1.14062,0 1.92187,-0.89063 0.78125,-0.89062 0.78125,-2.78125 0,-1.8125 -0.8125,-2.71875 -0.79687,-0.92187 -1.92187,-0.92187 -1.10938,0 -1.89063,0.90625 -0.78125,0.89062 -0.78125,2.67187 z"
       id="path4188"
       inkscape:connector-curvature="0"
       style="fill:#ff0000;fill-rule:nonzero" />
    <path
       d="m 581.2085,360.8187 q -0.875,-1.10938 -1.48438,-2.57813 -0.59375,-1.48437 -0.59375,-3.0625 0,-1.39062 0.4375,-2.67187 0.53125,-1.48438 1.64063,-2.95313 l 0.75,0 q -0.70313,1.21875 -0.9375,1.73438 -0.35938,0.8125 -0.5625,1.6875 -0.25,1.09375 -0.25,2.20312 0,2.82813 1.75,5.64063 l -0.75,0 z m 2.09485,-2.53125 0,-8.59375 1.0625,0 0,8.59375 -1.0625,0 z m 3.06006,0 0,-1.20313 1.20312,0 0,1.20313 q 0,0.65625 -0.23437,1.0625 -0.23438,0.42187 -0.73438,0.64062 l -0.29687,-0.45312 q 0.32812,-0.14063 0.48437,-0.4375 0.15625,-0.28125 0.1875,-0.8125 l -0.60937,0 z m 6.64532,2.39062 0,-8.60937 0.95313,0 0,0.79687 q 0.34375,-0.46875 0.76562,-0.70312 0.4375,-0.23438 1.04688,-0.23438 0.79687,0 1.40625,0.40625 0.60937,0.40625 0.90625,1.15625 0.3125,0.75 0.3125,1.64063 0,0.95312 -0.34375,1.71875 -0.32813,0.76562 -0.98438,1.17187 -0.65625,0.40625 -1.375,0.40625 -0.53125,0 -0.95312,-0.21875 -0.42188,-0.23437 -0.6875,-0.5625 l 0,3.03125 -1.04688,0 z m 0.95313,-5.46875 q 0,1.20313 0.48437,1.78125 0.48438,0.5625 1.17188,0.5625 0.70312,0 1.20312,-0.59375 0.5,-0.59375 0.5,-1.84375 0,-1.1875 -0.48437,-1.76562 -0.48438,-0.59375 -1.17188,-0.59375 -0.67187,0 -1.1875,0.625 -0.51562,0.625 -0.51562,1.82812 z m 6.22955,3.07813 0,-1.20313 1.20312,0 0,1.20313 q 0,0.65625 -0.23437,1.0625 -0.23438,0.42187 -0.73438,0.64062 l -0.29687,-0.45312 q 0.32812,-0.14063 0.48437,-0.4375 0.15625,-0.28125 0.1875,-0.8125 l -0.60937,0 z m 6.64532,0 0,-6.21875 0.9375,0 0,0.875 q 0.29688,-0.46875 0.78125,-0.73438 0.48438,-0.28125 1.10938,-0.28125 0.6875,0 1.125,0.28125 0.45312,0.28125 0.625,0.79688 0.75,-1.07813 1.92187,-1.07813 0.9375,0 1.42188,0.51563 0.5,0.5 0.5,1.57812 l 0,4.26563 -1.04688,0 0,-3.92188 q 0,-0.625 -0.10937,-0.90625 -0.0937,-0.28125 -0.35938,-0.45312 -0.26562,-0.17188 -0.64062,-0.17188 -0.65625,0 -1.09375,0.4375 -0.42188,0.4375 -0.42188,1.40625 l 0,3.60938 -1.0625,0 0,-4.04688 q 0,-0.70312 -0.26562,-1.04687 -0.25,-0.35938 -0.82813,-0.35938 -0.45312,0 -0.82812,0.23438 -0.375,0.23437 -0.54688,0.6875 -0.17187,0.45312 -0.17187,1.29687 l 0,3.23438 -1.04688,0 z m 10.36042,-7.375 0,-1.21875 1.0625,0 0,1.21875 -1.0625,0 z m 0,7.375 0,-6.21875 1.0625,0 0,6.21875 -1.0625,0 z m 2.76318,0 0,-6.21875 0.9375,0 0,0.875 q 0.6875,-1.01563 1.98438,-1.01563 0.5625,0 1.03125,0.20313 0.48437,0.20312 0.71875,0.53125 0.23437,0.32812 0.32812,0.76562 0.0469,0.29688 0.0469,1.03125 l 0,3.82813 -1.04688,0 0,-3.78125 q 0,-0.65625 -0.125,-0.96875 -0.125,-0.3125 -0.4375,-0.5 -0.3125,-0.20313 -0.73437,-0.20313 -0.67188,0 -1.17188,0.4375 -0.48437,0.42188 -0.48437,1.60938 l 0,3.40625 -1.04688,0 z m 7.60449,2.53125 -0.75,0 q 1.75,-2.8125 1.75,-5.64063 0,-1.09375 -0.25,-2.1875 -0.20312,-0.875 -0.5625,-1.6875 -0.23437,-0.51562 -0.9375,-1.75 l 0.75,0 q 1.09375,1.46875 1.625,2.95313 0.45313,1.28125 0.45313,2.67187 0,1.57813 -0.60938,3.0625 -0.60937,1.46875 -1.46875,2.57813 z"
       id="path4190"
       inkscape:connector-curvature="0"
       style="fill:#ff0000;fill-rule:nonzero" />
    <path
       d="m 645.43677,343.28745 -8.96875,0 0,-1.5625 8.96875,0 0,1.5625 z m 0,4.125 -8.96875,0 0,-1.54688 8.96875,0 0,1.54688 z m 13.7345,2.65625 q -0.9375,0.79687 -1.79688,1.125 -0.85937,0.3125 -1.84375,0.3125 -1.60937,0 -2.48437,-0.78125 -0.875,-0.79688 -0.875,-2.03125 0,-0.73438 0.32812,-1.32813 0.32813,-0.59375 0.85938,-0.95312 0.53125,-0.35938 1.20312,-0.54688 0.5,-0.14062 1.48438,-0.25 2.03125,-0.25 2.98437,-0.57812 0,-0.34375 0,-0.4375 0,-1.01563 -0.46875,-1.4375 -0.64062,-0.5625 -1.90625,-0.5625 -1.17187,0 -1.73437,0.40625 -0.5625,0.40625 -0.82813,1.46875 l -1.64062,-0.23438 q 0.23437,-1.04687 0.73437,-1.6875 0.51563,-0.64062 1.46875,-0.98437 0.96875,-0.35938 2.25,-0.35938 1.26563,0 2.04688,0.29688 0.78125,0.29687 1.15625,0.75 0.375,0.45312 0.51562,1.14062 0.0937,0.42188 0.0937,1.53125 l 0,2.23438 q 0,2.32812 0.0937,2.95312 0.10938,0.60938 0.4375,1.17188 l -1.75,0 q -0.26562,-0.51563 -0.32812,-1.21875 z m -0.14063,-3.71875 q -0.90625,0.35937 -2.73437,0.625 -1.03125,0.14062 -1.45313,0.32812 -0.42187,0.1875 -0.65625,0.54688 -0.23437,0.35937 -0.23437,0.79687 0,0.67188 0.5,1.125 0.51562,0.4375 1.48437,0.4375 0.96875,0 1.71875,-0.42187 0.75,-0.4375 1.10938,-1.15625 0.26562,-0.57813 0.26562,-1.67188 l 0,-0.60937 z"
       id="path4192"
       inkscape:connector-curvature="0"
       style="fill:#ff0000;fill-rule:nonzero" />
  </g>
</svg>
