<?xml version="1.0" encoding="UTF-8" standalone="no"?>
<svg
   xmlns:dc="http://purl.org/dc/elements/1.1/"
   xmlns:cc="http://creativecommons.org/ns#"
   xmlns:rdf="http://www.w3.org/1999/02/22-rdf-syntax-ns#"
   xmlns:svg="http://www.w3.org/2000/svg"
   xmlns="http://www.w3.org/2000/svg"
   xmlns:sodipodi="http://sodipodi.sourceforge.net/DTD/sodipodi-0.dtd"
   xmlns:inkscape="http://www.inkscape.org/namespaces/inkscape"
   version="1.1"
   viewBox="0 0 655.84857 267.93695"
   stroke-miterlimit="10"
   id="svg2"
   inkscape:version="0.48.4 r9939"
   width="100%"
   height="100%"
   sodipodi:docname="rule_2_1.svg"
   style="fill:none;stroke:none">
  <metadata
     id="metadata331">
    <rdf:RDF>
      <cc:Work
         rdf:about="">
        <dc:format>image/svg+xml</dc:format>
        <dc:type
           rdf:resource="http://purl.org/dc/dcmitype/StillImage" />
        <dc:title></dc:title>
      </cc:Work>
    </rdf:RDF>
  </metadata>
  <defs
     id="defs329">
    <clipPath
       clipPathUnits="userSpaceOnUse"
       id="clipPath3314">
      <rect
         style="fill:none;stroke:#000000;stroke-width:0.70234537;stroke-opacity:1"
         id="rect3316"
         width="655.84857"
         height="268.00949"
         x="152.01219"
         y="272.06305" />
    </clipPath>
  </defs>
  <sodipodi:namedview
     pagecolor="#ffffff"
     bordercolor="#666666"
     borderopacity="1"
     objecttolerance="10"
     gridtolerance="10"
     guidetolerance="10"
     inkscape:pageopacity="0"
     inkscape:pageshadow="2"
     inkscape:window-width="1280"
     inkscape:window-height="744"
     id="namedview327"
     showgrid="false"
     inkscape:zoom="0.87407407"
     inkscape:cx="24.319366"
     inkscape:cy="197.55971"
     inkscape:window-x="-4"
     inkscape:window-y="-4"
     inkscape:window-maximized="1"
     inkscape:current-layer="svg2"
     fit-margin-top="0"
     fit-margin-left="0"
     fit-margin-right="0"
     fit-margin-bottom="0" />
  <clipPath
     id="g2c038f3ed_033.0">
    <path
       d="M 0,0 960,0 960,540 0,540 0,0 z"
       clip-rule="nonzero"
       id="path5"
       inkscape:connector-curvature="0" />
  </clipPath>
  <g
     clip-path="url(#clipPath3314)"
     id="g7"
     transform="translate(-152.01219,-272.06305)">
    <path
       d="m 0,0 960,0 0,540 -960,0 z"
       id="path9"
       inkscape:connector-curvature="0"
       style="fill:#ffffff;fill-rule:nonzero" />
    <path
       d="m 154.07217,29.63517 0,104.79266"
       id="path11"
       inkscape:connector-curvature="0"
       style="stroke:#000000;stroke-width:1;stroke-linecap:butt" />
    <path
       d="m 154.07217,203.59842 0,64.19424"
       id="path13"
       inkscape:connector-curvature="0"
       style="stroke:#000000;stroke-width:1;stroke-linecap:butt" />
    <path
       d="m 225.18242,29.63517 0,104.79266"
       id="path15"
       inkscape:connector-curvature="0"
       style="stroke:#000000;stroke-width:4;stroke-linecap:butt" />
    <path
       d="m 225.18242,203.59842 0,64.19424"
       id="path17"
       inkscape:connector-curvature="0"
       style="stroke:#000000;stroke-width:4;stroke-linecap:butt" />
    <path
       d="m 280.36615,29.63517 0,42.593178"
       id="path19"
       inkscape:connector-curvature="0"
       style="stroke:#000000;stroke-width:1;stroke-linecap:butt" />
    <path
       d="m 359.23752,29.63517 0,104.79266"
       id="path21"
       inkscape:connector-curvature="0"
       style="stroke:#ff00ff;stroke-width:4;stroke-linecap:butt" />
    <path
       d="m 359.23752,134.42783 0,69.17059"
       id="path23"
       inkscape:connector-curvature="0"
       style="stroke:#ff00ff;stroke-width:4;stroke-linecap:butt;stroke-dasharray:16, 12" />
    <path
       d="m 359.23752,203.59842 0,64.19424"
       id="path25"
       inkscape:connector-curvature="0"
       style="stroke:#ff00ff;stroke-width:4;stroke-linecap:butt" />
    <path
       d="m 515.8884,29.63517 0,42.593178"
       id="path27"
       inkscape:connector-curvature="0"
       style="stroke:#000000;stroke-width:1;stroke-linecap:butt" />
    <path
       d="m 515.8884,203.59842 0,64.19424"
       id="path29"
       inkscape:connector-curvature="0"
       style="stroke:#ff00ff;stroke-width:4;stroke-linecap:butt" />
    <path
       d="m 662.15356,29.63517 0,104.79266"
       id="path31"
       inkscape:connector-curvature="0"
       style="stroke:#ff00ff;stroke-width:4;stroke-linecap:butt" />
    <path
       d="m 662.15356,134.42783 0,69.17059"
       id="path33"
       inkscape:connector-curvature="0"
       style="stroke:#ff00ff;stroke-width:4;stroke-linecap:butt;stroke-dasharray:16, 12" />
    <path
       d="m 662.15356,203.59842 0,64.19424"
       id="path35"
       inkscape:connector-curvature="0"
       style="stroke:#ff00ff;stroke-width:4;stroke-linecap:butt" />
    <path
       d="m 749.7047,29.63517 0,42.593178"
       id="path37"
       inkscape:connector-curvature="0"
       style="stroke:#000000;stroke-width:1;stroke-linecap:butt" />
    <path
       d="m 805.9252,29.63517 0,104.79266"
       id="path39"
       inkscape:connector-curvature="0"
       style="stroke:#000000;stroke-width:1;stroke-linecap:butt" />
    <path
       d="m 805.9252,203.59842 0,64.19424"
       id="path41"
       inkscape:connector-curvature="0"
       style="stroke:#000000;stroke-width:1;stroke-linecap:butt" />
    <path
       d="m 153.57349,30.133858 652.8504,0"
       id="path43"
       inkscape:connector-curvature="0"
       style="stroke:#000000;stroke-width:1;stroke-linecap:butt" />
    <path
       d="m 153.57349,71.72966 652.8504,0"
       id="path45"
       inkscape:connector-curvature="0"
       style="stroke:#000000;stroke-width:1;stroke-linecap:butt" />
    <path
       d="m 153.57349,134.92651 652.8504,0"
       id="path47"
       inkscape:connector-curvature="0"
       style="stroke:#000000;stroke-width:1;stroke-linecap:butt" />
    <path
       d="m 153.57349,204.0971 652.8504,0"
       id="path49"
       inkscape:connector-curvature="0"
       style="stroke:#000000;stroke-width:1;stroke-linecap:butt" />
    <path
       d="m 153.57349,267.29398 652.8504,0"
       id="path51"
       inkscape:connector-curvature="0"
       style="stroke:#000000;stroke-width:1;stroke-linecap:butt" />
    <path
       d="m 194.1372,56.398632 q 1.26562,0.859375 2.3125,1.265625 l -0.53125,1.25 q -1.45313,-0.53125 -2.92188,-1.671875 -1.5,0.84375 -3.32812,0.84375 -1.84375,0 -3.35938,-0.890625 -1.5,-0.890625 -2.3125,-2.5 -0.8125,-1.625 -0.8125,-3.640625 0,-2.015625 0.8125,-3.65625 0.82813,-1.65625 2.32813,-2.515625 1.51562,-0.875 3.375,-0.875 1.89062,0 3.39062,0.90625 1.51563,0.890625 2.3125,2.5 0.79688,1.609375 0.79688,3.625 0,1.6875 -0.51563,3.03125 -0.51562,1.328125 -1.54687,2.328125 z m -3.95313,-2.296875 q 1.5625,0.421875 2.5625,1.296875 1.59375,-1.453125 1.59375,-4.359375 0,-1.65625 -0.5625,-2.875 -0.5625,-1.234375 -1.64062,-1.921875 -1.07813,-0.6875 -2.42188,-0.6875 -2.01562,0 -3.34375,1.390625 -1.32812,1.375 -1.32812,4.109375 0,2.65625 1.3125,4.078125 1.3125,1.40625 3.35937,1.40625 0.95313,0 1.8125,-0.359375 -0.84375,-0.546875 -1.78125,-0.78125 l 0.4375,-1.296875 z"
       id="path53"
       inkscape:connector-curvature="0"
       style="fill:#000000;fill-rule:nonzero" />
    <path
       d="m 251.65915,61.633007 0,-4.828125 q -0.39063,0.546875 -1.09375,0.90625 -0.6875,0.359375 -1.48438,0.359375 -1.75,0 -3.01562,-1.390625 -1.26563,-1.40625 -1.26563,-3.84375 0,-1.484375 0.51563,-2.65625 0.51562,-1.1875 1.48437,-1.796875 0.98438,-0.609375 2.15625,-0.609375 1.82813,0 2.875,1.546875 l 0,-1.328125 1.5,0 0,13.640625 -1.67187,0 z m -5.14063,-8.734375 q 0,1.90625 0.79688,2.859375 0.79687,0.9375 1.90625,0.9375 1.0625,0 1.82812,-0.890625 0.78125,-0.90625 0.78125,-2.765625 0,-1.953125 -0.8125,-2.953125 -0.8125,-1 -1.90625,-1 -1.09375,0 -1.84375,0.9375 -0.75,0.921875 -0.75,2.875 z"
       id="path55"
       inkscape:connector-curvature="0"
       style="fill:#000000;fill-rule:nonzero" />
    <path
       d="m 258.97235,64.85176 -1.04688,0 0,-6.718754 q -0.39062,0.359375 -1.01562,0.734375 -0.60938,0.359375 -1.09373,0.53125 l 0,-1.015625 q 0.87498,-0.421875 1.53123,-1 0.67187,-0.59375 0.95312,-1.15625 l 0.67188,0 0,8.625004 z"
       id="path57"
       inkscape:connector-curvature="0"
       style="fill:#000000;fill-rule:nonzero" />
    <path
       d="m 303.36435,57.851757 0,-1.90625 1.90625,0 0,1.90625 -1.90625,0 z m 6.32812,0 0,-1.90625 1.90625,0 0,1.90625 -1.90625,0 z m 6.32813,0 0,-1.90625 1.92187,0 0,1.90625 -1.92187,0 z m 6,0 0,-1.90625 1.90625,0 0,1.90625 -1.90625,0 z m 6.32812,0 0,-1.90625 1.90625,0 0,1.90625 -1.90625,0 z m 6.32813,0 0,-1.90625 1.92187,0 0,1.90625 -1.92187,0 z"
       id="path59"
       inkscape:connector-curvature="0"
       style="fill:#000000;fill-rule:nonzero" />
    <path
       d="m 438.5248,61.633007 0,-4.828125 q -0.39062,0.546875 -1.09375,0.90625 -0.6875,0.359375 -1.48437,0.359375 -1.75,0 -3.01563,-1.390625 -1.26562,-1.40625 -1.26562,-3.84375 0,-1.484375 0.51562,-2.65625 0.51563,-1.1875 1.48438,-1.796875 0.98437,-0.609375 2.15625,-0.609375 1.82812,0 2.875,1.546875 l 0,-1.328125 1.5,0 0,13.640625 -1.67188,0 z m -5.14062,-8.734375 q 0,1.90625 0.79687,2.859375 0.79688,0.9375 1.90625,0.9375 1.0625,0 1.82813,-0.890625 0.78125,-0.90625 0.78125,-2.765625 0,-1.953125 -0.8125,-2.953125 -0.8125,-1 -1.90625,-1 -1.09375,0 -1.84375,0.9375 -0.75,0.921875 -0.75,2.875 z"
       id="path61"
       inkscape:connector-curvature="0"
       style="fill:#000000;fill-rule:nonzero" />
    <path
       d="m 442.16614,57.476757 0,-1.21875 1.0625,0 0,1.21875 -1.0625,0 z m 0,7.375004 0,-6.218754 1.0625,0 0,6.218754 -1.0625,0 z"
       id="path63"
       inkscape:connector-curvature="0"
       style="fill:#000000;fill-rule:nonzero" />
    <path
       d="m 579.4372,61.633007 0,-4.828125 q -0.39063,0.546875 -1.09375,0.90625 -0.6875,0.359375 -1.48438,0.359375 -1.75,0 -3.01562,-1.390625 -1.26563,-1.40625 -1.26563,-3.84375 0,-1.484375 0.51563,-2.65625 0.51562,-1.1875 1.48437,-1.796875 0.98438,-0.609375 2.15625,-0.609375 1.82813,0 2.875,1.546875 l 0,-1.328125 1.5,0 0,13.640625 -1.67187,0 z m -5.14063,-8.734375 q 0,1.90625 0.79688,2.859375 0.79687,0.9375 1.90625,0.9375 1.0625,0 1.82812,-0.890625 0.78125,-0.90625 0.78125,-2.765625 0,-1.953125 -0.8125,-2.953125 -0.8125,-1 -1.90625,-1 -1.09375,0 -1.84375,0.9375 -0.75,0.921875 -0.75,2.875 z"
       id="path65"
       inkscape:connector-curvature="0"
       style="fill:#000000;fill-rule:nonzero" />
    <path
       d="m 583.07855,57.476757 0,-1.21875 1.0625,0 0,1.21875 -1.0625,0 z m 0,7.375004 0,-6.218754 1.0625,0 0,6.218754 -1.0625,0 z m 8.42175,-1.390629 0,-2.359375 -2.32812,0 0,-0.984375 2.32812,0 0,-2.328125 1,0 0,2.328125 2.34375,0 0,0.984375 -2.34375,0 0,2.359375 -1,0 z m 12.18744,1.390629 -1.04687,0 0,-6.718754 q -0.39063,0.359375 -1.01563,0.734375 -0.60937,0.359375 -1.09375,0.53125 l 0,-1.015625 q 0.875,-0.421875 1.53125,-1 0.67188,-0.59375 0.95313,-1.15625 l 0.67187,0 0,8.625004 z"
       id="path67"
       inkscape:connector-curvature="0"
       style="fill:#000000;fill-rule:nonzero" />
    <path
       d="m 689.49164,57.851757 0,-1.90625 1.90625,0 0,1.90625 -1.90625,0 z m 6.32812,0 0,-1.90625 1.90625,0 0,1.90625 -1.90625,0 z m 6.32813,0 0,-1.90625 1.92187,0 0,1.90625 -1.92187,0 z m 6,0 0,-1.90625 1.90625,0 0,1.90625 -1.90625,0 z m 6.32812,0 0,-1.90625 1.90625,0 0,1.90625 -1.90625,0 z m 6.32813,0 0,-1.90625 1.92187,0 0,1.90625 -1.92187,0 z"
       id="path69"
       inkscape:connector-curvature="0"
       style="fill:#000000;fill-rule:nonzero" />
    <path
       d="m 776.01056,61.633007 0,-4.828125 q -0.39062,0.546875 -1.09375,0.90625 -0.6875,0.359375 -1.48437,0.359375 -1.75,0 -3.01563,-1.390625 -1.26562,-1.40625 -1.26562,-3.84375 0,-1.484375 0.51562,-2.65625 0.51563,-1.1875 1.48438,-1.796875 0.98437,-0.609375 2.15625,-0.609375 1.82812,0 2.875,1.546875 l 0,-1.328125 1.5,0 0,13.640625 -1.67188,0 z m -5.14062,-8.734375 q 0,1.90625 0.79687,2.859375 0.79688,0.9375 1.90625,0.9375 1.0625,0 1.82813,-0.890625 0.78125,-0.90625 0.78125,-2.765625 0,-1.953125 -0.8125,-2.953125 -0.8125,-1 -1.90625,-1 -1.09375,0 -1.84375,0.9375 -0.75,0.921875 -0.75,2.875 z"
       id="path71"
       inkscape:connector-curvature="0"
       style="fill:#000000;fill-rule:nonzero" />
    <path
       d="m 778.9019,64.85176 3.32812,-4.484379 -2.92187,-4.109375 1.34375,0 1.5625,2.203125 q 0.48437,0.6875 0.6875,1.0625 0.29687,-0.46875 0.6875,-0.984375 l 1.71875,-2.28125 1.23437,0 -3.01562,4.046875 3.25,4.546879 -1.40625,0 -2.15625,-3.062504 q -0.1875,-0.265625 -0.375,-0.578125 -0.28125,0.46875 -0.40625,0.640625 l -2.15625,3.000004 -1.375,0 z"
       id="path73"
       inkscape:connector-curvature="0"
       style="fill:#000000;fill-rule:nonzero" />
    <path
       d="m 168.71788,99.248085 0,-13.59375 1.79687,0 0,11.984375 6.70313,0 0,1.609375 -8.5,0 z m 16.98509,-3.171875 1.71875,0.21875 q -0.40625,1.5 -1.51562,2.34375 -1.09375,0.828125 -2.8125,0.828125 -2.15625,0 -3.42188,-1.328125 -1.26562,-1.328125 -1.26562,-3.734375 0,-2.484375 1.26562,-3.859375 1.28125,-1.375 3.32813,-1.375 1.98437,0 3.23437,1.34375 1.25,1.34375 1.25,3.796875 0,0.140625 -0.0156,0.4375 l -7.34375,0 q 0.0937,1.625 0.92187,2.484375 0.82813,0.859375 2.0625,0.859375 0.90625,0 1.54688,-0.46875 0.65625,-0.484375 1.04687,-1.546875 z m -5.48437,-2.703125 5.5,0 q -0.10938,-1.234375 -0.625,-1.859375 -0.79688,-0.96875 -2.07813,-0.96875 -1.14062,0 -1.9375,0.78125 -0.78125,0.765625 -0.85937,2.046875 z m 11.84446,5.875 -3.75,-9.859375 1.76563,0 2.125,5.90625 q 0.34375,0.953125 0.625,1.984375 0.21875,-0.78125 0.625,-1.875 l 2.1875,-6.015625 1.71875,0 -3.73438,9.859375 -1.5625,0 z m 13.34375,-3.171875 1.71875,0.21875 q -0.40625,1.5 -1.51562,2.34375 -1.09375,0.828125 -2.8125,0.828125 -2.15625,0 -3.42188,-1.328125 -1.26562,-1.328125 -1.26562,-3.734375 0,-2.484375 1.26562,-3.859375 1.28125,-1.375 3.32813,-1.375 1.98437,0 3.23437,1.34375 1.25,1.34375 1.25,3.796875 0,0.140625 -0.0156,0.4375 l -7.34375,0 q 0.0937,1.625 0.92187,2.484375 0.82813,0.859375 2.0625,0.859375 0.90625,0 1.54688,-0.46875 0.65625,-0.484375 1.04687,-1.546875 z m -5.48437,-2.703125 5.5,0 q -0.10938,-1.234375 -0.625,-1.859375 -0.79688,-0.96875 -2.07813,-0.96875 -1.14062,0 -1.9375,0.78125 -0.78125,0.765625 -0.85937,2.046875 z m 9.07884,5.875 0,-13.59375 1.67188,0 0,13.59375 -1.67188,0 z"
       id="path75"
       inkscape:connector-curvature="0"
       style="fill:#000000;fill-rule:nonzero" />
    <path
       d="m 188.77364,121.24809 0,-13.59375 1.67187,0 0,13.59375 -1.67187,0 z"
       id="path77"
       inkscape:connector-curvature="0"
       style="fill:#000000;fill-rule:nonzero" />
    <path
       d="m 275.77246,110.24809 0,-1.90625 1.90625,0 0,1.90625 -1.90625,0 z m 6.32813,0 0,-1.90625 1.90625,0 0,1.90625 -1.90625,0 z m 6.32812,0 0,-1.90625 1.92188,0 0,1.90625 -1.92188,0 z m 6,0 0,-1.90625 1.90625,0 0,1.90625 -1.90625,0 z m 6.32813,0 0,-1.90625 1.90625,0 0,1.90625 -1.90625,0 z m 6.32812,0 0,-1.90625 1.92188,0 0,1.90625 -1.92188,0 z"
       id="path79"
       inkscape:connector-curvature="0"
       style="fill:#000000;fill-rule:nonzero" />
    <path
       d="m 374.82898,107.31059 1.65625,-0.26563 q 0.14062,1 0.76562,1.53125 0.64063,0.51563 1.78125,0.51563 1.15625,0 1.70313,-0.46875 0.5625,-0.46875 0.5625,-1.09375 0,-0.5625 -0.48438,-0.89063 -0.34375,-0.21875 -1.70312,-0.5625 -1.84375,-0.46875 -2.5625,-0.79687 -0.70313,-0.34375 -1.07813,-0.9375 -0.35937,-0.60938 -0.35937,-1.32813 0,-0.65625 0.29687,-1.21875 0.3125,-0.5625 0.82813,-0.9375 0.39062,-0.28125 1.0625,-0.48437 0.67187,-0.20313 1.4375,-0.20313 1.17187,0 2.04687,0.34375 0.875,0.32813 1.28125,0.90625 0.42188,0.5625 0.57813,1.51563 l -1.625,0.21875 q -0.10938,-0.75 -0.65625,-1.17188 -0.53125,-0.4375 -1.5,-0.4375 -1.15625,0 -1.64063,0.39063 -0.48437,0.375 -0.48437,0.875 0,0.32812 0.20312,0.59375 0.20313,0.26562 0.64063,0.4375 0.25,0.0937 1.46875,0.4375 1.76562,0.46875 2.46875,0.76562 0.70312,0.29688 1.09375,0.875 0.40625,0.57813 0.40625,1.4375 0,0.82813 -0.48438,1.57813 -0.48437,0.73437 -1.40625,1.14062 -0.92187,0.39063 -2.07812,0.39063 -1.92188,0 -2.9375,-0.79688 -1,-0.79687 -1.28125,-2.35937 z m 16.75,-0.23438 1.71875,0.21875 q -0.40625,1.5 -1.51563,2.34375 -1.09375,0.82813 -2.8125,0.82813 -2.15625,0 -3.42187,-1.32813 -1.26563,-1.32812 -1.26563,-3.73437 0,-2.48438 1.26563,-3.85938 1.28125,-1.375 3.32812,-1.375 1.98438,0 3.23438,1.34375 1.25,1.34375 1.25,3.79688 0,0.14062 -0.0156,0.4375 l -7.34375,0 q 0.0937,1.625 0.92188,2.48437 0.82812,0.85938 2.0625,0.85938 0.90625,0 1.54687,-0.46875 0.65625,-0.48438 1.04688,-1.54688 z m -5.48438,-2.70312 5.5,0 q -0.10937,-1.23438 -0.625,-1.85938 -0.79687,-0.96875 -2.07812,-0.96875 -1.14063,0 -1.9375,0.78125 -0.78125,0.76563 -0.85938,2.04688 z m 8.81321,6.6875 1.60937,0.25 q 0.10938,0.75 0.57813,1.09375 0.60937,0.45312 1.6875,0.45312 1.17187,0 1.79687,-0.46875 0.625,-0.45312 0.85938,-1.28125 0.125,-0.51562 0.10937,-2.15625 -1.09375,1.29688 -2.71875,1.29688 -2.03125,0 -3.15625,-1.46875 -1.10937,-1.46875 -1.10937,-3.51563 0,-1.40625 0.51562,-2.59375 0.51563,-1.20312 1.48438,-1.84375 0.96875,-0.65625 2.26562,-0.65625 1.75,0 2.875,1.40625 l 0,-1.1875 1.54688,0 0,8.51563 q 0,2.3125 -0.46875,3.26562 -0.46875,0.96875 -1.48438,1.51563 -1.01562,0.5625 -2.5,0.5625 -1.76562,0 -2.85937,-0.79688 -1.07813,-0.79687 -1.03125,-2.39062 z m 1.375,-5.92188 q 0,1.95313 0.76562,2.84375 0.78125,0.89063 1.9375,0.89063 1.14063,0 1.92188,-0.89063 0.78125,-0.89062 0.78125,-2.78125 0,-1.8125 -0.8125,-2.71875 -0.79688,-0.92187 -1.92188,-0.92187 -1.10937,0 -1.89062,0.90625 -0.78125,0.89062 -0.78125,2.67187 z"
       id="path81"
       inkscape:connector-curvature="0"
       style="fill:#000000;fill-rule:nonzero" />
    <path
       d="m 407.1429,119.77934 q -0.875,-1.10938 -1.48438,-2.57813 -0.59375,-1.48437 -0.59375,-3.0625 0,-1.39062 0.4375,-2.67187 0.53125,-1.48438 1.64063,-2.95313 l 0.75,0 q -0.70313,1.21875 -0.9375,1.73438 -0.35938,0.8125 -0.5625,1.6875 -0.25,1.09375 -0.25,2.20312 0,2.82813 1.75,5.64063 l -0.75,0 z m 2.09485,-2.53125 0,-8.59375 1.0625,0 0,8.59375 -1.0625,0 z m 3.06003,0 0,-1.20313 1.20312,0 0,1.20313 q 0,0.65625 -0.23437,1.0625 -0.23438,0.42187 -0.73438,0.64062 l -0.29687,-0.45312 q 0.32812,-0.14063 0.48437,-0.4375 0.15625,-0.28125 0.1875,-0.8125 l -0.60937,0 z m 6.64535,2.39062 0,-8.60937 0.95313,0 0,0.79687 q 0.34375,-0.46875 0.76562,-0.70312 0.4375,-0.23438 1.04688,-0.23438 0.79687,0 1.40625,0.40625 0.60937,0.40625 0.90625,1.15625 0.3125,0.75 0.3125,1.64063 0,0.95312 -0.34375,1.71875 -0.32813,0.76562 -0.98438,1.17187 -0.65625,0.40625 -1.375,0.40625 -0.53125,0 -0.95312,-0.21875 -0.42188,-0.23437 -0.6875,-0.5625 l 0,3.03125 -1.04688,0 z m 0.95313,-5.46875 q 0,1.20313 0.48437,1.78125 0.48438,0.5625 1.17188,0.5625 0.70312,0 1.20312,-0.59375 0.5,-0.59375 0.5,-1.84375 0,-1.1875 -0.48437,-1.76562 -0.48438,-0.59375 -1.17188,-0.59375 -0.67187,0 -1.1875,0.625 -0.51562,0.625 -0.51562,1.82812 z m 6.65139,5.60938 -0.75,0 q 1.75,-2.8125 1.75,-5.64063 0,-1.09375 -0.25,-2.1875 -0.20312,-0.875 -0.5625,-1.6875 -0.23437,-0.51562 -0.9375,-1.75 l 0.75,0 q 1.09375,1.46875 1.625,2.95313 0.45313,1.28125 0.45313,2.67187 0,1.57813 -0.60938,3.0625 -0.60937,1.46875 -1.46875,2.57813 z"
       id="path83"
       inkscape:connector-curvature="0"
       style="fill:#000000;fill-rule:nonzero" />
    <path
       d="m 444.4196,102.24809 -8.96875,0 0,-1.5625 8.96875,0 0,1.5625 z m 0,4.125 -8.96875,0 0,-1.54688 8.96875,0 0,1.54688 z m 7.34387,7.65625 0,-17.375005 3.67188,0 0,1.375 -2.01563,0 0,14.609375 2.01563,0 0,1.39063 -3.67188,0 z"
       id="path85"
       inkscape:connector-curvature="0"
       style="fill:#000000;fill-rule:nonzero" />
    <path
       d="m 456.8999,110.24809 0,-9.85938 1.5,0 0,1.39063 q 0.45312,-0.71875 1.21875,-1.15625 0.78125,-0.45313 1.76562,-0.45313 1.09375,0 1.79688,0.45313 0.70312,0.45312 0.98437,1.28125 1.17188,-1.73438 3.04688,-1.73438 1.46875,0 2.25,0.8125 0.79687,0.8125 0.79687,2.5 l 0,6.76563 -1.67187,0 0,-6.20313 q 0,-1 -0.15625,-1.4375 -0.15625,-0.45312 -0.59375,-0.71875 -0.42188,-0.26562 -1,-0.26562 -1.03125,0 -1.71875,0.6875 -0.6875,0.6875 -0.6875,2.21875 l 0,5.71875 -1.67188,0 0,-6.40625 q 0,-1.10938 -0.40625,-1.65625 -0.40625,-0.5625 -1.34375,-0.5625 -0.70312,0 -1.3125,0.375 -0.59375,0.35937 -0.85937,1.07812 -0.26563,0.71875 -0.26563,2.0625 l 0,5.10938 -1.67187,0 z m 21.9783,-1.21875 q -0.9375,0.79687 -1.79687,1.125 -0.85938,0.3125 -1.84375,0.3125 -1.60938,0 -2.48438,-0.78125 -0.875,-0.79688 -0.875,-2.03125 0,-0.73438 0.32813,-1.32813 0.32812,-0.59375 0.85937,-0.95312 0.53125,-0.35938 1.20313,-0.54688 0.5,-0.14062 1.48437,-0.25 2.03125,-0.25 2.98438,-0.57812 0,-0.34375 0,-0.4375 0,-1.01563 -0.46875,-1.4375 -0.64063,-0.5625 -1.90625,-0.5625 -1.17188,0 -1.73438,0.40625 -0.5625,0.40625 -0.82812,1.46875 l -1.64063,-0.23438 q 0.23438,-1.04687 0.73438,-1.6875 0.51562,-0.64062 1.46875,-0.98437 0.96875,-0.35938 2.25,-0.35938 1.26562,0 2.04687,0.29688 0.78125,0.29687 1.15625,0.75 0.375,0.45312 0.51563,1.14062 0.0937,0.42188 0.0937,1.53125 l 0,2.23438 q 0,2.32812 0.0937,2.95312 0.10937,0.60938 0.4375,1.17188 l -1.75,0 q -0.26563,-0.51563 -0.32813,-1.21875 z m -0.14062,-3.71875 q -0.90625,0.35937 -2.73438,0.625 -1.03125,0.14062 -1.45312,0.32812 -0.42188,0.1875 -0.65625,0.54688 -0.23438,0.35937 -0.23438,0.79687 0,0.67188 0.5,1.125 0.51563,0.4375 1.48438,0.4375 0.96875,0 1.71875,-0.42187 0.75,-0.4375 1.10937,-1.15625 0.26563,-0.57813 0.26563,-1.67188 l 0,-0.60937 z m 2.96945,4.9375 3.59375,-5.125 -3.32813,-4.73438 2.09375,0 1.51563,2.3125 q 0.42187,0.65625 0.67187,1.10938 0.42188,-0.60938 0.76563,-1.09375 l 1.65625,-2.32813 1.98437,0 -3.39062,4.64063 3.65625,5.21875 -2.04688,0 -2.03125,-3.0625 -0.53125,-0.82813 -2.59375,3.89063 -2.01562,0 z m 24.40207,-8 -8.96875,0 0,-1.5625 8.96875,0 0,1.5625 z m 0,4.125 -8.96875,0 0,-1.54688 8.96875,0 0,1.54688 z m 13.57828,7.65625 0,-4.82813 q -0.39063,0.54688 -1.09375,0.90625 -0.6875,0.35938 -1.48438,0.35938 -1.75,0 -3.01562,-1.39063 -1.26563,-1.40625 -1.26563,-3.84375 0,-1.48437 0.51563,-2.65625 0.51562,-1.1875 1.48437,-1.79687 0.98438,-0.60938 2.15625,-0.60938 1.82813,0 2.875,1.54688 l 0,-1.32813 1.5,0 0,13.64063 -1.67187,0 z m -5.14063,-8.73438 q 0,1.90625 0.79688,2.85938 0.79687,0.9375 1.90625,0.9375 1.0625,0 1.82812,-0.89063 0.78125,-0.90625 0.78125,-2.76562 0,-1.95313 -0.8125,-2.95313 -0.8125,-1 -1.90625,-1 -1.09375,0 -1.84375,0.9375 -0.75,0.92188 -0.75,2.875 z"
       id="path87"
       inkscape:connector-curvature="0"
       style="fill:#0000ff;fill-rule:nonzero" />
    <path
       d="m 523.3287,109.87309 0,-1.21875 1.0625,0 0,1.21875 -1.0625,0 z m 0,7.375 0,-6.21875 1.0625,0 0,6.21875 -1.0625,0 z m 8.42181,-1.39063 0,-2.35937 -2.32812,0 0,-0.98438 2.32812,0 0,-2.32812 1,0 0,2.32812 2.34375,0 0,0.98438 -2.34375,0 0,2.35937 -1,0 z m 12.18744,1.39063 -1.04687,0 0,-6.71875 q -0.39063,0.35937 -1.01563,0.73437 -0.60937,0.35938 -1.09375,0.53125 l 0,-1.01562 q 0.875,-0.42188 1.53125,-1 0.67188,-0.59375 0.95313,-1.15625 l 0.67187,0 0,8.625 z"
       id="path89"
       inkscape:connector-curvature="0"
       style="fill:#0000ff;fill-rule:nonzero" />
    <path
       d="m 548.07367,110.24809 0,-1.90625 1.90625,0 0,1.90625 q 0,1.04687 -0.375,1.6875 -0.375,0.65625 -1.17188,1 l -0.46875,-0.71875 q 0.53125,-0.21875 0.78125,-0.67188 0.25,-0.45312 0.28125,-1.29687 l -0.95312,0 z"
       id="path91"
       inkscape:connector-curvature="0"
       style="fill:#000000;fill-rule:nonzero" />
    <path
       d="m 558.0028,110.24809 0,-9.85938 1.5,0 0,1.39063 q 0.45312,-0.71875 1.21875,-1.15625 0.78125,-0.45313 1.76562,-0.45313 1.09375,0 1.79688,0.45313 0.70312,0.45312 0.98437,1.28125 1.17188,-1.73438 3.04688,-1.73438 1.46875,0 2.25,0.8125 0.79687,0.8125 0.79687,2.5 l 0,6.76563 -1.67187,0 0,-6.20313 q 0,-1 -0.15625,-1.4375 -0.15625,-0.45312 -0.59375,-0.71875 -0.42188,-0.26562 -1,-0.26562 -1.03125,0 -1.71875,0.6875 -0.6875,0.6875 -0.6875,2.21875 l 0,5.71875 -1.67188,0 0,-6.40625 q 0,-1.10938 -0.40625,-1.65625 -0.40625,-0.5625 -1.34375,-0.5625 -0.70312,0 -1.3125,0.375 -0.59375,0.35937 -0.85937,1.07812 -0.26563,0.71875 -0.26563,2.0625 l 0,5.10938 -1.67187,0 z m 15.5564,-11.687505 0,-1.90625 1.67187,0 0,1.90625 -1.67187,0 z m 0,11.687505 0,-9.85938 1.67187,0 0,9.85938 -1.67187,0 z m 4.12921,0 0,-9.85938 1.5,0 0,1.40625 q 1.09375,-1.625 3.14062,-1.625 0.89063,0 1.64063,0.32813 0.75,0.3125 1.10937,0.84375 0.375,0.51562 0.53125,1.21875 0.0937,0.46875 0.0937,1.625 l 0,6.0625 -1.67187,0 0,-6 q 0,-1.01563 -0.20313,-1.51563 -0.1875,-0.51562 -0.6875,-0.8125 -0.5,-0.29687 -1.17187,-0.29687 -1.0625,0 -1.84375,0.67187 -0.76563,0.67188 -0.76563,2.57813 l 0,5.375 -1.67187,0 z m 24.34027,-8 -8.96875,0 0,-1.5625 8.96875,0 0,1.5625 z m 0,4.125 -8.96875,0 0,-1.54688 8.96875,0 0,1.54688 z m 13.57831,7.65625 0,-4.82813 q -0.39069,0.54688 -1.09381,0.90625 -0.6875,0.35938 -1.48438,0.35938 -1.75,0 -3.01562,-1.39063 -1.26563,-1.40625 -1.26563,-3.84375 0,-1.48437 0.51563,-2.65625 0.51562,-1.1875 1.48437,-1.79687 0.98438,-0.60938 2.15625,-0.60938 1.82813,0 2.87506,1.54688 l 0,-1.32813 1.5,0 0,13.64063 -1.67187,0 z m -5.14069,-8.73438 q 0,1.90625 0.79688,2.85938 0.79687,0.9375 1.90625,0.9375 1.0625,0 1.82812,-0.89063 0.78131,-0.90625 0.78131,-2.76562 0,-1.95313 -0.81256,-2.95313 -0.8125,-1 -1.90625,-1 -1.09375,0 -1.84375,0.9375 -0.75,0.92188 -0.75,2.875 z"
       id="path93"
       inkscape:connector-curvature="0"
       style="fill:#ff0000;fill-rule:nonzero" />
    <path
       d="m 619.2483,109.87309 0,-1.21875 1.0625,0 0,1.21875 -1.0625,0 z m 0,7.375 0,-6.21875 1.0625,0 0,6.21875 -1.0625,0 z"
       id="path95"
       inkscape:connector-curvature="0"
       style="fill:#ff0000;fill-rule:nonzero" />
    <path
       d="m 622.9021,110.24809 0,-1.90625 1.90625,0 0,1.90625 q 0,1.04687 -0.375,1.6875 -0.375,0.65625 -1.17187,1 l -0.46875,-0.71875 q 0.53125,-0.21875 0.78125,-0.67188 0.25,-0.45312 0.28125,-1.29687 l -0.95313,0 z m 18.24158,-1.60938 0,1.60938 -8.98438,0 q -0.0156,-0.60938 0.1875,-1.15625 0.34375,-0.92188 1.09375,-1.8125 0.76563,-0.89063 2.1875,-2.0625 2.21875,-1.8125 3,-2.875 0.78125,-1.0625 0.78125,-2.01563 0,-0.984375 -0.71875,-1.671875 -0.70312,-0.6875 -1.84375,-0.6875 -1.20312,0 -1.9375,0.734375 -0.71875,0.71875 -0.71875,2 l -1.71875,-0.17187 q 0.17188,-1.92188 1.32813,-2.92188 1.15625,-1.015625 3.09375,-1.015625 1.95312,0 3.09375,1.09375 1.14062,1.078125 1.14062,2.687505 0,0.8125 -0.34375,1.60937 -0.32812,0.78125 -1.10937,1.65625 -0.76563,0.85938 -2.5625,2.39063 -1.5,1.26562 -1.9375,1.71875 -0.42188,0.4375 -0.70313,0.89062 l 6.67188,0 z m 4.8601,5.39063 -3.6875,0 0,-1.39063 2.01563,0 0,-14.609375 -2.01563,0 0,-1.375 3.6875,0 0,17.375005 z"
       id="path97"
       inkscape:connector-curvature="0"
       style="fill:#000000;fill-rule:nonzero" />
    <path
       d="m 717.60187,110.24809 0,-1.90625 1.90625,0 0,1.90625 -1.90625,0 z m 6.32812,0 0,-1.90625 1.90625,0 0,1.90625 -1.90625,0 z m 6.32813,0 0,-1.90625 1.92187,0 0,1.90625 -1.92187,0 z m 6,0 0,-1.90625 1.90625,0 0,1.90625 -1.90625,0 z m 6.32812,0 0,-1.90625 1.90625,0 0,1.90625 -1.90625,0 z m 6.32813,0 0,-1.90625 1.92187,0 0,1.90625 -1.92187,0 z"
       id="path99"
       inkscape:connector-curvature="0"
       style="fill:#000000;fill-rule:nonzero" />
    <path
       d="m 168.71788,231.61554 0,-13.59375 1.79687,0 0,11.98437 6.70313,0 0,1.60938 -8.5,0 z m 16.98509,-3.17188 1.71875,0.21875 q -0.40625,1.5 -1.51562,2.34375 -1.09375,0.82813 -2.8125,0.82813 -2.15625,0 -3.42188,-1.32813 -1.26562,-1.32812 -1.26562,-3.73437 0,-2.48438 1.26562,-3.85938 1.28125,-1.375 3.32813,-1.375 1.98437,0 3.23437,1.34375 1.25,1.34375 1.25,3.79688 0,0.14062 -0.0156,0.4375 l -7.34375,0 q 0.0937,1.625 0.92187,2.48437 0.82813,0.85938 2.0625,0.85938 0.90625,0 1.54688,-0.46875 0.65625,-0.48438 1.04687,-1.54688 z m -5.48437,-2.70312 5.5,0 q -0.10938,-1.23438 -0.625,-1.85938 -0.79688,-0.96875 -2.07813,-0.96875 -1.14062,0 -1.9375,0.78125 -0.78125,0.76563 -0.85937,2.04688 z m 11.84446,5.875 -3.75,-9.85938 1.76563,0 2.125,5.90625 q 0.34375,0.95313 0.625,1.98438 0.21875,-0.78125 0.625,-1.875 l 2.1875,-6.01563 1.71875,0 -3.73438,9.85938 -1.5625,0 z m 13.34375,-3.17188 1.71875,0.21875 q -0.40625,1.5 -1.51562,2.34375 -1.09375,0.82813 -2.8125,0.82813 -2.15625,0 -3.42188,-1.32813 -1.26562,-1.32812 -1.26562,-3.73437 0,-2.48438 1.26562,-3.85938 1.28125,-1.375 3.32813,-1.375 1.98437,0 3.23437,1.34375 1.25,1.34375 1.25,3.79688 0,0.14062 -0.0156,0.4375 l -7.34375,0 q 0.0937,1.625 0.92187,2.48437 0.82813,0.85938 2.0625,0.85938 0.90625,0 1.54688,-0.46875 0.65625,-0.48438 1.04687,-1.54688 z m -5.48437,-2.70312 5.5,0 q -0.10938,-1.23438 -0.625,-1.85938 -0.79688,-0.96875 -2.07813,-0.96875 -1.14062,0 -1.9375,0.78125 -0.78125,0.76563 -0.85937,2.04688 z m 9.07884,5.875 0,-13.59375 1.67188,0 0,13.59375 -1.67188,0 z"
       id="path101"
       inkscape:connector-curvature="0"
       style="fill:#000000;fill-rule:nonzero" />
    <path
       d="m 172.955,253.61554 0,-13.59375 1.67187,0 0,13.59375 -1.67187,0 z m 12.875,-2.20313 0,-3.71875 -3.70313,0 0,-1.5625 3.70313,0 0,-3.70312 1.57812,0 0,3.70312 3.6875,0 0,1.5625 -3.6875,0 0,3.71875 -1.57812,0 z m 18.39076,2.20313 -1.67187,0 0,-10.64063 q -0.59375,0.57813 -1.57813,1.15625 -0.98437,0.5625 -1.76562,0.85938 l 0,-1.625 q 1.40625,-0.65625 2.45312,-1.59375 1.04688,-0.9375 1.48438,-1.8125 l 1.07812,0 0,13.65625 z"
       id="path103"
       inkscape:connector-curvature="0"
       style="fill:#000000;fill-rule:nonzero" />
    <path
       d="m 275.77246,242.61554 0,-1.90625 1.90625,0 0,1.90625 -1.90625,0 z m 6.32813,0 0,-1.90625 1.90625,0 0,1.90625 -1.90625,0 z m 6.32812,0 0,-1.90625 1.92188,0 0,1.90625 -1.92188,0 z m 6,0 0,-1.90625 1.90625,0 0,1.90625 -1.90625,0 z m 6.32813,0 0,-1.90625 1.90625,0 0,1.90625 -1.90625,0 z m 6.32812,0 0,-1.90625 1.92188,0 0,1.90625 -1.92188,0 z"
       id="path105"
       inkscape:connector-curvature="0"
       style="fill:#000000;fill-rule:nonzero" />
    <path
       d="m 401.8492,228.67804 1.65625,-0.26563 q 0.14062,1 0.76562,1.53125 0.64063,0.51563 1.78125,0.51563 1.15625,0 1.70313,-0.46875 0.5625,-0.46875 0.5625,-1.09375 0,-0.5625 -0.48438,-0.89063 -0.34375,-0.21875 -1.70312,-0.5625 -1.84375,-0.46875 -2.5625,-0.79687 -0.70313,-0.34375 -1.07813,-0.9375 -0.35937,-0.60938 -0.35937,-1.32813 0,-0.65625 0.29687,-1.21875 0.3125,-0.5625 0.82813,-0.9375 0.39062,-0.28125 1.0625,-0.48437 0.67187,-0.20313 1.4375,-0.20313 1.17187,0 2.04687,0.34375 0.875,0.32813 1.28125,0.90625 0.42188,0.5625 0.57813,1.51563 l -1.625,0.21875 q -0.10938,-0.75 -0.65625,-1.17188 -0.53125,-0.4375 -1.5,-0.4375 -1.15625,0 -1.64063,0.39063 -0.48437,0.375 -0.48437,0.875 0,0.32812 0.20312,0.59375 0.20313,0.26562 0.64063,0.4375 0.25,0.0937 1.46875,0.4375 1.76562,0.46875 2.46875,0.76562 0.70312,0.29688 1.09375,0.875 0.40625,0.57813 0.40625,1.4375 0,0.82813 -0.48438,1.57813 -0.48437,0.73437 -1.40625,1.14062 -0.92187,0.39063 -2.07812,0.39063 -1.92188,0 -2.9375,-0.79688 -1,-0.79687 -1.28125,-2.35937 z m 16.75,-0.23438 1.71875,0.21875 q -0.40625,1.5 -1.51563,2.34375 -1.09375,0.82813 -2.8125,0.82813 -2.15625,0 -3.42187,-1.32813 -1.26563,-1.32812 -1.26563,-3.73437 0,-2.48438 1.26563,-3.85938 1.28125,-1.375 3.32812,-1.375 1.98438,0 3.23438,1.34375 1.25,1.34375 1.25,3.79688 0,0.14062 -0.0156,0.4375 l -7.34375,0 q 0.0937,1.625 0.92188,2.48437 0.82812,0.85938 2.0625,0.85938 0.90625,0 1.54687,-0.46875 0.65625,-0.48438 1.04688,-1.54688 z m -5.48438,-2.70312 5.5,0 q -0.10937,-1.23438 -0.625,-1.85938 -0.79687,-0.96875 -2.07812,-0.96875 -1.14063,0 -1.9375,0.78125 -0.78125,0.76563 -0.85938,2.04688 z m 8.81321,6.6875 1.60937,0.25 q 0.10938,0.75 0.57813,1.09375 0.60937,0.45312 1.6875,0.45312 1.17187,0 1.79687,-0.46875 0.625,-0.45312 0.85938,-1.28125 0.125,-0.51562 0.10937,-2.15625 -1.09375,1.29688 -2.71875,1.29688 -2.03125,0 -3.15625,-1.46875 -1.10937,-1.46875 -1.10937,-3.51563 0,-1.40625 0.51562,-2.59375 0.51563,-1.20312 1.48438,-1.84375 0.96875,-0.65625 2.26562,-0.65625 1.75,0 2.875,1.40625 l 0,-1.1875 1.54688,0 0,8.51563 q 0,2.3125 -0.46875,3.26562 -0.46875,0.96875 -1.48438,1.51563 -1.01562,0.5625 -2.5,0.5625 -1.76562,0 -2.85937,-0.79688 -1.07813,-0.79687 -1.03125,-2.39062 z m 1.375,-5.92188 q 0,1.95313 0.76562,2.84375 0.78125,0.89063 1.9375,0.89063 1.14063,0 1.92188,-0.89063 0.78125,-0.89062 0.78125,-2.78125 0,-1.8125 -0.8125,-2.71875 -0.79688,-0.92187 -1.92188,-0.92187 -1.10937,0 -1.89062,0.90625 -0.78125,0.89062 -0.78125,2.67187 z"
       id="path107"
       inkscape:connector-curvature="0"
       style="fill:#000000;fill-rule:nonzero" />
    <path
       d="m 434.16315,241.14679 q -0.875,-1.10938 -1.48438,-2.57813 -0.59375,-1.48437 -0.59375,-3.0625 0,-1.39062 0.4375,-2.67187 0.53125,-1.48438 1.64063,-2.95313 l 0.75,0 q -0.70313,1.21875 -0.9375,1.73438 -0.35938,0.8125 -0.5625,1.6875 -0.25,1.09375 -0.25,2.20312 0,2.82813 1.75,5.64063 l -0.75,0 z m 2.09485,-2.53125 0,-8.59375 1.0625,0 0,8.59375 -1.0625,0 z m 8.45303,-1.39063 0,-2.35937 -2.32812,0 0,-0.98438 2.32812,0 0,-2.32812 1,0 0,2.32812 2.34375,0 0,0.98438 -2.34375,0 0,2.35937 -1,0 z m 12.18741,1.39063 -1.04688,0 0,-6.71875 q -0.39062,0.35937 -1.01562,0.73437 -0.60938,0.35938 -1.09375,0.53125 l 0,-1.01562 q 0.875,-0.42188 1.53125,-1 0.67187,-0.59375 0.95312,-1.15625 l 0.67188,0 0,8.625 z m 3.5108,0 0,-1.20313 1.20313,0 0,1.20313 q 0,0.65625 -0.23438,1.0625 -0.23437,0.42187 -0.73437,0.64062 l -0.29688,-0.45312 q 0.32813,-0.14063 0.48438,-0.4375 0.15625,-0.28125 0.1875,-0.8125 l -0.60938,0 z m 8.9422,-0.9375 0.15625,0.92187 q -0.45312,0.0937 -0.79687,0.0937 -0.57813,0 -0.89063,-0.17187 -0.3125,-0.1875 -0.45312,-0.48438 -0.125,-0.29687 -0.125,-1.25 l 0,-3.57812 -0.76563,0 0,-0.8125 0.76563,0 0,-1.54688 1.04687,-0.625 0,2.17188 1.0625,0 0,0.8125 -1.0625,0 0,3.64062 q 0,0.45313 0.0469,0.57813 0.0625,0.125 0.1875,0.20312 0.125,0.0781 0.35937,0.0781 0.1875,0 0.46875,-0.0312 z m 1.84613,3.46875 -0.75,0 q 1.75,-2.8125 1.75,-5.64063 0,-1.09375 -0.25,-2.1875 -0.20312,-0.875 -0.5625,-1.6875 -0.23437,-0.51562 -0.9375,-1.75 l 0.75,0 q 1.09375,1.46875 1.625,2.95313 0.45313,1.28125 0.45313,2.67187 0,1.57813 -0.60938,3.0625 -0.60937,1.46875 -1.46875,2.57813 z"
       id="path109"
       inkscape:connector-curvature="0"
       style="fill:#000000;fill-rule:nonzero" />
    <path
       d="m 406.54236,245.61554 -8.96875,0 0,-1.5625 8.96875,0 0,1.5625 z m 0,4.125 -8.96875,0 0,-1.54688 8.96875,0 0,1.54688 z m 7.3439,7.65625 0,-17.375 3.67188,0 0,1.375 -2.01563,0 0,14.60937 2.01563,0 0,1.39063 -3.67188,0 z"
       id="path111"
       inkscape:connector-curvature="0"
       style="fill:#000000;fill-rule:nonzero" />
    <path
       d="m 425.30392,257.3968 0,-4.82813 q -0.39063,0.54688 -1.09375,0.90625 -0.6875,0.35938 -1.48438,0.35938 -1.75,0 -3.01562,-1.39063 -1.26563,-1.40625 -1.26563,-3.84375 0,-1.48437 0.51563,-2.65625 0.51562,-1.1875 1.48437,-1.79687 0.98438,-0.60938 2.15625,-0.60938 1.82813,0 2.875,1.54688 l 0,-1.32813 1.5,0 0,13.64063 -1.67187,0 z m -5.14063,-8.73438 q 0,1.90625 0.79688,2.85938 0.79687,0.9375 1.90625,0.9375 1.0625,0 1.82812,-0.89063 0.78125,-0.90625 0.78125,-2.76562 0,-1.95313 -0.8125,-2.95313 -0.8125,-1 -1.90625,-1 -1.09375,0 -1.84375,0.9375 -0.75,0.92188 -0.75,2.875 z"
       id="path113"
       inkscape:connector-curvature="0"
       style="fill:#ff0000;fill-rule:nonzero" />
    <path
       d="m 428.94528,253.24054 0,-1.21875 1.0625,0 0,1.21875 -1.0625,0 z m 0,7.375 0,-6.21875 1.0625,0 0,6.21875 -1.0625,0 z"
       id="path115"
       inkscape:connector-curvature="0"
       style="fill:#ff0000;fill-rule:nonzero" />
    <path
       d="m 432.59906,253.61554 0,-1.90625 1.90625,0 0,1.90625 q 0,1.04687 -0.375,1.6875 -0.375,0.65625 -1.17188,1 l -0.46875,-0.71875 q 0.53125,-0.21875 0.78125,-0.67188 0.25,-0.45312 0.28125,-1.29687 l -0.95312,0 z"
       id="path117"
       inkscape:connector-curvature="0"
       style="fill:#000000;fill-rule:nonzero" />
    <path
       d="m 447.0816,257.3968 0,-4.82813 q -0.39063,0.54688 -1.09375,0.90625 -0.6875,0.35938 -1.48438,0.35938 -1.75,0 -3.01562,-1.39063 -1.26563,-1.40625 -1.26563,-3.84375 0,-1.48437 0.51563,-2.65625 0.51562,-1.1875 1.48437,-1.79687 0.98438,-0.60938 2.15625,-0.60938 1.82813,0 2.875,1.54688 l 0,-1.32813 1.5,0 0,13.64063 -1.67187,0 z m -5.14063,-8.73438 q 0,1.90625 0.79688,2.85938 0.79687,0.9375 1.90625,0.9375 1.0625,0 1.82812,-0.89063 0.78125,-0.90625 0.78125,-2.76562 0,-1.95313 -0.8125,-2.95313 -0.8125,-1 -1.90625,-1 -1.09375,0 -1.84375,0.9375 -0.75,0.92188 -0.75,2.875 z"
       id="path119"
       inkscape:connector-curvature="0"
       style="fill:#ff0000;fill-rule:nonzero" />
    <path
       d="m 450.72293,253.24054 0,-1.21875 1.0625,0 0,1.21875 -1.0625,0 z m 0,7.375 0,-6.21875 1.0625,0 0,6.21875 -1.0625,0 z"
       id="path121"
       inkscape:connector-curvature="0"
       style="fill:#ff0000;fill-rule:nonzero" />
    <path
       d="m 454.37674,253.61554 0,-1.90625 1.90625,0 0,1.90625 q 0,1.04687 -0.375,1.6875 -0.375,0.65625 -1.17188,1 l -0.46875,-0.71875 q 0.53125,-0.21875 0.78125,-0.67188 0.25,-0.45312 0.28125,-1.29687 l -0.95312,0 z m 15.75723,0 -1.67187,0 0,-10.64063 q -0.59375,0.57813 -1.57813,1.15625 -0.98437,0.5625 -1.76562,0.85938 l 0,-1.625 q 1.40625,-0.65625 2.45312,-1.59375 1.04688,-0.9375 1.48438,-1.8125 l 1.07812,0 0,13.65625 z m 7.34449,3.78125 -3.6875,0 0,-1.39063 2.01562,0 0,-14.60937 -2.01562,0 0,-1.375 3.6875,0 0,17.375 z"
       id="path123"
       inkscape:connector-curvature="0"
       style="fill:#000000;fill-rule:nonzero" />
    <path
       d="m 542.7616,228.67804 1.65625,-0.26563 q 0.14063,1 0.76563,1.53125 0.64062,0.51563 1.78125,0.51563 1.15625,0 1.70312,-0.46875 0.5625,-0.46875 0.5625,-1.09375 0,-0.5625 -0.48437,-0.89063 -0.34375,-0.21875 -1.70313,-0.5625 -1.84375,-0.46875 -2.5625,-0.79687 -0.70312,-0.34375 -1.07812,-0.9375 -0.35938,-0.60938 -0.35938,-1.32813 0,-0.65625 0.29688,-1.21875 0.3125,-0.5625 0.82812,-0.9375 0.39063,-0.28125 1.0625,-0.48437 0.67188,-0.20313 1.4375,-0.20313 1.17188,0 2.04688,0.34375 0.875,0.32813 1.28125,0.90625 0.42187,0.5625 0.57812,1.51563 l -1.625,0.21875 q -0.10937,-0.75 -0.65625,-1.17188 -0.53125,-0.4375 -1.5,-0.4375 -1.15625,0 -1.64062,0.39063 -0.48438,0.375 -0.48438,0.875 0,0.32812 0.20313,0.59375 0.20312,0.26562 0.64062,0.4375 0.25,0.0937 1.46875,0.4375 1.76563,0.46875 2.46875,0.76562 0.70313,0.29688 1.09375,0.875 0.40625,0.57813 0.40625,1.4375 0,0.82813 -0.48437,1.57813 -0.48438,0.73437 -1.40625,1.14062 -0.92188,0.39063 -2.07813,0.39063 -1.92187,0 -2.9375,-0.79688 -1,-0.79687 -1.28125,-2.35937 z m 16.75,-0.23438 1.71875,0.21875 q -0.40625,1.5 -1.51562,2.34375 -1.09375,0.82813 -2.8125,0.82813 -2.15625,0 -3.42188,-1.32813 -1.26562,-1.32812 -1.26562,-3.73437 0,-2.48438 1.26562,-3.85938 1.28125,-1.375 3.32813,-1.375 1.98437,0 3.23437,1.34375 1.25,1.34375 1.25,3.79688 0,0.14062 -0.0156,0.4375 l -7.34375,0 q 0.0937,1.625 0.92187,2.48437 0.82813,0.85938 2.0625,0.85938 0.90625,0 1.54688,-0.46875 0.65625,-0.48438 1.04687,-1.54688 z m -5.48437,-2.70312 5.5,0 q -0.10938,-1.23438 -0.625,-1.85938 -0.79688,-0.96875 -2.07813,-0.96875 -1.14062,0 -1.9375,0.78125 -0.78125,0.76563 -0.85937,2.04688 z m 8.81323,6.6875 1.60937,0.25 q 0.10938,0.75 0.57813,1.09375 0.60937,0.45312 1.6875,0.45312 1.17187,0 1.79687,-0.46875 0.625,-0.45312 0.85938,-1.28125 0.125,-0.51562 0.10937,-2.15625 -1.09375,1.29688 -2.71875,1.29688 -2.03125,0 -3.15625,-1.46875 -1.10937,-1.46875 -1.10937,-3.51563 0,-1.40625 0.51562,-2.59375 0.51563,-1.20312 1.48438,-1.84375 0.96875,-0.65625 2.26562,-0.65625 1.75,0 2.875,1.40625 l 0,-1.1875 1.54688,0 0,8.51563 q 0,2.3125 -0.46875,3.26562 -0.46875,0.96875 -1.48438,1.51563 -1.01562,0.5625 -2.5,0.5625 -1.76562,0 -2.85937,-0.79688 -1.07813,-0.79687 -1.03125,-2.39062 z m 1.375,-5.92188 q 0,1.95313 0.76562,2.84375 0.78125,0.89063 1.9375,0.89063 1.14063,0 1.92188,-0.89063 0.78125,-0.89062 0.78125,-2.78125 0,-1.8125 -0.8125,-2.71875 -0.79688,-0.92187 -1.92188,-0.92187 -1.10937,0 -1.89062,0.90625 -0.78125,0.89062 -0.78125,2.67187 z"
       id="path125"
       inkscape:connector-curvature="0"
       style="fill:#000000;fill-rule:nonzero" />
    <path
       d="m 575.07556,241.14679 q -0.875,-1.10938 -1.48438,-2.57813 -0.59375,-1.48437 -0.59375,-3.0625 0,-1.39062 0.4375,-2.67187 0.53125,-1.48438 1.64063,-2.95313 l 0.75,0 q -0.70313,1.21875 -0.9375,1.73438 -0.35938,0.8125 -0.5625,1.6875 -0.25,1.09375 -0.25,2.20312 0,2.82813 1.75,5.64063 l -0.75,0 z m 2.09485,-2.53125 0,-8.59375 1.0625,0 0,8.59375 -1.0625,0 z m 8.453,-1.39063 0,-2.35937 -2.32812,0 0,-0.98438 2.32812,0 0,-2.32812 1,0 0,2.32812 2.34375,0 0,0.98438 -2.34375,0 0,2.35937 -1,0 z m 12.18744,1.39063 -1.04687,0 0,-6.71875 q -0.39063,0.35937 -1.01563,0.73437 -0.60937,0.35938 -1.09375,0.53125 l 0,-1.01562 q 0.875,-0.42188 1.53125,-1 0.67188,-0.59375 0.95313,-1.15625 l 0.67187,0 0,8.625 z m 3.5108,0 0,-1.20313 1.20313,0 0,1.20313 q 0,0.65625 -0.23438,1.0625 -0.23437,0.42187 -0.73437,0.64062 l -0.29688,-0.45312 q 0.32813,-0.14063 0.48438,-0.4375 0.15625,-0.28125 0.1875,-0.8125 l -0.60938,0 z m 8.9422,-0.9375 0.15625,0.92187 q -0.45312,0.0937 -0.79687,0.0937 -0.57813,0 -0.89063,-0.17187 -0.3125,-0.1875 -0.45312,-0.48438 -0.125,-0.29687 -0.125,-1.25 l 0,-3.57812 -0.76563,0 0,-0.8125 0.76563,0 0,-1.54688 1.04687,-0.625 0,2.17188 1.0625,0 0,0.8125 -1.0625,0 0,3.64062 q 0,0.45313 0.0469,0.57813 0.0625,0.125 0.1875,0.20312 0.125,0.0781 0.35937,0.0781 0.1875,0 0.46875,-0.0312 z m 6.8172,-0.45313 0,-2.35937 -2.32812,0 0,-0.98438 2.32812,0 0,-2.32812 1,0 0,2.32812 2.34375,0 0,0.98438 -2.34375,0 0,2.35937 -1,0 z m 12.18744,1.39063 -1.04687,0 0,-6.71875 q -0.39063,0.35937 -1.01563,0.73437 -0.60937,0.35938 -1.09375,0.53125 l 0,-1.01562 q 0.875,-0.42188 1.53125,-1 0.67188,-0.59375 0.95313,-1.15625 l 0.67187,0 0,8.625 z m 3.93268,2.53125 -0.75,0 q 1.75,-2.8125 1.75,-5.64063 0,-1.09375 -0.25,-2.1875 -0.20312,-0.875 -0.5625,-1.6875 -0.23437,-0.51562 -0.9375,-1.75 l 0.75,0 q 1.09375,1.46875 1.625,2.95313 0.45313,1.28125 0.45313,2.67187 0,1.57813 -0.60938,3.0625 -0.60937,1.46875 -1.46875,2.57813 z"
       id="path127"
       inkscape:connector-curvature="0"
       style="fill:#000000;fill-rule:nonzero" />
    <path
       d="m 536.9092,245.61554 -8.96875,0 0,-1.5625 8.96875,0 0,1.5625 z m 0,4.125 -8.96875,0 0,-1.54688 8.96875,0 0,1.54688 z m 7.34387,7.65625 0,-17.375 3.67188,0 0,1.375 -2.01563,0 0,14.60937 2.01563,0 0,1.39063 -3.67188,0 z"
       id="path129"
       inkscape:connector-curvature="0"
       style="fill:#000000;fill-rule:nonzero" />
    <path
       d="m 555.6707,257.3968 0,-4.82813 q -0.39063,0.54688 -1.09375,0.90625 -0.6875,0.35938 -1.48438,0.35938 -1.75,0 -3.01562,-1.39063 -1.26563,-1.40625 -1.26563,-3.84375 0,-1.48437 0.51563,-2.65625 0.51562,-1.1875 1.48437,-1.79687 0.98438,-0.60938 2.15625,-0.60938 1.82813,0 2.875,1.54688 l 0,-1.32813 1.5,0 0,13.64063 -1.67187,0 z m -5.14063,-8.73438 q 0,1.90625 0.79688,2.85938 0.79687,0.9375 1.90625,0.9375 1.0625,0 1.82812,-0.89063 0.78125,-0.90625 0.78125,-2.76562 0,-1.95313 -0.8125,-2.95313 -0.8125,-1 -1.90625,-1 -1.09375,0 -1.84375,0.9375 -0.75,0.92188 -0.75,2.875 z"
       id="path131"
       inkscape:connector-curvature="0"
       style="fill:#0000ff;fill-rule:nonzero" />
    <path
       d="m 559.3121,253.24054 0,-1.21875 1.0625,0 0,1.21875 -1.0625,0 z m 0,7.375 0,-6.21875 1.0625,0 0,6.21875 -1.0625,0 z m 8.42181,-1.39063 0,-2.35937 -2.32812,0 0,-0.98438 2.32812,0 0,-2.32812 1,0 0,2.32812 2.34375,0 0,0.98438 -2.34375,0 0,2.35937 -1,0 z m 12.18738,1.39063 -1.04687,0 0,-6.71875 q -0.39063,0.35937 -1.01563,0.73437 -0.60937,0.35938 -1.09375,0.53125 l 0,-1.01562 q 0.875,-0.42188 1.53125,-1 0.67188,-0.59375 0.95313,-1.15625 l 0.67187,0 0,8.625 z"
       id="path133"
       inkscape:connector-curvature="0"
       style="fill:#0000ff;fill-rule:nonzero" />
    <path
       d="m 584.05707,253.61554 0,-1.90625 1.90625,0 0,1.90625 q 0,1.04687 -0.375,1.6875 -0.375,0.65625 -1.17188,1 l -0.46875,-0.71875 q 0.53125,-0.21875 0.78125,-0.67188 0.25,-0.45312 0.28125,-1.29687 l -0.95312,0 z"
       id="path135"
       inkscape:connector-curvature="0"
       style="fill:#000000;fill-rule:nonzero" />
    <path
       d="m 598.5396,257.3968 0,-4.82813 q -0.39063,0.54688 -1.09375,0.90625 -0.6875,0.35938 -1.48438,0.35938 -1.75,0 -3.01562,-1.39063 -1.26563,-1.40625 -1.26563,-3.84375 0,-1.48437 0.51563,-2.65625 0.51562,-1.1875 1.48437,-1.79687 0.98438,-0.60938 2.15625,-0.60938 1.82813,0 2.875,1.54688 l 0,-1.32813 1.5,0 0,13.64063 -1.67187,0 z m -5.14063,-8.73438 q 0,1.90625 0.79688,2.85938 0.79687,0.9375 1.90625,0.9375 1.0625,0 1.82812,-0.89063 0.78125,-0.90625 0.78125,-2.76562 0,-1.95313 -0.8125,-2.95313 -0.8125,-1 -1.90625,-1 -1.09375,0 -1.84375,0.9375 -0.75,0.92188 -0.75,2.875 z"
       id="path137"
       inkscape:connector-curvature="0"
       style="fill:#0000ff;fill-rule:nonzero" />
    <path
       d="m 602.18097,253.24054 0,-1.21875 1.0625,0 0,1.21875 -1.0625,0 z m 0,7.375 0,-6.21875 1.0625,0 0,6.21875 -1.0625,0 z m 8.42175,-1.39063 0,-2.35937 -2.32812,0 0,-0.98438 2.32812,0 0,-2.32812 1,0 0,2.32812 2.34375,0 0,0.98438 -2.34375,0 0,2.35937 -1,0 z m 12.18744,1.39063 -1.04687,0 0,-6.71875 q -0.39063,0.35937 -1.01563,0.73437 -0.60937,0.35938 -1.09375,0.53125 l 0,-1.01562 q 0.875,-0.42188 1.53125,-1 0.67188,-0.59375 0.95313,-1.15625 l 0.67187,0 0,8.625 z"
       id="path139"
       inkscape:connector-curvature="0"
       style="fill:#0000ff;fill-rule:nonzero" />
    <path
       d="m 626.92596,253.61554 0,-1.90625 1.90625,0 0,1.90625 q 0,1.04687 -0.375,1.6875 -0.375,0.65625 -1.17187,1 l -0.46875,-0.71875 q 0.53125,-0.21875 0.78125,-0.67188 0.25,-0.45312 0.28125,-1.29687 l -0.95313,0 z m 15.7572,0 -1.67187,0 0,-10.64063 q -0.59375,0.57813 -1.57813,1.15625 -0.98437,0.5625 -1.76562,0.85938 l 0,-1.625 q 1.40625,-0.65625 2.45312,-1.59375 1.04688,-0.9375 1.48438,-1.8125 l 1.07812,0 0,13.65625 z m 7.34448,3.78125 -3.6875,0 0,-1.39063 2.01563,0 0,-14.60937 -2.01563,0 0,-1.375 3.6875,0 0,17.375 z"
       id="path141"
       inkscape:connector-curvature="0"
       style="fill:#000000;fill-rule:nonzero" />
    <path
       d="m 717.60187,242.61554 0,-1.90625 1.90625,0 0,1.90625 -1.90625,0 z m 6.32812,0 0,-1.90625 1.90625,0 0,1.90625 -1.90625,0 z m 6.32813,0 0,-1.90625 1.92187,0 0,1.90625 -1.92187,0 z m 6,0 0,-1.90625 1.90625,0 0,1.90625 -1.90625,0 z m 6.32812,0 0,-1.90625 1.90625,0 0,1.90625 -1.90625,0 z m 6.32813,0 0,-1.90625 1.92187,0 0,1.90625 -1.92187,0 z"
       id="path143"
       inkscape:connector-curvature="0"
       style="fill:#000000;fill-rule:nonzero" />
    <path
       d="m 360.64566,22.48819 302.20474,0"
       id="path145"
       inkscape:connector-curvature="0"
       style="fill:#000000;fill-opacity:0;fill-rule:nonzero" />
    <path
       d="m 372.64566,22.48819 278.20474,0"
       id="path147"
       inkscape:connector-curvature="0"
       style="stroke:#ff9900;stroke-width:2;stroke-linecap:butt;stroke-linejoin:round" />
    <path
       d="m 372.64566,19.184725 -9.07617,3.303465 9.07617,3.303465 z"
       id="path149"
       inkscape:connector-curvature="0"
       style="fill:#ff9900;fill-rule:evenodd;stroke:#ff9900;stroke-width:2;stroke-linecap:butt" />
    <path
       d="m 650.8504,25.791655 9.07617,-3.303465 -9.07617,-3.303465 z"
       id="path151"
       inkscape:connector-curvature="0"
       style="fill:#ff9900;fill-rule:evenodd;stroke:#ff9900;stroke-width:2;stroke-linecap:butt" />
    <path
       d="m 474.59448,0 83.52759,0 0,22.48819 -83.52759,0 z"
       id="path153"
       inkscape:connector-curvature="0"
       style="fill:#000000;fill-opacity:0;fill-rule:nonzero" />
    <path
       d="m 489.31024,18.164093 0,-13.59375 1.67188,0 0,13.59375 -1.67188,0 z m 10.92609,-3.171875 1.71875,0.21875 q -0.40625,1.5 -1.51563,2.34375 -1.09375,0.828125 -2.8125,0.828125 -2.15625,0 -3.42187,-1.328125 -1.26563,-1.328125 -1.26563,-3.734375 0,-2.484375 1.26563,-3.859375 1.28125,-1.375 3.32812,-1.375 1.98438,0 3.23438,1.34375 1.25,1.34375 1.25,3.796875 0,0.140625 -0.0156,0.4375 l -7.34375,0 q 0.0937,1.625 0.92188,2.484375 0.82812,0.859375 2.0625,0.859375 0.90625,0 1.54687,-0.46875 0.65625,-0.484375 1.04688,-1.546875 z m -5.48438,-2.703125 5.5,0 q -0.10937,-1.234375 -0.625,-1.859375 -0.79687,-0.96875 -2.07812,-0.96875 -1.14063,0 -1.9375,0.78125 -0.78125,0.765625 -0.85938,2.046875 z m 9.11008,5.875 0,-9.859375 1.5,0 0,1.40625 q 1.09375,-1.625 3.14062,-1.625 0.89063,0 1.64063,0.328125 0.75,0.3125 1.10937,0.84375 0.375,0.515625 0.53125,1.21875 0.0937,0.46875 0.0937,1.625 l 0,6.0625 -1.67187,0 0,-6 q 0,-1.015625 -0.20313,-1.515625 -0.1875,-0.515625 -0.6875,-0.8125 -0.5,-0.296875 -1.17187,-0.296875 -1.0625,0 -1.84375,0.671875 -0.76563,0.671875 -0.76563,2.578125 l 0,5.375 -1.67187,0 z m 24.3403,-8 -8.96875,0 0,-1.5625 8.96875,0 0,1.5625 z m 0,4.125 -8.96875,0 0,-1.546875 8.96875,0 0,1.546875 z m 15.6095,2.265625 0,1.609375 -8.98438,0 q -0.0156,-0.609375 0.1875,-1.15625 0.34375,-0.921875 1.09375,-1.8125 0.76563,-0.890625 2.1875,-2.0625 2.21875,-1.8125 3,-2.875 0.78125,-1.0625 0.78125,-2.015625 0,-0.984375 -0.71875,-1.671875 -0.70312,-0.6875 -1.84375,-0.6875 -1.20312,0 -1.9375,0.734375 -0.71875,0.71875 -0.71875,2 l -1.71875,-0.171875 q 0.17188,-1.921875 1.32813,-2.921875 1.15625,-1.015625 3.09375,-1.015625 1.95312,0 3.09375,1.09375 1.14062,1.078125 1.14062,2.6875 0,0.8125 -0.34375,1.609375 -0.32812,0.78125 -1.10937,1.65625 -0.76563,0.859375 -2.5625,2.390625 -1.5,1.265625 -1.9375,1.71875 -0.42188,0.4375 -0.70313,0.890625 l 6.67188,0 z"
       id="path155"
       inkscape:connector-curvature="0"
       style="fill:#000000;fill-rule:nonzero" />
    <path
       d="m 473.53806,137.1916 116.28348,69.5748"
       id="path157"
       inkscape:connector-curvature="0"
       style="fill:#000000;fill-opacity:0;fill-rule:nonzero" />
    <path
       d="m 473.53806,137.1916 105.98593,63.41357"
       id="path159"
       inkscape:connector-curvature="0"
       style="stroke:#0000ff;stroke-width:2;stroke-linecap:butt;stroke-linejoin:round" />
    <path
       d="m 577.8279,203.43997 9.48462,1.82524 -6.09241,-7.49483 z"
       id="path161"
       inkscape:connector-curvature="0"
       style="fill:#0000ff;fill-rule:evenodd;stroke:#0000ff;stroke-width:2;stroke-linecap:butt" />
    <path
       d="m 154.07217,299.94226 0,104.79263"
       id="path163"
       inkscape:connector-curvature="0"
       style="stroke:#000000;stroke-width:1;stroke-linecap:butt" />
    <path
       d="m 154.07217,473.90552 0,64.19421"
       id="path165"
       inkscape:connector-curvature="0"
       style="stroke:#000000;stroke-width:1;stroke-linecap:butt" />
    <path
       d="m 225.18242,299.94226 0,104.79263"
       id="path167"
       inkscape:connector-curvature="0"
       style="stroke:#000000;stroke-width:4;stroke-linecap:butt" />
    <path
       d="m 225.18242,473.90552 0,64.19421"
       id="path169"
       inkscape:connector-curvature="0"
       style="stroke:#000000;stroke-width:4;stroke-linecap:butt" />
    <path
       d="m 280.36615,299.94226 0,42.59317"
       id="path171"
       inkscape:connector-curvature="0"
       style="stroke:#000000;stroke-width:1;stroke-linecap:butt" />
    <path
       d="m 359.23752,299.94226 0,104.79263"
       id="path173"
       inkscape:connector-curvature="0"
       style="stroke:#ff00ff;stroke-width:4;stroke-linecap:butt" />
    <path
       d="m 359.23752,404.7349 0,69.17062"
       id="path175"
       inkscape:connector-curvature="0"
       style="stroke:#ff00ff;stroke-width:4;stroke-linecap:butt;stroke-dasharray:16, 12" />
    <path
       d="m 359.23752,473.90552 0,64.19421"
       id="path177"
       inkscape:connector-curvature="0"
       style="stroke:#ff00ff;stroke-width:4;stroke-linecap:butt" />
    <path
       d="m 515.8884,299.94226 0,42.59317"
       id="path179"
       inkscape:connector-curvature="0"
       style="stroke:#000000;stroke-width:1;stroke-linecap:butt" />
    <path
       d="m 515.8884,473.90552 0,64.19421"
       id="path181"
       inkscape:connector-curvature="0"
       style="stroke:#ff00ff;stroke-width:4;stroke-linecap:butt" />
    <path
       d="m 662.15356,299.94226 0,104.79263"
       id="path183"
       inkscape:connector-curvature="0"
       style="stroke:#ff00ff;stroke-width:4;stroke-linecap:butt" />
    <path
       d="m 662.15356,404.7349 0,69.17062"
       id="path185"
       inkscape:connector-curvature="0"
       style="stroke:#ff00ff;stroke-width:4;stroke-linecap:butt;stroke-dasharray:16, 12" />
    <path
       d="m 662.15356,473.90552 0,64.19421"
       id="path187"
       inkscape:connector-curvature="0"
       style="stroke:#ff00ff;stroke-width:4;stroke-linecap:butt" />
    <path
       d="m 749.7047,299.94226 0,42.59317"
       id="path189"
       inkscape:connector-curvature="0"
       style="stroke:#000000;stroke-width:1;stroke-linecap:butt" />
    <path
       d="m 805.9252,299.94226 0,104.79263"
       id="path191"
       inkscape:connector-curvature="0"
       style="stroke:#000000;stroke-width:1;stroke-linecap:butt" />
    <path
       d="m 805.9252,473.90552 0,64.19421"
       id="path193"
       inkscape:connector-curvature="0"
       style="stroke:#000000;stroke-width:1;stroke-linecap:butt" />
    <path
       d="m 153.57349,300.44095 652.8504,0"
       id="path195"
       inkscape:connector-curvature="0"
       style="stroke:#000000;stroke-width:1;stroke-linecap:butt" />
    <path
       d="m 153.57349,342.03674 652.8504,0"
       id="path197"
       inkscape:connector-curvature="0"
       style="stroke:#000000;stroke-width:1;stroke-linecap:butt" />
    <path
       d="m 153.57349,405.23358 652.8504,0"
       id="path199"
       inkscape:connector-curvature="0"
       style="stroke:#000000;stroke-width:1;stroke-linecap:butt" />
    <path
       d="m 153.57349,474.4042 652.8504,0"
       id="path201"
       inkscape:connector-curvature="0"
       style="stroke:#000000;stroke-width:1;stroke-linecap:butt" />
    <path
       d="m 153.57349,537.6011 652.8504,0"
       id="path203"
       inkscape:connector-curvature="0"
       style="stroke:#000000;stroke-width:1;stroke-linecap:butt" />
    <path
       d="m 194.1372,326.70572 q 1.26562,0.85937 2.3125,1.26562 l -0.53125,1.25 q -1.45313,-0.53125 -2.92188,-1.67187 -1.5,0.84375 -3.32812,0.84375 -1.84375,0 -3.35938,-0.89063 -1.5,-0.89062 -2.3125,-2.5 -0.8125,-1.625 -0.8125,-3.64062 0,-2.01563 0.8125,-3.65625 0.82813,-1.65625 2.32813,-2.51563 1.51562,-0.875 3.375,-0.875 1.89062,0 3.39062,0.90625 1.51563,0.89063 2.3125,2.5 0.79688,1.60938 0.79688,3.625 0,1.6875 -0.51563,3.03125 -0.51562,1.32813 -1.54687,2.32813 z m -3.95313,-2.29688 q 1.5625,0.42188 2.5625,1.29688 1.59375,-1.45313 1.59375,-4.35938 0,-1.65625 -0.5625,-2.875 -0.5625,-1.23437 -1.64062,-1.92187 -1.07813,-0.6875 -2.42188,-0.6875 -2.01562,0 -3.34375,1.39062 -1.32812,1.375 -1.32812,4.10938 0,2.65625 1.3125,4.07812 1.3125,1.40625 3.35937,1.40625 0.95313,0 1.8125,-0.35937 -0.84375,-0.54688 -1.78125,-0.78125 l 0.4375,-1.29688 z"
       id="path205"
       inkscape:connector-curvature="0"
       style="fill:#000000;fill-rule:nonzero" />
    <path
       d="m 251.65915,331.9401 0,-4.82813 q -0.39063,0.54688 -1.09375,0.90625 -0.6875,0.35938 -1.48438,0.35938 -1.75,0 -3.01562,-1.39063 -1.26563,-1.40625 -1.26563,-3.84375 0,-1.48437 0.51563,-2.65625 0.51562,-1.1875 1.48437,-1.79687 0.98438,-0.60938 2.15625,-0.60938 1.82813,0 2.875,1.54688 l 0,-1.32813 1.5,0 0,13.64063 -1.67187,0 z m -5.14063,-8.73438 q 0,1.90625 0.79688,2.85938 0.79687,0.9375 1.90625,0.9375 1.0625,0 1.82812,-0.89063 0.78125,-0.90625 0.78125,-2.76562 0,-1.95313 -0.8125,-2.95313 -0.8125,-1 -1.90625,-1 -1.09375,0 -1.84375,0.9375 -0.75,0.92188 -0.75,2.875 z"
       id="path207"
       inkscape:connector-curvature="0"
       style="fill:#000000;fill-rule:nonzero" />
    <path
       d="m 258.97235,335.15884 -1.04688,0 0,-6.71875 q -0.39062,0.35937 -1.01562,0.73437 -0.60938,0.35938 -1.09373,0.53125 l 0,-1.01562 q 0.87498,-0.42188 1.53123,-1 0.67187,-0.59375 0.95312,-1.15625 l 0.67188,0 0,8.625 z"
       id="path209"
       inkscape:connector-curvature="0"
       style="fill:#000000;fill-rule:nonzero" />
    <path
       d="m 303.36435,328.15884 0,-1.90625 1.90625,0 0,1.90625 -1.90625,0 z m 6.32812,0 0,-1.90625 1.90625,0 0,1.90625 -1.90625,0 z m 6.32813,0 0,-1.90625 1.92187,0 0,1.90625 -1.92187,0 z m 6,0 0,-1.90625 1.90625,0 0,1.90625 -1.90625,0 z m 6.32812,0 0,-1.90625 1.90625,0 0,1.90625 -1.90625,0 z m 6.32813,0 0,-1.90625 1.92187,0 0,1.90625 -1.92187,0 z"
       id="path211"
       inkscape:connector-curvature="0"
       style="fill:#000000;fill-rule:nonzero" />
    <path
       d="m 438.5248,331.9401 0,-4.82813 q -0.39062,0.54688 -1.09375,0.90625 -0.6875,0.35938 -1.48437,0.35938 -1.75,0 -3.01563,-1.39063 -1.26562,-1.40625 -1.26562,-3.84375 0,-1.48437 0.51562,-2.65625 0.51563,-1.1875 1.48438,-1.79687 0.98437,-0.60938 2.15625,-0.60938 1.82812,0 2.875,1.54688 l 0,-1.32813 1.5,0 0,13.64063 -1.67188,0 z m -5.14062,-8.73438 q 0,1.90625 0.79687,2.85938 0.79688,0.9375 1.90625,0.9375 1.0625,0 1.82813,-0.89063 0.78125,-0.90625 0.78125,-2.76562 0,-1.95313 -0.8125,-2.95313 -0.8125,-1 -1.90625,-1 -1.09375,0 -1.84375,0.9375 -0.75,0.92188 -0.75,2.875 z"
       id="path213"
       inkscape:connector-curvature="0"
       style="fill:#000000;fill-rule:nonzero" />
    <path
       d="m 442.16614,327.78384 0,-1.21875 1.0625,0 0,1.21875 -1.0625,0 z m 0,7.375 0,-6.21875 1.0625,0 0,6.21875 -1.0625,0 z"
       id="path215"
       inkscape:connector-curvature="0"
       style="fill:#000000;fill-rule:nonzero" />
    <path
       d="m 579.4372,331.9401 0,-4.82813 q -0.39063,0.54688 -1.09375,0.90625 -0.6875,0.35938 -1.48438,0.35938 -1.75,0 -3.01562,-1.39063 -1.26563,-1.40625 -1.26563,-3.84375 0,-1.48437 0.51563,-2.65625 0.51562,-1.1875 1.48437,-1.79687 0.98438,-0.60938 2.15625,-0.60938 1.82813,0 2.875,1.54688 l 0,-1.32813 1.5,0 0,13.64063 -1.67187,0 z m -5.14063,-8.73438 q 0,1.90625 0.79688,2.85938 0.79687,0.9375 1.90625,0.9375 1.0625,0 1.82812,-0.89063 0.78125,-0.90625 0.78125,-2.76562 0,-1.95313 -0.8125,-2.95313 -0.8125,-1 -1.90625,-1 -1.09375,0 -1.84375,0.9375 -0.75,0.92188 -0.75,2.875 z"
       id="path217"
       inkscape:connector-curvature="0"
       style="fill:#000000;fill-rule:nonzero" />
    <path
       d="m 583.07855,327.78384 0,-1.21875 1.0625,0 0,1.21875 -1.0625,0 z m 0,7.375 0,-6.21875 1.0625,0 0,6.21875 -1.0625,0 z m 8.42175,-1.39063 0,-2.35937 -2.32812,0 0,-0.98438 2.32812,0 0,-2.32812 1,0 0,2.32812 2.34375,0 0,0.98438 -2.34375,0 0,2.35937 -1,0 z m 12.18744,1.39063 -1.04687,0 0,-6.71875 q -0.39063,0.35937 -1.01563,0.73437 -0.60937,0.35938 -1.09375,0.53125 l 0,-1.01562 q 0.875,-0.42188 1.53125,-1 0.67188,-0.59375 0.95313,-1.15625 l 0.67187,0 0,8.625 z"
       id="path219"
       inkscape:connector-curvature="0"
       style="fill:#000000;fill-rule:nonzero" />
    <path
       d="m 689.49164,328.15884 0,-1.90625 1.90625,0 0,1.90625 -1.90625,0 z m 6.32812,0 0,-1.90625 1.90625,0 0,1.90625 -1.90625,0 z m 6.32813,0 0,-1.90625 1.92187,0 0,1.90625 -1.92187,0 z m 6,0 0,-1.90625 1.90625,0 0,1.90625 -1.90625,0 z m 6.32812,0 0,-1.90625 1.90625,0 0,1.90625 -1.90625,0 z m 6.32813,0 0,-1.90625 1.92187,0 0,1.90625 -1.92187,0 z"
       id="path221"
       inkscape:connector-curvature="0"
       style="fill:#000000;fill-rule:nonzero" />
    <path
       d="m 776.01056,331.9401 0,-4.82813 q -0.39062,0.54688 -1.09375,0.90625 -0.6875,0.35938 -1.48437,0.35938 -1.75,0 -3.01563,-1.39063 -1.26562,-1.40625 -1.26562,-3.84375 0,-1.48437 0.51562,-2.65625 0.51563,-1.1875 1.48438,-1.79687 0.98437,-0.60938 2.15625,-0.60938 1.82812,0 2.875,1.54688 l 0,-1.32813 1.5,0 0,13.64063 -1.67188,0 z m -5.14062,-8.73438 q 0,1.90625 0.79687,2.85938 0.79688,0.9375 1.90625,0.9375 1.0625,0 1.82813,-0.89063 0.78125,-0.90625 0.78125,-2.76562 0,-1.95313 -0.8125,-2.95313 -0.8125,-1 -1.90625,-1 -1.09375,0 -1.84375,0.9375 -0.75,0.92188 -0.75,2.875 z"
       id="path223"
       inkscape:connector-curvature="0"
       style="fill:#000000;fill-rule:nonzero" />
    <path
       d="m 778.9019,335.15884 3.32812,-4.48438 -2.92187,-4.10937 1.34375,0 1.5625,2.20312 q 0.48437,0.6875 0.6875,1.0625 0.29687,-0.46875 0.6875,-0.98437 l 1.71875,-2.28125 1.23437,0 -3.01562,4.04687 3.25,4.54688 -1.40625,0 -2.15625,-3.0625 q -0.1875,-0.26563 -0.375,-0.57813 -0.28125,0.46875 -0.40625,0.64063 l -2.15625,3 -1.375,0 z"
       id="path225"
       inkscape:connector-curvature="0"
       style="fill:#000000;fill-rule:nonzero" />
    <path
       d="m 168.71788,369.55518 0,-13.59375 1.79687,0 0,11.98437 6.70313,0 0,1.60938 -8.5,0 z m 16.98509,-3.17188 1.71875,0.21875 q -0.40625,1.5 -1.51562,2.34375 -1.09375,0.82813 -2.8125,0.82813 -2.15625,0 -3.42188,-1.32813 -1.26562,-1.32812 -1.26562,-3.73437 0,-2.48438 1.26562,-3.85938 1.28125,-1.375 3.32813,-1.375 1.98437,0 3.23437,1.34375 1.25,1.34375 1.25,3.79688 0,0.14062 -0.0156,0.4375 l -7.34375,0 q 0.0937,1.625 0.92187,2.48437 0.82813,0.85938 2.0625,0.85938 0.90625,0 1.54688,-0.46875 0.65625,-0.48438 1.04687,-1.54688 z m -5.48437,-2.70312 5.5,0 q -0.10938,-1.23438 -0.625,-1.85938 -0.79688,-0.96875 -2.07813,-0.96875 -1.14062,0 -1.9375,0.78125 -0.78125,0.76563 -0.85937,2.04688 z m 11.84446,5.875 -3.75,-9.85938 1.76563,0 2.125,5.90625 q 0.34375,0.95313 0.625,1.98438 0.21875,-0.78125 0.625,-1.875 l 2.1875,-6.01563 1.71875,0 -3.73438,9.85938 -1.5625,0 z m 13.34375,-3.17188 1.71875,0.21875 q -0.40625,1.5 -1.51562,2.34375 -1.09375,0.82813 -2.8125,0.82813 -2.15625,0 -3.42188,-1.32813 -1.26562,-1.32812 -1.26562,-3.73437 0,-2.48438 1.26562,-3.85938 1.28125,-1.375 3.32813,-1.375 1.98437,0 3.23437,1.34375 1.25,1.34375 1.25,3.79688 0,0.14062 -0.0156,0.4375 l -7.34375,0 q 0.0937,1.625 0.92187,2.48437 0.82813,0.85938 2.0625,0.85938 0.90625,0 1.54688,-0.46875 0.65625,-0.48438 1.04687,-1.54688 z m -5.48437,-2.70312 5.5,0 q -0.10938,-1.23438 -0.625,-1.85938 -0.79688,-0.96875 -2.07813,-0.96875 -1.14062,0 -1.9375,0.78125 -0.78125,0.76563 -0.85937,2.04688 z m 9.07884,5.875 0,-13.59375 1.67188,0 0,13.59375 -1.67188,0 z"
       id="path227"
       inkscape:connector-curvature="0"
       style="fill:#000000;fill-rule:nonzero" />
    <path
       d="m 188.77364,391.55518 0,-13.59375 1.67187,0 0,13.59375 -1.67187,0 z"
       id="path229"
       inkscape:connector-curvature="0"
       style="fill:#000000;fill-rule:nonzero" />
    <path
       d="m 275.77246,380.55518 0,-1.90625 1.90625,0 0,1.90625 -1.90625,0 z m 6.32813,0 0,-1.90625 1.90625,0 0,1.90625 -1.90625,0 z m 6.32812,0 0,-1.90625 1.92188,0 0,1.90625 -1.92188,0 z m 6,0 0,-1.90625 1.90625,0 0,1.90625 -1.90625,0 z m 6.32813,0 0,-1.90625 1.90625,0 0,1.90625 -1.90625,0 z m 6.32812,0 0,-1.90625 1.92188,0 0,1.90625 -1.92188,0 z"
       id="path231"
       inkscape:connector-curvature="0"
       style="fill:#000000;fill-rule:nonzero" />
    <path
       d="m 374.82898,377.61768 1.65625,-0.26563 q 0.14062,1 0.76562,1.53125 0.64063,0.51563 1.78125,0.51563 1.15625,0 1.70313,-0.46875 0.5625,-0.46875 0.5625,-1.09375 0,-0.5625 -0.48438,-0.89063 -0.34375,-0.21875 -1.70312,-0.5625 -1.84375,-0.46875 -2.5625,-0.79687 -0.70313,-0.34375 -1.07813,-0.9375 -0.35937,-0.60938 -0.35937,-1.32813 0,-0.65625 0.29687,-1.21875 0.3125,-0.5625 0.82813,-0.9375 0.39062,-0.28125 1.0625,-0.48437 0.67187,-0.20313 1.4375,-0.20313 1.17187,0 2.04687,0.34375 0.875,0.32813 1.28125,0.90625 0.42188,0.5625 0.57813,1.51563 l -1.625,0.21875 q -0.10938,-0.75 -0.65625,-1.17188 -0.53125,-0.4375 -1.5,-0.4375 -1.15625,0 -1.64063,0.39063 -0.48437,0.375 -0.48437,0.875 0,0.32812 0.20312,0.59375 0.20313,0.26562 0.64063,0.4375 0.25,0.0937 1.46875,0.4375 1.76562,0.46875 2.46875,0.76562 0.70312,0.29688 1.09375,0.875 0.40625,0.57813 0.40625,1.4375 0,0.82813 -0.48438,1.57813 -0.48437,0.73437 -1.40625,1.14062 -0.92187,0.39063 -2.07812,0.39063 -1.92188,0 -2.9375,-0.79688 -1,-0.79687 -1.28125,-2.35937 z m 16.75,-0.23438 1.71875,0.21875 q -0.40625,1.5 -1.51563,2.34375 -1.09375,0.82813 -2.8125,0.82813 -2.15625,0 -3.42187,-1.32813 -1.26563,-1.32812 -1.26563,-3.73437 0,-2.48438 1.26563,-3.85938 1.28125,-1.375 3.32812,-1.375 1.98438,0 3.23438,1.34375 1.25,1.34375 1.25,3.79688 0,0.14062 -0.0156,0.4375 l -7.34375,0 q 0.0937,1.625 0.92188,2.48437 0.82812,0.85938 2.0625,0.85938 0.90625,0 1.54687,-0.46875 0.65625,-0.48438 1.04688,-1.54688 z m -5.48438,-2.70312 5.5,0 q -0.10937,-1.23438 -0.625,-1.85938 -0.79687,-0.96875 -2.07812,-0.96875 -1.14063,0 -1.9375,0.78125 -0.78125,0.76563 -0.85938,2.04688 z m 8.81321,6.6875 1.60937,0.25 q 0.10938,0.75 0.57813,1.09375 0.60937,0.45312 1.6875,0.45312 1.17187,0 1.79687,-0.46875 0.625,-0.45312 0.85938,-1.28125 0.125,-0.51562 0.10937,-2.15625 -1.09375,1.29688 -2.71875,1.29688 -2.03125,0 -3.15625,-1.46875 -1.10937,-1.46875 -1.10937,-3.51563 0,-1.40625 0.51562,-2.59375 0.51563,-1.20312 1.48438,-1.84375 0.96875,-0.65625 2.26562,-0.65625 1.75,0 2.875,1.40625 l 0,-1.1875 1.54688,0 0,8.51563 q 0,2.3125 -0.46875,3.26562 -0.46875,0.96875 -1.48438,1.51563 -1.01562,0.5625 -2.5,0.5625 -1.76562,0 -2.85937,-0.79688 -1.07813,-0.79687 -1.03125,-2.39062 z m 1.375,-5.92188 q 0,1.95313 0.76562,2.84375 0.78125,0.89063 1.9375,0.89063 1.14063,0 1.92188,-0.89063 0.78125,-0.89062 0.78125,-2.78125 0,-1.8125 -0.8125,-2.71875 -0.79688,-0.92187 -1.92188,-0.92187 -1.10937,0 -1.89062,0.90625 -0.78125,0.89062 -0.78125,2.67187 z"
       id="path233"
       inkscape:connector-curvature="0"
       style="fill:#000000;fill-rule:nonzero" />
    <path
       d="m 407.1429,390.08643 q -0.875,-1.10938 -1.48438,-2.57813 -0.59375,-1.48437 -0.59375,-3.0625 0,-1.39062 0.4375,-2.67187 0.53125,-1.48438 1.64063,-2.95313 l 0.75,0 q -0.70313,1.21875 -0.9375,1.73438 -0.35938,0.8125 -0.5625,1.6875 -0.25,1.09375 -0.25,2.20312 0,2.82813 1.75,5.64063 l -0.75,0 z m 2.09485,-2.53125 0,-8.59375 1.0625,0 0,8.59375 -1.0625,0 z m 3.06003,0 0,-1.20313 1.20312,0 0,1.20313 q 0,0.65625 -0.23437,1.0625 -0.23438,0.42187 -0.73438,0.64062 l -0.29687,-0.45312 q 0.32812,-0.14063 0.48437,-0.4375 0.15625,-0.28125 0.1875,-0.8125 l -0.60937,0 z m 6.64535,2.39062 0,-8.60937 0.95313,0 0,0.79687 q 0.34375,-0.46875 0.76562,-0.70312 0.4375,-0.23438 1.04688,-0.23438 0.79687,0 1.40625,0.40625 0.60937,0.40625 0.90625,1.15625 0.3125,0.75 0.3125,1.64063 0,0.95312 -0.34375,1.71875 -0.32813,0.76562 -0.98438,1.17187 -0.65625,0.40625 -1.375,0.40625 -0.53125,0 -0.95312,-0.21875 -0.42188,-0.23437 -0.6875,-0.5625 l 0,3.03125 -1.04688,0 z m 0.95313,-5.46875 q 0,1.20313 0.48437,1.78125 0.48438,0.5625 1.17188,0.5625 0.70312,0 1.20312,-0.59375 0.5,-0.59375 0.5,-1.84375 0,-1.1875 -0.48437,-1.76562 -0.48438,-0.59375 -1.17188,-0.59375 -0.67187,0 -1.1875,0.625 -0.51562,0.625 -0.51562,1.82812 z m 6.65139,5.60938 -0.75,0 q 1.75,-2.8125 1.75,-5.64063 0,-1.09375 -0.25,-2.1875 -0.20312,-0.875 -0.5625,-1.6875 -0.23437,-0.51562 -0.9375,-1.75 l 0.75,0 q 1.09375,1.46875 1.625,2.95313 0.45313,1.28125 0.45313,2.67187 0,1.57813 -0.60938,3.0625 -0.60937,1.46875 -1.46875,2.57813 z"
       id="path235"
       inkscape:connector-curvature="0"
       style="fill:#000000;fill-rule:nonzero" />
    <path
       d="m 444.4196,372.55518 -8.96875,0 0,-1.5625 8.96875,0 0,1.5625 z m 0,4.125 -8.96875,0 0,-1.54688 8.96875,0 0,1.54688 z m 7.34387,7.65625 0,-17.375 3.67188,0 0,1.375 -2.01563,0 0,14.60937 2.01563,0 0,1.39063 -3.67188,0 z"
       id="path237"
       inkscape:connector-curvature="0"
       style="fill:#000000;fill-rule:nonzero" />
    <path
       d="m 456.8999,380.55518 0,-9.85938 1.5,0 0,1.39063 q 0.45312,-0.71875 1.21875,-1.15625 0.78125,-0.45313 1.76562,-0.45313 1.09375,0 1.79688,0.45313 0.70312,0.45312 0.98437,1.28125 1.17188,-1.73438 3.04688,-1.73438 1.46875,0 2.25,0.8125 0.79687,0.8125 0.79687,2.5 l 0,6.76563 -1.67187,0 0,-6.20313 q 0,-1 -0.15625,-1.4375 -0.15625,-0.45312 -0.59375,-0.71875 -0.42188,-0.26562 -1,-0.26562 -1.03125,0 -1.71875,0.6875 -0.6875,0.6875 -0.6875,2.21875 l 0,5.71875 -1.67188,0 0,-6.40625 q 0,-1.10938 -0.40625,-1.65625 -0.40625,-0.5625 -1.34375,-0.5625 -0.70312,0 -1.3125,0.375 -0.59375,0.35937 -0.85937,1.07812 -0.26563,0.71875 -0.26563,2.0625 l 0,5.10938 -1.67187,0 z m 21.9783,-1.21875 q -0.9375,0.79687 -1.79687,1.125 -0.85938,0.3125 -1.84375,0.3125 -1.60938,0 -2.48438,-0.78125 -0.875,-0.79688 -0.875,-2.03125 0,-0.73438 0.32813,-1.32813 0.32812,-0.59375 0.85937,-0.95312 0.53125,-0.35938 1.20313,-0.54688 0.5,-0.14062 1.48437,-0.25 2.03125,-0.25 2.98438,-0.57812 0,-0.34375 0,-0.4375 0,-1.01563 -0.46875,-1.4375 -0.64063,-0.5625 -1.90625,-0.5625 -1.17188,0 -1.73438,0.40625 -0.5625,0.40625 -0.82812,1.46875 l -1.64063,-0.23438 q 0.23438,-1.04687 0.73438,-1.6875 0.51562,-0.64062 1.46875,-0.98437 0.96875,-0.35938 2.25,-0.35938 1.26562,0 2.04687,0.29688 0.78125,0.29687 1.15625,0.75 0.375,0.45312 0.51563,1.14062 0.0937,0.42188 0.0937,1.53125 l 0,2.23438 q 0,2.32812 0.0937,2.95312 0.10937,0.60938 0.4375,1.17188 l -1.75,0 q -0.26563,-0.51563 -0.32813,-1.21875 z m -0.14062,-3.71875 q -0.90625,0.35937 -2.73438,0.625 -1.03125,0.14062 -1.45312,0.32812 -0.42188,0.1875 -0.65625,0.54688 -0.23438,0.35937 -0.23438,0.79687 0,0.67188 0.5,1.125 0.51563,0.4375 1.48438,0.4375 0.96875,0 1.71875,-0.42187 0.75,-0.4375 1.10937,-1.15625 0.26563,-0.57813 0.26563,-1.67188 l 0,-0.60937 z m 2.96945,4.9375 3.59375,-5.125 -3.32813,-4.73438 2.09375,0 1.51563,2.3125 q 0.42187,0.65625 0.67187,1.10938 0.42188,-0.60938 0.76563,-1.09375 l 1.65625,-2.32813 1.98437,0 -3.39062,4.64063 3.65625,5.21875 -2.04688,0 -2.03125,-3.0625 -0.53125,-0.82813 -2.59375,3.89063 -2.01562,0 z m 24.40207,-8 -8.96875,0 0,-1.5625 8.96875,0 0,1.5625 z m 0,4.125 -8.96875,0 0,-1.54688 8.96875,0 0,1.54688 z m 13.57828,7.65625 0,-4.82813 q -0.39063,0.54688 -1.09375,0.90625 -0.6875,0.35938 -1.48438,0.35938 -1.75,0 -3.01562,-1.39063 -1.26563,-1.40625 -1.26563,-3.84375 0,-1.48437 0.51563,-2.65625 0.51562,-1.1875 1.48437,-1.79687 0.98438,-0.60938 2.15625,-0.60938 1.82813,0 2.875,1.54688 l 0,-1.32813 1.5,0 0,13.64063 -1.67187,0 z m -5.14063,-8.73438 q 0,1.90625 0.79688,2.85938 0.79687,0.9375 1.90625,0.9375 1.0625,0 1.82812,-0.89063 0.78125,-0.90625 0.78125,-2.76562 0,-1.95313 -0.8125,-2.95313 -0.8125,-1 -1.90625,-1 -1.09375,0 -1.84375,0.9375 -0.75,0.92188 -0.75,2.875 z"
       id="path239"
       inkscape:connector-curvature="0"
       style="fill:#0000ff;fill-rule:nonzero" />
    <path
       d="m 523.3287,380.18018 0,-1.21875 1.0625,0 0,1.21875 -1.0625,0 z m 0,7.375 0,-6.21875 1.0625,0 0,6.21875 -1.0625,0 z"
       id="path241"
       inkscape:connector-curvature="0"
       style="fill:#0000ff;fill-rule:nonzero" />
    <path
       d="m 526.9825,380.55518 0,-1.90625 1.90625,0 0,1.90625 q 0,1.04687 -0.375,1.6875 -0.375,0.65625 -1.17188,1 l -0.46875,-0.71875 q 0.53125,-0.21875 0.78125,-0.67188 0.25,-0.45312 0.28125,-1.29687 l -0.95312,0 z"
       id="path243"
       inkscape:connector-curvature="0"
       style="fill:#000000;fill-rule:nonzero" />
    <path
       d="m 536.9116,380.55518 0,-9.85938 1.5,0 0,1.39063 q 0.45313,-0.71875 1.21875,-1.15625 0.78125,-0.45313 1.76563,-0.45313 1.09375,0 1.79687,0.45313 0.70313,0.45312 0.98438,1.28125 1.17187,-1.73438 3.04687,-1.73438 1.46875,0 2.25,0.8125 0.79688,0.8125 0.79688,2.5 l 0,6.76563 -1.67188,0 0,-6.20313 q 0,-1 -0.15625,-1.4375 -0.15625,-0.45312 -0.59375,-0.71875 -0.42187,-0.26562 -1,-0.26562 -1.03125,0 -1.71875,0.6875 -0.6875,0.6875 -0.6875,2.21875 l 0,5.71875 -1.67187,0 0,-6.40625 q 0,-1.10938 -0.40625,-1.65625 -0.40625,-0.5625 -1.34375,-0.5625 -0.70313,0 -1.3125,0.375 -0.59375,0.35937 -0.85938,1.07812 -0.26562,0.71875 -0.26562,2.0625 l 0,5.10938 -1.67188,0 z m 15.5564,-11.6875 0,-1.90625 1.67187,0 0,1.90625 -1.67187,0 z m 0,11.6875 0,-9.85938 1.67187,0 0,9.85938 -1.67187,0 z m 4.12921,0 0,-9.85938 1.5,0 0,1.40625 q 1.09375,-1.625 3.14062,-1.625 0.89063,0 1.64063,0.32813 0.75,0.3125 1.10937,0.84375 0.375,0.51562 0.53125,1.21875 0.0937,0.46875 0.0937,1.625 l 0,6.0625 -1.67187,0 0,-6 q 0,-1.01563 -0.20313,-1.51563 -0.1875,-0.51562 -0.6875,-0.8125 -0.5,-0.29687 -1.17187,-0.29687 -1.0625,0 -1.84375,0.67187 -0.76563,0.67188 -0.76563,2.57813 l 0,5.375 -1.67187,0 z m 24.34027,-8 -8.96875,0 0,-1.5625 8.96875,0 0,1.5625 z m 0,4.125 -8.96875,0 0,-1.54688 8.96875,0 0,1.54688 z m 13.57825,7.65625 0,-4.82813 q -0.39063,0.54688 -1.09375,0.90625 -0.6875,0.35938 -1.48438,0.35938 -1.75,0 -3.01562,-1.39063 -1.26563,-1.40625 -1.26563,-3.84375 0,-1.48437 0.51563,-2.65625 0.51562,-1.1875 1.48437,-1.79687 0.98438,-0.60938 2.15625,-0.60938 1.82813,0 2.875,1.54688 l 0,-1.32813 1.5,0 0,13.64063 -1.67187,0 z m -5.14063,-8.73438 q 0,1.90625 0.79688,2.85938 0.79687,0.9375 1.90625,0.9375 1.0625,0 1.82812,-0.89063 0.78125,-0.90625 0.78125,-2.76562 0,-1.95313 -0.8125,-2.95313 -0.8125,-1 -1.90625,-1 -1.09375,0 -1.84375,0.9375 -0.75,0.92188 -0.75,2.875 z"
       id="path245"
       inkscape:connector-curvature="0"
       style="fill:#ff0000;fill-rule:nonzero" />
    <path
       d="m 598.1571,380.18018 0,-1.21875 1.0625,0 0,1.21875 -1.0625,0 z m 0,7.375 0,-6.21875 1.0625,0 0,6.21875 -1.0625,0 z m 8.42175,-1.39063 0,-2.35937 -2.32812,0 0,-0.98438 2.32812,0 0,-2.32812 1,0 0,2.32812 2.34375,0 0,0.98438 -2.34375,0 0,2.35937 -1,0 z m 12.18744,1.39063 -1.04687,0 0,-6.71875 q -0.39063,0.35937 -1.01563,0.73437 -0.60937,0.35938 -1.09375,0.53125 l 0,-1.01562 q 0.875,-0.42188 1.53125,-1 0.67188,-0.59375 0.95313,-1.15625 l 0.67187,0 0,8.625 z"
       id="path247"
       inkscape:connector-curvature="0"
       style="fill:#ff0000;fill-rule:nonzero" />
    <path
       d="m 622.9021,380.55518 0,-1.90625 1.90625,0 0,1.90625 q 0,1.04687 -0.375,1.6875 -0.375,0.65625 -1.17187,1 l -0.46875,-0.71875 q 0.53125,-0.21875 0.78125,-0.67188 0.25,-0.45312 0.28125,-1.29687 l -0.95313,0 z m 18.24158,-1.60938 0,1.60938 -8.98438,0 q -0.0156,-0.60938 0.1875,-1.15625 0.34375,-0.92188 1.09375,-1.8125 0.76563,-0.89063 2.1875,-2.0625 2.21875,-1.8125 3,-2.875 0.78125,-1.0625 0.78125,-2.01563 0,-0.98437 -0.71875,-1.67187 -0.70312,-0.6875 -1.84375,-0.6875 -1.20312,0 -1.9375,0.73437 -0.71875,0.71875 -0.71875,2 l -1.71875,-0.17187 q 0.17188,-1.92188 1.32813,-2.92188 1.15625,-1.01562 3.09375,-1.01562 1.95312,0 3.09375,1.09375 1.14062,1.07812 1.14062,2.6875 0,0.8125 -0.34375,1.60937 -0.32812,0.78125 -1.10937,1.65625 -0.76563,0.85938 -2.5625,2.39063 -1.5,1.26562 -1.9375,1.71875 -0.42188,0.4375 -0.70313,0.89062 l 6.67188,0 z m 4.8601,5.39063 -3.6875,0 0,-1.39063 2.01563,0 0,-14.60937 -2.01563,0 0,-1.375 3.6875,0 0,17.375 z"
       id="path249"
       inkscape:connector-curvature="0"
       style="fill:#000000;fill-rule:nonzero" />
    <path
       d="m 717.60187,380.55518 0,-1.90625 1.90625,0 0,1.90625 -1.90625,0 z m 6.32812,0 0,-1.90625 1.90625,0 0,1.90625 -1.90625,0 z m 6.32813,0 0,-1.90625 1.92187,0 0,1.90625 -1.92187,0 z m 6,0 0,-1.90625 1.90625,0 0,1.90625 -1.90625,0 z m 6.32812,0 0,-1.90625 1.90625,0 0,1.90625 -1.90625,0 z m 6.32813,0 0,-1.90625 1.92187,0 0,1.90625 -1.92187,0 z"
       id="path251"
       inkscape:connector-curvature="0"
       style="fill:#000000;fill-rule:nonzero" />
    <path
       d="m 168.71788,501.9226 0,-13.59375 1.79687,0 0,11.98437 6.70313,0 0,1.60938 -8.5,0 z m 16.98509,-3.17188 1.71875,0.21875 q -0.40625,1.5 -1.51562,2.34375 -1.09375,0.82813 -2.8125,0.82813 -2.15625,0 -3.42188,-1.32813 -1.26562,-1.32812 -1.26562,-3.73437 0,-2.48438 1.26562,-3.85938 1.28125,-1.375 3.32813,-1.375 1.98437,0 3.23437,1.34375 1.25,1.34375 1.25,3.79688 0,0.14062 -0.0156,0.4375 l -7.34375,0 q 0.0937,1.625 0.92187,2.48437 0.82813,0.85938 2.0625,0.85938 0.90625,0 1.54688,-0.46875 0.65625,-0.48438 1.04687,-1.54688 z m -5.48437,-2.70312 5.5,0 q -0.10938,-1.23438 -0.625,-1.85938 -0.79688,-0.96875 -2.07813,-0.96875 -1.14062,0 -1.9375,0.78125 -0.78125,0.76563 -0.85937,2.04688 z m 11.84446,5.875 -3.75,-9.85938 1.76563,0 2.125,5.90625 q 0.34375,0.95313 0.625,1.98438 0.21875,-0.78125 0.625,-1.875 l 2.1875,-6.01563 1.71875,0 -3.73438,9.85938 -1.5625,0 z m 13.34375,-3.17188 1.71875,0.21875 q -0.40625,1.5 -1.51562,2.34375 -1.09375,0.82813 -2.8125,0.82813 -2.15625,0 -3.42188,-1.32813 -1.26562,-1.32812 -1.26562,-3.73437 0,-2.48438 1.26562,-3.85938 1.28125,-1.375 3.32813,-1.375 1.98437,0 3.23437,1.34375 1.25,1.34375 1.25,3.79688 0,0.14062 -0.0156,0.4375 l -7.34375,0 q 0.0937,1.625 0.92187,2.48437 0.82813,0.85938 2.0625,0.85938 0.90625,0 1.54688,-0.46875 0.65625,-0.48438 1.04687,-1.54688 z m -5.48437,-2.70312 5.5,0 q -0.10938,-1.23438 -0.625,-1.85938 -0.79688,-0.96875 -2.07813,-0.96875 -1.14062,0 -1.9375,0.78125 -0.78125,0.76563 -0.85937,2.04688 z m 9.07884,5.875 0,-13.59375 1.67188,0 0,13.59375 -1.67188,0 z"
       id="path253"
       inkscape:connector-curvature="0"
       style="fill:#000000;fill-rule:nonzero" />
    <path
       d="m 172.955,523.9226 0,-13.59372 1.67187,0 0,13.59372 -1.67187,0 z m 12.875,-2.20313 0,-3.71875 -3.70313,0 0,-1.5625 3.70313,0 0,-3.70312 1.57812,0 0,3.70312 3.6875,0 0,1.5625 -3.6875,0 0,3.71875 -1.57812,0 z m 18.39076,2.20313 -1.67187,0 0,-10.64063 q -0.59375,0.57813 -1.57813,1.15625 -0.98437,0.5625 -1.76562,0.85938 l 0,-1.625 q 1.40625,-0.65625 2.45312,-1.59375 1.04688,-0.93747 1.48438,-1.81247 l 1.07812,0 0,13.65622 z"
       id="path255"
       inkscape:connector-curvature="0"
       style="fill:#000000;fill-rule:nonzero" />
    <path
       d="m 275.77246,512.9226 0,-1.90622 1.90625,0 0,1.90622 -1.90625,0 z m 6.32813,0 0,-1.90622 1.90625,0 0,1.90622 -1.90625,0 z m 6.32812,0 0,-1.90622 1.92188,0 0,1.90622 -1.92188,0 z m 6,0 0,-1.90622 1.90625,0 0,1.90622 -1.90625,0 z m 6.32813,0 0,-1.90622 1.90625,0 0,1.90622 -1.90625,0 z m 6.32812,0 0,-1.90622 1.92188,0 0,1.90622 -1.92188,0 z"
       id="path257"
       inkscape:connector-curvature="0"
       style="fill:#000000;fill-rule:nonzero" />
    <path
       d="m 401.8492,498.9851 1.65625,-0.26563 q 0.14062,1 0.76562,1.53125 0.64063,0.51563 1.78125,0.51563 1.15625,0 1.70313,-0.46875 0.5625,-0.46875 0.5625,-1.09375 0,-0.5625 -0.48438,-0.89063 -0.34375,-0.21875 -1.70312,-0.5625 -1.84375,-0.46875 -2.5625,-0.79687 -0.70313,-0.34375 -1.07813,-0.9375 -0.35937,-0.60938 -0.35937,-1.32813 0,-0.65625 0.29687,-1.21875 0.3125,-0.5625 0.82813,-0.9375 0.39062,-0.28125 1.0625,-0.48437 0.67187,-0.20313 1.4375,-0.20313 1.17187,0 2.04687,0.34375 0.875,0.32813 1.28125,0.90625 0.42188,0.5625 0.57813,1.51563 l -1.625,0.21875 q -0.10938,-0.75 -0.65625,-1.17188 -0.53125,-0.4375 -1.5,-0.4375 -1.15625,0 -1.64063,0.39063 -0.48437,0.375 -0.48437,0.875 0,0.32812 0.20312,0.59375 0.20313,0.26562 0.64063,0.4375 0.25,0.0937 1.46875,0.4375 1.76562,0.46875 2.46875,0.76562 0.70312,0.29688 1.09375,0.875 0.40625,0.57813 0.40625,1.4375 0,0.82813 -0.48438,1.57813 -0.48437,0.73437 -1.40625,1.14062 -0.92187,0.39063 -2.07812,0.39063 -1.92188,0 -2.9375,-0.79688 -1,-0.79687 -1.28125,-2.35937 z m 16.75,-0.23438 1.71875,0.21875 q -0.40625,1.5 -1.51563,2.34375 -1.09375,0.82813 -2.8125,0.82813 -2.15625,0 -3.42187,-1.32813 -1.26563,-1.32812 -1.26563,-3.73437 0,-2.48438 1.26563,-3.85938 1.28125,-1.375 3.32812,-1.375 1.98438,0 3.23438,1.34375 1.25,1.34375 1.25,3.79688 0,0.14062 -0.0156,0.4375 l -7.34375,0 q 0.0937,1.625 0.92188,2.48437 0.82812,0.85938 2.0625,0.85938 0.90625,0 1.54687,-0.46875 0.65625,-0.48438 1.04688,-1.54688 z m -5.48438,-2.70312 5.5,0 q -0.10937,-1.23438 -0.625,-1.85938 -0.79687,-0.96875 -2.07812,-0.96875 -1.14063,0 -1.9375,0.78125 -0.78125,0.76563 -0.85938,2.04688 z m 8.81321,6.6875 1.60937,0.25 q 0.10938,0.75 0.57813,1.09375 0.60937,0.45312 1.6875,0.45312 1.17187,0 1.79687,-0.46875 0.625,-0.45312 0.85938,-1.28125 0.125,-0.51562 0.10937,-2.15625 -1.09375,1.29688 -2.71875,1.29688 -2.03125,0 -3.15625,-1.46875 -1.10937,-1.46875 -1.10937,-3.51563 0,-1.40625 0.51562,-2.59375 0.51563,-1.20312 1.48438,-1.84375 0.96875,-0.65625 2.26562,-0.65625 1.75,0 2.875,1.40625 l 0,-1.1875 1.54688,0 0,8.51563 q 0,2.3125 -0.46875,3.26562 -0.46875,0.96875 -1.48438,1.51563 -1.01562,0.5625 -2.5,0.5625 -1.76562,0 -2.85937,-0.79688 -1.07813,-0.79687 -1.03125,-2.39062 z m 1.375,-5.92188 q 0,1.95313 0.76562,2.84375 0.78125,0.89063 1.9375,0.89063 1.14063,0 1.92188,-0.89063 0.78125,-0.89062 0.78125,-2.78125 0,-1.8125 -0.8125,-2.71875 -0.79688,-0.92187 -1.92188,-0.92187 -1.10937,0 -1.89062,0.90625 -0.78125,0.89062 -0.78125,2.67187 z"
       id="path259"
       inkscape:connector-curvature="0"
       style="fill:#000000;fill-rule:nonzero" />
    <path
       d="m 434.16315,511.4539 q -0.875,-1.10938 -1.48438,-2.57813 -0.59375,-1.48437 -0.59375,-3.0625 0,-1.39062 0.4375,-2.67187 0.53125,-1.48438 1.64063,-2.95313 l 0.75,0 q -0.70313,1.21875 -0.9375,1.73438 -0.35938,0.8125 -0.5625,1.6875 -0.25,1.09375 -0.25,2.20312 0,2.82813 1.75,5.64063 l -0.75,0 z m 2.09485,-2.53125 0,-8.59375 1.0625,0 0,8.59375 -1.0625,0 z m 8.45303,-1.39063 0,-2.35937 -2.32812,0 0,-0.98438 2.32812,0 0,-2.32812 1,0 0,2.32812 2.34375,0 0,0.98438 -2.34375,0 0,2.35937 -1,0 z m 12.18741,1.39063 -1.04688,0 0,-6.71875 q -0.39062,0.35937 -1.01562,0.73437 -0.60938,0.35938 -1.09375,0.53125 l 0,-1.01562 q 0.875,-0.42188 1.53125,-1 0.67187,-0.59375 0.95312,-1.15625 l 0.67188,0 0,8.625 z m 3.5108,0 0,-1.20313 1.20313,0 0,1.20313 q 0,0.65625 -0.23438,1.0625 -0.23437,0.42187 -0.73437,0.64062 l -0.29688,-0.45312 q 0.32813,-0.14063 0.48438,-0.4375 0.15625,-0.28125 0.1875,-0.8125 l -0.60938,0 z m 8.9422,-0.9375 0.15625,0.92187 q -0.45312,0.0937 -0.79687,0.0937 -0.57813,0 -0.89063,-0.17187 -0.3125,-0.1875 -0.45312,-0.48438 -0.125,-0.29687 -0.125,-1.25 l 0,-3.57812 -0.76563,0 0,-0.8125 0.76563,0 0,-1.54688 1.04687,-0.625 0,2.17188 1.0625,0 0,0.8125 -1.0625,0 0,3.64062 q 0,0.45313 0.0469,0.57813 0.0625,0.125 0.1875,0.20312 0.125,0.0781 0.35937,0.0781 0.1875,0 0.46875,-0.0312 z m 1.84613,3.46875 -0.75,0 q 1.75,-2.8125 1.75,-5.64063 0,-1.09375 -0.25,-2.1875 -0.20312,-0.875 -0.5625,-1.6875 -0.23437,-0.51562 -0.9375,-1.75 l 0.75,0 q 1.09375,1.46875 1.625,2.95313 0.45313,1.28125 0.45313,2.67187 0,1.57813 -0.60938,3.0625 -0.60937,1.46875 -1.46875,2.57813 z"
       id="path261"
       inkscape:connector-curvature="0"
       style="fill:#000000;fill-rule:nonzero" />
    <path
       d="m 406.54236,515.9226 -8.96875,0 0,-1.5625 8.96875,0 0,1.5625 z m 0,4.125 -8.96875,0 0,-1.54688 8.96875,0 0,1.54688 z m 7.3439,7.65625 0,-17.37497 3.67188,0 0,1.375 -2.01563,0 0,14.60934 2.01563,0 0,1.39063 -3.67188,0 z"
       id="path263"
       inkscape:connector-curvature="0"
       style="fill:#000000;fill-rule:nonzero" />
    <path
       d="m 425.30392,527.70386 0,-4.82813 q -0.39063,0.54688 -1.09375,0.90625 -0.6875,0.35938 -1.48438,0.35938 -1.75,0 -3.01562,-1.39063 -1.26563,-1.40625 -1.26563,-3.84375 0,-1.48437 0.51563,-2.65625 0.51562,-1.1875 1.48437,-1.79687 0.98438,-0.60938 2.15625,-0.60938 1.82813,0 2.875,1.54688 l 0,-1.32813 1.5,0 0,13.64063 -1.67187,0 z m -5.14063,-8.73438 q 0,1.90625 0.79688,2.85938 0.79687,0.9375 1.90625,0.9375 1.0625,0 1.82812,-0.89063 0.78125,-0.90625 0.78125,-2.76562 0,-1.95313 -0.8125,-2.95313 -0.8125,-1 -1.90625,-1 -1.09375,0 -1.84375,0.9375 -0.75,0.92188 -0.75,2.875 z"
       id="path265"
       inkscape:connector-curvature="0"
       style="fill:#0000ff;fill-rule:nonzero" />
    <path
       d="m 428.94528,523.5476 0,-1.21875 1.0625,0 0,1.21875 -1.0625,0 z m 0,7.375 0,-6.21875 1.0625,0 0,6.21875 -1.0625,0 z"
       id="path267"
       inkscape:connector-curvature="0"
       style="fill:#0000ff;fill-rule:nonzero" />
    <path
       d="m 432.59906,523.9226 0,-1.90625 1.90625,0 0,1.90625 q 0,1.04687 -0.375,1.6875 -0.375,0.65625 -1.17188,1 l -0.46875,-0.71875 q 0.53125,-0.21875 0.78125,-0.67188 0.25,-0.45312 0.28125,-1.29687 l -0.95312,0 z"
       id="path269"
       inkscape:connector-curvature="0"
       style="fill:#000000;fill-rule:nonzero" />
    <path
       d="m 447.0816,527.70386 0,-4.82813 q -0.39063,0.54688 -1.09375,0.90625 -0.6875,0.35938 -1.48438,0.35938 -1.75,0 -3.01562,-1.39063 -1.26563,-1.40625 -1.26563,-3.84375 0,-1.48437 0.51563,-2.65625 0.51562,-1.1875 1.48437,-1.79687 0.98438,-0.60938 2.15625,-0.60938 1.82813,0 2.875,1.54688 l 0,-1.32813 1.5,0 0,13.64063 -1.67187,0 z m -5.14063,-8.73438 q 0,1.90625 0.79688,2.85938 0.79687,0.9375 1.90625,0.9375 1.0625,0 1.82812,-0.89063 0.78125,-0.90625 0.78125,-2.76562 0,-1.95313 -0.8125,-2.95313 -0.8125,-1 -1.90625,-1 -1.09375,0 -1.84375,0.9375 -0.75,0.92188 -0.75,2.875 z"
       id="path271"
       inkscape:connector-curvature="0"
       style="fill:#0000ff;fill-rule:nonzero" />
    <path
       d="m 450.72293,523.5476 0,-1.21875 1.0625,0 0,1.21875 -1.0625,0 z m 0,7.375 0,-6.21875 1.0625,0 0,6.21875 -1.0625,0 z"
       id="path273"
       inkscape:connector-curvature="0"
       style="fill:#0000ff;fill-rule:nonzero" />
    <path
       d="m 454.37674,523.9226 0,-1.90625 1.90625,0 0,1.90625 q 0,1.04687 -0.375,1.6875 -0.375,0.65625 -1.17188,1 l -0.46875,-0.71875 q 0.53125,-0.21875 0.78125,-0.67188 0.25,-0.45312 0.28125,-1.29687 l -0.95312,0 z m 15.75723,0 -1.67187,0 0,-10.64063 q -0.59375,0.57813 -1.57813,1.15625 -0.98437,0.5625 -1.76562,0.85938 l 0,-1.625 q 1.40625,-0.65625 2.45312,-1.59375 1.04688,-0.93747 1.48438,-1.81247 l 1.07812,0 0,13.65622 z m 7.34449,3.78125 -3.6875,0 0,-1.39063 2.01562,0 0,-14.60934 -2.01562,0 0,-1.375 3.6875,0 0,17.37497 z"
       id="path275"
       inkscape:connector-curvature="0"
       style="fill:#000000;fill-rule:nonzero" />
    <path
       d="m 542.7616,498.9851 1.65625,-0.26563 q 0.14063,1 0.76563,1.53125 0.64062,0.51563 1.78125,0.51563 1.15625,0 1.70312,-0.46875 0.5625,-0.46875 0.5625,-1.09375 0,-0.5625 -0.48437,-0.89063 -0.34375,-0.21875 -1.70313,-0.5625 -1.84375,-0.46875 -2.5625,-0.79687 -0.70312,-0.34375 -1.07812,-0.9375 -0.35938,-0.60938 -0.35938,-1.32813 0,-0.65625 0.29688,-1.21875 0.3125,-0.5625 0.82812,-0.9375 0.39063,-0.28125 1.0625,-0.48437 0.67188,-0.20313 1.4375,-0.20313 1.17188,0 2.04688,0.34375 0.875,0.32813 1.28125,0.90625 0.42187,0.5625 0.57812,1.51563 l -1.625,0.21875 q -0.10937,-0.75 -0.65625,-1.17188 -0.53125,-0.4375 -1.5,-0.4375 -1.15625,0 -1.64062,0.39063 -0.48438,0.375 -0.48438,0.875 0,0.32812 0.20313,0.59375 0.20312,0.26562 0.64062,0.4375 0.25,0.0937 1.46875,0.4375 1.76563,0.46875 2.46875,0.76562 0.70313,0.29688 1.09375,0.875 0.40625,0.57813 0.40625,1.4375 0,0.82813 -0.48437,1.57813 -0.48438,0.73437 -1.40625,1.14062 -0.92188,0.39063 -2.07813,0.39063 -1.92187,0 -2.9375,-0.79688 -1,-0.79687 -1.28125,-2.35937 z m 16.75,-0.23438 1.71875,0.21875 q -0.40625,1.5 -1.51562,2.34375 -1.09375,0.82813 -2.8125,0.82813 -2.15625,0 -3.42188,-1.32813 -1.26562,-1.32812 -1.26562,-3.73437 0,-2.48438 1.26562,-3.85938 1.28125,-1.375 3.32813,-1.375 1.98437,0 3.23437,1.34375 1.25,1.34375 1.25,3.79688 0,0.14062 -0.0156,0.4375 l -7.34375,0 q 0.0937,1.625 0.92187,2.48437 0.82813,0.85938 2.0625,0.85938 0.90625,0 1.54688,-0.46875 0.65625,-0.48438 1.04687,-1.54688 z m -5.48437,-2.70312 5.5,0 q -0.10938,-1.23438 -0.625,-1.85938 -0.79688,-0.96875 -2.07813,-0.96875 -1.14062,0 -1.9375,0.78125 -0.78125,0.76563 -0.85937,2.04688 z m 8.81323,6.6875 1.60937,0.25 q 0.10938,0.75 0.57813,1.09375 0.60937,0.45312 1.6875,0.45312 1.17187,0 1.79687,-0.46875 0.625,-0.45312 0.85938,-1.28125 0.125,-0.51562 0.10937,-2.15625 -1.09375,1.29688 -2.71875,1.29688 -2.03125,0 -3.15625,-1.46875 -1.10937,-1.46875 -1.10937,-3.51563 0,-1.40625 0.51562,-2.59375 0.51563,-1.20312 1.48438,-1.84375 0.96875,-0.65625 2.26562,-0.65625 1.75,0 2.875,1.40625 l 0,-1.1875 1.54688,0 0,8.51563 q 0,2.3125 -0.46875,3.26562 -0.46875,0.96875 -1.48438,1.51563 -1.01562,0.5625 -2.5,0.5625 -1.76562,0 -2.85937,-0.79688 -1.07813,-0.79687 -1.03125,-2.39062 z m 1.375,-5.92188 q 0,1.95313 0.76562,2.84375 0.78125,0.89063 1.9375,0.89063 1.14063,0 1.92188,-0.89063 0.78125,-0.89062 0.78125,-2.78125 0,-1.8125 -0.8125,-2.71875 -0.79688,-0.92187 -1.92188,-0.92187 -1.10937,0 -1.89062,0.90625 -0.78125,0.89062 -0.78125,2.67187 z"
       id="path277"
       inkscape:connector-curvature="0"
       style="fill:#000000;fill-rule:nonzero" />
    <path
       d="m 575.07556,511.4539 q -0.875,-1.10938 -1.48438,-2.57813 -0.59375,-1.48437 -0.59375,-3.0625 0,-1.39062 0.4375,-2.67187 0.53125,-1.48438 1.64063,-2.95313 l 0.75,0 q -0.70313,1.21875 -0.9375,1.73438 -0.35938,0.8125 -0.5625,1.6875 -0.25,1.09375 -0.25,2.20312 0,2.82813 1.75,5.64063 l -0.75,0 z m 2.09485,-2.53125 0,-8.59375 1.0625,0 0,8.59375 -1.0625,0 z m 8.453,-1.39063 0,-2.35937 -2.32812,0 0,-0.98438 2.32812,0 0,-2.32812 1,0 0,2.32812 2.34375,0 0,0.98438 -2.34375,0 0,2.35937 -1,0 z m 12.18744,1.39063 -1.04687,0 0,-6.71875 q -0.39063,0.35937 -1.01563,0.73437 -0.60937,0.35938 -1.09375,0.53125 l 0,-1.01562 q 0.875,-0.42188 1.53125,-1 0.67188,-0.59375 0.95313,-1.15625 l 0.67187,0 0,8.625 z m 3.5108,0 0,-1.20313 1.20313,0 0,1.20313 q 0,0.65625 -0.23438,1.0625 -0.23437,0.42187 -0.73437,0.64062 l -0.29688,-0.45312 q 0.32813,-0.14063 0.48438,-0.4375 0.15625,-0.28125 0.1875,-0.8125 l -0.60938,0 z m 8.9422,-0.9375 0.15625,0.92187 q -0.45312,0.0937 -0.79687,0.0937 -0.57813,0 -0.89063,-0.17187 -0.3125,-0.1875 -0.45312,-0.48438 -0.125,-0.29687 -0.125,-1.25 l 0,-3.57812 -0.76563,0 0,-0.8125 0.76563,0 0,-1.54688 1.04687,-0.625 0,2.17188 1.0625,0 0,0.8125 -1.0625,0 0,3.64062 q 0,0.45313 0.0469,0.57813 0.0625,0.125 0.1875,0.20312 0.125,0.0781 0.35937,0.0781 0.1875,0 0.46875,-0.0312 z m 6.8172,-0.45313 0,-2.35937 -2.32812,0 0,-0.98438 2.32812,0 0,-2.32812 1,0 0,2.32812 2.34375,0 0,0.98438 -2.34375,0 0,2.35937 -1,0 z m 12.18744,1.39063 -1.04687,0 0,-6.71875 q -0.39063,0.35937 -1.01563,0.73437 -0.60937,0.35938 -1.09375,0.53125 l 0,-1.01562 q 0.875,-0.42188 1.53125,-1 0.67188,-0.59375 0.95313,-1.15625 l 0.67187,0 0,8.625 z m 3.93268,2.53125 -0.75,0 q 1.75,-2.8125 1.75,-5.64063 0,-1.09375 -0.25,-2.1875 -0.20312,-0.875 -0.5625,-1.6875 -0.23437,-0.51562 -0.9375,-1.75 l 0.75,0 q 1.09375,1.46875 1.625,2.95313 0.45313,1.28125 0.45313,2.67187 0,1.57813 -0.60938,3.0625 -0.60937,1.46875 -1.46875,2.57813 z"
       id="path279"
       inkscape:connector-curvature="0"
       style="fill:#000000;fill-rule:nonzero" />
    <path
       d="m 536.9092,515.9226 -8.96875,0 0,-1.5625 8.96875,0 0,1.5625 z m 0,4.125 -8.96875,0 0,-1.54688 8.96875,0 0,1.54688 z m 7.34387,7.65625 0,-17.37497 3.67188,0 0,1.375 -2.01563,0 0,14.60934 2.01563,0 0,1.39063 -3.67188,0 z"
       id="path281"
       inkscape:connector-curvature="0"
       style="fill:#000000;fill-rule:nonzero" />
    <path
       d="m 555.6707,527.70386 0,-4.82813 q -0.39063,0.54688 -1.09375,0.90625 -0.6875,0.35938 -1.48438,0.35938 -1.75,0 -3.01562,-1.39063 -1.26563,-1.40625 -1.26563,-3.84375 0,-1.48437 0.51563,-2.65625 0.51562,-1.1875 1.48437,-1.79687 0.98438,-0.60938 2.15625,-0.60938 1.82813,0 2.875,1.54688 l 0,-1.32813 1.5,0 0,13.64063 -1.67187,0 z m -5.14063,-8.73438 q 0,1.90625 0.79688,2.85938 0.79687,0.9375 1.90625,0.9375 1.0625,0 1.82812,-0.89063 0.78125,-0.90625 0.78125,-2.76562 0,-1.95313 -0.8125,-2.95313 -0.8125,-1 -1.90625,-1 -1.09375,0 -1.84375,0.9375 -0.75,0.92188 -0.75,2.875 z"
       id="path283"
       inkscape:connector-curvature="0"
       style="fill:#ff0000;fill-rule:nonzero" />
    <path
       d="m 559.3121,523.5476 0,-1.21875 1.0625,0 0,1.21875 -1.0625,0 z m 0,7.375 0,-6.21875 1.0625,0 0,6.21875 -1.0625,0 z m 8.42181,-1.39063 0,-2.35937 -2.32812,0 0,-0.98438 2.32812,0 0,-2.32812 1,0 0,2.32812 2.34375,0 0,0.98438 -2.34375,0 0,2.35937 -1,0 z m 12.18738,1.39063 -1.04687,0 0,-6.71875 q -0.39063,0.35937 -1.01563,0.73437 -0.60937,0.35938 -1.09375,0.53125 l 0,-1.01562 q 0.875,-0.42188 1.53125,-1 0.67188,-0.59375 0.95313,-1.15625 l 0.67187,0 0,8.625 z"
       id="path285"
       inkscape:connector-curvature="0"
       style="fill:#ff0000;fill-rule:nonzero" />
    <path
       d="m 584.05707,523.9226 0,-1.90625 1.90625,0 0,1.90625 q 0,1.04687 -0.375,1.6875 -0.375,0.65625 -1.17188,1 l -0.46875,-0.71875 q 0.53125,-0.21875 0.78125,-0.67188 0.25,-0.45312 0.28125,-1.29687 l -0.95312,0 z"
       id="path287"
       inkscape:connector-curvature="0"
       style="fill:#000000;fill-rule:nonzero" />
    <path
       d="m 598.5396,527.70386 0,-4.82813 q -0.39063,0.54688 -1.09375,0.90625 -0.6875,0.35938 -1.48438,0.35938 -1.75,0 -3.01562,-1.39063 -1.26563,-1.40625 -1.26563,-3.84375 0,-1.48437 0.51563,-2.65625 0.51562,-1.1875 1.48437,-1.79687 0.98438,-0.60938 2.15625,-0.60938 1.82813,0 2.875,1.54688 l 0,-1.32813 1.5,0 0,13.64063 -1.67187,0 z m -5.14063,-8.73438 q 0,1.90625 0.79688,2.85938 0.79687,0.9375 1.90625,0.9375 1.0625,0 1.82812,-0.89063 0.78125,-0.90625 0.78125,-2.76562 0,-1.95313 -0.8125,-2.95313 -0.8125,-1 -1.90625,-1 -1.09375,0 -1.84375,0.9375 -0.75,0.92188 -0.75,2.875 z"
       id="path289"
       inkscape:connector-curvature="0"
       style="fill:#ff0000;fill-rule:nonzero" />
    <path
       d="m 602.18097,523.5476 0,-1.21875 1.0625,0 0,1.21875 -1.0625,0 z m 0,7.375 0,-6.21875 1.0625,0 0,6.21875 -1.0625,0 z m 8.42175,-1.39063 0,-2.35937 -2.32812,0 0,-0.98438 2.32812,0 0,-2.32812 1,0 0,2.32812 2.34375,0 0,0.98438 -2.34375,0 0,2.35937 -1,0 z m 12.18744,1.39063 -1.04687,0 0,-6.71875 q -0.39063,0.35937 -1.01563,0.73437 -0.60937,0.35938 -1.09375,0.53125 l 0,-1.01562 q 0.875,-0.42188 1.53125,-1 0.67188,-0.59375 0.95313,-1.15625 l 0.67187,0 0,8.625 z"
       id="path291"
       inkscape:connector-curvature="0"
       style="fill:#ff0000;fill-rule:nonzero" />
    <path
       d="m 626.92596,523.9226 0,-1.90625 1.90625,0 0,1.90625 q 0,1.04687 -0.375,1.6875 -0.375,0.65625 -1.17187,1 l -0.46875,-0.71875 q 0.53125,-0.21875 0.78125,-0.67188 0.25,-0.45312 0.28125,-1.29687 l -0.95313,0 z m 15.7572,0 -1.67187,0 0,-10.64063 q -0.59375,0.57813 -1.57813,1.15625 -0.98437,0.5625 -1.76562,0.85938 l 0,-1.625 q 1.40625,-0.65625 2.45312,-1.59375 1.04688,-0.93747 1.48438,-1.81247 l 1.07812,0 0,13.65622 z m 7.34448,3.78125 -3.6875,0 0,-1.39063 2.01563,0 0,-14.60934 -2.01563,0 0,-1.375 3.6875,0 0,17.37497 z"
       id="path293"
       inkscape:connector-curvature="0"
       style="fill:#000000;fill-rule:nonzero" />
    <path
       d="m 717.60187,512.9226 0,-1.90622 1.90625,0 0,1.90622 -1.90625,0 z m 6.32812,0 0,-1.90622 1.90625,0 0,1.90622 -1.90625,0 z m 6.32813,0 0,-1.90622 1.92187,0 0,1.90622 -1.92187,0 z m 6,0 0,-1.90622 1.90625,0 0,1.90622 -1.90625,0 z m 6.32812,0 0,-1.90622 1.90625,0 0,1.90622 -1.90625,0 z m 6.32813,0 0,-1.90622 1.92187,0 0,1.90622 -1.92187,0 z"
       id="path295"
       inkscape:connector-curvature="0"
       style="fill:#000000;fill-rule:nonzero" />
    <path
       d="m 360.64566,292.7953 302.20474,0"
       id="path297"
       inkscape:connector-curvature="0"
       style="fill:#000000;fill-opacity:0;fill-rule:nonzero" />
    <path
       d="m 372.64566,292.7953 278.20474,0"
       id="path299"
       inkscape:connector-curvature="0"
       style="stroke:#ff9900;stroke-width:2;stroke-linecap:butt;stroke-linejoin:round" />
    <path
       d="m 372.64566,289.49182 -9.07617,3.30347 9.07617,3.30346 z"
       id="path301"
       inkscape:connector-curvature="0"
       style="fill:#ff9900;fill-rule:evenodd;stroke:#ff9900;stroke-width:2;stroke-linecap:butt" />
    <path
       d="m 650.8504,296.09875 9.07617,-3.30347 -9.07617,-3.30346 z"
       id="path303"
       inkscape:connector-curvature="0"
       style="fill:#ff9900;fill-rule:evenodd;stroke:#ff9900;stroke-width:2;stroke-linecap:butt" />
    <path
       d="m 474.59448,270.3071 83.52759,0 0,22.48819 -83.52759,0 z"
       id="path305"
       inkscape:connector-curvature="0"
       style="fill:#000000;fill-opacity:0;fill-rule:nonzero" />
    <path
       d="m 489.31024,288.4712 0,-13.59375 1.67188,0 0,13.59375 -1.67188,0 z m 10.92609,-3.17188 1.71875,0.21875 q -0.40625,1.5 -1.51563,2.34375 -1.09375,0.82813 -2.8125,0.82813 -2.15625,0 -3.42187,-1.32813 -1.26563,-1.32812 -1.26563,-3.73437 0,-2.48438 1.26563,-3.85938 1.28125,-1.375 3.32812,-1.375 1.98438,0 3.23438,1.34375 1.25,1.34375 1.25,3.79688 0,0.14062 -0.0156,0.4375 l -7.34375,0 q 0.0937,1.625 0.92188,2.48437 0.82812,0.85938 2.0625,0.85938 0.90625,0 1.54687,-0.46875 0.65625,-0.48438 1.04688,-1.54688 z m -5.48438,-2.70312 5.5,0 q -0.10937,-1.23438 -0.625,-1.85938 -0.79687,-0.96875 -2.07812,-0.96875 -1.14063,0 -1.9375,0.78125 -0.78125,0.76563 -0.85938,2.04688 z m 9.11008,5.875 0,-9.85938 1.5,0 0,1.40625 q 1.09375,-1.625 3.14062,-1.625 0.89063,0 1.64063,0.32813 0.75,0.3125 1.10937,0.84375 0.375,0.51562 0.53125,1.21875 0.0937,0.46875 0.0937,1.625 l 0,6.0625 -1.67187,0 0,-6 q 0,-1.01563 -0.20313,-1.51563 -0.1875,-0.51562 -0.6875,-0.8125 -0.5,-0.29687 -1.17187,-0.29687 -1.0625,0 -1.84375,0.67187 -0.76563,0.67188 -0.76563,2.57813 l 0,5.375 -1.67187,0 z m 24.3403,-8 -8.96875,0 0,-1.5625 8.96875,0 0,1.5625 z m 0,4.125 -8.96875,0 0,-1.54688 8.96875,0 0,1.54688 z m 15.6095,2.26562 0,1.60938 -8.98438,0 q -0.0156,-0.60938 0.1875,-1.15625 0.34375,-0.92188 1.09375,-1.8125 0.76563,-0.89063 2.1875,-2.0625 2.21875,-1.8125 3,-2.875 0.78125,-1.0625 0.78125,-2.01563 0,-0.98437 -0.71875,-1.67187 -0.70312,-0.6875 -1.84375,-0.6875 -1.20312,0 -1.9375,0.73437 -0.71875,0.71875 -0.71875,2 l -1.71875,-0.17187 q 0.17188,-1.92188 1.32813,-2.92188 1.15625,-1.01562 3.09375,-1.01562 1.95312,0 3.09375,1.09375 1.14062,1.07812 1.14062,2.6875 0,0.8125 -0.34375,1.60937 -0.32812,0.78125 -1.10937,1.65625 -0.76563,0.85938 -2.5625,2.39063 -1.5,1.26562 -1.9375,1.71875 -0.42188,0.4375 -0.70313,0.89062 l 6.67188,0 z"
       id="path307"
       inkscape:connector-curvature="0"
       style="fill:#000000;fill-rule:nonzero" />
    <path
       d="M 555.50134,137.50131 440.00525,207.01312"
       id="path309"
       inkscape:connector-curvature="0"
       style="fill:#000000;fill-opacity:0;fill-rule:nonzero" />
    <path
       d="m 555.50134,137.50131 -105.2146,63.32384"
       id="path311"
       inkscape:connector-curvature="0"
       style="stroke:#ff0000;stroke-width:2;stroke-linecap:butt;stroke-linejoin:round" />
    <path
       d="m 448.58325,197.99478 -6.07291,7.51064 9.47989,-1.84987 z"
       id="path313"
       inkscape:connector-curvature="0"
       style="fill:#ff0000;fill-rule:evenodd;stroke:#ff0000;stroke-width:2;stroke-linecap:butt" />
    <path
       d="m 479.76904,407.0761 -40.28348,69.44882"
       id="path315"
       inkscape:connector-curvature="0"
       style="fill:#000000;fill-opacity:0;fill-rule:nonzero" />
    <path
       d="m 479.76904,407.0761 -34.26251,59.06866"
       id="path317"
       inkscape:connector-curvature="0"
       style="stroke:#0000ff;stroke-width:2;stroke-linecap:butt;stroke-linejoin:round" />
    <path
       d="m 442.649,464.48727 -1.69641,9.50851 7.4115,-6.19351 z"
       id="path319"
       inkscape:connector-curvature="0"
       style="fill:#0000ff;fill-rule:evenodd;stroke:#0000ff;stroke-width:2;stroke-linecap:butt" />
    <path
       d="m 544,407.5013 45.98425,69.98425"
       id="path321"
       inkscape:connector-curvature="0"
       style="fill:#000000;fill-opacity:0;fill-rule:nonzero" />
    <path
       d="m 544,407.5013 39.39465,59.95541"
       id="path323"
       inkscape:connector-curvature="0"
       style="stroke:#ff0000;stroke-width:2;stroke-linecap:butt;stroke-linejoin:round" />
    <path
       d="m 580.63385,469.27078 7.74487,5.77127 -2.22326,-9.39935 z"
       id="path325"
       inkscape:connector-curvature="0"
       style="fill:#ff0000;fill-rule:evenodd;stroke:#ff0000;stroke-width:2;stroke-linecap:butt" />
  </g>
</svg>
