<?xml version="1.0" encoding="UTF-8" standalone="no"?>
<svg
   xmlns:dc="http://purl.org/dc/elements/1.1/"
   xmlns:cc="http://creativecommons.org/ns#"
   xmlns:rdf="http://www.w3.org/1999/02/22-rdf-syntax-ns#"
   xmlns:svg="http://www.w3.org/2000/svg"
   xmlns="http://www.w3.org/2000/svg"
   xmlns:sodipodi="http://sodipodi.sourceforge.net/DTD/sodipodi-0.dtd"
   xmlns:inkscape="http://www.inkscape.org/namespaces/inkscape"
   version="1.1"
   viewBox="0 0 576.62488 267.72656"
   stroke-miterlimit="10"
   id="svg2"
   inkscape:version="0.48.4 r9939"
   width="100%"
   height="100%"
   sodipodi:docname="rule_1.svg"
   style="fill:none;stroke:none">
  <metadata
     id="metadata137">
    <rdf:RDF>
      <cc:Work
         rdf:about="">
        <dc:format>image/svg+xml</dc:format>
        <dc:type
           rdf:resource="http://purl.org/dc/dcmitype/StillImage" />
      </cc:Work>
    </rdf:RDF>
  </metadata>
  <defs
     id="defs135">
    <clipPath
       clipPathUnits="userSpaceOnUse"
       id="clipPath3116">
      <rect
         style="fill:none;stroke:#000000;stroke-width:0.98528409;stroke-opacity:1"
         id="rect3118"
         width="576.62488"
         height="267.72656"
         x="212.78926"
         y="140.71298" />
    </clipPath>
  </defs>
  <sodipodi:namedview
     pagecolor="#ffffff"
     bordercolor="#666666"
     borderopacity="1"
     objecttolerance="10"
     gridtolerance="10"
     guidetolerance="10"
     inkscape:pageopacity="0"
     inkscape:pageshadow="2"
     inkscape:window-width="1280"
     inkscape:window-height="744"
     id="namedview133"
     showgrid="false"
     fit-margin-top="0"
     fit-margin-left="0"
     fit-margin-right="0"
     fit-margin-bottom="0"
     inkscape:zoom="0.87407407"
     inkscape:cx="267.21074"
     inkscape:cy="138.43954"
     inkscape:window-x="-4"
     inkscape:window-y="-4"
     inkscape:window-maximized="1"
     inkscape:current-layer="svg2" />
  <clipPath
     id="g2c038f3ed_00.0">
    <path
       d="M 0,0 960,0 960,540 0,540 0,0 z"
       clip-rule="nonzero"
       id="path5"
       inkscape:connector-curvature="0" />
  </clipPath>
  <g
     clip-path="url(#clipPath3116)"
     id="g7"
     transform="translate(-212.78926,-140.71298)">
    <path
       d="m 0,0 960,0 0,540 -960,0 z"
       id="path9"
       inkscape:connector-curvature="0"
       style="fill:#ffffff;fill-rule:nonzero" />
    <path
       d="m 214.00394,168.91602 0,104.79263"
       id="path11"
       inkscape:connector-curvature="0"
       style="stroke:#000000;stroke-width:1;stroke-linecap:butt" />
    <path
       d="m 214.00394,342.87927 0,64.19421"
       id="path13"
       inkscape:connector-curvature="0"
       style="stroke:#000000;stroke-width:1;stroke-linecap:butt" />
    <path
       d="m 309.66534,168.91602 0,104.79263"
       id="path15"
       inkscape:connector-curvature="0"
       style="stroke:#000000;stroke-width:4;stroke-linecap:butt" />
    <path
       d="m 309.66534,342.87927 0,64.19421"
       id="path17"
       inkscape:connector-curvature="0"
       style="stroke:#000000;stroke-width:4;stroke-linecap:butt" />
    <path
       d="m 371.32678,168.91602 0,42.59317"
       id="path19"
       inkscape:connector-curvature="0"
       style="stroke:#000000;stroke-width:1;stroke-linecap:butt" />
    <path
       d="m 449.4895,168.91602 0,104.79263"
       id="path21"
       inkscape:connector-curvature="0"
       style="stroke:#ff00ff;stroke-width:4;stroke-linecap:butt" />
    <path
       d="m 449.4895,273.70865 0,69.17062"
       id="path23"
       inkscape:connector-curvature="0"
       style="stroke:#ff00ff;stroke-width:4;stroke-linecap:butt;stroke-dasharray:16, 12" />
    <path
       d="m 449.4895,342.87927 0,64.19421"
       id="path25"
       inkscape:connector-curvature="0"
       style="stroke:#ff00ff;stroke-width:4;stroke-linecap:butt" />
    <path
       d="m 647.6496,168.91602 0,104.79263"
       id="path27"
       inkscape:connector-curvature="0"
       style="stroke:#ff00ff;stroke-width:4;stroke-linecap:butt" />
    <path
       d="m 647.6496,273.70865 0,69.17062"
       id="path29"
       inkscape:connector-curvature="0"
       style="stroke:#ff00ff;stroke-width:4;stroke-linecap:butt;stroke-dasharray:16, 12" />
    <path
       d="m 647.6496,342.87927 0,64.19421"
       id="path31"
       inkscape:connector-curvature="0"
       style="stroke:#ff00ff;stroke-width:4;stroke-linecap:butt" />
    <path
       d="m 726.31104,168.91602 0,42.59317"
       id="path33"
       inkscape:connector-curvature="0"
       style="stroke:#000000;stroke-width:1;stroke-linecap:butt" />
    <path
       d="m 787.9724,168.91602 0,104.79263"
       id="path35"
       inkscape:connector-curvature="0"
       style="stroke:#000000;stroke-width:1;stroke-linecap:butt" />
    <path
       d="m 787.9724,342.87927 0,64.19421"
       id="path37"
       inkscape:connector-curvature="0"
       style="stroke:#000000;stroke-width:1;stroke-linecap:butt" />
    <path
       d="m 213.50525,169.4147 574.9659,0"
       id="path39"
       inkscape:connector-curvature="0"
       style="stroke:#000000;stroke-width:1;stroke-linecap:butt" />
    <path
       d="m 213.50525,211.0105 574.9659,0"
       id="path41"
       inkscape:connector-curvature="0"
       style="stroke:#000000;stroke-width:1;stroke-linecap:butt" />
    <path
       d="m 213.50525,274.20734 574.9659,0"
       id="path43"
       inkscape:connector-curvature="0"
       style="stroke:#000000;stroke-width:1;stroke-linecap:butt" />
    <path
       d="m 213.50525,343.37796 574.9659,0"
       id="path45"
       inkscape:connector-curvature="0"
       style="stroke:#000000;stroke-width:1;stroke-linecap:butt" />
    <path
       d="m 213.50525,406.5748 574.9659,0"
       id="path47"
       inkscape:connector-curvature="0"
       style="stroke:#000000;stroke-width:1;stroke-linecap:butt" />
    <path
       d="m 266.34454,195.67947 q 1.26562,0.85937 2.3125,1.26562 l -0.53125,1.25 q -1.45313,-0.53125 -2.92188,-1.67187 -1.5,0.84375 -3.32812,0.84375 -1.84375,0 -3.35938,-0.89063 -1.5,-0.89062 -2.3125,-2.5 -0.81248,-1.625 -0.81248,-3.64062 0,-2.01563 0.81248,-3.65625 0.82813,-1.65625 2.32813,-2.51563 1.51562,-0.875 3.375,-0.875 1.89062,0 3.39062,0.90625 1.51563,0.89063 2.3125,2.5 0.79688,1.60938 0.79688,3.625 0,1.6875 -0.51563,3.03125 -0.51562,1.32813 -1.54687,2.32813 z m -3.95313,-2.29688 q 1.5625,0.42188 2.5625,1.29688 1.59375,-1.45313 1.59375,-4.35938 0,-1.65625 -0.5625,-2.875 -0.5625,-1.23437 -1.64062,-1.92187 -1.07813,-0.6875 -2.42188,-0.6875 -2.01562,0 -3.34375,1.39062 -1.32812,1.375 -1.32812,4.10938 0,2.65625 1.3125,4.07812 1.3125,1.40625 3.35937,1.40625 0.95313,0 1.8125,-0.35937 -0.84375,-0.54688 -1.78125,-0.78125 l 0.4375,-1.29688 z"
       id="path49"
       inkscape:connector-curvature="0"
       style="fill:#000000;fill-rule:nonzero" />
    <path
       d="m 339.38092,200.91385 0,-4.82813 q -0.39063,0.54688 -1.09375,0.90625 -0.6875,0.35938 -1.48438,0.35938 -1.75,0 -3.01562,-1.39063 -1.26563,-1.40625 -1.26563,-3.84375 0,-1.48437 0.51563,-2.65625 0.51562,-1.1875 1.48437,-1.79687 0.98438,-0.60938 2.15625,-0.60938 1.82813,0 2.875,1.54688 l 0,-1.32813 1.5,0 0,13.64063 -1.67187,0 z m -5.14063,-8.73438 q 0,1.90625 0.79688,2.85938 0.79687,0.9375 1.90625,0.9375 1.0625,0 1.82812,-0.89063 0.78125,-0.90625 0.78125,-2.76562 0,-1.95313 -0.8125,-2.95313 -0.8125,-1 -1.90625,-1 -1.09375,0 -1.84375,0.9375 -0.75,0.92188 -0.75,2.875 z"
       id="path51"
       inkscape:connector-curvature="0"
       style="fill:#000000;fill-rule:nonzero" />
    <path
       d="m 346.69415,204.1326 -1.04688,0 0,-6.71875 q -0.39062,0.35937 -1.01562,0.73437 -0.60938,0.35938 -1.09375,0.53125 l 0,-1.01562 q 0.875,-0.42188 1.53125,-1 0.67187,-0.59375 0.95312,-1.15625 l 0.67188,0 0,8.625 z"
       id="path53"
       inkscape:connector-curvature="0"
       style="fill:#000000;fill-rule:nonzero" />
    <path
       d="m 393.97064,197.1326 0,-1.90625 1.90625,0 0,1.90625 -1.90625,0 z m 6.32812,0 0,-1.90625 1.90625,0 0,1.90625 -1.90625,0 z m 6.32813,0 0,-1.90625 1.92187,0 0,1.90625 -1.92187,0 z m 6,0 0,-1.90625 1.90625,0 0,1.90625 -1.90625,0 z m 6.32812,0 0,-1.90625 1.90625,0 0,1.90625 -1.90625,0 z m 6.32813,0 0,-1.90625 1.92187,0 0,1.90625 -1.92187,0 z"
       id="path55"
       inkscape:connector-curvature="0"
       style="fill:#000000;fill-rule:nonzero" />
    <path
       d="m 549.5314,200.91385 0,-4.82813 q -0.39063,0.54688 -1.09375,0.90625 -0.6875,0.35938 -1.48438,0.35938 -1.75,0 -3.01562,-1.39063 -1.26563,-1.40625 -1.26563,-3.84375 0,-1.48437 0.51563,-2.65625 0.51562,-1.1875 1.48437,-1.79687 0.98438,-0.60938 2.15625,-0.60938 1.82813,0 2.875,1.54688 l 0,-1.32813 1.5,0 0,13.64063 -1.67187,0 z m -5.14063,-8.73438 q 0,1.90625 0.79688,2.85938 0.79687,0.9375 1.90625,0.9375 1.0625,0 1.82812,-0.89063 0.78125,-0.90625 0.78125,-2.76562 0,-1.95313 -0.8125,-2.95313 -0.8125,-1 -1.90625,-1 -1.09375,0 -1.84375,0.9375 -0.75,0.92188 -0.75,2.875 z"
       id="path57"
       inkscape:connector-curvature="0"
       style="fill:#000000;fill-rule:nonzero" />
    <path
       d="m 553.1727,196.7576 0,-1.21875 1.0625,0 0,1.21875 -1.0625,0 z m 0,7.375 0,-6.21875 1.0625,0 0,6.21875 -1.0625,0 z"
       id="path59"
       inkscape:connector-curvature="0"
       style="fill:#000000;fill-rule:nonzero" />
    <path
       d="m 670.5428,197.1326 0,-1.90625 1.90625,0 0,1.90625 -1.90625,0 z m 6.32813,0 0,-1.90625 1.90625,0 0,1.90625 -1.90625,0 z m 6.32818,0 0,-1.90625 1.92188,0 0,1.90625 -1.92188,0 z m 6,0 0,-1.90625 1.90625,0 0,1.90625 -1.90625,0 z m 6.32813,0 0,-1.90625 1.90625,0 0,1.90625 -1.90625,0 z m 6.32812,0 0,-1.90625 1.92188,0 0,1.90625 -1.92188,0 z"
       id="path61"
       inkscape:connector-curvature="0"
       style="fill:#000000;fill-rule:nonzero" />
    <path
       d="m 755.33734,200.91385 0,-4.82813 q -0.39062,0.54688 -1.09375,0.90625 -0.6875,0.35938 -1.48437,0.35938 -1.75,0 -3.01563,-1.39063 -1.26562,-1.40625 -1.26562,-3.84375 0,-1.48437 0.51562,-2.65625 0.51563,-1.1875 1.48438,-1.79687 0.98437,-0.60938 2.15625,-0.60938 1.82812,0 2.875,1.54688 l 0,-1.32813 1.5,0 0,13.64063 -1.67188,0 z m -5.14062,-8.73438 q 0,1.90625 0.79687,2.85938 0.79688,0.9375 1.90625,0.9375 1.0625,0 1.82813,-0.89063 0.78125,-0.90625 0.78125,-2.76562 0,-1.95313 -0.8125,-2.95313 -0.8125,-1 -1.90625,-1 -1.09375,0 -1.84375,0.9375 -0.75,0.92188 -0.75,2.875 z"
       id="path63"
       inkscape:connector-curvature="0"
       style="fill:#000000;fill-rule:nonzero" />
    <path
       d="m 758.2287,204.1326 3.32812,-4.48438 -2.92187,-4.10937 1.34375,0 1.5625,2.20312 q 0.48437,0.6875 0.6875,1.0625 0.29687,-0.46875 0.6875,-0.98437 l 1.71875,-2.28125 1.23437,0 -3.01562,4.04687 3.25,4.54688 -1.40625,0 -2.15625,-3.0625 q -0.1875,-0.26563 -0.375,-0.57813 -0.28125,0.46875 -0.40625,0.64063 l -2.15625,3 -1.375,0 z"
       id="path65"
       inkscape:connector-curvature="0"
       style="fill:#000000;fill-rule:nonzero" />
    <path
       d="m 240.92522,238.52892 0,-13.59375 1.79687,0 0,11.98437 6.70313,0 0,1.60938 -8.5,0 z m 16.98509,-3.17188 1.71875,0.21875 q -0.40625,1.5 -1.51562,2.34375 -1.09375,0.82813 -2.8125,0.82813 -2.15625,0 -3.42188,-1.32813 -1.26562,-1.32812 -1.26562,-3.73437 0,-2.48438 1.26562,-3.85938 1.28125,-1.375 3.32813,-1.375 1.98437,0 3.23437,1.34375 1.25,1.34375 1.25,3.79688 0,0.14062 -0.0156,0.4375 l -7.34375,0 q 0.0937,1.625 0.92187,2.48437 0.82813,0.85938 2.0625,0.85938 0.90625,0 1.54688,-0.46875 0.65625,-0.48438 1.04687,-1.54688 z m -5.48437,-2.70312 5.5,0 q -0.10938,-1.23438 -0.625,-1.85938 -0.79688,-0.96875 -2.07813,-0.96875 -1.14062,0 -1.9375,0.78125 -0.78125,0.76563 -0.85937,2.04688 z m 11.84448,5.875 -3.75,-9.85938 1.76562,0 2.125,5.90625 q 0.34375,0.95313 0.625,1.98438 0.21875,-0.78125 0.625,-1.875 l 2.1875,-6.01563 1.71875,0 -3.73437,9.85938 -1.5625,0 z m 13.34375,-3.17188 1.71875,0.21875 q -0.40625,1.5 -1.51563,2.34375 -1.09375,0.82813 -2.8125,0.82813 -2.15625,0 -3.42187,-1.32813 -1.26563,-1.32812 -1.26563,-3.73437 0,-2.48438 1.26563,-3.85938 1.28125,-1.375 3.32812,-1.375 1.98438,0 3.23438,1.34375 1.25,1.34375 1.25,3.79688 0,0.14062 -0.0156,0.4375 l -7.34375,0 q 0.0937,1.625 0.92188,2.48437 0.82812,0.85938 2.0625,0.85938 0.90625,0 1.54687,-0.46875 0.65625,-0.48438 1.04688,-1.54688 z m -5.48438,-2.70312 5.5,0 q -0.10937,-1.23438 -0.625,-1.85938 -0.79687,-0.96875 -2.07812,-0.96875 -1.14063,0 -1.9375,0.78125 -0.78125,0.76563 -0.85938,2.04688 z m 9.07883,5.875 0,-13.59375 1.67188,0 0,13.59375 -1.67188,0 z"
       id="path67"
       inkscape:connector-curvature="0"
       style="fill:#000000;fill-rule:nonzero" />
    <path
       d="m 260.981,260.52893 0,-13.59375 1.67187,0 0,13.59375 -1.67187,0 z"
       id="path69"
       inkscape:connector-curvature="0"
       style="fill:#000000;fill-rule:nonzero" />
    <path
       d="m 363.13992,249.52893 0,-1.90625 1.90625,0 0,1.90625 -1.90625,0 z m 6.32813,0 0,-1.90625 1.90625,0 0,1.90625 -1.90625,0 z m 6.32812,0 0,-1.90625 1.92188,0 0,1.90625 -1.92188,0 z m 6,0 0,-1.90625 1.90625,0 0,1.90625 -1.90625,0 z m 6.32813,0 0,-1.90625 1.90625,0 0,1.90625 -1.90625,0 z m 6.32812,0 0,-1.90625 1.92188,0 0,1.90625 -1.92188,0 z"
       id="path71"
       inkscape:connector-curvature="0"
       style="fill:#000000;fill-rule:nonzero" />
    <path
       d="m 478.02707,246.59143 1.65625,-0.26563 q 0.14062,1 0.76562,1.53125 0.64063,0.51563 1.78125,0.51563 1.15625,0 1.70313,-0.46875 0.5625,-0.46875 0.5625,-1.09375 0,-0.5625 -0.48438,-0.89063 -0.34375,-0.21875 -1.70312,-0.5625 -1.84375,-0.46875 -2.5625,-0.79687 -0.70313,-0.34375 -1.07813,-0.9375 -0.35937,-0.60938 -0.35937,-1.32813 0,-0.65625 0.29687,-1.21875 0.3125,-0.5625 0.82813,-0.9375 0.39062,-0.28125 1.0625,-0.48437 0.67187,-0.20313 1.4375,-0.20313 1.17187,0 2.04687,0.34375 0.875,0.32813 1.28125,0.90625 0.42188,0.5625 0.57813,1.51563 l -1.625,0.21875 q -0.10938,-0.75 -0.65625,-1.17188 -0.53125,-0.4375 -1.5,-0.4375 -1.15625,0 -1.64063,0.39063 -0.48437,0.375 -0.48437,0.875 0,0.32812 0.20312,0.59375 0.20313,0.26562 0.64063,0.4375 0.25,0.0937 1.46875,0.4375 1.76562,0.46875 2.46875,0.76562 0.70312,0.29688 1.09375,0.875 0.40625,0.57813 0.40625,1.4375 0,0.82813 -0.48438,1.57813 -0.48437,0.73437 -1.40625,1.14062 -0.92187,0.39063 -2.07812,0.39063 -1.92188,0 -2.9375,-0.79688 -1,-0.79687 -1.28125,-2.35937 z m 16.75,-0.23438 1.71875,0.21875 q -0.40625,1.5 -1.51563,2.34375 -1.09375,0.82813 -2.8125,0.82813 -2.15625,0 -3.42187,-1.32813 -1.26563,-1.32812 -1.26563,-3.73437 0,-2.48438 1.26563,-3.85938 1.28125,-1.375 3.32812,-1.375 1.98438,0 3.23438,1.34375 1.25,1.34375 1.25,3.79688 0,0.14062 -0.0156,0.4375 l -7.34375,0 q 0.0937,1.625 0.92188,2.48437 0.82812,0.85938 2.0625,0.85938 0.90625,0 1.54687,-0.46875 0.65625,-0.48438 1.04688,-1.54688 z m -5.48438,-2.70312 5.5,0 q -0.10937,-1.23438 -0.625,-1.85938 -0.79687,-0.96875 -2.07812,-0.96875 -1.14063,0 -1.9375,0.78125 -0.78125,0.76563 -0.85938,2.04688 z m 8.81321,6.6875 1.60937,0.25 q 0.10938,0.75 0.57813,1.09375 0.60937,0.45312 1.6875,0.45312 1.17187,0 1.79687,-0.46875 0.625,-0.45312 0.85938,-1.28125 0.125,-0.51562 0.10937,-2.15625 -1.09375,1.29688 -2.71875,1.29688 -2.03125,0 -3.15625,-1.46875 -1.10937,-1.46875 -1.10937,-3.51563 0,-1.40625 0.51562,-2.59375 0.51563,-1.20312 1.48438,-1.84375 0.96875,-0.65625 2.26562,-0.65625 1.75,0 2.875,1.40625 l 0,-1.1875 1.54688,0 0,8.51563 q 0,2.3125 -0.46875,3.26562 -0.46875,0.96875 -1.48438,1.51563 -1.01562,0.5625 -2.5,0.5625 -1.76562,0 -2.85937,-0.79688 -1.07813,-0.79687 -1.03125,-2.39062 z m 1.375,-5.92188 q 0,1.95313 0.76562,2.84375 0.78125,0.89063 1.9375,0.89063 1.14063,0 1.92188,-0.89063 0.78125,-0.89062 0.78125,-2.78125 0,-1.8125 -0.8125,-2.71875 -0.79688,-0.92187 -1.92188,-0.92187 -1.10937,0 -1.89062,0.90625 -0.78125,0.89062 -0.78125,2.67187 z"
       id="path73"
       inkscape:connector-curvature="0"
       style="fill:#000000;fill-rule:nonzero" />
    <path
       d="m 510.341,259.06018 q -0.875,-1.10938 -1.48438,-2.57813 -0.59375,-1.48437 -0.59375,-3.0625 0,-1.39062 0.4375,-2.67187 0.53125,-1.48438 1.64063,-2.95313 l 0.75,0 q -0.70313,1.21875 -0.9375,1.73438 -0.35938,0.8125 -0.5625,1.6875 -0.25,1.09375 -0.25,2.20312 0,2.82813 1.75,5.64063 l -0.75,0 z m 2.09485,-2.53125 0,-8.59375 1.0625,0 0,8.59375 -1.0625,0 z m 3.06006,0 0,-1.20313 1.20312,0 0,1.20313 q 0,0.65625 -0.23437,1.0625 -0.23438,0.42187 -0.73438,0.64062 l -0.29687,-0.45312 q 0.32812,-0.14063 0.48437,-0.4375 0.15625,-0.28125 0.1875,-0.8125 l -0.60937,0 z m 6.64532,2.39062 0,-8.60937 0.95313,0 0,0.79687 q 0.34375,-0.46875 0.76562,-0.70312 0.4375,-0.23438 1.04688,-0.23438 0.79687,0 1.40625,0.40625 0.60937,0.40625 0.90625,1.15625 0.3125,0.75 0.3125,1.64063 0,0.95312 -0.34375,1.71875 -0.32813,0.76562 -0.98438,1.17187 -0.65625,0.40625 -1.375,0.40625 -0.53125,0 -0.95312,-0.21875 -0.42188,-0.23437 -0.6875,-0.5625 l 0,3.03125 -1.04688,0 z m 0.95313,-5.46875 q 0,1.20313 0.48437,1.78125 0.48438,0.5625 1.17188,0.5625 0.70312,0 1.20312,-0.59375 0.5,-0.59375 0.5,-1.84375 0,-1.1875 -0.48437,-1.76562 -0.48438,-0.59375 -1.17188,-0.59375 -0.67187,0 -1.1875,0.625 -0.51562,0.625 -0.51562,1.82812 z m 6.65142,5.60938 -0.75,0 q 1.75,-2.8125 1.75,-5.64063 0,-1.09375 -0.25,-2.1875 -0.20312,-0.875 -0.5625,-1.6875 -0.23437,-0.51562 -0.9375,-1.75 l 0.75,0 q 1.09375,1.46875 1.625,2.95313 0.45313,1.28125 0.45313,2.67187 0,1.57813 -0.60938,3.0625 -0.60937,1.46875 -1.46875,2.57813 z"
       id="path75"
       inkscape:connector-curvature="0"
       style="fill:#000000;fill-rule:nonzero" />
    <path
       d="m 547.6177,241.52893 -8.96875,0 0,-1.5625 8.96875,0 0,1.5625 z m 0,4.125 -8.96875,0 0,-1.54688 8.96875,0 0,1.54688 z m 7.34387,7.65625 0,-17.375 3.67188,0 0,1.375 -2.01563,0 0,14.60937 2.01563,0 0,1.39063 -3.67188,0 z m 11.41767,0 0,-4.82813 q -0.39063,0.54688 -1.09375,0.90625 -0.6875,0.35938 -1.48438,0.35938 -1.75,0 -3.01562,-1.39063 -1.26563,-1.40625 -1.26563,-3.84375 0,-1.48437 0.51563,-2.65625 0.51562,-1.1875 1.48437,-1.79687 0.98438,-0.60938 2.15625,-0.60938 1.82813,0 2.875,1.54688 l 0,-1.32813 1.5,0 0,13.64063 -1.67187,0 z m -5.14063,-8.73438 q 0,1.90625 0.79688,2.85938 0.79687,0.9375 1.90625,0.9375 1.0625,0 1.82812,-0.89063 0.78125,-0.90625 0.78125,-2.76562 0,-1.95313 -0.8125,-2.95313 -0.8125,-1 -1.90625,-1 -1.09375,0 -1.84375,0.9375 -0.75,0.92188 -0.75,2.875 z"
       id="path77"
       inkscape:connector-curvature="0"
       style="fill:#000000;fill-rule:nonzero" />
    <path
       d="m 570.02057,249.15393 0,-1.21875 1.0625,0 0,1.21875 -1.0625,0 z m 0,7.375 0,-6.21875 1.0625,0 0,6.21875 -1.0625,0 z"
       id="path79"
       inkscape:connector-curvature="0"
       style="fill:#000000;fill-rule:nonzero" />
    <path
       d="m 573.6744,249.52893 0,-1.90625 1.90625,0 0,1.90625 q 0,1.04687 -0.375,1.6875 -0.375,0.65625 -1.17188,1 l -0.46875,-0.71875 q 0.53125,-0.21875 0.78125,-0.67188 0.25,-0.45312 0.28125,-1.29687 l -0.95312,0 z"
       id="path81"
       inkscape:connector-curvature="0"
       style="fill:#000000;fill-rule:nonzero" />
    <path
       d="m 588.1569,253.31018 0,-4.82813 q -0.39063,0.54688 -1.09375,0.90625 -0.6875,0.35938 -1.48438,0.35938 -1.75,0 -3.01562,-1.39063 -1.26563,-1.40625 -1.26563,-3.84375 0,-1.48437 0.51563,-2.65625 0.51562,-1.1875 1.48437,-1.79687 0.98438,-0.60938 2.15625,-0.60938 1.82813,0 2.875,1.54688 l 0,-1.32813 1.5,0 0,13.64063 -1.67187,0 z m -5.14063,-8.73438 q 0,1.90625 0.79688,2.85938 0.79687,0.9375 1.90625,0.9375 1.0625,0 1.82812,-0.89063 0.78125,-0.90625 0.78125,-2.76562 0,-1.95313 -0.8125,-2.95313 -0.8125,-1 -1.90625,-1 -1.09375,0 -1.84375,0.9375 -0.75,0.92188 -0.75,2.875 z"
       id="path83"
       inkscape:connector-curvature="0"
       style="fill:#000000;fill-rule:nonzero" />
    <path
       d="m 591.7982,249.15393 0,-1.21875 1.0625,0 0,1.21875 -1.0625,0 z m 0,7.375 0,-6.21875 1.0625,0 0,6.21875 -1.0625,0 z"
       id="path85"
       inkscape:connector-curvature="0"
       style="fill:#000000;fill-rule:nonzero" />
    <path
       d="m 595.452,249.52893 0,-1.90625 1.90625,0 0,1.90625 q 0,1.04687 -0.375,1.6875 -0.375,0.65625 -1.17188,1 l -0.46875,-0.71875 q 0.53125,-0.21875 0.78125,-0.67188 0.25,-0.45312 0.28125,-1.29687 l -0.95312,0 z m 15.75726,0 -1.67187,0 0,-10.64063 q -0.59375,0.57813 -1.57813,1.15625 -0.98437,0.5625 -1.76562,0.85938 l 0,-1.625 q 1.40625,-0.65625 2.45312,-1.59375 1.04688,-0.9375 1.48438,-1.8125 l 1.07812,0 0,13.65625 z m 7.34442,3.78125 -3.6875,0 0,-1.39063 2.01563,0 0,-14.60937 -2.01563,0 0,-1.375 3.6875,0 0,17.375 z"
       id="path87"
       inkscape:connector-curvature="0"
       style="fill:#000000;fill-rule:nonzero" />
    <path
       d="m 701.37354,249.52893 0,-1.90625 1.90625,0 0,1.90625 -1.90625,0 z m 6.32813,0 0,-1.90625 1.90625,0 0,1.90625 -1.90625,0 z m 6.32812,0 0,-1.90625 1.92188,0 0,1.90625 -1.92188,0 z m 6,0 0,-1.90625 1.90625,0 0,1.90625 -1.90625,0 z m 6.32813,0 0,-1.90625 1.90625,0 0,1.90625 -1.90625,0 z m 6.32812,0 0,-1.90625 1.92188,0 0,1.90625 -1.92188,0 z"
       id="path89"
       inkscape:connector-curvature="0"
       style="fill:#000000;fill-rule:nonzero" />
    <path
       d="m 240.92522,370.89636 0,-13.59375 1.79687,0 0,11.98438 6.70313,0 0,1.60937 -8.5,0 z m 16.98509,-3.17187 1.71875,0.21875 q -0.40625,1.5 -1.51562,2.34375 -1.09375,0.82812 -2.8125,0.82812 -2.15625,0 -3.42188,-1.32812 -1.26562,-1.32813 -1.26562,-3.73438 0,-2.48437 1.26562,-3.85937 1.28125,-1.375 3.32813,-1.375 1.98437,0 3.23437,1.34375 1.25,1.34375 1.25,3.79687 0,0.14063 -0.0156,0.4375 l -7.34375,0 q 0.0937,1.625 0.92187,2.48438 0.82813,0.85937 2.0625,0.85937 0.90625,0 1.54688,-0.46875 0.65625,-0.48437 1.04687,-1.54687 z m -5.48437,-2.70313 5.5,0 q -0.10938,-1.23437 -0.625,-1.85937 -0.79688,-0.96875 -2.07813,-0.96875 -1.14062,0 -1.9375,0.78125 -0.78125,0.76562 -0.85937,2.04687 z m 11.84448,5.875 -3.75,-9.85937 1.76562,0 2.125,5.90625 q 0.34375,0.95312 0.625,1.98437 0.21875,-0.78125 0.625,-1.875 l 2.1875,-6.01562 1.71875,0 -3.73437,9.85937 -1.5625,0 z m 13.34375,-3.17187 1.71875,0.21875 q -0.40625,1.5 -1.51563,2.34375 -1.09375,0.82812 -2.8125,0.82812 -2.15625,0 -3.42187,-1.32812 -1.26563,-1.32813 -1.26563,-3.73438 0,-2.48437 1.26563,-3.85937 1.28125,-1.375 3.32812,-1.375 1.98438,0 3.23438,1.34375 1.25,1.34375 1.25,3.79687 0,0.14063 -0.0156,0.4375 l -7.34375,0 q 0.0937,1.625 0.92188,2.48438 0.82812,0.85937 2.0625,0.85937 0.90625,0 1.54687,-0.46875 0.65625,-0.48437 1.04688,-1.54687 z m -5.48438,-2.70313 5.5,0 q -0.10937,-1.23437 -0.625,-1.85937 -0.79687,-0.96875 -2.07812,-0.96875 -1.14063,0 -1.9375,0.78125 -0.78125,0.76562 -0.85938,2.04687 z m 9.07883,5.875 0,-13.59375 1.67188,0 0,13.59375 -1.67188,0 z"
       id="path91"
       inkscape:connector-curvature="0"
       style="fill:#000000;fill-rule:nonzero" />
    <path
       d="m 245.16234,392.8964 0,-13.59375 1.67187,0 0,13.59375 -1.67187,0 z m 12.87501,-2.20312 0,-3.71875 -3.70314,0 0,-1.5625 3.70314,0 0,-3.70313 1.57813,0 0,3.70313 3.6875,0 0,1.5625 -3.6875,0 0,3.71875 -1.57813,0 z m 18.39075,2.20312 -1.67187,0 0,-10.64062 q -0.59375,0.57812 -1.57813,1.15625 -0.98437,0.5625 -1.76562,0.85937 l 0,-1.625 q 1.40625,-0.65625 2.45312,-1.59375 1.04688,-0.9375 1.48438,-1.8125 l 1.07812,0 0,13.65625 z"
       id="path93"
       inkscape:connector-curvature="0"
       style="fill:#000000;fill-rule:nonzero" />
    <path
       d="m 363.13992,381.8964 0,-1.90625 1.90625,0 0,1.90625 -1.90625,0 z m 6.32813,0 0,-1.90625 1.90625,0 0,1.90625 -1.90625,0 z m 6.32812,0 0,-1.90625 1.92188,0 0,1.90625 -1.92188,0 z m 6,0 0,-1.90625 1.90625,0 0,1.90625 -1.90625,0 z m 6.32813,0 0,-1.90625 1.90625,0 0,1.90625 -1.90625,0 z m 6.32812,0 0,-1.90625 1.92188,0 0,1.90625 -1.92188,0 z"
       id="path95"
       inkscape:connector-curvature="0"
       style="fill:#000000;fill-rule:nonzero" />
    <path
       d="m 469.21225,378.9589 1.65625,-0.26562 q 0.14062,1 0.76562,1.53125 0.64063,0.51562 1.78125,0.51562 1.15625,0 1.70313,-0.46875 0.5625,-0.46875 0.5625,-1.09375 0,-0.5625 -0.48438,-0.89062 -0.34375,-0.21875 -1.70312,-0.5625 -1.84375,-0.46875 -2.5625,-0.79688 -0.70313,-0.34375 -1.07813,-0.9375 -0.35937,-0.60937 -0.35937,-1.32812 0,-0.65625 0.29687,-1.21875 0.3125,-0.5625 0.82813,-0.9375 0.39062,-0.28125 1.0625,-0.48438 0.67187,-0.20312 1.4375,-0.20312 1.17187,0 2.04687,0.34375 0.875,0.32812 1.28125,0.90625 0.42188,0.5625 0.57813,1.51562 l -1.625,0.21875 q -0.10938,-0.75 -0.65625,-1.17187 -0.53125,-0.4375 -1.5,-0.4375 -1.15625,0 -1.64063,0.39062 -0.48437,0.375 -0.48437,0.875 0,0.32813 0.20312,0.59375 0.20313,0.26563 0.64063,0.4375 0.25,0.0937 1.46875,0.4375 1.76562,0.46875 2.46875,0.76563 0.70312,0.29687 1.09375,0.875 0.40625,0.57812 0.40625,1.4375 0,0.82812 -0.48438,1.57812 -0.48437,0.73438 -1.40625,1.14063 -0.92187,0.39062 -2.07812,0.39062 -1.92188,0 -2.9375,-0.79687 -1,-0.79688 -1.28125,-2.35938 z m 16.75,-0.23437 1.71875,0.21875 q -0.40625,1.5 -1.51563,2.34375 -1.09375,0.82812 -2.8125,0.82812 -2.15625,0 -3.42187,-1.32812 -1.26563,-1.32813 -1.26563,-3.73438 0,-2.48437 1.26563,-3.85937 1.28125,-1.375 3.32812,-1.375 1.98438,0 3.23438,1.34375 1.25,1.34375 1.25,3.79687 0,0.14063 -0.0156,0.4375 l -7.34375,0 q 0.0937,1.625 0.92188,2.48438 0.82812,0.85937 2.0625,0.85937 0.90625,0 1.54687,-0.46875 0.65625,-0.48437 1.04688,-1.54687 z m -5.48438,-2.70313 5.5,0 q -0.10937,-1.23437 -0.625,-1.85937 -0.79687,-0.96875 -2.07812,-0.96875 -1.14063,0 -1.9375,0.78125 -0.78125,0.76562 -0.85938,2.04687 z m 8.81321,6.6875 1.60937,0.25 q 0.10938,0.75 0.57813,1.09375 0.60937,0.45313 1.6875,0.45313 1.17187,0 1.79687,-0.46875 0.625,-0.45313 0.85938,-1.28125 0.125,-0.51563 0.10937,-2.15625 -1.09375,1.29687 -2.71875,1.29687 -2.03125,0 -3.15625,-1.46875 -1.10937,-1.46875 -1.10937,-3.51562 0,-1.40625 0.51562,-2.59375 0.51563,-1.20313 1.48438,-1.84375 0.96875,-0.65625 2.26562,-0.65625 1.75,0 2.875,1.40625 l 0,-1.1875 1.54688,0 0,8.51562 q 0,2.3125 -0.46875,3.26563 -0.46875,0.96875 -1.48438,1.51562 -1.01562,0.5625 -2.5,0.5625 -1.76562,0 -2.85937,-0.79687 -1.07813,-0.79688 -1.03125,-2.39063 z m 1.375,-5.92187 q 0,1.95312 0.76562,2.84375 0.78125,0.89062 1.9375,0.89062 1.14063,0 1.92188,-0.89062 0.78125,-0.89063 0.78125,-2.78125 0,-1.8125 -0.8125,-2.71875 -0.79688,-0.92188 -1.92188,-0.92188 -1.10937,0 -1.89062,0.90625 -0.78125,0.89063 -0.78125,2.67188 z"
       id="path97"
       inkscape:connector-curvature="0"
       style="fill:#000000;fill-rule:nonzero" />
    <path
       d="m 501.52618,391.42764 q -0.875,-1.10938 -1.48438,-2.57813 -0.59375,-1.48437 -0.59375,-3.0625 0,-1.39062 0.4375,-2.67187 0.53125,-1.48438 1.64063,-2.95313 l 0.75,0 q -0.70313,1.21875 -0.9375,1.73438 -0.35938,0.8125 -0.5625,1.6875 -0.25,1.09375 -0.25,2.20312 0,2.82813 1.75,5.64063 l -0.75,0 z m 2.09485,-2.53125 0,-8.59375 1.0625,0 0,8.59375 -1.0625,0 z m 8.453,-1.39063 0,-2.35937 -2.32809,0 0,-0.98438 2.32809,0 0,-2.32812 1,0 0,2.32812 2.34375,0 0,0.98438 -2.34375,0 0,2.35937 -1,0 z m 12.18744,1.39063 -1.04687,0 0,-6.71875 q -0.39063,0.35937 -1.01563,0.73437 -0.60937,0.35938 -1.09375,0.53125 l 0,-1.01562 q 0.875,-0.42188 1.53125,-1 0.67188,-0.59375 0.95313,-1.15625 l 0.67187,0 0,8.625 z m 3.5108,0 0,-1.20313 1.20313,0 0,1.20313 q 0,0.65625 -0.23438,1.0625 -0.23437,0.42187 -0.73437,0.64062 l -0.29688,-0.45312 q 0.32813,-0.14063 0.48438,-0.4375 0.15625,-0.28125 0.1875,-0.8125 l -0.60938,0 z m 8.9422,-0.9375 0.15625,0.92187 q -0.45312,0.0937 -0.79687,0.0937 -0.57813,0 -0.89063,-0.17187 -0.3125,-0.1875 -0.45312,-0.48438 -0.125,-0.29687 -0.125,-1.25 l 0,-3.57812 -0.76563,0 0,-0.8125 0.76563,0 0,-1.54688 1.04687,-0.625 0,2.17188 1.0625,0 0,0.8125 -1.0625,0 0,3.64062 q 0,0.45313 0.0469,0.57813 0.0625,0.125 0.1875,0.20312 0.125,0.0781 0.35937,0.0781 0.1875,0 0.46875,-0.0312 z m 1.84613,3.46875 -0.75,0 q 1.75,-2.8125 1.75,-5.64063 0,-1.09375 -0.25,-2.1875 -0.20312,-0.875 -0.5625,-1.6875 -0.23437,-0.51562 -0.9375,-1.75 l 0.75,0 q 1.09375,1.46875 1.625,2.95313 0.45313,1.28125 0.45313,2.67187 0,1.57813 -0.60938,3.0625 -0.60937,1.46875 -1.46875,2.57813 z"
       id="path99"
       inkscape:connector-curvature="0"
       style="fill:#000000;fill-rule:nonzero" />
    <path
       d="m 556.4325,373.8964 -8.96875,0 0,-1.5625 8.96875,0 0,1.5625 z m 0,4.125 -8.96875,0 0,-1.54687 8.96875,0 0,1.54687 z m 7.34387,7.65625 0,-17.375 3.67188,0 0,1.375 -2.01563,0 0,14.60938 2.01563,0 0,1.39062 -3.67188,0 z m 11.41767,0 0,-4.82812 q -0.39063,0.54687 -1.09375,0.90625 -0.6875,0.35937 -1.48438,0.35937 -1.75,0 -3.01562,-1.39062 -1.26563,-1.40625 -1.26563,-3.84375 0,-1.48438 0.51563,-2.65625 0.51562,-1.1875 1.48437,-1.79688 0.98438,-0.60937 2.15625,-0.60937 1.82813,0 2.875,1.54687 l 0,-1.32812 1.5,0 0,13.64062 -1.67187,0 z m -5.14063,-8.73437 q 0,1.90625 0.79688,2.85937 0.79687,0.9375 1.90625,0.9375 1.0625,0 1.82812,-0.89062 0.78125,-0.90625 0.78125,-2.76563 0,-1.95312 -0.8125,-2.95312 -0.8125,-1 -1.90625,-1 -1.09375,0 -1.84375,0.9375 -0.75,0.92187 -0.75,2.875 z"
       id="path101"
       inkscape:connector-curvature="0"
       style="fill:#000000;fill-rule:nonzero" />
    <path
       d="m 578.8354,381.5214 0,-1.21875 1.0625,0 0,1.21875 -1.0625,0 z m 0,7.375 0,-6.21875 1.0625,0 0,6.21875 -1.0625,0 z"
       id="path103"
       inkscape:connector-curvature="0"
       style="fill:#000000;fill-rule:nonzero" />
    <path
       d="m 582.4892,381.8964 0,-1.90625 1.90625,0 0,1.90625 q 0,1.04688 -0.375,1.6875 -0.375,0.65625 -1.17188,1 l -0.46875,-0.71875 q 0.53125,-0.21875 0.78125,-0.67187 0.25,-0.45313 0.28125,-1.29688 l -0.95312,0 z"
       id="path105"
       inkscape:connector-curvature="0"
       style="fill:#000000;fill-rule:nonzero" />
    <path
       d="m 596.97174,385.67764 0,-4.82813 q -0.39063,0.54688 -1.09375,0.90625 -0.6875,0.35938 -1.48438,0.35938 -1.75,0 -3.01562,-1.39063 -1.26563,-1.40625 -1.26563,-3.84375 0,-1.48437 0.51563,-2.65625 0.51562,-1.1875 1.48437,-1.79687 0.98438,-0.60938 2.15625,-0.60938 1.82813,0 2.875,1.54688 l 0,-1.32813 1.5,0 0,13.64063 -1.67187,0 z m -5.14063,-8.73438 q 0,1.90625 0.79688,2.85938 0.79687,0.9375 1.90625,0.9375 1.0625,0 1.82812,-0.89063 0.78125,-0.90625 0.78125,-2.76562 0,-1.95313 -0.8125,-2.95313 -0.8125,-1 -1.90625,-1 -1.09375,0 -1.84375,0.9375 -0.75,0.92188 -0.75,2.875 z"
       id="path107"
       inkscape:connector-curvature="0"
       style="fill:#000000;fill-rule:nonzero" />
    <path
       d="m 600.61304,381.5214 0,-1.21875 1.0625,0 0,1.21875 -1.0625,0 z m 0,7.375 0,-6.21875 1.0625,0 0,6.21875 -1.0625,0 z"
       id="path109"
       inkscape:connector-curvature="0"
       style="fill:#000000;fill-rule:nonzero" />
    <path
       d="m 604.26685,381.8964 0,-1.90625 1.90625,0 0,1.90625 q 0,1.04688 -0.375,1.6875 -0.375,0.65625 -1.17188,1 l -0.46875,-0.71875 q 0.53125,-0.21875 0.78125,-0.67187 0.25,-0.45313 0.28125,-1.29688 l -0.95312,0 z m 15.75726,0 -1.67187,0 0,-10.64062 q -0.59375,0.57812 -1.57813,1.15625 -0.98437,0.5625 -1.76562,0.85937 l 0,-1.625 q 1.40625,-0.65625 2.45312,-1.59375 1.04688,-0.9375 1.48438,-1.8125 l 1.07812,0 0,13.65625 z m 7.34442,3.78125 -3.6875,0 0,-1.39062 2.01563,0 0,-14.60938 -2.01563,0 0,-1.375 3.6875,0 0,17.375 z"
       id="path111"
       inkscape:connector-curvature="0"
       style="fill:#000000;fill-rule:nonzero" />
    <path
       d="m 701.37354,381.8964 0,-1.90625 1.90625,0 0,1.90625 -1.90625,0 z m 6.32813,0 0,-1.90625 1.90625,0 0,1.90625 -1.90625,0 z m 6.32812,0 0,-1.90625 1.92188,0 0,1.90625 -1.92188,0 z m 6,0 0,-1.90625 1.90625,0 0,1.90625 -1.90625,0 z m 6.32813,0 0,-1.90625 1.90625,0 0,1.90625 -1.90625,0 z m 6.32812,0 0,-1.90625 1.92188,0 0,1.90625 -1.92188,0 z"
       id="path113"
       inkscape:connector-curvature="0"
       style="fill:#000000;fill-rule:nonzero" />
    <path
       d="m 448.50262,161.76903 199.4961,0"
       id="path115"
       inkscape:connector-curvature="0"
       style="fill:#000000;fill-opacity:0;fill-rule:nonzero" />
    <path
       d="m 460.50262,161.76903 175.49603,0"
       id="path117"
       inkscape:connector-curvature="0"
       style="stroke:#ff9900;stroke-width:2;stroke-linecap:butt;stroke-linejoin:round" />
    <path
       d="m 460.50262,158.46556 -9.0762,3.30347 9.0762,3.30346 z"
       id="path119"
       inkscape:connector-curvature="0"
       style="fill:#ff9900;fill-rule:evenodd;stroke:#ff9900;stroke-width:2;stroke-linecap:butt" />
    <path
       d="m 635.9987,165.0725 9.07617,-3.30347 -9.07617,-3.30346 z"
       id="path121"
       inkscape:connector-curvature="0"
       style="fill:#ff9900;fill-rule:evenodd;stroke:#ff9900;stroke-width:2;stroke-linecap:butt" />
    <path
       d="m 506.48688,139.28084 83.52753,0 0,22.48819 -83.52753,0 z"
       id="path123"
       inkscape:connector-curvature="0"
       style="fill:#000000;fill-opacity:0;fill-rule:nonzero" />
    <path
       d="m 521.20264,157.44493 0,-13.59375 1.67187,0 0,13.59375 -1.67187,0 z m 10.92609,-3.17188 1.71875,0.21875 q -0.40625,1.5 -1.51563,2.34375 -1.09375,0.82813 -2.8125,0.82813 -2.15625,0 -3.42187,-1.32813 -1.26563,-1.32812 -1.26563,-3.73437 0,-2.48438 1.26563,-3.85938 1.28125,-1.375 3.32812,-1.375 1.98438,0 3.23438,1.34375 1.25,1.34375 1.25,3.79688 0,0.14062 -0.0156,0.4375 l -7.34375,0 q 0.0937,1.625 0.92188,2.48437 0.82812,0.85938 2.0625,0.85938 0.90625,0 1.54687,-0.46875 0.65625,-0.48438 1.04688,-1.54688 z m -5.48438,-2.70312 5.5,0 q -0.10937,-1.23438 -0.625,-1.85938 -0.79687,-0.96875 -2.07812,-0.96875 -1.14063,0 -1.9375,0.78125 -0.78125,0.76563 -0.85938,2.04688 z m 9.11005,5.875 0,-9.85938 1.5,0 0,1.40625 q 1.09375,-1.625 3.14062,-1.625 0.89063,0 1.64063,0.32813 0.75,0.3125 1.10937,0.84375 0.375,0.51562 0.53125,1.21875 0.0937,0.46875 0.0937,1.625 l 0,6.0625 -1.67187,0 0,-6 q 0,-1.01563 -0.20313,-1.51563 -0.1875,-0.51562 -0.6875,-0.8125 -0.5,-0.29687 -1.17187,-0.29687 -1.0625,0 -1.84375,0.67187 -0.76563,0.67188 -0.76563,2.57813 l 0,5.375 -1.67187,0 z m 24.34027,-8 -8.96875,0 0,-1.5625 8.96875,0 0,1.5625 z m 0,4.125 -8.96875,0 0,-1.54688 8.96875,0 0,1.54688 z m 13.12518,3.875 -1.67187,0 0,-10.64063 q -0.59375,0.57813 -1.57813,1.15625 -0.98437,0.5625 -1.76562,0.85938 l 0,-1.625 q 1.40625,-0.65625 2.45312,-1.59375 1.04688,-0.9375 1.48438,-1.8125 l 1.07812,0 0,13.65625 z"
       id="path125"
       inkscape:connector-curvature="0"
       style="fill:#000000;fill-rule:nonzero" />
    <path
       d="m 548.25195,259.61417 0,52.97638"
       id="path127"
       inkscape:connector-curvature="0"
       style="fill:#000000;fill-opacity:0;fill-rule:nonzero" />
    <path
       d="m 548.25195,259.61417 0,40.97638"
       id="path129"
       inkscape:connector-curvature="0"
       style="stroke:#000000;stroke-width:2;stroke-linecap:butt;stroke-linejoin:round" />
    <path
       d="m 544.9485,300.59055 3.30347,9.0762 3.30346,-9.0762 z"
       id="path131"
       inkscape:connector-curvature="0"
       style="fill:#000000;fill-rule:evenodd;stroke:#000000;stroke-width:2;stroke-linecap:butt" />
  </g>
</svg>
